M48
; DRILL file KiCad 10.0.6 date 2026-10-09T14:05:35
; FORMAT={-:-/ absolute / metric / decimal}
; #@! TF.CreationDate,2026-10-09T14:05:35-03:00
; #@! TF.GenerationSoftware,Kicad,Pcbnew,10.0.6
; #@! TF.FileFunction,NonPlated,1,2,NPTH
FMAT,2
METRIC
; #@! TA.AperFunction,NonPlated,NPTH,ComponentDrill
T1C0.650
; #@! TA.AperFunction,NonPlated,NPTH,ComponentDrill
T2C1.700
; #@! TA.AperFunction,NonPlated,NPTH,ComponentDrill
T3C4.000
%
G90
G05
T1
X96.79Y-38.35
X102.57Y-38.35
T2
X107.83Y-90.795
X107.83Y-105.885
X107.83Y-120.975
X117.99Y-90.795
X117.99Y-105.885
X117.99Y-120.975
X122.92Y-90.795
X122.92Y-105.885
X122.92Y-120.975
X133.08Y-90.795
X133.08Y-105.885
X133.08Y-120.975
X138.01Y-90.795
X138.01Y-105.885
X138.01Y-120.975
X148.17Y-90.795
X148.17Y-105.885
X148.17Y-120.975
T3
X60.0Y-133.0
X68.46Y-47.08
X112.91Y-90.795
X112.91Y-105.885
X112.91Y-120.975
X128.0Y-90.795
X128.0Y-105.885
X128.0Y-120.975
X143.09Y-90.795
X143.09Y-105.885
X143.09Y-120.975
X175.46Y-133.08
X175.81Y-44.54
M30
