%TF.GenerationSoftware,KiCad,Pcbnew,10.0.6*%
%TF.CreationDate,2026-10-09T14:05:46-03:00*%
%TF.ProjectId,project 1,70726f6a-6563-4742-9031-2e6b69636164,rev?*%
%TF.SameCoordinates,Original*%
%TF.FileFunction,Soldermask,Top*%
%TF.FilePolarity,Negative*%
%FSLAX46Y46*%
G04 Gerber Fmt 4.6, Leading zero omitted, Abs format (unit mm)*
G04 Created by KiCad (PCBNEW 10.0.6) date 2026-10-09 14:05:46*
%MOMM*%
%LPD*%
G01*
G04 APERTURE LIST*
G04 Aperture macros list*
%AMRoundRect*
0 Rectangle with rounded corners*
0 $1 Rounding radius*
0 $2 $3 $4 $5 $6 $7 $8 $9 X,Y pos of 4 corners*
0 Add a 4 corners polygon primitive as box body*
4,1,4,$2,$3,$4,$5,$6,$7,$8,$9,$2,$3,0*
0 Add four circle primitives for the rounded corners*
1,1,$1+$1,$2,$3*
1,1,$1+$1,$4,$5*
1,1,$1+$1,$6,$7*
1,1,$1+$1,$8,$9*
0 Add four rect primitives between the rounded corners*
20,1,$1+$1,$2,$3,$4,$5,0*
20,1,$1+$1,$4,$5,$6,$7,0*
20,1,$1+$1,$6,$7,$8,$9,0*
20,1,$1+$1,$8,$9,$2,$3,0*%
G04 Aperture macros list end*
%ADD10C,4.000000*%
%ADD11C,2.200000*%
%ADD12O,1.000000X1.600000*%
%ADD13O,1.000000X2.100000*%
%ADD14RoundRect,0.150000X-0.150000X-0.575000X0.150000X-0.575000X0.150000X0.575000X-0.150000X0.575000X0*%
%ADD15RoundRect,0.075000X-0.075000X-0.650000X0.075000X-0.650000X0.075000X0.650000X-0.075000X0.650000X0*%
%ADD16C,0.650000*%
%ADD17C,1.700000*%
%ADD18RoundRect,0.250000X0.475000X-0.250000X0.475000X0.250000X-0.475000X0.250000X-0.475000X-0.250000X0*%
%ADD19RoundRect,0.090000X-0.660000X-0.360000X0.660000X-0.360000X0.660000X0.360000X-0.660000X0.360000X0*%
%ADD20R,2.000000X2.000000*%
%ADD21C,2.000000*%
%ADD22R,3.000000X2.500000*%
%ADD23RoundRect,0.250000X-0.262500X-0.450000X0.262500X-0.450000X0.262500X0.450000X-0.262500X0.450000X0*%
%ADD24R,0.900000X1.500000*%
%ADD25R,1.500000X0.900000*%
%ADD26C,0.600000*%
%ADD27R,3.900000X3.900000*%
%ADD28RoundRect,0.170000X0.680000X-0.680000X0.680000X0.680000X-0.680000X0.680000X-0.680000X-0.680000X0*%
%ADD29RoundRect,0.375000X-0.625000X-0.375000X0.625000X-0.375000X0.625000X0.375000X-0.625000X0.375000X0*%
%ADD30RoundRect,0.500000X-0.500000X-1.400000X0.500000X-1.400000X0.500000X1.400000X-0.500000X1.400000X0*%
G04 APERTURE END LIST*
D10*
%TO.C,H4*%
X68460000Y-47080000D03*
D11*
X71000000Y-42000000D03*
X64650000Y-44540000D03*
%TD*%
D10*
%TO.C,H3*%
X60000000Y-133000000D03*
D11*
X62540000Y-127920000D03*
X56190000Y-130460000D03*
%TD*%
D10*
%TO.C,H2*%
X175460000Y-133080000D03*
D11*
X178000000Y-128000000D03*
X171650000Y-130540000D03*
%TD*%
D10*
%TO.C,H1*%
X175810000Y-44540000D03*
D11*
X178350000Y-39460000D03*
X172000000Y-42000000D03*
%TD*%
D12*
%TO.C,J1*%
X104000000Y-42000000D03*
D13*
X104000000Y-37820000D03*
D12*
X95360000Y-42000000D03*
D13*
X95360000Y-37820000D03*
D14*
X96430000Y-36905000D03*
X97230000Y-36905000D03*
D15*
X97930000Y-36905000D03*
X98930000Y-36905000D03*
X100430000Y-36905000D03*
X101430000Y-36905000D03*
D14*
X102130000Y-36905000D03*
X102930000Y-36905000D03*
X102930000Y-36905000D03*
X102130000Y-36905000D03*
D15*
X100930000Y-36905000D03*
X99930000Y-36905000D03*
X99430000Y-36905000D03*
X98430000Y-36905000D03*
D14*
X97230000Y-36905000D03*
X96430000Y-36905000D03*
D16*
X102570000Y-38350000D03*
X96790000Y-38350000D03*
%TD*%
D17*
%TO.C,SW1*%
X107830000Y-90795000D03*
D10*
X112910000Y-90795000D03*
D17*
X117990000Y-90795000D03*
D11*
X115450000Y-85715000D03*
X109100000Y-88255000D03*
%TD*%
D17*
%TO.C,SW3*%
X107830000Y-120975000D03*
D10*
X112910000Y-120975000D03*
D17*
X117990000Y-120975000D03*
D11*
X115450000Y-115895000D03*
X109100000Y-118435000D03*
%TD*%
D18*
%TO.C,C2*%
X112000000Y-77000000D03*
X112000000Y-75100000D03*
%TD*%
D19*
%TO.C,D2*%
X157550000Y-128350000D03*
X157550000Y-131650000D03*
X162450000Y-131650000D03*
X162450000Y-128350000D03*
%TD*%
D17*
%TO.C,SW2*%
X107830000Y-105885000D03*
D10*
X112910000Y-105885000D03*
D17*
X117990000Y-105885000D03*
D11*
X115450000Y-100805000D03*
X109100000Y-103345000D03*
%TD*%
D20*
%TO.C,SW10*%
X139750000Y-68500000D03*
D21*
X139750000Y-73500000D03*
X139750000Y-71000000D03*
D22*
X147250000Y-65400000D03*
X147250000Y-76600000D03*
D21*
X154250000Y-68500000D03*
X154250000Y-73500000D03*
%TD*%
D23*
%TO.C,R2*%
X103175000Y-73050000D03*
X105000000Y-73050000D03*
%TD*%
D24*
%TO.C,U1*%
X82240000Y-105305000D03*
X83510000Y-105305000D03*
X84780000Y-105305000D03*
X86050000Y-105305000D03*
X87320000Y-105305000D03*
X88590000Y-105305000D03*
X89860000Y-105305000D03*
X91130000Y-105305000D03*
X92400000Y-105305000D03*
X93670000Y-105305000D03*
X94940000Y-105305000D03*
X96210000Y-105305000D03*
X97480000Y-105305000D03*
X98750000Y-105305000D03*
D25*
X100000000Y-103540000D03*
X100000000Y-102270000D03*
X100000000Y-101000000D03*
X100000000Y-99730000D03*
X100000000Y-98460000D03*
X100000000Y-97190000D03*
X100000000Y-95920000D03*
X100000000Y-94650000D03*
X100000000Y-93380000D03*
X100000000Y-92110000D03*
X100000000Y-90840000D03*
X100000000Y-89570000D03*
D24*
X98750000Y-87805000D03*
X97480000Y-87805000D03*
X96210000Y-87805000D03*
X94940000Y-87805000D03*
X93670000Y-87805000D03*
X92400000Y-87805000D03*
X91130000Y-87805000D03*
X89860000Y-87805000D03*
X88590000Y-87805000D03*
X87320000Y-87805000D03*
X86050000Y-87805000D03*
X84780000Y-87805000D03*
X83510000Y-87805000D03*
X82240000Y-87805000D03*
D26*
X89260000Y-99455000D03*
X90660000Y-99455000D03*
X88560000Y-98755000D03*
X89960000Y-98755000D03*
X91360000Y-98755000D03*
X89260000Y-98055000D03*
D27*
X89960000Y-98055000D03*
D26*
X90660000Y-98055000D03*
X88560000Y-97355000D03*
X89960000Y-97355000D03*
X91360000Y-97355000D03*
X89260000Y-96655000D03*
X90660000Y-96655000D03*
%TD*%
D19*
%TO.C,D4*%
X97550000Y-81350000D03*
X97550000Y-84650000D03*
X102450000Y-84650000D03*
X102450000Y-81350000D03*
%TD*%
%TO.C,D3*%
X93550000Y-127350000D03*
X93550000Y-130650000D03*
X98450000Y-130650000D03*
X98450000Y-127350000D03*
%TD*%
D28*
%TO.C,U3*%
X124500000Y-56810000D03*
D17*
X124500000Y-54270000D03*
X124500000Y-51730000D03*
X124500000Y-49190000D03*
%TD*%
D29*
%TO.C,U2*%
X109000000Y-65700000D03*
X109000000Y-68000000D03*
D30*
X115300000Y-68000000D03*
D29*
X109000000Y-70300000D03*
%TD*%
D17*
%TO.C,SW4*%
X122920000Y-90795000D03*
D10*
X128000000Y-90795000D03*
D17*
X133080000Y-90795000D03*
D11*
X130540000Y-85715000D03*
X124190000Y-88255000D03*
%TD*%
D19*
%TO.C,D1*%
X158100000Y-86700000D03*
X158100000Y-90000000D03*
X163000000Y-90000000D03*
X163000000Y-86700000D03*
%TD*%
D23*
%TO.C,R3*%
X103175000Y-76000000D03*
X105000000Y-76000000D03*
%TD*%
D18*
%TO.C,C3*%
X115010000Y-77000000D03*
X115010000Y-75100000D03*
%TD*%
%TO.C,C1*%
X108990000Y-77000000D03*
X108990000Y-75100000D03*
%TD*%
D17*
%TO.C,SW8*%
X138010000Y-105885000D03*
D10*
X143090000Y-105885000D03*
D17*
X148170000Y-105885000D03*
D11*
X145630000Y-100805000D03*
X139280000Y-103345000D03*
%TD*%
D17*
%TO.C,SW9*%
X138010000Y-120975000D03*
D10*
X143090000Y-120975000D03*
D17*
X148170000Y-120975000D03*
D11*
X145630000Y-115895000D03*
X139280000Y-118435000D03*
%TD*%
D17*
%TO.C,SW6*%
X122920000Y-120975000D03*
D10*
X128000000Y-120975000D03*
D17*
X133080000Y-120975000D03*
D11*
X130540000Y-115895000D03*
X124190000Y-118435000D03*
%TD*%
D23*
%TO.C,R4*%
X103175000Y-78950000D03*
X105000000Y-78950000D03*
%TD*%
%TO.C,R1*%
X103175000Y-70100000D03*
X105000000Y-70100000D03*
%TD*%
D17*
%TO.C,SW5*%
X122920000Y-105885000D03*
D10*
X128000000Y-105885000D03*
D17*
X133080000Y-105885000D03*
D11*
X130540000Y-100805000D03*
X124190000Y-103345000D03*
%TD*%
D17*
%TO.C,SW7*%
X138010000Y-90795000D03*
D10*
X143090000Y-90795000D03*
D17*
X148170000Y-90795000D03*
D11*
X145630000Y-85715000D03*
X139280000Y-88255000D03*
%TD*%
M02*
