%TF.GenerationSoftware,KiCad,Pcbnew,10.0.6*%
%TF.CreationDate,2026-10-09T14:05:46-03:00*%
%TF.ProjectId,project 1,70726f6a-6563-4742-9031-2e6b69636164,rev?*%
%TF.SameCoordinates,Original*%
%TF.FileFunction,Copper,L1,Top*%
%TF.FilePolarity,Positive*%
%FSLAX46Y46*%
G04 Gerber Fmt 4.6, Leading zero omitted, Abs format (unit mm)*
G04 Created by KiCad (PCBNEW 10.0.6) date 2026-10-09 14:05:46*
%MOMM*%
%LPD*%
G01*
G04 APERTURE LIST*
G04 Aperture macros list*
%AMRoundRect*
0 Rectangle with rounded corners*
0 $1 Rounding radius*
0 $2 $3 $4 $5 $6 $7 $8 $9 X,Y pos of 4 corners*
0 Add a 4 corners polygon primitive as box body*
4,1,4,$2,$3,$4,$5,$6,$7,$8,$9,$2,$3,0*
0 Add four circle primitives for the rounded corners*
1,1,$1+$1,$2,$3*
1,1,$1+$1,$4,$5*
1,1,$1+$1,$6,$7*
1,1,$1+$1,$8,$9*
0 Add four rect primitives between the rounded corners*
20,1,$1+$1,$2,$3,$4,$5,0*
20,1,$1+$1,$4,$5,$6,$7,0*
20,1,$1+$1,$6,$7,$8,$9,0*
20,1,$1+$1,$8,$9,$2,$3,0*%
G04 Aperture macros list end*
%TA.AperFunction,ComponentPad*%
%ADD10C,2.200000*%
%TD*%
%TA.AperFunction,ComponentPad*%
%ADD11O,1.000000X1.600000*%
%TD*%
%TA.AperFunction,ComponentPad*%
%ADD12O,1.000000X2.100000*%
%TD*%
%TA.AperFunction,SMDPad,CuDef*%
%ADD13RoundRect,0.150000X-0.150000X-0.575000X0.150000X-0.575000X0.150000X0.575000X-0.150000X0.575000X0*%
%TD*%
%TA.AperFunction,SMDPad,CuDef*%
%ADD14RoundRect,0.075000X-0.075000X-0.650000X0.075000X-0.650000X0.075000X0.650000X-0.075000X0.650000X0*%
%TD*%
%TA.AperFunction,SMDPad,CuDef*%
%ADD15RoundRect,0.250000X0.475000X-0.250000X0.475000X0.250000X-0.475000X0.250000X-0.475000X-0.250000X0*%
%TD*%
%TA.AperFunction,SMDPad,CuDef*%
%ADD16RoundRect,0.090000X-0.660000X-0.360000X0.660000X-0.360000X0.660000X0.360000X-0.660000X0.360000X0*%
%TD*%
%TA.AperFunction,ComponentPad*%
%ADD17R,2.000000X2.000000*%
%TD*%
%TA.AperFunction,ComponentPad*%
%ADD18C,2.000000*%
%TD*%
%TA.AperFunction,ComponentPad*%
%ADD19R,3.000000X2.500000*%
%TD*%
%TA.AperFunction,SMDPad,CuDef*%
%ADD20RoundRect,0.250000X-0.262500X-0.450000X0.262500X-0.450000X0.262500X0.450000X-0.262500X0.450000X0*%
%TD*%
%TA.AperFunction,SMDPad,CuDef*%
%ADD21R,0.900000X1.500000*%
%TD*%
%TA.AperFunction,SMDPad,CuDef*%
%ADD22R,1.500000X0.900000*%
%TD*%
%TA.AperFunction,HeatsinkPad*%
%ADD23C,0.600000*%
%TD*%
%TA.AperFunction,HeatsinkPad*%
%ADD24R,3.900000X3.900000*%
%TD*%
%TA.AperFunction,ComponentPad*%
%ADD25RoundRect,0.170000X0.680000X-0.680000X0.680000X0.680000X-0.680000X0.680000X-0.680000X-0.680000X0*%
%TD*%
%TA.AperFunction,ComponentPad*%
%ADD26C,1.700000*%
%TD*%
%TA.AperFunction,SMDPad,CuDef*%
%ADD27RoundRect,0.375000X-0.625000X-0.375000X0.625000X-0.375000X0.625000X0.375000X-0.625000X0.375000X0*%
%TD*%
%TA.AperFunction,SMDPad,CuDef*%
%ADD28RoundRect,0.500000X-0.500000X-1.400000X0.500000X-1.400000X0.500000X1.400000X-0.500000X1.400000X0*%
%TD*%
%TA.AperFunction,ViaPad*%
%ADD29C,0.600000*%
%TD*%
%TA.AperFunction,Conductor*%
%ADD30C,0.200000*%
%TD*%
G04 APERTURE END LIST*
D10*
%TO.P,H4,1*%
%TO.N,N/C*%
X71000000Y-42000000D03*
%TO.P,H4,2*%
X64650000Y-44540000D03*
%TD*%
%TO.P,H3,1*%
%TO.N,N/C*%
X62540000Y-127920000D03*
%TO.P,H3,2*%
X56190000Y-130460000D03*
%TD*%
%TO.P,H2,1*%
%TO.N,N/C*%
X178000000Y-128000000D03*
%TO.P,H2,2*%
X171650000Y-130540000D03*
%TD*%
%TO.P,H1,1*%
%TO.N,N/C*%
X178350000Y-39460000D03*
%TO.P,H1,2*%
X172000000Y-42000000D03*
%TD*%
D11*
%TO.P,J1,SH,SHIELD_SH*%
%TO.N,unconnected-(J1-SHIELD-PadSH)_1*%
X104000000Y-42000000D03*
D12*
%TO.N,unconnected-(J1-SHIELD-PadSH)_2*%
X104000000Y-37820000D03*
D11*
%TO.N,unconnected-(J1-SHIELD-PadSH)_3*%
X95360000Y-42000000D03*
D12*
%TO.N,unconnected-(J1-SHIELD-PadSH)*%
X95360000Y-37820000D03*
D13*
%TO.P,J1,B12,GND_B12*%
%TO.N,GND*%
X96430000Y-36905000D03*
%TO.P,J1,B9,VBUS_B9*%
%TO.N,/+5V*%
X97230000Y-36905000D03*
D14*
%TO.P,J1,B8*%
%TO.N,N/C*%
X97930000Y-36905000D03*
%TO.P,J1,B7,D-_B7*%
%TO.N,unconnected-(J1-D--PadB7)*%
X98930000Y-36905000D03*
%TO.P,J1,B6,D+_B6*%
%TO.N,Net-(U1-USB_D+)*%
X100430000Y-36905000D03*
%TO.P,J1,B5,CC2_B5*%
%TO.N,Net-(J1-CC2)*%
X101430000Y-36905000D03*
D13*
%TO.P,J1,B4,VBUS_B4*%
%TO.N,/+5V*%
X102130000Y-36905000D03*
%TO.P,J1,B1,GND_B1*%
%TO.N,GND*%
X102930000Y-36905000D03*
%TO.P,J1,A12,GND_A12*%
X102930000Y-36905000D03*
%TO.P,J1,A9,VBUS_A9*%
%TO.N,/+5V*%
X102130000Y-36905000D03*
D14*
%TO.P,J1,A8*%
%TO.N,N/C*%
X100930000Y-36905000D03*
%TO.P,J1,A7,D-_A7*%
%TO.N,Net-(U1-USB_D-)*%
X99930000Y-36905000D03*
%TO.P,J1,A6,D+_A6*%
%TO.N,unconnected-(J1-D+-PadA6)*%
X99430000Y-36905000D03*
%TO.P,J1,A5,CC1_A5*%
%TO.N,Net-(J1-CC1)*%
X98430000Y-36905000D03*
D13*
%TO.P,J1,A4,VBUS_A4*%
%TO.N,/+5V*%
X97230000Y-36905000D03*
%TO.P,J1,A1,GND_A1*%
%TO.N,GND*%
X96430000Y-36905000D03*
%TD*%
D10*
%TO.P,SW1,1,1_1*%
%TO.N,/IO1*%
X115450000Y-85715000D03*
%TO.P,SW1,2,2_2*%
%TO.N,GND*%
X109100000Y-88255000D03*
%TD*%
%TO.P,SW3,1,1_1*%
%TO.N,/IO3*%
X115450000Y-115895000D03*
%TO.P,SW3,2,2_2*%
%TO.N,GND*%
X109100000Y-118435000D03*
%TD*%
D15*
%TO.P,C2,1*%
%TO.N,/+3V3*%
X112000000Y-77000000D03*
%TO.P,C2,2*%
%TO.N,GND*%
X112000000Y-75100000D03*
%TD*%
D16*
%TO.P,D2,1,VDD_1*%
%TO.N,/+5V*%
X157550000Y-128350000D03*
%TO.P,D2,2,DOUT_2*%
%TO.N,unconnected-(D2-DOUT-Pad2)*%
X157550000Y-131650000D03*
%TO.P,D2,3,VSS_3*%
%TO.N,GND*%
X162450000Y-131650000D03*
%TO.P,D2,4,DIN_4*%
%TO.N,/DOUT3*%
X162450000Y-128350000D03*
%TD*%
D10*
%TO.P,SW2,1,1_1*%
%TO.N,/IO2*%
X115450000Y-100805000D03*
%TO.P,SW2,2,2_2*%
%TO.N,GND*%
X109100000Y-103345000D03*
%TD*%
D17*
%TO.P,SW10,A,A_A*%
%TO.N,/IO11*%
X139750000Y-68500000D03*
D18*
%TO.P,SW10,B,B_B*%
%TO.N,/IO12*%
X139750000Y-73500000D03*
%TO.P,SW10,C,C_C*%
%TO.N,GND*%
X139750000Y-71000000D03*
D19*
%TO.P,SW10,MP*%
%TO.N,N/C*%
X147250000Y-65400000D03*
X147250000Y-76600000D03*
D18*
%TO.P,SW10,S1,S1_S1*%
%TO.N,/IO10*%
X154250000Y-68500000D03*
%TO.P,SW10,S2,S2_S2*%
%TO.N,GND*%
X154250000Y-73500000D03*
%TD*%
D20*
%TO.P,R2,1*%
%TO.N,Net-(J1-CC2)*%
X103175000Y-73050000D03*
%TO.P,R2,2*%
%TO.N,GND*%
X105000000Y-73050000D03*
%TD*%
D21*
%TO.P,U1,1,GND_1*%
%TO.N,GND*%
X82240000Y-105305000D03*
%TO.P,U1,2,3V3_2*%
%TO.N,/+3V3*%
X83510000Y-105305000D03*
%TO.P,U1,3,EN_3*%
%TO.N,Net-(U1-EN)*%
X84780000Y-105305000D03*
%TO.P,U1,4,IO4_4*%
%TO.N,/IO4*%
X86050000Y-105305000D03*
%TO.P,U1,5,IO5_5*%
%TO.N,/IO5*%
X87320000Y-105305000D03*
%TO.P,U1,6,IO6_6*%
%TO.N,/IO6*%
X88590000Y-105305000D03*
%TO.P,U1,7,IO7_7*%
%TO.N,/IO7*%
X89860000Y-105305000D03*
%TO.P,U1,8,IO15_8*%
%TO.N,unconnected-(U1-IO15-Pad8)*%
X91130000Y-105305000D03*
%TO.P,U1,9,IO16_9*%
%TO.N,unconnected-(U1-IO16-Pad9)*%
X92400000Y-105305000D03*
%TO.P,U1,10,IO17_10*%
%TO.N,Net-(U1-IO17)*%
X93670000Y-105305000D03*
%TO.P,U1,11,IO18_11*%
%TO.N,Net-(U1-IO18)*%
X94940000Y-105305000D03*
%TO.P,U1,12,IO8_12*%
%TO.N,/IO8*%
X96210000Y-105305000D03*
%TO.P,U1,13,USB_D-_13*%
%TO.N,Net-(U1-USB_D-)*%
X97480000Y-105305000D03*
%TO.P,U1,14,USB_D+_14*%
%TO.N,Net-(U1-USB_D+)*%
X98750000Y-105305000D03*
D22*
%TO.P,U1,15,IO3_15*%
%TO.N,/IO3*%
X100000000Y-103540000D03*
%TO.P,U1,16,IO46_16*%
%TO.N,unconnected-(U1-IO46-Pad16)*%
X100000000Y-102270000D03*
%TO.P,U1,17,IO9_17*%
%TO.N,/IO9*%
X100000000Y-101000000D03*
%TO.P,U1,18,IO10_18*%
%TO.N,/IO10*%
X100000000Y-99730000D03*
%TO.P,U1,19,IO11_19*%
%TO.N,/IO11*%
X100000000Y-98460000D03*
%TO.P,U1,20,IO12_20*%
%TO.N,/IO12*%
X100000000Y-97190000D03*
%TO.P,U1,21,IO13_21*%
%TO.N,unconnected-(U1-IO13-Pad21)*%
X100000000Y-95920000D03*
%TO.P,U1,22,IO14_22*%
%TO.N,unconnected-(U1-IO14-Pad22)*%
X100000000Y-94650000D03*
%TO.P,U1,23,IO21_23*%
%TO.N,unconnected-(U1-IO21-Pad23)*%
X100000000Y-93380000D03*
%TO.P,U1,24,IO47_24*%
%TO.N,unconnected-(U1-IO47-Pad24)*%
X100000000Y-92110000D03*
%TO.P,U1,25,IO48_25*%
%TO.N,unconnected-(U1-IO48-Pad25)*%
X100000000Y-90840000D03*
%TO.P,U1,26,IO45_26*%
%TO.N,unconnected-(U1-IO45-Pad26)*%
X100000000Y-89570000D03*
D21*
%TO.P,U1,27,IO0_27*%
%TO.N,unconnected-(U1-IO0-Pad27)*%
X98750000Y-87805000D03*
%TO.P,U1,28,IO35_28*%
%TO.N,unconnected-(U1-IO35-Pad28)*%
X97480000Y-87805000D03*
%TO.P,U1,29,IO36_29*%
%TO.N,unconnected-(U1-IO36-Pad29)*%
X96210000Y-87805000D03*
%TO.P,U1,30,IO37_30*%
%TO.N,unconnected-(U1-IO37-Pad30)*%
X94940000Y-87805000D03*
%TO.P,U1,31,IO38_31*%
%TO.N,unconnected-(U1-IO38-Pad31)*%
X93670000Y-87805000D03*
%TO.P,U1,32,IO39_32*%
%TO.N,Net-(U1-IO39)*%
X92400000Y-87805000D03*
%TO.P,U1,33,IO40_33*%
%TO.N,unconnected-(U1-IO40-Pad33)*%
X91130000Y-87805000D03*
%TO.P,U1,34,IO41_34*%
%TO.N,unconnected-(U1-IO41-Pad34)*%
X89860000Y-87805000D03*
%TO.P,U1,35,IO42_35*%
%TO.N,unconnected-(U1-IO42-Pad35)*%
X88590000Y-87805000D03*
%TO.P,U1,36,RXD0_36*%
%TO.N,unconnected-(U1-RXD0-Pad36)*%
X87320000Y-87805000D03*
%TO.P,U1,37,TXD0_37*%
%TO.N,unconnected-(U1-TXD0-Pad37)*%
X86050000Y-87805000D03*
%TO.P,U1,38,IO2_38*%
%TO.N,/IO2*%
X84780000Y-87805000D03*
%TO.P,U1,39,IO1_39*%
%TO.N,/IO1*%
X83510000Y-87805000D03*
%TO.P,U1,40,GND_40*%
%TO.N,GND*%
X82240000Y-87805000D03*
D23*
%TO.P,U1,41,GND_41*%
X89260000Y-99455000D03*
X90660000Y-99455000D03*
X88560000Y-98755000D03*
X89960000Y-98755000D03*
X91360000Y-98755000D03*
X89260000Y-98055000D03*
D24*
X89960000Y-98055000D03*
D23*
X90660000Y-98055000D03*
X88560000Y-97355000D03*
X89960000Y-97355000D03*
X91360000Y-97355000D03*
X89260000Y-96655000D03*
X90660000Y-96655000D03*
%TD*%
D16*
%TO.P,D4,1,VDD_1*%
%TO.N,/+5V*%
X97550000Y-81350000D03*
%TO.P,D4,2,DOUT_2*%
%TO.N,/DOUT2*%
X97550000Y-84650000D03*
%TO.P,D4,3,VSS_3*%
%TO.N,GND*%
X102450000Y-84650000D03*
%TO.P,D4,4,DIN_4*%
%TO.N,/DOUT1*%
X102450000Y-81350000D03*
%TD*%
%TO.P,D3,1,VDD_1*%
%TO.N,/+5V*%
X93550000Y-127350000D03*
%TO.P,D3,2,DOUT_2*%
%TO.N,/DOUT3*%
X93550000Y-130650000D03*
%TO.P,D3,3,VSS_3*%
%TO.N,GND*%
X98450000Y-130650000D03*
%TO.P,D3,4,DIN_4*%
%TO.N,/DOUT2*%
X98450000Y-127350000D03*
%TD*%
D25*
%TO.P,U3,1,GND_1*%
%TO.N,GND*%
X124500000Y-56810000D03*
D26*
%TO.P,U3,2,VCC_2*%
%TO.N,/+3V3*%
X124500000Y-54270000D03*
%TO.P,U3,3,SCL_3*%
%TO.N,Net-(U1-IO17)*%
X124500000Y-51730000D03*
%TO.P,U3,4,SDA_4*%
%TO.N,Net-(U1-IO18)*%
X124500000Y-49190000D03*
%TD*%
D27*
%TO.P,U2,1,GND_1*%
%TO.N,GND*%
X109000000Y-65700000D03*
%TO.P,U2,2,VO_2*%
%TO.N,/+3V3*%
X109000000Y-68000000D03*
D28*
X115300000Y-68000000D03*
D27*
%TO.P,U2,3,VI_3*%
%TO.N,/+5V*%
X109000000Y-70300000D03*
%TD*%
D10*
%TO.P,SW4,1,1_1*%
%TO.N,/IO4*%
X130540000Y-85715000D03*
%TO.P,SW4,2,2_2*%
%TO.N,GND*%
X124190000Y-88255000D03*
%TD*%
D16*
%TO.P,D1,1,VDD_1*%
%TO.N,/+5V*%
X158100000Y-86700000D03*
%TO.P,D1,2,DOUT_2*%
%TO.N,/DOUT1*%
X158100000Y-90000000D03*
%TO.P,D1,3,VSS_3*%
%TO.N,GND*%
X163000000Y-90000000D03*
%TO.P,D1,4,DIN_4*%
%TO.N,Net-(D1-DIN)*%
X163000000Y-86700000D03*
%TD*%
D20*
%TO.P,R3,1*%
%TO.N,Net-(U1-EN)*%
X103175000Y-76000000D03*
%TO.P,R3,2*%
%TO.N,/+3V3*%
X105000000Y-76000000D03*
%TD*%
D15*
%TO.P,C3,1*%
%TO.N,Net-(U1-EN)*%
X115010000Y-77000000D03*
%TO.P,C3,2*%
%TO.N,GND*%
X115010000Y-75100000D03*
%TD*%
%TO.P,C1,1*%
%TO.N,/+5V*%
X108990000Y-77000000D03*
%TO.P,C1,2*%
%TO.N,GND*%
X108990000Y-75100000D03*
%TD*%
D10*
%TO.P,SW8,1,1_1*%
%TO.N,/IO8*%
X145630000Y-100805000D03*
%TO.P,SW8,2,2_2*%
%TO.N,GND*%
X139280000Y-103345000D03*
%TD*%
%TO.P,SW9,1,1_1*%
%TO.N,/IO9*%
X145630000Y-115895000D03*
%TO.P,SW9,2,2_2*%
%TO.N,GND*%
X139280000Y-118435000D03*
%TD*%
%TO.P,SW6,1,1_1*%
%TO.N,/IO6*%
X130540000Y-115895000D03*
%TO.P,SW6,2,2_2*%
%TO.N,GND*%
X124190000Y-118435000D03*
%TD*%
D20*
%TO.P,R4,1*%
%TO.N,Net-(U1-IO39)*%
X103175000Y-78950000D03*
%TO.P,R4,2*%
%TO.N,Net-(D1-DIN)*%
X105000000Y-78950000D03*
%TD*%
%TO.P,R1,1*%
%TO.N,Net-(J1-CC1)*%
X103175000Y-70100000D03*
%TO.P,R1,2*%
%TO.N,GND*%
X105000000Y-70100000D03*
%TD*%
D10*
%TO.P,SW5,1,1_1*%
%TO.N,/IO5*%
X130540000Y-100805000D03*
%TO.P,SW5,2,2_2*%
%TO.N,GND*%
X124190000Y-103345000D03*
%TD*%
%TO.P,SW7,1,1_1*%
%TO.N,/IO7*%
X145630000Y-85715000D03*
%TO.P,SW7,2,2_2*%
%TO.N,GND*%
X139280000Y-88255000D03*
%TD*%
D29*
%TO.N,/DOUT2*%
X96504600Y-85826000D03*
X94559700Y-125714000D03*
%TO.N,Net-(U1-IO39)*%
X94282600Y-81055100D03*
X93771700Y-85162100D03*
%TO.N,Net-(U1-USB_D+)*%
X100642000Y-35630400D03*
X98069300Y-102930000D03*
%TO.N,Net-(U1-USB_D-)*%
X99844300Y-39230800D03*
X96991000Y-101900000D03*
X100487700Y-52831000D03*
%TO.N,Net-(U1-IO18)*%
X94215600Y-107586000D03*
%TO.N,Net-(U1-IO17)*%
X92830100Y-106802000D03*
%TO.N,/IO7*%
X95382600Y-86238400D03*
X94196600Y-106779000D03*
%TO.N,/IO5*%
X118647000Y-110249000D03*
%TO.N,/IO4*%
X117710000Y-109922000D03*
%TO.N,Net-(U1-EN)*%
X92828900Y-98921900D03*
X92893800Y-74886600D03*
%TO.N,Net-(J1-CC2)*%
X101517000Y-39213900D03*
X100644000Y-72121700D03*
X102244200Y-54082300D03*
%TO.N,/IO10*%
X144760000Y-98309900D03*
%TO.N,/IO12*%
X132811000Y-95944100D03*
%TO.N,/IO11*%
X126837000Y-98920300D03*
%TO.N,/IO2*%
X95323300Y-90066200D03*
%TO.N,/+5V*%
X155958000Y-128190000D03*
X157292000Y-87833200D03*
%TO.N,/+3V3*%
X113718000Y-76380100D03*
%TO.N,/IO3*%
X111000000Y-107920000D03*
%TO.N,GND*%
X105458900Y-36245700D03*
%TD*%
%TO.N,Net-(J1-CC1)*%
D30*
X98430000Y-42355000D02*
X98430000Y-36905000D01*
X103175000Y-70100000D02*
X97430000Y-64355000D01*
X98430000Y-63355000D02*
X97430000Y-64355000D01*
X98430000Y-42355000D02*
X98430000Y-63355000D01*
%TO.N,Net-(D1-DIN)*%
X155250000Y-78950000D02*
X163000000Y-86700000D01*
X105000000Y-78950000D02*
X155250000Y-78950000D01*
%TO.N,/DOUT1*%
X149450000Y-81350000D02*
X102450000Y-81350000D01*
X158100000Y-90000000D02*
X149450000Y-81350000D01*
%TO.N,/DOUT2*%
X96504600Y-85695400D02*
X96504600Y-85826000D01*
X97550000Y-84650000D02*
X96504600Y-85695400D01*
X96195200Y-127350000D02*
X94559700Y-125714000D01*
X98450000Y-127350000D02*
X96195200Y-127350000D01*
%TO.N,Net-(U1-IO39)*%
X92400000Y-86533800D02*
X93771700Y-85162100D01*
X94282600Y-81055100D02*
X96387700Y-78950000D01*
X92400000Y-87805000D02*
X92400000Y-86533800D01*
X96387700Y-78950000D02*
X103175000Y-78950000D01*
%TO.N,/IO9*%
X147042000Y-101933000D02*
X146218000Y-102757000D01*
X146218000Y-115307000D02*
X145630000Y-115895000D01*
X122071000Y-102220000D02*
X122368000Y-101922000D01*
X127947000Y-102226000D02*
X137073000Y-102226000D01*
X122368000Y-101922000D02*
X127644000Y-101922000D01*
X147042000Y-100163000D02*
X147042000Y-101933000D01*
X146218000Y-102757000D02*
X146218000Y-115307000D01*
X114365000Y-102220000D02*
X122071000Y-102220000D01*
X146274000Y-99395900D02*
X147042000Y-100163000D01*
X139903000Y-99395900D02*
X146274000Y-99395900D01*
X113145000Y-101000000D02*
X114365000Y-102220000D01*
X100000000Y-101000000D02*
X113145000Y-101000000D01*
X137073000Y-102226000D02*
X139903000Y-99395900D01*
X127644000Y-101922000D02*
X127947000Y-102226000D01*
%TO.N,Net-(U1-USB_D+)*%
X100430000Y-35842400D02*
X100642000Y-35630400D01*
X100430000Y-36905000D02*
X100430000Y-35842400D01*
X98750000Y-103611000D02*
X98750000Y-105305000D01*
X98069300Y-102930000D02*
X98750000Y-103611000D01*
%TO.N,Net-(U1-USB_D-)*%
X99930000Y-39145100D02*
X99844300Y-39230800D01*
X99930000Y-36905000D02*
X99930000Y-39145100D01*
X97480000Y-105305000D02*
X97480000Y-104253000D01*
X96991000Y-103764000D02*
X97480000Y-104253000D01*
X96991000Y-101900000D02*
X96991000Y-103764000D01*
X99844300Y-52187600D02*
X99844300Y-39230800D01*
X100487700Y-52831000D02*
X99844300Y-52187600D01*
%TO.N,/IO8*%
X134910000Y-106052000D02*
X134910000Y-105675000D01*
X139780000Y-100805000D02*
X145630000Y-100805000D01*
X98385400Y-108532000D02*
X132430000Y-108532000D01*
X134910000Y-105675000D02*
X139780000Y-100805000D01*
X96210000Y-106357000D02*
X98385400Y-108532000D01*
X96210000Y-105305000D02*
X96210000Y-106357000D01*
X132430000Y-108532000D02*
X134910000Y-106052000D01*
%TO.N,Net-(U1-IO18)*%
X94298800Y-107586000D02*
X94215600Y-107586000D01*
X94940000Y-106944000D02*
X94298800Y-107586000D01*
X94940000Y-105305000D02*
X94940000Y-106944000D01*
%TO.N,Net-(U1-IO17)*%
X93670000Y-105305000D02*
X93670000Y-106357000D01*
X93274900Y-106357000D02*
X93670000Y-106357000D01*
X92830100Y-106802000D02*
X93274900Y-106357000D01*
%TO.N,/IO7*%
X90934600Y-107431000D02*
X89860000Y-106357000D01*
X89860000Y-105305000D02*
X89860000Y-106357000D01*
X95382600Y-86238400D02*
X95571900Y-86427700D01*
X114365000Y-87129800D02*
X122823000Y-87129800D01*
X139327000Y-85715000D02*
X145630000Y-85715000D01*
X94171900Y-106779000D02*
X93519200Y-107431000D01*
X129455000Y-87129800D02*
X137913000Y-87129800D01*
X129166000Y-86841000D02*
X129455000Y-87129800D01*
X95571900Y-86427700D02*
X113663000Y-86427700D01*
X137913000Y-87129800D02*
X139327000Y-85715000D01*
X122823000Y-87129800D02*
X123112000Y-86841000D01*
X93519200Y-107431000D02*
X90934600Y-107431000D01*
X123112000Y-86841000D02*
X129166000Y-86841000D01*
X113663000Y-86427700D02*
X114365000Y-87129800D01*
X94196600Y-106779000D02*
X94171900Y-106779000D01*
%TO.N,/IO6*%
X88590000Y-105305000D02*
X88590000Y-106357000D01*
X123888000Y-109243000D02*
X130540000Y-115895000D01*
X91476200Y-109243000D02*
X123888000Y-109243000D01*
X88590000Y-106357000D02*
X91476200Y-109243000D01*
%TO.N,/IO5*%
X118372000Y-110524000D02*
X118647000Y-110249000D01*
X91487600Y-110524000D02*
X118372000Y-110524000D01*
X87320000Y-106357000D02*
X91487600Y-110524000D01*
X87320000Y-105305000D02*
X87320000Y-106357000D01*
%TO.N,/IO4*%
X117985000Y-109647000D02*
X117710000Y-109922000D01*
X86050000Y-105305000D02*
X86050000Y-106357000D01*
X118881000Y-110928000D02*
X119294000Y-110514000D01*
X118938000Y-109647000D02*
X117985000Y-109647000D01*
X86050000Y-106357000D02*
X90620800Y-110928000D01*
X119294000Y-110004000D02*
X118938000Y-109647000D01*
X119294000Y-110514000D02*
X119294000Y-110004000D01*
X90620800Y-110928000D02*
X118881000Y-110928000D01*
%TO.N,Net-(U1-EN)*%
X113911000Y-75722800D02*
X113911000Y-75472800D01*
X104899000Y-74276100D02*
X103175000Y-76000000D01*
X88149000Y-104253000D02*
X84780000Y-104253000D01*
X92828900Y-99573400D02*
X88149000Y-104253000D01*
X94007200Y-76000000D02*
X92893800Y-74886600D01*
X103175000Y-76000000D02*
X94007200Y-76000000D01*
X112714000Y-74276100D02*
X104899000Y-74276100D01*
X84780000Y-105305000D02*
X84780000Y-104253000D01*
X115010000Y-77000000D02*
X115010000Y-76821600D01*
X92828900Y-98921900D02*
X92828900Y-99573400D01*
X113911000Y-75472800D02*
X112714000Y-74276100D01*
X115010000Y-76821600D02*
X113911000Y-75722800D01*
%TO.N,Net-(J1-CC2)*%
X101430000Y-39127100D02*
X101517000Y-39213900D01*
X101430000Y-36905000D02*
X101430000Y-39127100D01*
X102247000Y-72121700D02*
X103175000Y-73050000D01*
X100644000Y-72121700D02*
X102247000Y-72121700D01*
X102244200Y-39941100D02*
X101517000Y-39213900D01*
X102244200Y-54082300D02*
X102244200Y-39941100D01*
%TO.N,/IO10*%
X101378000Y-99403300D02*
X126436000Y-99403300D01*
X101052000Y-99730000D02*
X101378000Y-99403300D01*
X129726000Y-99595800D02*
X131012000Y-98309900D01*
X126628000Y-99595800D02*
X129726000Y-99595800D01*
X100000000Y-99730000D02*
X101052000Y-99730000D01*
X126436000Y-99403300D02*
X126628000Y-99595800D01*
X131012000Y-98309900D02*
X144760000Y-98309900D01*
%TO.N,/IO12*%
X131566000Y-97190000D02*
X132811000Y-95944100D01*
X100000000Y-97190000D02*
X131566000Y-97190000D01*
%TO.N,/IO11*%
X126377000Y-98460000D02*
X126837000Y-98920300D01*
X100000000Y-98460000D02*
X126377000Y-98460000D01*
%TO.N,/IO2*%
X94113800Y-88856700D02*
X95323300Y-90066200D01*
X84780000Y-88856700D02*
X94113800Y-88856700D01*
X84780000Y-87805000D02*
X84780000Y-88856700D01*
%TO.N,/DOUT3*%
X160912000Y-129888000D02*
X162450000Y-128350000D01*
X94312300Y-129888000D02*
X160912000Y-129888000D01*
X93550000Y-130650000D02*
X94312300Y-129888000D01*
%TO.N,/+5V*%
X102130000Y-35844000D02*
X103800000Y-35844000D01*
X102130000Y-35844000D02*
X102130000Y-36905000D01*
X101312000Y-35025800D02*
X102130000Y-35844000D01*
X98530200Y-35025800D02*
X101312000Y-35025800D01*
X97230000Y-36326000D02*
X98530200Y-35025800D01*
X97230000Y-36905000D02*
X97230000Y-36326000D01*
X93550000Y-127350000D02*
X94390200Y-128190000D01*
X105814000Y-60857300D02*
X105814000Y-67113700D01*
X104088000Y-78359100D02*
X104088000Y-80131900D01*
X104873000Y-77573800D02*
X104088000Y-78359100D01*
X158100000Y-86700000D02*
X157292000Y-87508500D01*
X116048000Y-77478100D02*
X115660000Y-77865700D01*
X158100000Y-86700000D02*
X151532000Y-80131900D01*
X115660000Y-77865700D02*
X109856000Y-77865700D01*
X104088000Y-80131900D02*
X98768100Y-80131900D01*
X116048000Y-74622700D02*
X116048000Y-77478100D01*
X108990000Y-77000000D02*
X108416000Y-77573800D01*
X109000000Y-70300000D02*
X111725000Y-70300000D01*
X105814000Y-67113700D02*
X109000000Y-70300000D01*
X155958000Y-128190000D02*
X157390000Y-128190000D01*
X109856000Y-77865700D02*
X108990000Y-77000000D01*
X102800000Y-57844000D02*
X105814000Y-60857300D01*
X108416000Y-77573800D02*
X104873000Y-77573800D01*
X157390000Y-128190000D02*
X157550000Y-128350000D01*
X151532000Y-80131900D02*
X104088000Y-80131900D01*
X111725000Y-70300000D02*
X116048000Y-74622700D01*
X157292000Y-87508500D02*
X157292000Y-87833200D01*
X98768100Y-80131900D02*
X97550000Y-81350000D01*
X94390200Y-128190000D02*
X155958000Y-128190000D01*
%TO.N,/+3V3*%
X115300000Y-68000000D02*
X115300000Y-63470000D01*
X81488300Y-96978000D02*
X83510000Y-98999700D01*
X112000000Y-77000000D02*
X111000000Y-76000000D01*
X83510000Y-98999700D02*
X83510000Y-105305000D01*
X113098000Y-77000000D02*
X112000000Y-77000000D01*
X105000000Y-76000000D02*
X103596000Y-77403800D01*
X111000000Y-76000000D02*
X105000000Y-76000000D01*
X115300000Y-68000000D02*
X109000000Y-68000000D01*
X115300000Y-63470000D02*
X124500000Y-54270000D01*
X113718000Y-76380100D02*
X113098000Y-77000000D01*
X81488300Y-86910700D02*
X81488300Y-96978000D01*
X90995200Y-77403800D02*
X81488300Y-86910700D01*
X103596000Y-77403800D02*
X90995200Y-77403800D01*
%TO.N,/IO3*%
X100000000Y-103540000D02*
X101052000Y-103540000D01*
X105432000Y-107920000D02*
X111000000Y-107920000D01*
X101052000Y-103540000D02*
X105432000Y-107920000D01*
%TO.N,/IO1*%
X86393800Y-83869500D02*
X113604000Y-83869500D01*
X83510000Y-86753300D02*
X86393800Y-83869500D01*
X83510000Y-87805000D02*
X83510000Y-86753300D01*
X113604000Y-83869500D02*
X115450000Y-85715000D01*
%TO.N,GND*%
X95969500Y-36444500D02*
X96430000Y-36905000D01*
X94752100Y-36444500D02*
X95969500Y-36444500D01*
X92295000Y-38901600D02*
X94752100Y-36444500D01*
X103589300Y-36245700D02*
X105458900Y-36245700D01*
X102930000Y-36905000D02*
X103589300Y-36245700D01*
%TD*%
%TA.AperFunction,Conductor*%
%TO.N,GND*%
G36*
X181932511Y-35022365D02*
G01*
X181980315Y-35073322D01*
X181993499Y-35135201D01*
X177005675Y-138881955D01*
X176982794Y-138947971D01*
X176927853Y-138991138D01*
X176881818Y-139000000D01*
X80876055Y-139000000D01*
X80809016Y-138980315D01*
X80763261Y-138927511D01*
X80752072Y-138873962D01*
X80864256Y-132048670D01*
X80948039Y-126951298D01*
X92299500Y-126951298D01*
X92299500Y-127748703D01*
X92314696Y-127864142D01*
X92314699Y-127864151D01*
X92350797Y-127951300D01*
X92374200Y-128007798D01*
X92468851Y-128131149D01*
X92592202Y-128225800D01*
X92735849Y-128285301D01*
X92851299Y-128300500D01*
X93600034Y-128300499D01*
X93667073Y-128320183D01*
X93687705Y-128336807D01*
X93962566Y-128611602D01*
X93962565Y-128611602D01*
X93962576Y-128611612D01*
X94021484Y-128670520D01*
X94021489Y-128670522D01*
X94021539Y-128670561D01*
X94021541Y-128670563D01*
X94086724Y-128708185D01*
X94086734Y-128708196D01*
X94086737Y-128708193D01*
X94158425Y-128749582D01*
X94158471Y-128749601D01*
X94236052Y-128770380D01*
X94236064Y-128770382D01*
X94311143Y-128790500D01*
X94311150Y-128790500D01*
X94311157Y-128790502D01*
X94311212Y-128790510D01*
X94311213Y-128790509D01*
X94311214Y-128790510D01*
X94394432Y-128790500D01*
X155378234Y-128790500D01*
X155445273Y-128810185D01*
X155447125Y-128811398D01*
X155578814Y-128899390D01*
X155578827Y-128899397D01*
X155699921Y-128949555D01*
X155724503Y-128959737D01*
X155879153Y-128990499D01*
X155879156Y-128990500D01*
X155879158Y-128990500D01*
X156036844Y-128990500D01*
X156036845Y-128990499D01*
X156191497Y-128959737D01*
X156216079Y-128949554D01*
X156285544Y-128942085D01*
X156348024Y-128973358D01*
X156370915Y-129002109D01*
X156374197Y-129007793D01*
X156374198Y-129007794D01*
X156374200Y-129007798D01*
X156435752Y-129088014D01*
X156460946Y-129153183D01*
X156446908Y-129221627D01*
X156398094Y-129271617D01*
X156337376Y-129287500D01*
X94314969Y-129287500D01*
X94314951Y-129287499D01*
X94233355Y-129287483D01*
X94233255Y-129287496D01*
X94156786Y-129307985D01*
X94156768Y-129307990D01*
X94080565Y-129328394D01*
X94009549Y-129369395D01*
X94009529Y-129369406D01*
X93943641Y-129407429D01*
X93943608Y-129407454D01*
X93885251Y-129465812D01*
X93885234Y-129465829D01*
X93687785Y-129663199D01*
X93626457Y-129696671D01*
X93600123Y-129699500D01*
X92851296Y-129699500D01*
X92735857Y-129714696D01*
X92735848Y-129714699D01*
X92592205Y-129774198D01*
X92468851Y-129868851D01*
X92374198Y-129992205D01*
X92314699Y-130135848D01*
X92314698Y-130135850D01*
X92299500Y-130251298D01*
X92299500Y-131048703D01*
X92314696Y-131164142D01*
X92314699Y-131164151D01*
X92374093Y-131307541D01*
X92374200Y-131307798D01*
X92468851Y-131431149D01*
X92592202Y-131525800D01*
X92735849Y-131585301D01*
X92851299Y-131600500D01*
X94248700Y-131600499D01*
X94248703Y-131600499D01*
X94364142Y-131585303D01*
X94364146Y-131585301D01*
X94364151Y-131585301D01*
X94507798Y-131525800D01*
X94631149Y-131431149D01*
X94725800Y-131307798D01*
X94785301Y-131164151D01*
X94800500Y-131048701D01*
X94800500Y-131048670D01*
X97200000Y-131048670D01*
X97215185Y-131164019D01*
X97215187Y-131164024D01*
X97274633Y-131307541D01*
X97274633Y-131307542D01*
X97369207Y-131430792D01*
X97492458Y-131525366D01*
X97635975Y-131584812D01*
X97635980Y-131584814D01*
X97751329Y-131600000D01*
X98200000Y-131600000D01*
X98700000Y-131600000D01*
X99148671Y-131600000D01*
X99264019Y-131584814D01*
X99264024Y-131584812D01*
X99407541Y-131525366D01*
X99407542Y-131525366D01*
X99530792Y-131430792D01*
X99625366Y-131307542D01*
X99625366Y-131307541D01*
X99684812Y-131164024D01*
X99684814Y-131164019D01*
X99700000Y-131048670D01*
X99700000Y-130900000D01*
X98700000Y-130900000D01*
X98700000Y-131600000D01*
X98200000Y-131600000D01*
X98200000Y-130900000D01*
X97200000Y-130900000D01*
X97200000Y-131048670D01*
X94800500Y-131048670D01*
X94800499Y-130612500D01*
X94820183Y-130545461D01*
X94872987Y-130499706D01*
X94924499Y-130488500D01*
X156658552Y-130488500D01*
X156725591Y-130508185D01*
X156771346Y-130560989D01*
X156781290Y-130630147D01*
X156752265Y-130693703D01*
X156706005Y-130727061D01*
X156592205Y-130774198D01*
X156468851Y-130868851D01*
X156374198Y-130992205D01*
X156314699Y-131135848D01*
X156314698Y-131135850D01*
X156299500Y-131251298D01*
X156299500Y-132048703D01*
X156314696Y-132164142D01*
X156314699Y-132164151D01*
X156374093Y-132307541D01*
X156374200Y-132307798D01*
X156468851Y-132431149D01*
X156592202Y-132525800D01*
X156735849Y-132585301D01*
X156851299Y-132600500D01*
X158248700Y-132600499D01*
X158248703Y-132600499D01*
X158364142Y-132585303D01*
X158364146Y-132585301D01*
X158364151Y-132585301D01*
X158507798Y-132525800D01*
X158631149Y-132431149D01*
X158725800Y-132307798D01*
X158785301Y-132164151D01*
X158800500Y-132048701D01*
X158800500Y-132048670D01*
X161200000Y-132048670D01*
X161215185Y-132164019D01*
X161215187Y-132164024D01*
X161274633Y-132307541D01*
X161274633Y-132307542D01*
X161369207Y-132430792D01*
X161492458Y-132525366D01*
X161635975Y-132584812D01*
X161635980Y-132584814D01*
X161751329Y-132600000D01*
X162200000Y-132600000D01*
X162700000Y-132600000D01*
X163148671Y-132600000D01*
X163264019Y-132584814D01*
X163264024Y-132584812D01*
X163407541Y-132525366D01*
X163407542Y-132525366D01*
X163530792Y-132430792D01*
X163625366Y-132307542D01*
X163625366Y-132307541D01*
X163684812Y-132164024D01*
X163684814Y-132164019D01*
X163700000Y-132048670D01*
X163700000Y-131900000D01*
X162700000Y-131900000D01*
X162700000Y-132600000D01*
X162200000Y-132600000D01*
X162200000Y-131900000D01*
X161200000Y-131900000D01*
X161200000Y-132048670D01*
X158800500Y-132048670D01*
X158800499Y-131600500D01*
X158800499Y-131251329D01*
X161200000Y-131251329D01*
X161200000Y-131400000D01*
X162200000Y-131400000D01*
X162700000Y-131400000D01*
X163700000Y-131400000D01*
X163700000Y-131251329D01*
X163684814Y-131135980D01*
X163684812Y-131135975D01*
X163625366Y-130992458D01*
X163625366Y-130992457D01*
X163530792Y-130869207D01*
X163407541Y-130774633D01*
X163264024Y-130715187D01*
X163264019Y-130715185D01*
X163148671Y-130700000D01*
X162700000Y-130700000D01*
X162700000Y-131400000D01*
X162200000Y-131400000D01*
X162200000Y-130700000D01*
X161751329Y-130700000D01*
X161635980Y-130715185D01*
X161635975Y-130715187D01*
X161492458Y-130774633D01*
X161492457Y-130774633D01*
X161369207Y-130869207D01*
X161274633Y-130992457D01*
X161274633Y-130992458D01*
X161215187Y-131135975D01*
X161215185Y-131135980D01*
X161200000Y-131251329D01*
X158800499Y-131251329D01*
X158800499Y-131251296D01*
X158785303Y-131135857D01*
X158785301Y-131135850D01*
X158785301Y-131135849D01*
X158725800Y-130992202D01*
X158631149Y-130868851D01*
X158507798Y-130774200D01*
X158507794Y-130774198D01*
X158393995Y-130727061D01*
X158339592Y-130683220D01*
X158317527Y-130616926D01*
X158334806Y-130549227D01*
X158385943Y-130501616D01*
X158441448Y-130488500D01*
X160825331Y-130488500D01*
X160825347Y-130488501D01*
X160832943Y-130488501D01*
X160991054Y-130488501D01*
X160991057Y-130488501D01*
X161143785Y-130447577D01*
X161157614Y-130439592D01*
X161194808Y-130418119D01*
X161194819Y-130418111D01*
X161194831Y-130418105D01*
X161280716Y-130368520D01*
X161392520Y-130256716D01*
X161392520Y-130256714D01*
X161402724Y-130246511D01*
X161402728Y-130246506D01*
X162312416Y-129336818D01*
X162373739Y-129303333D01*
X162400097Y-129300499D01*
X163148703Y-129300499D01*
X163264142Y-129285303D01*
X163264146Y-129285301D01*
X163264151Y-129285301D01*
X163407798Y-129225800D01*
X163531149Y-129131149D01*
X163625800Y-129007798D01*
X163685301Y-128864151D01*
X163700500Y-128748701D01*
X163700499Y-127951300D01*
X163700499Y-127951298D01*
X163700499Y-127951296D01*
X163685303Y-127835857D01*
X163685301Y-127835850D01*
X163685301Y-127835849D01*
X163625800Y-127692202D01*
X163531149Y-127568851D01*
X163407798Y-127474200D01*
X163407794Y-127474198D01*
X163264151Y-127414699D01*
X163264149Y-127414698D01*
X163148701Y-127399500D01*
X161751296Y-127399500D01*
X161635857Y-127414696D01*
X161635848Y-127414699D01*
X161492205Y-127474198D01*
X161368851Y-127568851D01*
X161274198Y-127692205D01*
X161214699Y-127835848D01*
X161214698Y-127835850D01*
X161199500Y-127951298D01*
X161199500Y-128699901D01*
X161179815Y-128766940D01*
X161163181Y-128787582D01*
X160699584Y-129251181D01*
X160638261Y-129284666D01*
X160611903Y-129287500D01*
X158762624Y-129287500D01*
X158695585Y-129267815D01*
X158649830Y-129215011D01*
X158639886Y-129145853D01*
X158664247Y-129088014D01*
X158725800Y-129007798D01*
X158785301Y-128864151D01*
X158800500Y-128748701D01*
X158800499Y-127951300D01*
X158800499Y-127951298D01*
X158800499Y-127951296D01*
X158785303Y-127835857D01*
X158785301Y-127835850D01*
X158785301Y-127835849D01*
X158725800Y-127692202D01*
X158631149Y-127568851D01*
X158507798Y-127474200D01*
X158507794Y-127474198D01*
X158364151Y-127414699D01*
X158364149Y-127414698D01*
X158248701Y-127399500D01*
X156851296Y-127399500D01*
X156735857Y-127414696D01*
X156735848Y-127414699D01*
X156592204Y-127474198D01*
X156592202Y-127474199D01*
X156539528Y-127514617D01*
X156474358Y-127539810D01*
X156405914Y-127525771D01*
X156395152Y-127519342D01*
X156337185Y-127480609D01*
X156337172Y-127480602D01*
X156191501Y-127420264D01*
X156191489Y-127420261D01*
X156036845Y-127389500D01*
X156036842Y-127389500D01*
X155879158Y-127389500D01*
X155879155Y-127389500D01*
X155724510Y-127420261D01*
X155724498Y-127420264D01*
X155578827Y-127480602D01*
X155578814Y-127480609D01*
X155447125Y-127568602D01*
X155380447Y-127589480D01*
X155378234Y-127589500D01*
X99824500Y-127589500D01*
X99757461Y-127569815D01*
X99711706Y-127517011D01*
X99700500Y-127465500D01*
X99700499Y-126951296D01*
X99685303Y-126835857D01*
X99685301Y-126835850D01*
X99685301Y-126835849D01*
X99625800Y-126692202D01*
X99531149Y-126568851D01*
X99407798Y-126474200D01*
X99407794Y-126474198D01*
X99264151Y-126414699D01*
X99264149Y-126414698D01*
X99148701Y-126399500D01*
X97751296Y-126399500D01*
X97635857Y-126414696D01*
X97635848Y-126414699D01*
X97492205Y-126474198D01*
X97492202Y-126474199D01*
X97492202Y-126474200D01*
X97368851Y-126568851D01*
X97274200Y-126692202D01*
X97274199Y-126692204D01*
X97269253Y-126698650D01*
X97267017Y-126696934D01*
X97226358Y-126735711D01*
X97169528Y-126749500D01*
X96495363Y-126749500D01*
X96428324Y-126729815D01*
X96407668Y-126713168D01*
X95394289Y-125699478D01*
X95360815Y-125638152D01*
X95360368Y-125636003D01*
X95329438Y-125480510D01*
X95329437Y-125480503D01*
X95329435Y-125480498D01*
X95269097Y-125334827D01*
X95269090Y-125334814D01*
X95181489Y-125203711D01*
X95181486Y-125203707D01*
X95069992Y-125092213D01*
X95069988Y-125092210D01*
X94938885Y-125004609D01*
X94938872Y-125004602D01*
X94793201Y-124944264D01*
X94793189Y-124944261D01*
X94638545Y-124913500D01*
X94638542Y-124913500D01*
X94480858Y-124913500D01*
X94480855Y-124913500D01*
X94326210Y-124944261D01*
X94326198Y-124944264D01*
X94180527Y-125004602D01*
X94180514Y-125004609D01*
X94049411Y-125092210D01*
X94049407Y-125092213D01*
X93937913Y-125203707D01*
X93937910Y-125203711D01*
X93850309Y-125334814D01*
X93850302Y-125334827D01*
X93789964Y-125480498D01*
X93789961Y-125480510D01*
X93759200Y-125635153D01*
X93759200Y-125792846D01*
X93789961Y-125947489D01*
X93789964Y-125947501D01*
X93850302Y-126093172D01*
X93850309Y-126093185D01*
X93926097Y-126206609D01*
X93946975Y-126273287D01*
X93928490Y-126340667D01*
X93876512Y-126387357D01*
X93822995Y-126399500D01*
X92851296Y-126399500D01*
X92735857Y-126414696D01*
X92735848Y-126414699D01*
X92592205Y-126474198D01*
X92468851Y-126568851D01*
X92374198Y-126692205D01*
X92314699Y-126835848D01*
X92314698Y-126835850D01*
X92299500Y-126951298D01*
X80948039Y-126951298D01*
X81047692Y-120888389D01*
X106729500Y-120888389D01*
X106729500Y-121061611D01*
X106756598Y-121232701D01*
X106810127Y-121397445D01*
X106888768Y-121551788D01*
X106990586Y-121691928D01*
X107113072Y-121814414D01*
X107253212Y-121916232D01*
X107407555Y-121994873D01*
X107572299Y-122048402D01*
X107743389Y-122075500D01*
X107743390Y-122075500D01*
X107916610Y-122075500D01*
X107916611Y-122075500D01*
X108087701Y-122048402D01*
X108252445Y-121994873D01*
X108406788Y-121916232D01*
X108546928Y-121814414D01*
X108669414Y-121691928D01*
X108771232Y-121551788D01*
X108849873Y-121397445D01*
X108903402Y-121232701D01*
X108930500Y-121061611D01*
X108930500Y-120888389D01*
X108920854Y-120827486D01*
X110659500Y-120827486D01*
X110659500Y-121122513D01*
X110691571Y-121366113D01*
X110698007Y-121414993D01*
X110772212Y-121691930D01*
X110774361Y-121699951D01*
X110774364Y-121699961D01*
X110887254Y-121972500D01*
X110887258Y-121972510D01*
X111034761Y-122227993D01*
X111214352Y-122462040D01*
X111214358Y-122462047D01*
X111422952Y-122670641D01*
X111422959Y-122670647D01*
X111657006Y-122850238D01*
X111912489Y-122997741D01*
X111912490Y-122997741D01*
X111912493Y-122997743D01*
X112185048Y-123110639D01*
X112470007Y-123186993D01*
X112762494Y-123225500D01*
X112762501Y-123225500D01*
X113057499Y-123225500D01*
X113057506Y-123225500D01*
X113349993Y-123186993D01*
X113634952Y-123110639D01*
X113907507Y-122997743D01*
X114162994Y-122850238D01*
X114397042Y-122670646D01*
X114605646Y-122462042D01*
X114785238Y-122227994D01*
X114932743Y-121972507D01*
X115045639Y-121699952D01*
X115121993Y-121414993D01*
X115160500Y-121122506D01*
X115160500Y-120888389D01*
X116889500Y-120888389D01*
X116889500Y-121061611D01*
X116916598Y-121232701D01*
X116970127Y-121397445D01*
X117048768Y-121551788D01*
X117150586Y-121691928D01*
X117273072Y-121814414D01*
X117413212Y-121916232D01*
X117567555Y-121994873D01*
X117732299Y-122048402D01*
X117903389Y-122075500D01*
X117903390Y-122075500D01*
X118076610Y-122075500D01*
X118076611Y-122075500D01*
X118247701Y-122048402D01*
X118412445Y-121994873D01*
X118566788Y-121916232D01*
X118706928Y-121814414D01*
X118829414Y-121691928D01*
X118931232Y-121551788D01*
X119009873Y-121397445D01*
X119063402Y-121232701D01*
X119090500Y-121061611D01*
X119090500Y-120888389D01*
X121819500Y-120888389D01*
X121819500Y-121061611D01*
X121846598Y-121232701D01*
X121900127Y-121397445D01*
X121978768Y-121551788D01*
X122080586Y-121691928D01*
X122203072Y-121814414D01*
X122343212Y-121916232D01*
X122497555Y-121994873D01*
X122662299Y-122048402D01*
X122833389Y-122075500D01*
X122833390Y-122075500D01*
X123006610Y-122075500D01*
X123006611Y-122075500D01*
X123177701Y-122048402D01*
X123342445Y-121994873D01*
X123496788Y-121916232D01*
X123636928Y-121814414D01*
X123759414Y-121691928D01*
X123861232Y-121551788D01*
X123939873Y-121397445D01*
X123993402Y-121232701D01*
X124020500Y-121061611D01*
X124020500Y-120888389D01*
X124010854Y-120827486D01*
X125749500Y-120827486D01*
X125749500Y-121122513D01*
X125781571Y-121366113D01*
X125788007Y-121414993D01*
X125862212Y-121691930D01*
X125864361Y-121699951D01*
X125864364Y-121699961D01*
X125977254Y-121972500D01*
X125977258Y-121972510D01*
X126124761Y-122227993D01*
X126304352Y-122462040D01*
X126304358Y-122462047D01*
X126512952Y-122670641D01*
X126512959Y-122670647D01*
X126747006Y-122850238D01*
X127002489Y-122997741D01*
X127002490Y-122997741D01*
X127002493Y-122997743D01*
X127275048Y-123110639D01*
X127560007Y-123186993D01*
X127852494Y-123225500D01*
X127852501Y-123225500D01*
X128147499Y-123225500D01*
X128147506Y-123225500D01*
X128439993Y-123186993D01*
X128724952Y-123110639D01*
X128997507Y-122997743D01*
X129252994Y-122850238D01*
X129487042Y-122670646D01*
X129695646Y-122462042D01*
X129875238Y-122227994D01*
X130022743Y-121972507D01*
X130135639Y-121699952D01*
X130211993Y-121414993D01*
X130250500Y-121122506D01*
X130250500Y-120888389D01*
X131979500Y-120888389D01*
X131979500Y-121061611D01*
X132006598Y-121232701D01*
X132060127Y-121397445D01*
X132138768Y-121551788D01*
X132240586Y-121691928D01*
X132363072Y-121814414D01*
X132503212Y-121916232D01*
X132657555Y-121994873D01*
X132822299Y-122048402D01*
X132993389Y-122075500D01*
X132993390Y-122075500D01*
X133166610Y-122075500D01*
X133166611Y-122075500D01*
X133337701Y-122048402D01*
X133502445Y-121994873D01*
X133656788Y-121916232D01*
X133796928Y-121814414D01*
X133919414Y-121691928D01*
X134021232Y-121551788D01*
X134099873Y-121397445D01*
X134153402Y-121232701D01*
X134180500Y-121061611D01*
X134180500Y-120888389D01*
X136909500Y-120888389D01*
X136909500Y-121061611D01*
X136936598Y-121232701D01*
X136990127Y-121397445D01*
X137068768Y-121551788D01*
X137170586Y-121691928D01*
X137293072Y-121814414D01*
X137433212Y-121916232D01*
X137587555Y-121994873D01*
X137752299Y-122048402D01*
X137923389Y-122075500D01*
X137923390Y-122075500D01*
X138096610Y-122075500D01*
X138096611Y-122075500D01*
X138267701Y-122048402D01*
X138432445Y-121994873D01*
X138586788Y-121916232D01*
X138726928Y-121814414D01*
X138849414Y-121691928D01*
X138951232Y-121551788D01*
X139029873Y-121397445D01*
X139083402Y-121232701D01*
X139110500Y-121061611D01*
X139110500Y-120888389D01*
X139100854Y-120827486D01*
X140839500Y-120827486D01*
X140839500Y-121122513D01*
X140871571Y-121366113D01*
X140878007Y-121414993D01*
X140952212Y-121691930D01*
X140954361Y-121699951D01*
X140954364Y-121699961D01*
X141067254Y-121972500D01*
X141067258Y-121972510D01*
X141214761Y-122227993D01*
X141394352Y-122462040D01*
X141394358Y-122462047D01*
X141602952Y-122670641D01*
X141602959Y-122670647D01*
X141837006Y-122850238D01*
X142092489Y-122997741D01*
X142092490Y-122997741D01*
X142092493Y-122997743D01*
X142365048Y-123110639D01*
X142650007Y-123186993D01*
X142942494Y-123225500D01*
X142942501Y-123225500D01*
X143237499Y-123225500D01*
X143237506Y-123225500D01*
X143529993Y-123186993D01*
X143814952Y-123110639D01*
X144087507Y-122997743D01*
X144342994Y-122850238D01*
X144577042Y-122670646D01*
X144785646Y-122462042D01*
X144965238Y-122227994D01*
X145112743Y-121972507D01*
X145225639Y-121699952D01*
X145301993Y-121414993D01*
X145340500Y-121122506D01*
X145340500Y-120888389D01*
X147069500Y-120888389D01*
X147069500Y-121061611D01*
X147096598Y-121232701D01*
X147150127Y-121397445D01*
X147228768Y-121551788D01*
X147330586Y-121691928D01*
X147453072Y-121814414D01*
X147593212Y-121916232D01*
X147747555Y-121994873D01*
X147912299Y-122048402D01*
X148083389Y-122075500D01*
X148083390Y-122075500D01*
X148256610Y-122075500D01*
X148256611Y-122075500D01*
X148427701Y-122048402D01*
X148592445Y-121994873D01*
X148746788Y-121916232D01*
X148886928Y-121814414D01*
X149009414Y-121691928D01*
X149111232Y-121551788D01*
X149189873Y-121397445D01*
X149243402Y-121232701D01*
X149270500Y-121061611D01*
X149270500Y-120888389D01*
X149243402Y-120717299D01*
X149189873Y-120552555D01*
X149111232Y-120398212D01*
X149009414Y-120258072D01*
X148886928Y-120135586D01*
X148746788Y-120033768D01*
X148592445Y-119955127D01*
X148427701Y-119901598D01*
X148427699Y-119901597D01*
X148427698Y-119901597D01*
X148296271Y-119880781D01*
X148256611Y-119874500D01*
X148083389Y-119874500D01*
X148043728Y-119880781D01*
X147912302Y-119901597D01*
X147747552Y-119955128D01*
X147593211Y-120033768D01*
X147537115Y-120074525D01*
X147453072Y-120135586D01*
X147453070Y-120135588D01*
X147453069Y-120135588D01*
X147330588Y-120258069D01*
X147330588Y-120258070D01*
X147330586Y-120258072D01*
X147286859Y-120318256D01*
X147228768Y-120398211D01*
X147150128Y-120552552D01*
X147096597Y-120717302D01*
X147069500Y-120888389D01*
X145340500Y-120888389D01*
X145340500Y-120827494D01*
X145301993Y-120535007D01*
X145225639Y-120250048D01*
X145112743Y-119977493D01*
X145062604Y-119890650D01*
X144965238Y-119722006D01*
X144785647Y-119487959D01*
X144785641Y-119487952D01*
X144577047Y-119279358D01*
X144577040Y-119279352D01*
X144342993Y-119099761D01*
X144087510Y-118952258D01*
X144087500Y-118952254D01*
X143814961Y-118839364D01*
X143814954Y-118839362D01*
X143814952Y-118839361D01*
X143529993Y-118763007D01*
X143481113Y-118756571D01*
X143237513Y-118724500D01*
X143237506Y-118724500D01*
X142942494Y-118724500D01*
X142942486Y-118724500D01*
X142664085Y-118761153D01*
X142650007Y-118763007D01*
X142475861Y-118809669D01*
X142365048Y-118839361D01*
X142365038Y-118839364D01*
X142092499Y-118952254D01*
X142092489Y-118952258D01*
X141837006Y-119099761D01*
X141602959Y-119279352D01*
X141602952Y-119279358D01*
X141394358Y-119487952D01*
X141394352Y-119487959D01*
X141214761Y-119722006D01*
X141067258Y-119977489D01*
X141067254Y-119977499D01*
X140954364Y-120250038D01*
X140954361Y-120250048D01*
X140878008Y-120535004D01*
X140878006Y-120535015D01*
X140839500Y-120827486D01*
X139100854Y-120827486D01*
X139083402Y-120717299D01*
X139029873Y-120552555D01*
X138951232Y-120398212D01*
X138849414Y-120258072D01*
X138796882Y-120205540D01*
X138763397Y-120144217D01*
X138768381Y-120074525D01*
X138810253Y-120018592D01*
X138875717Y-119994175D01*
X138903961Y-119995386D01*
X139154072Y-120035000D01*
X139405928Y-120035000D01*
X139654669Y-119995602D01*
X139894184Y-119917780D01*
X140118575Y-119803446D01*
X140118581Y-119803442D01*
X140220697Y-119729250D01*
X140220698Y-119729250D01*
X139604025Y-119112578D01*
X139635258Y-119099641D01*
X139758097Y-119017563D01*
X139862563Y-118913097D01*
X139944641Y-118790258D01*
X139957578Y-118759025D01*
X140574250Y-119375698D01*
X140574250Y-119375697D01*
X140648442Y-119273581D01*
X140648446Y-119273575D01*
X140762780Y-119049184D01*
X140840602Y-118809669D01*
X140880000Y-118560928D01*
X140880000Y-118309071D01*
X140840602Y-118060330D01*
X140762780Y-117820815D01*
X140648442Y-117596416D01*
X140574250Y-117494301D01*
X140574250Y-117494300D01*
X139957577Y-118110973D01*
X139944641Y-118079742D01*
X139862563Y-117956903D01*
X139758097Y-117852437D01*
X139635258Y-117770359D01*
X139604024Y-117757421D01*
X140220698Y-117140748D01*
X140118583Y-117066557D01*
X139894184Y-116952219D01*
X139654669Y-116874397D01*
X139405928Y-116835000D01*
X139154072Y-116835000D01*
X138905330Y-116874397D01*
X138665815Y-116952219D01*
X138441413Y-117066559D01*
X138339301Y-117140747D01*
X138339300Y-117140748D01*
X138955974Y-117757421D01*
X138924742Y-117770359D01*
X138801903Y-117852437D01*
X138697437Y-117956903D01*
X138615359Y-118079742D01*
X138602421Y-118110974D01*
X137985748Y-117494300D01*
X137985747Y-117494301D01*
X137911559Y-117596413D01*
X137797219Y-117820815D01*
X137719397Y-118060330D01*
X137680000Y-118309071D01*
X137680000Y-118560928D01*
X137719397Y-118809669D01*
X137797219Y-119049184D01*
X137911557Y-119273583D01*
X137985748Y-119375697D01*
X137985748Y-119375698D01*
X138602421Y-118759024D01*
X138615359Y-118790258D01*
X138697437Y-118913097D01*
X138801903Y-119017563D01*
X138924742Y-119099641D01*
X138955974Y-119112577D01*
X138339300Y-119729250D01*
X138341598Y-119758449D01*
X138327233Y-119826827D01*
X138278181Y-119876583D01*
X138210016Y-119891921D01*
X138198583Y-119890650D01*
X138096611Y-119874500D01*
X137923389Y-119874500D01*
X137883728Y-119880781D01*
X137752302Y-119901597D01*
X137587552Y-119955128D01*
X137433211Y-120033768D01*
X137377115Y-120074525D01*
X137293072Y-120135586D01*
X137293070Y-120135588D01*
X137293069Y-120135588D01*
X137170588Y-120258069D01*
X137170588Y-120258070D01*
X137170586Y-120258072D01*
X137126859Y-120318256D01*
X137068768Y-120398211D01*
X136990128Y-120552552D01*
X136936597Y-120717302D01*
X136909500Y-120888389D01*
X134180500Y-120888389D01*
X134153402Y-120717299D01*
X134099873Y-120552555D01*
X134021232Y-120398212D01*
X133919414Y-120258072D01*
X133796928Y-120135586D01*
X133656788Y-120033768D01*
X133502445Y-119955127D01*
X133337701Y-119901598D01*
X133337699Y-119901597D01*
X133337698Y-119901597D01*
X133206271Y-119880781D01*
X133166611Y-119874500D01*
X132993389Y-119874500D01*
X132953728Y-119880781D01*
X132822302Y-119901597D01*
X132657552Y-119955128D01*
X132503211Y-120033768D01*
X132447115Y-120074525D01*
X132363072Y-120135586D01*
X132363070Y-120135588D01*
X132363069Y-120135588D01*
X132240588Y-120258069D01*
X132240588Y-120258070D01*
X132240586Y-120258072D01*
X132196859Y-120318256D01*
X132138768Y-120398211D01*
X132060128Y-120552552D01*
X132006597Y-120717302D01*
X131979500Y-120888389D01*
X130250500Y-120888389D01*
X130250500Y-120827494D01*
X130211993Y-120535007D01*
X130135639Y-120250048D01*
X130022743Y-119977493D01*
X129972604Y-119890650D01*
X129875238Y-119722006D01*
X129695647Y-119487959D01*
X129695641Y-119487952D01*
X129487047Y-119279358D01*
X129487040Y-119279352D01*
X129252993Y-119099761D01*
X128997510Y-118952258D01*
X128997500Y-118952254D01*
X128724961Y-118839364D01*
X128724954Y-118839362D01*
X128724952Y-118839361D01*
X128439993Y-118763007D01*
X128391113Y-118756571D01*
X128147513Y-118724500D01*
X128147506Y-118724500D01*
X127852494Y-118724500D01*
X127852486Y-118724500D01*
X127574085Y-118761153D01*
X127560007Y-118763007D01*
X127385861Y-118809669D01*
X127275048Y-118839361D01*
X127275038Y-118839364D01*
X127002499Y-118952254D01*
X127002489Y-118952258D01*
X126747006Y-119099761D01*
X126512959Y-119279352D01*
X126512952Y-119279358D01*
X126304358Y-119487952D01*
X126304352Y-119487959D01*
X126124761Y-119722006D01*
X125977258Y-119977489D01*
X125977254Y-119977499D01*
X125864364Y-120250038D01*
X125864361Y-120250048D01*
X125788008Y-120535004D01*
X125788006Y-120535015D01*
X125749500Y-120827486D01*
X124010854Y-120827486D01*
X123993402Y-120717299D01*
X123939873Y-120552555D01*
X123861232Y-120398212D01*
X123759414Y-120258072D01*
X123706882Y-120205540D01*
X123673397Y-120144217D01*
X123678381Y-120074525D01*
X123720253Y-120018592D01*
X123785717Y-119994175D01*
X123813961Y-119995386D01*
X124064072Y-120035000D01*
X124315928Y-120035000D01*
X124564669Y-119995602D01*
X124804184Y-119917780D01*
X125028575Y-119803446D01*
X125028581Y-119803442D01*
X125130697Y-119729250D01*
X125130698Y-119729250D01*
X124514025Y-119112578D01*
X124545258Y-119099641D01*
X124668097Y-119017563D01*
X124772563Y-118913097D01*
X124854641Y-118790258D01*
X124867577Y-118759025D01*
X125484250Y-119375698D01*
X125484250Y-119375697D01*
X125558442Y-119273581D01*
X125558446Y-119273575D01*
X125672780Y-119049184D01*
X125750602Y-118809669D01*
X125790000Y-118560928D01*
X125790000Y-118309071D01*
X125750602Y-118060330D01*
X125672780Y-117820815D01*
X125558442Y-117596416D01*
X125484250Y-117494301D01*
X125484250Y-117494300D01*
X124867577Y-118110973D01*
X124854641Y-118079742D01*
X124772563Y-117956903D01*
X124668097Y-117852437D01*
X124545258Y-117770359D01*
X124514024Y-117757421D01*
X125130698Y-117140748D01*
X125028583Y-117066557D01*
X124804184Y-116952219D01*
X124564669Y-116874397D01*
X124315928Y-116835000D01*
X124064072Y-116835000D01*
X123815330Y-116874397D01*
X123575815Y-116952219D01*
X123351413Y-117066559D01*
X123249301Y-117140747D01*
X123249300Y-117140748D01*
X123865974Y-117757421D01*
X123834742Y-117770359D01*
X123711903Y-117852437D01*
X123607437Y-117956903D01*
X123525359Y-118079742D01*
X123512421Y-118110974D01*
X122895748Y-117494300D01*
X122895747Y-117494301D01*
X122821559Y-117596413D01*
X122707219Y-117820815D01*
X122629397Y-118060330D01*
X122590000Y-118309071D01*
X122590000Y-118560928D01*
X122629397Y-118809669D01*
X122707219Y-119049184D01*
X122821557Y-119273583D01*
X122895748Y-119375697D01*
X122895748Y-119375698D01*
X123512421Y-118759024D01*
X123525359Y-118790258D01*
X123607437Y-118913097D01*
X123711903Y-119017563D01*
X123834742Y-119099641D01*
X123865974Y-119112577D01*
X123249300Y-119729250D01*
X123251598Y-119758449D01*
X123237233Y-119826827D01*
X123188181Y-119876583D01*
X123120016Y-119891921D01*
X123108583Y-119890650D01*
X123006611Y-119874500D01*
X122833389Y-119874500D01*
X122793728Y-119880781D01*
X122662302Y-119901597D01*
X122497552Y-119955128D01*
X122343211Y-120033768D01*
X122287115Y-120074525D01*
X122203072Y-120135586D01*
X122203070Y-120135588D01*
X122203069Y-120135588D01*
X122080588Y-120258069D01*
X122080588Y-120258070D01*
X122080586Y-120258072D01*
X122036859Y-120318256D01*
X121978768Y-120398211D01*
X121900128Y-120552552D01*
X121846597Y-120717302D01*
X121819500Y-120888389D01*
X119090500Y-120888389D01*
X119063402Y-120717299D01*
X119009873Y-120552555D01*
X118931232Y-120398212D01*
X118829414Y-120258072D01*
X118706928Y-120135586D01*
X118566788Y-120033768D01*
X118412445Y-119955127D01*
X118247701Y-119901598D01*
X118247699Y-119901597D01*
X118247698Y-119901597D01*
X118116271Y-119880781D01*
X118076611Y-119874500D01*
X117903389Y-119874500D01*
X117863728Y-119880781D01*
X117732302Y-119901597D01*
X117567552Y-119955128D01*
X117413211Y-120033768D01*
X117357115Y-120074525D01*
X117273072Y-120135586D01*
X117273070Y-120135588D01*
X117273069Y-120135588D01*
X117150588Y-120258069D01*
X117150588Y-120258070D01*
X117150586Y-120258072D01*
X117106859Y-120318256D01*
X117048768Y-120398211D01*
X116970128Y-120552552D01*
X116916597Y-120717302D01*
X116889500Y-120888389D01*
X115160500Y-120888389D01*
X115160500Y-120827494D01*
X115121993Y-120535007D01*
X115045639Y-120250048D01*
X114932743Y-119977493D01*
X114882604Y-119890650D01*
X114785238Y-119722006D01*
X114605647Y-119487959D01*
X114605641Y-119487952D01*
X114397047Y-119279358D01*
X114397040Y-119279352D01*
X114162993Y-119099761D01*
X113907510Y-118952258D01*
X113907500Y-118952254D01*
X113634961Y-118839364D01*
X113634954Y-118839362D01*
X113634952Y-118839361D01*
X113349993Y-118763007D01*
X113301113Y-118756571D01*
X113057513Y-118724500D01*
X113057506Y-118724500D01*
X112762494Y-118724500D01*
X112762486Y-118724500D01*
X112484085Y-118761153D01*
X112470007Y-118763007D01*
X112295861Y-118809669D01*
X112185048Y-118839361D01*
X112185038Y-118839364D01*
X111912499Y-118952254D01*
X111912489Y-118952258D01*
X111657006Y-119099761D01*
X111422959Y-119279352D01*
X111422952Y-119279358D01*
X111214358Y-119487952D01*
X111214352Y-119487959D01*
X111034761Y-119722006D01*
X110887258Y-119977489D01*
X110887254Y-119977499D01*
X110774364Y-120250038D01*
X110774361Y-120250048D01*
X110698008Y-120535004D01*
X110698006Y-120535015D01*
X110659500Y-120827486D01*
X108920854Y-120827486D01*
X108903402Y-120717299D01*
X108849873Y-120552555D01*
X108771232Y-120398212D01*
X108669414Y-120258072D01*
X108616882Y-120205540D01*
X108583397Y-120144217D01*
X108588381Y-120074525D01*
X108630253Y-120018592D01*
X108695717Y-119994175D01*
X108723961Y-119995386D01*
X108974072Y-120035000D01*
X109225928Y-120035000D01*
X109474669Y-119995602D01*
X109714184Y-119917780D01*
X109938575Y-119803446D01*
X109938581Y-119803442D01*
X110040697Y-119729250D01*
X110040698Y-119729250D01*
X109424025Y-119112578D01*
X109455258Y-119099641D01*
X109578097Y-119017563D01*
X109682563Y-118913097D01*
X109764641Y-118790258D01*
X109777577Y-118759025D01*
X110394250Y-119375698D01*
X110394250Y-119375697D01*
X110468442Y-119273581D01*
X110468446Y-119273575D01*
X110582780Y-119049184D01*
X110660602Y-118809669D01*
X110700000Y-118560928D01*
X110700000Y-118309071D01*
X110660602Y-118060330D01*
X110582780Y-117820815D01*
X110468442Y-117596416D01*
X110394250Y-117494301D01*
X110394250Y-117494300D01*
X109777577Y-118110973D01*
X109764641Y-118079742D01*
X109682563Y-117956903D01*
X109578097Y-117852437D01*
X109455258Y-117770359D01*
X109424024Y-117757421D01*
X110040698Y-117140748D01*
X109938583Y-117066557D01*
X109714184Y-116952219D01*
X109474669Y-116874397D01*
X109225928Y-116835000D01*
X108974072Y-116835000D01*
X108725330Y-116874397D01*
X108485815Y-116952219D01*
X108261413Y-117066559D01*
X108159301Y-117140747D01*
X108159300Y-117140748D01*
X108775974Y-117757421D01*
X108744742Y-117770359D01*
X108621903Y-117852437D01*
X108517437Y-117956903D01*
X108435359Y-118079742D01*
X108422421Y-118110974D01*
X107805748Y-117494300D01*
X107805747Y-117494301D01*
X107731559Y-117596413D01*
X107617219Y-117820815D01*
X107539397Y-118060330D01*
X107500000Y-118309071D01*
X107500000Y-118560928D01*
X107539397Y-118809669D01*
X107617219Y-119049184D01*
X107731557Y-119273583D01*
X107805748Y-119375697D01*
X107805748Y-119375698D01*
X108422421Y-118759024D01*
X108435359Y-118790258D01*
X108517437Y-118913097D01*
X108621903Y-119017563D01*
X108744742Y-119099641D01*
X108775974Y-119112577D01*
X108159300Y-119729250D01*
X108161598Y-119758449D01*
X108147233Y-119826827D01*
X108098181Y-119876583D01*
X108030016Y-119891921D01*
X108018583Y-119890650D01*
X107916611Y-119874500D01*
X107743389Y-119874500D01*
X107703728Y-119880781D01*
X107572302Y-119901597D01*
X107407552Y-119955128D01*
X107253211Y-120033768D01*
X107197115Y-120074525D01*
X107113072Y-120135586D01*
X107113070Y-120135588D01*
X107113069Y-120135588D01*
X106990588Y-120258069D01*
X106990588Y-120258070D01*
X106990586Y-120258072D01*
X106946859Y-120318256D01*
X106888768Y-120398211D01*
X106810128Y-120552552D01*
X106756597Y-120717302D01*
X106729500Y-120888389D01*
X81047692Y-120888389D01*
X81131837Y-115769038D01*
X113849500Y-115769038D01*
X113849500Y-116020961D01*
X113888910Y-116269785D01*
X113966760Y-116509383D01*
X114081132Y-116733848D01*
X114229201Y-116937649D01*
X114229205Y-116937654D01*
X114407345Y-117115794D01*
X114407350Y-117115798D01*
X114585117Y-117244952D01*
X114611155Y-117263870D01*
X114754184Y-117336747D01*
X114835616Y-117378239D01*
X114835618Y-117378239D01*
X114835621Y-117378241D01*
X115075215Y-117456090D01*
X115324038Y-117495500D01*
X115324039Y-117495500D01*
X115575961Y-117495500D01*
X115575962Y-117495500D01*
X115824785Y-117456090D01*
X116064379Y-117378241D01*
X116288845Y-117263870D01*
X116492656Y-117115793D01*
X116670793Y-116937656D01*
X116818870Y-116733845D01*
X116933241Y-116509379D01*
X117011090Y-116269785D01*
X117050500Y-116020962D01*
X117050500Y-115769038D01*
X117011090Y-115520215D01*
X116933241Y-115280621D01*
X116933239Y-115280618D01*
X116933239Y-115280616D01*
X116891747Y-115199184D01*
X116818870Y-115056155D01*
X116799952Y-115030117D01*
X116670798Y-114852350D01*
X116670794Y-114852345D01*
X116492654Y-114674205D01*
X116492649Y-114674201D01*
X116288848Y-114526132D01*
X116288847Y-114526131D01*
X116288845Y-114526130D01*
X116218747Y-114490413D01*
X116064383Y-114411760D01*
X115824785Y-114333910D01*
X115575962Y-114294500D01*
X115324038Y-114294500D01*
X115199626Y-114314205D01*
X115075214Y-114333910D01*
X114835616Y-114411760D01*
X114611151Y-114526132D01*
X114407350Y-114674201D01*
X114407345Y-114674205D01*
X114229205Y-114852345D01*
X114229201Y-114852350D01*
X114081132Y-115056151D01*
X113966760Y-115280616D01*
X113888910Y-115520214D01*
X113849500Y-115769038D01*
X81131837Y-115769038D01*
X81283431Y-106546032D01*
X81304214Y-106479327D01*
X81357763Y-106434446D01*
X81427076Y-106425641D01*
X81481726Y-106448806D01*
X81547910Y-106498352D01*
X81547913Y-106498354D01*
X81682620Y-106548596D01*
X81682627Y-106548598D01*
X81742155Y-106554999D01*
X81742172Y-106555000D01*
X81990000Y-106555000D01*
X81990000Y-104055000D01*
X81742155Y-104055000D01*
X81682627Y-104061401D01*
X81682620Y-104061403D01*
X81547913Y-104111645D01*
X81547907Y-104111648D01*
X81523095Y-104130223D01*
X81457631Y-104154639D01*
X81389358Y-104139787D01*
X81339953Y-104090381D01*
X81324804Y-104028921D01*
X81422926Y-98059162D01*
X81443708Y-97992460D01*
X81497257Y-97947579D01*
X81566570Y-97938774D01*
X81629640Y-97968839D01*
X81634589Y-97973524D01*
X82873181Y-99212116D01*
X82906666Y-99273439D01*
X82909500Y-99299797D01*
X82909500Y-103935410D01*
X82889815Y-104002449D01*
X82837011Y-104048204D01*
X82772246Y-104058700D01*
X82737830Y-104055000D01*
X82490000Y-104055000D01*
X82490000Y-106555000D01*
X82737828Y-106555000D01*
X82737844Y-106554999D01*
X82797372Y-106548598D01*
X82797375Y-106548597D01*
X82830949Y-106536075D01*
X82900640Y-106531089D01*
X82917619Y-106536075D01*
X82952511Y-106549089D01*
X82952512Y-106549089D01*
X82952517Y-106549091D01*
X83012127Y-106555500D01*
X84007872Y-106555499D01*
X84067483Y-106549091D01*
X84101667Y-106536340D01*
X84171358Y-106531357D01*
X84188327Y-106536338D01*
X84222517Y-106549091D01*
X84282127Y-106555500D01*
X85277872Y-106555499D01*
X85337483Y-106549091D01*
X85346191Y-106545842D01*
X85415881Y-106540857D01*
X85477205Y-106574340D01*
X85496909Y-106600018D01*
X85549559Y-106691213D01*
X85569473Y-106725705D01*
X85569474Y-106725706D01*
X85569480Y-106725716D01*
X85660027Y-106816263D01*
X85660029Y-106816265D01*
X90134886Y-111291318D01*
X90134918Y-111291354D01*
X90140279Y-111296715D01*
X90140280Y-111296716D01*
X90229232Y-111385668D01*
X90229235Y-111385671D01*
X90252207Y-111408645D01*
X90252525Y-111408881D01*
X90255247Y-111410346D01*
X90329150Y-111453014D01*
X90329152Y-111453014D01*
X90389003Y-111487572D01*
X90389011Y-111487574D01*
X90389016Y-111487577D01*
X90446912Y-111503090D01*
X90541730Y-111528499D01*
X90541739Y-111528499D01*
X90541743Y-111528500D01*
X90594435Y-111528500D01*
X90699844Y-111528502D01*
X90699847Y-111528500D01*
X90708468Y-111528501D01*
X90708497Y-111528500D01*
X118793879Y-111528500D01*
X118795492Y-111528604D01*
X118802666Y-111528595D01*
X118802669Y-111528596D01*
X118882140Y-111528500D01*
X118960057Y-111528500D01*
X118960058Y-111528500D01*
X118960770Y-111528405D01*
X118960783Y-111528405D01*
X119036949Y-111507896D01*
X119037106Y-111507899D01*
X119037095Y-111507857D01*
X119112780Y-111487578D01*
X119112779Y-111487578D01*
X119112784Y-111487577D01*
X119112788Y-111487574D01*
X119113284Y-111487369D01*
X119113398Y-111487321D01*
X119113448Y-111487299D01*
X119113461Y-111487296D01*
X119181353Y-111447988D01*
X119249716Y-111408520D01*
X119249724Y-111408512D01*
X119250290Y-111408076D01*
X119250297Y-111408073D01*
X119305612Y-111352623D01*
X119361520Y-111296716D01*
X119361522Y-111296711D01*
X119366648Y-111291586D01*
X119367702Y-111290382D01*
X119718304Y-110938931D01*
X119718411Y-110938824D01*
X119774520Y-110882716D01*
X119774524Y-110882707D01*
X119774963Y-110882136D01*
X119774965Y-110882134D01*
X119814177Y-110814027D01*
X119853577Y-110745784D01*
X119853578Y-110745777D01*
X119853754Y-110745354D01*
X119853808Y-110745224D01*
X119853851Y-110745117D01*
X119853857Y-110745108D01*
X119853860Y-110745097D01*
X119874262Y-110668589D01*
X119874295Y-110668597D01*
X119874298Y-110668447D01*
X119894500Y-110593057D01*
X119894500Y-110593049D01*
X119894503Y-110593038D01*
X119894596Y-110592331D01*
X119894500Y-110512859D01*
X119894500Y-110004841D01*
X119894553Y-109967325D01*
X119914332Y-109900313D01*
X119967201Y-109854633D01*
X120018553Y-109843500D01*
X123587903Y-109843500D01*
X123654942Y-109863185D01*
X123675584Y-109879819D01*
X129007840Y-115212076D01*
X129041325Y-115273399D01*
X129038090Y-115338075D01*
X128978910Y-115520210D01*
X128978910Y-115520213D01*
X128939500Y-115769038D01*
X128939500Y-116020961D01*
X128978910Y-116269785D01*
X129056760Y-116509383D01*
X129171132Y-116733848D01*
X129319201Y-116937649D01*
X129319205Y-116937654D01*
X129497345Y-117115794D01*
X129497350Y-117115798D01*
X129675117Y-117244952D01*
X129701155Y-117263870D01*
X129844184Y-117336747D01*
X129925616Y-117378239D01*
X129925618Y-117378239D01*
X129925621Y-117378241D01*
X130165215Y-117456090D01*
X130414038Y-117495500D01*
X130414039Y-117495500D01*
X130665961Y-117495500D01*
X130665962Y-117495500D01*
X130914785Y-117456090D01*
X131154379Y-117378241D01*
X131378845Y-117263870D01*
X131582656Y-117115793D01*
X131760793Y-116937656D01*
X131908870Y-116733845D01*
X132023241Y-116509379D01*
X132101090Y-116269785D01*
X132140500Y-116020962D01*
X132140500Y-115769038D01*
X132101090Y-115520215D01*
X132023241Y-115280621D01*
X132023239Y-115280618D01*
X132023239Y-115280616D01*
X131981747Y-115199184D01*
X131908870Y-115056155D01*
X131889952Y-115030117D01*
X131760798Y-114852350D01*
X131760794Y-114852345D01*
X131582654Y-114674205D01*
X131582649Y-114674201D01*
X131378848Y-114526132D01*
X131378847Y-114526131D01*
X131378845Y-114526130D01*
X131308747Y-114490413D01*
X131154383Y-114411760D01*
X130914785Y-114333910D01*
X130665962Y-114294500D01*
X130414038Y-114294500D01*
X130331097Y-114307636D01*
X130165213Y-114333910D01*
X130165210Y-114333910D01*
X129983075Y-114393090D01*
X129913234Y-114395085D01*
X129857076Y-114362840D01*
X124838416Y-109344181D01*
X124804931Y-109282858D01*
X124809915Y-109213166D01*
X124851787Y-109157233D01*
X124917251Y-109132816D01*
X124926097Y-109132500D01*
X132343331Y-109132500D01*
X132343347Y-109132501D01*
X132350943Y-109132501D01*
X132509054Y-109132501D01*
X132509057Y-109132501D01*
X132661785Y-109091577D01*
X132739862Y-109046499D01*
X132798716Y-109012520D01*
X132910520Y-108900716D01*
X132910520Y-108900714D01*
X132920724Y-108890511D01*
X132920727Y-108890506D01*
X135390520Y-106420716D01*
X135469577Y-106283784D01*
X135510501Y-106131057D01*
X135510501Y-105975095D01*
X135530186Y-105908056D01*
X135546815Y-105887419D01*
X137575131Y-103859103D01*
X137636452Y-103825620D01*
X137706144Y-103830604D01*
X137762077Y-103872476D01*
X137780741Y-103908468D01*
X137797219Y-103959184D01*
X137911557Y-104183583D01*
X137985748Y-104285697D01*
X137985748Y-104285698D01*
X138602421Y-103669024D01*
X138615359Y-103700258D01*
X138697437Y-103823097D01*
X138801903Y-103927563D01*
X138924742Y-104009641D01*
X138955974Y-104022577D01*
X138339300Y-104639250D01*
X138341598Y-104668449D01*
X138327233Y-104736827D01*
X138278181Y-104786583D01*
X138210016Y-104801921D01*
X138198583Y-104800650D01*
X138096611Y-104784500D01*
X137923389Y-104784500D01*
X137883728Y-104790781D01*
X137752302Y-104811597D01*
X137587552Y-104865128D01*
X137433211Y-104943768D01*
X137377115Y-104984525D01*
X137293072Y-105045586D01*
X137293070Y-105045588D01*
X137293069Y-105045588D01*
X137170588Y-105168069D01*
X137170588Y-105168070D01*
X137170586Y-105168072D01*
X137126859Y-105228256D01*
X137068768Y-105308211D01*
X136990128Y-105462552D01*
X136936597Y-105627302D01*
X136909500Y-105798389D01*
X136909500Y-105971610D01*
X136934753Y-106131057D01*
X136936598Y-106142701D01*
X136990127Y-106307445D01*
X137068768Y-106461788D01*
X137170586Y-106601928D01*
X137293072Y-106724414D01*
X137433212Y-106826232D01*
X137587555Y-106904873D01*
X137752299Y-106958402D01*
X137923389Y-106985500D01*
X137923390Y-106985500D01*
X138096610Y-106985500D01*
X138096611Y-106985500D01*
X138267701Y-106958402D01*
X138432445Y-106904873D01*
X138586788Y-106826232D01*
X138726928Y-106724414D01*
X138849414Y-106601928D01*
X138951232Y-106461788D01*
X139029873Y-106307445D01*
X139083402Y-106142701D01*
X139110500Y-105971611D01*
X139110500Y-105798389D01*
X139100854Y-105737486D01*
X140839500Y-105737486D01*
X140839500Y-106032513D01*
X140856612Y-106162483D01*
X140878007Y-106324993D01*
X140952212Y-106601930D01*
X140954361Y-106609951D01*
X140954364Y-106609961D01*
X141067254Y-106882500D01*
X141067258Y-106882510D01*
X141214761Y-107137993D01*
X141394352Y-107372040D01*
X141394358Y-107372047D01*
X141602952Y-107580641D01*
X141602959Y-107580647D01*
X141837006Y-107760238D01*
X142092489Y-107907741D01*
X142092490Y-107907741D01*
X142092493Y-107907743D01*
X142365048Y-108020639D01*
X142650007Y-108096993D01*
X142942494Y-108135500D01*
X142942501Y-108135500D01*
X143237499Y-108135500D01*
X143237506Y-108135500D01*
X143529993Y-108096993D01*
X143814952Y-108020639D01*
X144087507Y-107907743D01*
X144342994Y-107760238D01*
X144577042Y-107580646D01*
X144785646Y-107372042D01*
X144965238Y-107137994D01*
X145112743Y-106882507D01*
X145225639Y-106609952D01*
X145301993Y-106324993D01*
X145340500Y-106032506D01*
X145340500Y-105737494D01*
X145301993Y-105445007D01*
X145225639Y-105160048D01*
X145112743Y-104887493D01*
X145062604Y-104800650D01*
X144965238Y-104632006D01*
X144785647Y-104397959D01*
X144785641Y-104397952D01*
X144577047Y-104189358D01*
X144577040Y-104189352D01*
X144342993Y-104009761D01*
X144087510Y-103862258D01*
X144087500Y-103862254D01*
X143814961Y-103749364D01*
X143814954Y-103749362D01*
X143814952Y-103749361D01*
X143529993Y-103673007D01*
X143481113Y-103666571D01*
X143237513Y-103634500D01*
X143237506Y-103634500D01*
X142942494Y-103634500D01*
X142942486Y-103634500D01*
X142664085Y-103671153D01*
X142650007Y-103673007D01*
X142475861Y-103719669D01*
X142365048Y-103749361D01*
X142365038Y-103749364D01*
X142092499Y-103862254D01*
X142092489Y-103862258D01*
X141837006Y-104009761D01*
X141602959Y-104189352D01*
X141602952Y-104189358D01*
X141394358Y-104397952D01*
X141394352Y-104397959D01*
X141214761Y-104632006D01*
X141067258Y-104887489D01*
X141067254Y-104887499D01*
X140954364Y-105160038D01*
X140954361Y-105160048D01*
X140894339Y-105384057D01*
X140878008Y-105445004D01*
X140878006Y-105445015D01*
X140839500Y-105737486D01*
X139100854Y-105737486D01*
X139083402Y-105627299D01*
X139029873Y-105462555D01*
X138951232Y-105308212D01*
X138849414Y-105168072D01*
X138796882Y-105115540D01*
X138763397Y-105054217D01*
X138768381Y-104984525D01*
X138810253Y-104928592D01*
X138875717Y-104904175D01*
X138903961Y-104905386D01*
X139154072Y-104945000D01*
X139405928Y-104945000D01*
X139654669Y-104905602D01*
X139894184Y-104827780D01*
X140118575Y-104713446D01*
X140118581Y-104713442D01*
X140220697Y-104639250D01*
X140220698Y-104639250D01*
X139604025Y-104022578D01*
X139635258Y-104009641D01*
X139758097Y-103927563D01*
X139862563Y-103823097D01*
X139944641Y-103700258D01*
X139957578Y-103669025D01*
X140574250Y-104285698D01*
X140574250Y-104285697D01*
X140648442Y-104183581D01*
X140648446Y-104183575D01*
X140762780Y-103959184D01*
X140840602Y-103719669D01*
X140880000Y-103470928D01*
X140880000Y-103219071D01*
X140840602Y-102970330D01*
X140762780Y-102730815D01*
X140648442Y-102506416D01*
X140574250Y-102404301D01*
X140574250Y-102404300D01*
X139957577Y-103020973D01*
X139944641Y-102989742D01*
X139862563Y-102866903D01*
X139758097Y-102762437D01*
X139635258Y-102680359D01*
X139604024Y-102667421D01*
X140220698Y-102050748D01*
X140118583Y-101976557D01*
X139894184Y-101862219D01*
X139843468Y-101845741D01*
X139785793Y-101806304D01*
X139758594Y-101741945D01*
X139770508Y-101673099D01*
X139794102Y-101640132D01*
X139992416Y-101441819D01*
X140053739Y-101408334D01*
X140080097Y-101405500D01*
X144063700Y-101405500D01*
X144130739Y-101425185D01*
X144174184Y-101473204D01*
X144257550Y-101636819D01*
X144261132Y-101643848D01*
X144409201Y-101847649D01*
X144409205Y-101847654D01*
X144587345Y-102025794D01*
X144587350Y-102025798D01*
X144677939Y-102091614D01*
X144791155Y-102173870D01*
X144934184Y-102246747D01*
X145015616Y-102288239D01*
X145015618Y-102288239D01*
X145015621Y-102288241D01*
X145255215Y-102366090D01*
X145504038Y-102405500D01*
X145528901Y-102405500D01*
X145595940Y-102425185D01*
X145641695Y-102477989D01*
X145651639Y-102547147D01*
X145648678Y-102561580D01*
X145617499Y-102677943D01*
X145617499Y-102677945D01*
X145617499Y-102846046D01*
X145617500Y-102846059D01*
X145617500Y-114170946D01*
X145597815Y-114237985D01*
X145545011Y-114283740D01*
X145508754Y-114293134D01*
X145508850Y-114293738D01*
X145504039Y-114294500D01*
X145504038Y-114294500D01*
X145384686Y-114313403D01*
X145255214Y-114333910D01*
X145015616Y-114411760D01*
X144791151Y-114526132D01*
X144587350Y-114674201D01*
X144587345Y-114674205D01*
X144409205Y-114852345D01*
X144409201Y-114852350D01*
X144261132Y-115056151D01*
X144146760Y-115280616D01*
X144068910Y-115520214D01*
X144029500Y-115769038D01*
X144029500Y-116020961D01*
X144068910Y-116269785D01*
X144146760Y-116509383D01*
X144261132Y-116733848D01*
X144409201Y-116937649D01*
X144409205Y-116937654D01*
X144587345Y-117115794D01*
X144587350Y-117115798D01*
X144765117Y-117244952D01*
X144791155Y-117263870D01*
X144934184Y-117336747D01*
X145015616Y-117378239D01*
X145015618Y-117378239D01*
X145015621Y-117378241D01*
X145255215Y-117456090D01*
X145504038Y-117495500D01*
X145504039Y-117495500D01*
X145755961Y-117495500D01*
X145755962Y-117495500D01*
X146004785Y-117456090D01*
X146244379Y-117378241D01*
X146468845Y-117263870D01*
X146672656Y-117115793D01*
X146850793Y-116937656D01*
X146998870Y-116733845D01*
X147113241Y-116509379D01*
X147191090Y-116269785D01*
X147230500Y-116020962D01*
X147230500Y-115769038D01*
X147191090Y-115520215D01*
X147113241Y-115280621D01*
X147113239Y-115280618D01*
X147113239Y-115280616D01*
X147071747Y-115199184D01*
X146998870Y-115056155D01*
X146979952Y-115030117D01*
X146850798Y-114852350D01*
X146848216Y-114849327D01*
X146819641Y-114785568D01*
X146818500Y-114768788D01*
X146818500Y-105798389D01*
X147069500Y-105798389D01*
X147069500Y-105971610D01*
X147094753Y-106131057D01*
X147096598Y-106142701D01*
X147150127Y-106307445D01*
X147228768Y-106461788D01*
X147330586Y-106601928D01*
X147453072Y-106724414D01*
X147593212Y-106826232D01*
X147747555Y-106904873D01*
X147912299Y-106958402D01*
X148083389Y-106985500D01*
X148083390Y-106985500D01*
X148256610Y-106985500D01*
X148256611Y-106985500D01*
X148427701Y-106958402D01*
X148592445Y-106904873D01*
X148746788Y-106826232D01*
X148886928Y-106724414D01*
X149009414Y-106601928D01*
X149111232Y-106461788D01*
X149189873Y-106307445D01*
X149243402Y-106142701D01*
X149270500Y-105971611D01*
X149270500Y-105798389D01*
X149243402Y-105627299D01*
X149189873Y-105462555D01*
X149111232Y-105308212D01*
X149009414Y-105168072D01*
X148886928Y-105045586D01*
X148746788Y-104943768D01*
X148592445Y-104865127D01*
X148427701Y-104811598D01*
X148427699Y-104811597D01*
X148427698Y-104811597D01*
X148296271Y-104790781D01*
X148256611Y-104784500D01*
X148083389Y-104784500D01*
X148043728Y-104790781D01*
X147912302Y-104811597D01*
X147747552Y-104865128D01*
X147593211Y-104943768D01*
X147537115Y-104984525D01*
X147453072Y-105045586D01*
X147453070Y-105045588D01*
X147453069Y-105045588D01*
X147330588Y-105168069D01*
X147330588Y-105168070D01*
X147330586Y-105168072D01*
X147286859Y-105228256D01*
X147228768Y-105308211D01*
X147150128Y-105462552D01*
X147096597Y-105627302D01*
X147069500Y-105798389D01*
X146818500Y-105798389D01*
X146818500Y-103057096D01*
X146838185Y-102990057D01*
X146854815Y-102969419D01*
X147400506Y-102423727D01*
X147400511Y-102423724D01*
X147410714Y-102413520D01*
X147410716Y-102413520D01*
X147522520Y-102301716D01*
X147582733Y-102197423D01*
X147601577Y-102164785D01*
X147642501Y-102012057D01*
X147642501Y-101853943D01*
X147642501Y-101846348D01*
X147642500Y-101846330D01*
X147642500Y-100250191D01*
X147642551Y-100249402D01*
X147642538Y-100227876D01*
X147642500Y-100161797D01*
X147642500Y-100083943D01*
X147642500Y-100083941D01*
X147642454Y-100083595D01*
X147642454Y-100083591D01*
X147621846Y-100006863D01*
X147621025Y-100003800D01*
X147601578Y-99931219D01*
X147601562Y-99931180D01*
X147601441Y-99930888D01*
X147601441Y-99930887D01*
X147562170Y-99862960D01*
X147530789Y-99808607D01*
X147522522Y-99794287D01*
X147522306Y-99794006D01*
X147467684Y-99739447D01*
X147467689Y-99739441D01*
X147467632Y-99739396D01*
X147405327Y-99677091D01*
X147404726Y-99676564D01*
X147167828Y-99439944D01*
X146699612Y-98972276D01*
X146699617Y-98972270D01*
X146699560Y-98972224D01*
X146642719Y-98915383D01*
X146642716Y-98915380D01*
X146642712Y-98915377D01*
X146642438Y-98915167D01*
X146574338Y-98875902D01*
X146574277Y-98875867D01*
X146517449Y-98843058D01*
X146505784Y-98836323D01*
X146505783Y-98836322D01*
X146505775Y-98836318D01*
X146505461Y-98836188D01*
X146428231Y-98815542D01*
X146428233Y-98815533D01*
X146428162Y-98815524D01*
X146353044Y-98795396D01*
X146352707Y-98795352D01*
X146272798Y-98795400D01*
X145610933Y-98795400D01*
X145543894Y-98775715D01*
X145498139Y-98722911D01*
X145488195Y-98653753D01*
X145496372Y-98623947D01*
X145529737Y-98543397D01*
X145560500Y-98388742D01*
X145560500Y-98231058D01*
X145560500Y-98231055D01*
X145560499Y-98231053D01*
X145544807Y-98152164D01*
X145529737Y-98076403D01*
X145498982Y-98002153D01*
X145469397Y-97930727D01*
X145469390Y-97930714D01*
X145381789Y-97799611D01*
X145381786Y-97799607D01*
X145270292Y-97688113D01*
X145270288Y-97688110D01*
X145139185Y-97600509D01*
X145139172Y-97600502D01*
X144993501Y-97540164D01*
X144993489Y-97540161D01*
X144838845Y-97509400D01*
X144838842Y-97509400D01*
X144681158Y-97509400D01*
X144681155Y-97509400D01*
X144526510Y-97540161D01*
X144526498Y-97540164D01*
X144380827Y-97600502D01*
X144380814Y-97600509D01*
X144249125Y-97688502D01*
X144182447Y-97709380D01*
X144180234Y-97709400D01*
X132195112Y-97709400D01*
X132128073Y-97689715D01*
X132082318Y-97636911D01*
X132072374Y-97567753D01*
X132101399Y-97504197D01*
X132107399Y-97497750D01*
X132826000Y-96778631D01*
X132887311Y-96745124D01*
X132889522Y-96744664D01*
X132946894Y-96733251D01*
X133044497Y-96713837D01*
X133190179Y-96653494D01*
X133321289Y-96565889D01*
X133432789Y-96454389D01*
X133520394Y-96323279D01*
X133580737Y-96177597D01*
X133611500Y-96022942D01*
X133611500Y-95865258D01*
X133611500Y-95865255D01*
X133611499Y-95865253D01*
X133580738Y-95710610D01*
X133580738Y-95710608D01*
X133580737Y-95710603D01*
X133580735Y-95710598D01*
X133520397Y-95564927D01*
X133520390Y-95564914D01*
X133432789Y-95433811D01*
X133432786Y-95433807D01*
X133321292Y-95322313D01*
X133321288Y-95322310D01*
X133190185Y-95234709D01*
X133190172Y-95234702D01*
X133044501Y-95174364D01*
X133044489Y-95174361D01*
X132889845Y-95143600D01*
X132889842Y-95143600D01*
X132732158Y-95143600D01*
X132732155Y-95143600D01*
X132577510Y-95174361D01*
X132577498Y-95174364D01*
X132431827Y-95234702D01*
X132431814Y-95234709D01*
X132300711Y-95322310D01*
X132300707Y-95322313D01*
X132189213Y-95433807D01*
X132189210Y-95433811D01*
X132101609Y-95564914D01*
X132101602Y-95564927D01*
X132041264Y-95710598D01*
X132041261Y-95710608D01*
X132010288Y-95866317D01*
X131977903Y-95928228D01*
X131976384Y-95929774D01*
X131353461Y-96553149D01*
X131292150Y-96586657D01*
X131265748Y-96589500D01*
X101370094Y-96589500D01*
X101303055Y-96569815D01*
X101257300Y-96517011D01*
X101246804Y-96452246D01*
X101250500Y-96417873D01*
X101250499Y-95422128D01*
X101244091Y-95362517D01*
X101231340Y-95328332D01*
X101226357Y-95258642D01*
X101231340Y-95241669D01*
X101244091Y-95207483D01*
X101250500Y-95147873D01*
X101250499Y-94152128D01*
X101244091Y-94092517D01*
X101231340Y-94058332D01*
X101226357Y-93988642D01*
X101231340Y-93971669D01*
X101244091Y-93937483D01*
X101250500Y-93877873D01*
X101250499Y-92882128D01*
X101244091Y-92822517D01*
X101231340Y-92788332D01*
X101226357Y-92718642D01*
X101231340Y-92701669D01*
X101244091Y-92667483D01*
X101250500Y-92607873D01*
X101250499Y-91612128D01*
X101244091Y-91552517D01*
X101231340Y-91518332D01*
X101226357Y-91448642D01*
X101231340Y-91431669D01*
X101244091Y-91397483D01*
X101250500Y-91337873D01*
X101250499Y-90342128D01*
X101244091Y-90282517D01*
X101231340Y-90248332D01*
X101226357Y-90178642D01*
X101231340Y-90161669D01*
X101244091Y-90127483D01*
X101250500Y-90067873D01*
X101250499Y-89072128D01*
X101244091Y-89012517D01*
X101241287Y-89005000D01*
X101193797Y-88877671D01*
X101193793Y-88877664D01*
X101107547Y-88762455D01*
X101107544Y-88762452D01*
X100992335Y-88676206D01*
X100992328Y-88676202D01*
X100857482Y-88625908D01*
X100857483Y-88625908D01*
X100797883Y-88619501D01*
X100797881Y-88619500D01*
X100797873Y-88619500D01*
X100797865Y-88619500D01*
X99824500Y-88619500D01*
X99757461Y-88599815D01*
X99711706Y-88547011D01*
X99700500Y-88495500D01*
X99700500Y-87824685D01*
X99700499Y-87152199D01*
X99720184Y-87085161D01*
X99772987Y-87039406D01*
X99824499Y-87028200D01*
X107770250Y-87028200D01*
X107837289Y-87047885D01*
X107883044Y-87100689D01*
X107892988Y-87169847D01*
X107870568Y-87225086D01*
X107731557Y-87416416D01*
X107617219Y-87640815D01*
X107539397Y-87880330D01*
X107500000Y-88129071D01*
X107500000Y-88380928D01*
X107539397Y-88629669D01*
X107617219Y-88869184D01*
X107731557Y-89093583D01*
X107805748Y-89195697D01*
X107805748Y-89195698D01*
X108422421Y-88579024D01*
X108435359Y-88610258D01*
X108517437Y-88733097D01*
X108621903Y-88837563D01*
X108744742Y-88919641D01*
X108775974Y-88932577D01*
X108159300Y-89549250D01*
X108161598Y-89578449D01*
X108147233Y-89646827D01*
X108098181Y-89696583D01*
X108030016Y-89711921D01*
X108018583Y-89710650D01*
X107916611Y-89694500D01*
X107743389Y-89694500D01*
X107703728Y-89700781D01*
X107572302Y-89721597D01*
X107407552Y-89775128D01*
X107253211Y-89853768D01*
X107197115Y-89894525D01*
X107113072Y-89955586D01*
X107113070Y-89955588D01*
X107113069Y-89955588D01*
X106990588Y-90078069D01*
X106990588Y-90078070D01*
X106990586Y-90078072D01*
X106954688Y-90127481D01*
X106888768Y-90218211D01*
X106810128Y-90372552D01*
X106756597Y-90537302D01*
X106729500Y-90708389D01*
X106729500Y-90881610D01*
X106738003Y-90935300D01*
X106756598Y-91052701D01*
X106810127Y-91217445D01*
X106888768Y-91371788D01*
X106990586Y-91511928D01*
X107113072Y-91634414D01*
X107253212Y-91736232D01*
X107407555Y-91814873D01*
X107572299Y-91868402D01*
X107743389Y-91895500D01*
X107743390Y-91895500D01*
X107916610Y-91895500D01*
X107916611Y-91895500D01*
X108087701Y-91868402D01*
X108252445Y-91814873D01*
X108406788Y-91736232D01*
X108546928Y-91634414D01*
X108669414Y-91511928D01*
X108771232Y-91371788D01*
X108849873Y-91217445D01*
X108903402Y-91052701D01*
X108930500Y-90881611D01*
X108930500Y-90708389D01*
X108920854Y-90647486D01*
X110659500Y-90647486D01*
X110659500Y-90942513D01*
X110691571Y-91186113D01*
X110698007Y-91234993D01*
X110774361Y-91519951D01*
X110774364Y-91519961D01*
X110887254Y-91792500D01*
X110887258Y-91792510D01*
X111034761Y-92047993D01*
X111214352Y-92282040D01*
X111214358Y-92282047D01*
X111422952Y-92490641D01*
X111422959Y-92490647D01*
X111657006Y-92670238D01*
X111912489Y-92817741D01*
X111912490Y-92817741D01*
X111912493Y-92817743D01*
X112185048Y-92930639D01*
X112470007Y-93006993D01*
X112762494Y-93045500D01*
X112762501Y-93045500D01*
X113057499Y-93045500D01*
X113057506Y-93045500D01*
X113349993Y-93006993D01*
X113634952Y-92930639D01*
X113907507Y-92817743D01*
X114162994Y-92670238D01*
X114397042Y-92490646D01*
X114605646Y-92282042D01*
X114785238Y-92047994D01*
X114932743Y-91792507D01*
X115045639Y-91519952D01*
X115121993Y-91234993D01*
X115160500Y-90942506D01*
X115160500Y-90708389D01*
X116889500Y-90708389D01*
X116889500Y-90881610D01*
X116898003Y-90935300D01*
X116916598Y-91052701D01*
X116970127Y-91217445D01*
X117048768Y-91371788D01*
X117150586Y-91511928D01*
X117273072Y-91634414D01*
X117413212Y-91736232D01*
X117567555Y-91814873D01*
X117732299Y-91868402D01*
X117903389Y-91895500D01*
X117903390Y-91895500D01*
X118076610Y-91895500D01*
X118076611Y-91895500D01*
X118247701Y-91868402D01*
X118412445Y-91814873D01*
X118566788Y-91736232D01*
X118706928Y-91634414D01*
X118829414Y-91511928D01*
X118931232Y-91371788D01*
X119009873Y-91217445D01*
X119063402Y-91052701D01*
X119090500Y-90881611D01*
X119090500Y-90708389D01*
X119063402Y-90537299D01*
X119009873Y-90372555D01*
X118931232Y-90218212D01*
X118829414Y-90078072D01*
X118706928Y-89955586D01*
X118566788Y-89853768D01*
X118412445Y-89775127D01*
X118247701Y-89721598D01*
X118247699Y-89721597D01*
X118247698Y-89721597D01*
X118116271Y-89700781D01*
X118076611Y-89694500D01*
X117903389Y-89694500D01*
X117863728Y-89700781D01*
X117732302Y-89721597D01*
X117567552Y-89775128D01*
X117413211Y-89853768D01*
X117357115Y-89894525D01*
X117273072Y-89955586D01*
X117273070Y-89955588D01*
X117273069Y-89955588D01*
X117150588Y-90078069D01*
X117150588Y-90078070D01*
X117150586Y-90078072D01*
X117114688Y-90127481D01*
X117048768Y-90218211D01*
X116970128Y-90372552D01*
X116916597Y-90537302D01*
X116889500Y-90708389D01*
X115160500Y-90708389D01*
X115160500Y-90647494D01*
X115121993Y-90355007D01*
X115045639Y-90070048D01*
X114932743Y-89797493D01*
X114882604Y-89710650D01*
X114785238Y-89542006D01*
X114605647Y-89307959D01*
X114605641Y-89307952D01*
X114397047Y-89099358D01*
X114397040Y-89099352D01*
X114162993Y-88919761D01*
X113907510Y-88772258D01*
X113907500Y-88772254D01*
X113634961Y-88659364D01*
X113634954Y-88659362D01*
X113634952Y-88659361D01*
X113349993Y-88583007D01*
X113301113Y-88576571D01*
X113057513Y-88544500D01*
X113057506Y-88544500D01*
X112762494Y-88544500D01*
X112762486Y-88544500D01*
X112484085Y-88581153D01*
X112470007Y-88583007D01*
X112295861Y-88629669D01*
X112185048Y-88659361D01*
X112185038Y-88659364D01*
X111912499Y-88772254D01*
X111912489Y-88772258D01*
X111657006Y-88919761D01*
X111422959Y-89099352D01*
X111422952Y-89099358D01*
X111214358Y-89307952D01*
X111214352Y-89307959D01*
X111034761Y-89542006D01*
X110887258Y-89797489D01*
X110887254Y-89797499D01*
X110774364Y-90070038D01*
X110774361Y-90070048D01*
X110754266Y-90145046D01*
X110698008Y-90355004D01*
X110698006Y-90355015D01*
X110659500Y-90647486D01*
X108920854Y-90647486D01*
X108903402Y-90537299D01*
X108849873Y-90372555D01*
X108771232Y-90218212D01*
X108669414Y-90078072D01*
X108616882Y-90025540D01*
X108583397Y-89964217D01*
X108588381Y-89894525D01*
X108630253Y-89838592D01*
X108695717Y-89814175D01*
X108723961Y-89815386D01*
X108974072Y-89855000D01*
X109225928Y-89855000D01*
X109474669Y-89815602D01*
X109714184Y-89737780D01*
X109938575Y-89623446D01*
X109938581Y-89623442D01*
X110040697Y-89549250D01*
X110040698Y-89549250D01*
X109424025Y-88932578D01*
X109455258Y-88919641D01*
X109578097Y-88837563D01*
X109682563Y-88733097D01*
X109764641Y-88610258D01*
X109777578Y-88579025D01*
X110394250Y-89195698D01*
X110394250Y-89195697D01*
X110468442Y-89093581D01*
X110468446Y-89093575D01*
X110582780Y-88869184D01*
X110660602Y-88629669D01*
X110700000Y-88380928D01*
X110700000Y-88129071D01*
X110660602Y-87880330D01*
X110582780Y-87640815D01*
X110468442Y-87416416D01*
X110329432Y-87225086D01*
X110305952Y-87159279D01*
X110321777Y-87091225D01*
X110371883Y-87042530D01*
X110429750Y-87028200D01*
X113362872Y-87028200D01*
X113429911Y-87047885D01*
X113450553Y-87064520D01*
X113879382Y-87493409D01*
X113879463Y-87493499D01*
X113946721Y-87560757D01*
X113996253Y-87610297D01*
X113996278Y-87610316D01*
X113996282Y-87610318D01*
X113996284Y-87610320D01*
X114071195Y-87653569D01*
X114071201Y-87653576D01*
X114071203Y-87653574D01*
X114133176Y-87689360D01*
X114133178Y-87689360D01*
X114133215Y-87689376D01*
X114133216Y-87689377D01*
X114208108Y-87709444D01*
X114285900Y-87730295D01*
X114285909Y-87730295D01*
X114285941Y-87730299D01*
X114285943Y-87730300D01*
X114285944Y-87730300D01*
X114357770Y-87730300D01*
X114444015Y-87730306D01*
X114444016Y-87730305D01*
X114452222Y-87730306D01*
X114452327Y-87730300D01*
X122508123Y-87730300D01*
X122575162Y-87749985D01*
X122620917Y-87802789D01*
X122630861Y-87871947D01*
X122630072Y-87876067D01*
X122590000Y-88129071D01*
X122590000Y-88380928D01*
X122629397Y-88629669D01*
X122707219Y-88869184D01*
X122821557Y-89093583D01*
X122895748Y-89195697D01*
X122895748Y-89195698D01*
X123512421Y-88579024D01*
X123525359Y-88610258D01*
X123607437Y-88733097D01*
X123711903Y-88837563D01*
X123834742Y-88919641D01*
X123865974Y-88932577D01*
X123249300Y-89549250D01*
X123251598Y-89578449D01*
X123237233Y-89646827D01*
X123188181Y-89696583D01*
X123120016Y-89711921D01*
X123108583Y-89710650D01*
X123006611Y-89694500D01*
X122833389Y-89694500D01*
X122793728Y-89700781D01*
X122662302Y-89721597D01*
X122497552Y-89775128D01*
X122343211Y-89853768D01*
X122287115Y-89894525D01*
X122203072Y-89955586D01*
X122203070Y-89955588D01*
X122203069Y-89955588D01*
X122080588Y-90078069D01*
X122080588Y-90078070D01*
X122080586Y-90078072D01*
X122044688Y-90127481D01*
X121978768Y-90218211D01*
X121900128Y-90372552D01*
X121846597Y-90537302D01*
X121819500Y-90708389D01*
X121819500Y-90881610D01*
X121828003Y-90935300D01*
X121846598Y-91052701D01*
X121900127Y-91217445D01*
X121978768Y-91371788D01*
X122080586Y-91511928D01*
X122203072Y-91634414D01*
X122343212Y-91736232D01*
X122497555Y-91814873D01*
X122662299Y-91868402D01*
X122833389Y-91895500D01*
X122833390Y-91895500D01*
X123006610Y-91895500D01*
X123006611Y-91895500D01*
X123177701Y-91868402D01*
X123342445Y-91814873D01*
X123496788Y-91736232D01*
X123636928Y-91634414D01*
X123759414Y-91511928D01*
X123861232Y-91371788D01*
X123939873Y-91217445D01*
X123993402Y-91052701D01*
X124020500Y-90881611D01*
X124020500Y-90708389D01*
X124010854Y-90647486D01*
X125749500Y-90647486D01*
X125749500Y-90942513D01*
X125781571Y-91186113D01*
X125788007Y-91234993D01*
X125864361Y-91519951D01*
X125864364Y-91519961D01*
X125977254Y-91792500D01*
X125977258Y-91792510D01*
X126124761Y-92047993D01*
X126304352Y-92282040D01*
X126304358Y-92282047D01*
X126512952Y-92490641D01*
X126512959Y-92490647D01*
X126747006Y-92670238D01*
X127002489Y-92817741D01*
X127002490Y-92817741D01*
X127002493Y-92817743D01*
X127275048Y-92930639D01*
X127560007Y-93006993D01*
X127852494Y-93045500D01*
X127852501Y-93045500D01*
X128147499Y-93045500D01*
X128147506Y-93045500D01*
X128439993Y-93006993D01*
X128724952Y-92930639D01*
X128997507Y-92817743D01*
X129252994Y-92670238D01*
X129487042Y-92490646D01*
X129695646Y-92282042D01*
X129875238Y-92047994D01*
X130022743Y-91792507D01*
X130135639Y-91519952D01*
X130211993Y-91234993D01*
X130250500Y-90942506D01*
X130250500Y-90708389D01*
X131979500Y-90708389D01*
X131979500Y-90881610D01*
X131988003Y-90935300D01*
X132006598Y-91052701D01*
X132060127Y-91217445D01*
X132138768Y-91371788D01*
X132240586Y-91511928D01*
X132363072Y-91634414D01*
X132503212Y-91736232D01*
X132657555Y-91814873D01*
X132822299Y-91868402D01*
X132993389Y-91895500D01*
X132993390Y-91895500D01*
X133166610Y-91895500D01*
X133166611Y-91895500D01*
X133337701Y-91868402D01*
X133502445Y-91814873D01*
X133656788Y-91736232D01*
X133796928Y-91634414D01*
X133919414Y-91511928D01*
X134021232Y-91371788D01*
X134099873Y-91217445D01*
X134153402Y-91052701D01*
X134180500Y-90881611D01*
X134180500Y-90708389D01*
X134153402Y-90537299D01*
X134099873Y-90372555D01*
X134021232Y-90218212D01*
X133919414Y-90078072D01*
X133796928Y-89955586D01*
X133656788Y-89853768D01*
X133502445Y-89775127D01*
X133337701Y-89721598D01*
X133337699Y-89721597D01*
X133337698Y-89721597D01*
X133206271Y-89700781D01*
X133166611Y-89694500D01*
X132993389Y-89694500D01*
X132953728Y-89700781D01*
X132822302Y-89721597D01*
X132657552Y-89775128D01*
X132503211Y-89853768D01*
X132447115Y-89894525D01*
X132363072Y-89955586D01*
X132363070Y-89955588D01*
X132363069Y-89955588D01*
X132240588Y-90078069D01*
X132240588Y-90078070D01*
X132240586Y-90078072D01*
X132204688Y-90127481D01*
X132138768Y-90218211D01*
X132060128Y-90372552D01*
X132006597Y-90537302D01*
X131979500Y-90708389D01*
X130250500Y-90708389D01*
X130250500Y-90647494D01*
X130211993Y-90355007D01*
X130135639Y-90070048D01*
X130022743Y-89797493D01*
X129972604Y-89710650D01*
X129875238Y-89542006D01*
X129695647Y-89307959D01*
X129695641Y-89307952D01*
X129487047Y-89099358D01*
X129487040Y-89099352D01*
X129252993Y-88919761D01*
X128997510Y-88772258D01*
X128997500Y-88772254D01*
X128724961Y-88659364D01*
X128724954Y-88659362D01*
X128724952Y-88659361D01*
X128439993Y-88583007D01*
X128391113Y-88576571D01*
X128147513Y-88544500D01*
X128147506Y-88544500D01*
X127852494Y-88544500D01*
X127852486Y-88544500D01*
X127574085Y-88581153D01*
X127560007Y-88583007D01*
X127385861Y-88629669D01*
X127275048Y-88659361D01*
X127275038Y-88659364D01*
X127002499Y-88772254D01*
X127002489Y-88772258D01*
X126747006Y-88919761D01*
X126512959Y-89099352D01*
X126512952Y-89099358D01*
X126304358Y-89307952D01*
X126304352Y-89307959D01*
X126124761Y-89542006D01*
X125977258Y-89797489D01*
X125977254Y-89797499D01*
X125864364Y-90070038D01*
X125864361Y-90070048D01*
X125844266Y-90145046D01*
X125788008Y-90355004D01*
X125788006Y-90355015D01*
X125749500Y-90647486D01*
X124010854Y-90647486D01*
X123993402Y-90537299D01*
X123939873Y-90372555D01*
X123861232Y-90218212D01*
X123759414Y-90078072D01*
X123706882Y-90025540D01*
X123673397Y-89964217D01*
X123678381Y-89894525D01*
X123720253Y-89838592D01*
X123785717Y-89814175D01*
X123813961Y-89815386D01*
X124064072Y-89855000D01*
X124315928Y-89855000D01*
X124564669Y-89815602D01*
X124804184Y-89737780D01*
X125028575Y-89623446D01*
X125028581Y-89623442D01*
X125130697Y-89549250D01*
X125130698Y-89549250D01*
X124514025Y-88932578D01*
X124545258Y-88919641D01*
X124668097Y-88837563D01*
X124772563Y-88733097D01*
X124854641Y-88610258D01*
X124867578Y-88579025D01*
X125484250Y-89195698D01*
X125484250Y-89195697D01*
X125558442Y-89093581D01*
X125558446Y-89093575D01*
X125672780Y-88869184D01*
X125750602Y-88629669D01*
X125790000Y-88380928D01*
X125790000Y-88129071D01*
X125750602Y-87880330D01*
X125672780Y-87640815D01*
X125663089Y-87621795D01*
X125650193Y-87553126D01*
X125676469Y-87488385D01*
X125733576Y-87448128D01*
X125773574Y-87441500D01*
X128866048Y-87441500D01*
X128933087Y-87461185D01*
X128953699Y-87477788D01*
X129030013Y-87554049D01*
X129030011Y-87554050D01*
X129030043Y-87554079D01*
X129086284Y-87610320D01*
X129086288Y-87610322D01*
X129086447Y-87610444D01*
X129086450Y-87610447D01*
X129154637Y-87649783D01*
X129223216Y-87689377D01*
X129223219Y-87689378D01*
X129223406Y-87689456D01*
X129223408Y-87689456D01*
X129223409Y-87689457D01*
X129290689Y-87707460D01*
X129300903Y-87710193D01*
X129300943Y-87710204D01*
X129316565Y-87714389D01*
X129375943Y-87730300D01*
X129375947Y-87730300D01*
X129376144Y-87730326D01*
X129376150Y-87730328D01*
X129376154Y-87730327D01*
X129376155Y-87730328D01*
X129456645Y-87730300D01*
X137598123Y-87730300D01*
X137665162Y-87749985D01*
X137710917Y-87802789D01*
X137720861Y-87871947D01*
X137720072Y-87876067D01*
X137680000Y-88129071D01*
X137680000Y-88380928D01*
X137719397Y-88629669D01*
X137797219Y-88869184D01*
X137911557Y-89093583D01*
X137985748Y-89195697D01*
X137985748Y-89195698D01*
X138602421Y-88579024D01*
X138615359Y-88610258D01*
X138697437Y-88733097D01*
X138801903Y-88837563D01*
X138924742Y-88919641D01*
X138955974Y-88932577D01*
X138339300Y-89549250D01*
X138341598Y-89578449D01*
X138327233Y-89646827D01*
X138278181Y-89696583D01*
X138210016Y-89711921D01*
X138198583Y-89710650D01*
X138096611Y-89694500D01*
X137923389Y-89694500D01*
X137883728Y-89700781D01*
X137752302Y-89721597D01*
X137587552Y-89775128D01*
X137433211Y-89853768D01*
X137377115Y-89894525D01*
X137293072Y-89955586D01*
X137293070Y-89955588D01*
X137293069Y-89955588D01*
X137170588Y-90078069D01*
X137170588Y-90078070D01*
X137170586Y-90078072D01*
X137134688Y-90127481D01*
X137068768Y-90218211D01*
X136990128Y-90372552D01*
X136936597Y-90537302D01*
X136909500Y-90708389D01*
X136909500Y-90881610D01*
X136918003Y-90935300D01*
X136936598Y-91052701D01*
X136990127Y-91217445D01*
X137068768Y-91371788D01*
X137170586Y-91511928D01*
X137293072Y-91634414D01*
X137433212Y-91736232D01*
X137587555Y-91814873D01*
X137752299Y-91868402D01*
X137923389Y-91895500D01*
X137923390Y-91895500D01*
X138096610Y-91895500D01*
X138096611Y-91895500D01*
X138267701Y-91868402D01*
X138432445Y-91814873D01*
X138586788Y-91736232D01*
X138726928Y-91634414D01*
X138849414Y-91511928D01*
X138951232Y-91371788D01*
X139029873Y-91217445D01*
X139083402Y-91052701D01*
X139110500Y-90881611D01*
X139110500Y-90708389D01*
X139100854Y-90647486D01*
X140839500Y-90647486D01*
X140839500Y-90942513D01*
X140871571Y-91186113D01*
X140878007Y-91234993D01*
X140954361Y-91519951D01*
X140954364Y-91519961D01*
X141067254Y-91792500D01*
X141067258Y-91792510D01*
X141214761Y-92047993D01*
X141394352Y-92282040D01*
X141394358Y-92282047D01*
X141602952Y-92490641D01*
X141602959Y-92490647D01*
X141837006Y-92670238D01*
X142092489Y-92817741D01*
X142092490Y-92817741D01*
X142092493Y-92817743D01*
X142365048Y-92930639D01*
X142650007Y-93006993D01*
X142942494Y-93045500D01*
X142942501Y-93045500D01*
X143237499Y-93045500D01*
X143237506Y-93045500D01*
X143529993Y-93006993D01*
X143814952Y-92930639D01*
X144087507Y-92817743D01*
X144342994Y-92670238D01*
X144577042Y-92490646D01*
X144785646Y-92282042D01*
X144965238Y-92047994D01*
X145112743Y-91792507D01*
X145225639Y-91519952D01*
X145301993Y-91234993D01*
X145340500Y-90942506D01*
X145340500Y-90708389D01*
X147069500Y-90708389D01*
X147069500Y-90881610D01*
X147078003Y-90935300D01*
X147096598Y-91052701D01*
X147150127Y-91217445D01*
X147228768Y-91371788D01*
X147330586Y-91511928D01*
X147453072Y-91634414D01*
X147593212Y-91736232D01*
X147747555Y-91814873D01*
X147912299Y-91868402D01*
X148083389Y-91895500D01*
X148083390Y-91895500D01*
X148256610Y-91895500D01*
X148256611Y-91895500D01*
X148427701Y-91868402D01*
X148592445Y-91814873D01*
X148746788Y-91736232D01*
X148886928Y-91634414D01*
X149009414Y-91511928D01*
X149111232Y-91371788D01*
X149189873Y-91217445D01*
X149243402Y-91052701D01*
X149270500Y-90881611D01*
X149270500Y-90708389D01*
X149243402Y-90537299D01*
X149189873Y-90372555D01*
X149111232Y-90218212D01*
X149009414Y-90078072D01*
X148886928Y-89955586D01*
X148746788Y-89853768D01*
X148592445Y-89775127D01*
X148427701Y-89721598D01*
X148427699Y-89721597D01*
X148427698Y-89721597D01*
X148296271Y-89700781D01*
X148256611Y-89694500D01*
X148083389Y-89694500D01*
X148043728Y-89700781D01*
X147912302Y-89721597D01*
X147747552Y-89775128D01*
X147593211Y-89853768D01*
X147537115Y-89894525D01*
X147453072Y-89955586D01*
X147453070Y-89955588D01*
X147453069Y-89955588D01*
X147330588Y-90078069D01*
X147330588Y-90078070D01*
X147330586Y-90078072D01*
X147294688Y-90127481D01*
X147228768Y-90218211D01*
X147150128Y-90372552D01*
X147096597Y-90537302D01*
X147069500Y-90708389D01*
X145340500Y-90708389D01*
X145340500Y-90647494D01*
X145301993Y-90355007D01*
X145225639Y-90070048D01*
X145112743Y-89797493D01*
X145062604Y-89710650D01*
X144965238Y-89542006D01*
X144785647Y-89307959D01*
X144785641Y-89307952D01*
X144577047Y-89099358D01*
X144577040Y-89099352D01*
X144342993Y-88919761D01*
X144087510Y-88772258D01*
X144087500Y-88772254D01*
X143814961Y-88659364D01*
X143814954Y-88659362D01*
X143814952Y-88659361D01*
X143529993Y-88583007D01*
X143481113Y-88576571D01*
X143237513Y-88544500D01*
X143237506Y-88544500D01*
X142942494Y-88544500D01*
X142942486Y-88544500D01*
X142664085Y-88581153D01*
X142650007Y-88583007D01*
X142475861Y-88629669D01*
X142365048Y-88659361D01*
X142365038Y-88659364D01*
X142092499Y-88772254D01*
X142092489Y-88772258D01*
X141837006Y-88919761D01*
X141602959Y-89099352D01*
X141602952Y-89099358D01*
X141394358Y-89307952D01*
X141394352Y-89307959D01*
X141214761Y-89542006D01*
X141067258Y-89797489D01*
X141067254Y-89797499D01*
X140954364Y-90070038D01*
X140954361Y-90070048D01*
X140934266Y-90145046D01*
X140878008Y-90355004D01*
X140878006Y-90355015D01*
X140839500Y-90647486D01*
X139100854Y-90647486D01*
X139083402Y-90537299D01*
X139029873Y-90372555D01*
X138951232Y-90218212D01*
X138849414Y-90078072D01*
X138796882Y-90025540D01*
X138763397Y-89964217D01*
X138768381Y-89894525D01*
X138810253Y-89838592D01*
X138875717Y-89814175D01*
X138903961Y-89815386D01*
X139154072Y-89855000D01*
X139405928Y-89855000D01*
X139654669Y-89815602D01*
X139894184Y-89737780D01*
X140118575Y-89623446D01*
X140118581Y-89623442D01*
X140220697Y-89549250D01*
X140220698Y-89549250D01*
X139604025Y-88932578D01*
X139635258Y-88919641D01*
X139758097Y-88837563D01*
X139862563Y-88733097D01*
X139944641Y-88610258D01*
X139957578Y-88579025D01*
X140574250Y-89195698D01*
X140574250Y-89195697D01*
X140648442Y-89093581D01*
X140648446Y-89093575D01*
X140762780Y-88869184D01*
X140840602Y-88629669D01*
X140880000Y-88380928D01*
X140880000Y-88129071D01*
X140840602Y-87880330D01*
X140762780Y-87640815D01*
X140648442Y-87416416D01*
X140574250Y-87314301D01*
X140574250Y-87314300D01*
X139957577Y-87930973D01*
X139944641Y-87899742D01*
X139862563Y-87776903D01*
X139758097Y-87672437D01*
X139635258Y-87590359D01*
X139604024Y-87577421D01*
X140220698Y-86960748D01*
X140118583Y-86886557D01*
X139894184Y-86772219D01*
X139654669Y-86694397D01*
X139499960Y-86669893D01*
X139436825Y-86639964D01*
X139399894Y-86580652D01*
X139400892Y-86510789D01*
X139431649Y-86459766D01*
X139539513Y-86351842D01*
X139600826Y-86318341D01*
X139627218Y-86315500D01*
X144063700Y-86315500D01*
X144130739Y-86335185D01*
X144174184Y-86383204D01*
X144261018Y-86553626D01*
X144261132Y-86553848D01*
X144409201Y-86757649D01*
X144409205Y-86757654D01*
X144587345Y-86935794D01*
X144587350Y-86935798D01*
X144729955Y-87039406D01*
X144791155Y-87083870D01*
X144901132Y-87139906D01*
X145015616Y-87198239D01*
X145015618Y-87198239D01*
X145015621Y-87198241D01*
X145255215Y-87276090D01*
X145504038Y-87315500D01*
X145504039Y-87315500D01*
X145755961Y-87315500D01*
X145755962Y-87315500D01*
X146004785Y-87276090D01*
X146244379Y-87198241D01*
X146468845Y-87083870D01*
X146672656Y-86935793D01*
X146850793Y-86757656D01*
X146998870Y-86553845D01*
X147113241Y-86329379D01*
X147191090Y-86089785D01*
X147230500Y-85840962D01*
X147230500Y-85589038D01*
X147191090Y-85340215D01*
X147113241Y-85100621D01*
X147113239Y-85100618D01*
X147113239Y-85100616D01*
X147025597Y-84928610D01*
X146998870Y-84876155D01*
X146931127Y-84782914D01*
X146850798Y-84672350D01*
X146850794Y-84672345D01*
X146672654Y-84494205D01*
X146672649Y-84494201D01*
X146468848Y-84346132D01*
X146468847Y-84346131D01*
X146468845Y-84346130D01*
X146398747Y-84310413D01*
X146244383Y-84231760D01*
X146004785Y-84153910D01*
X145755962Y-84114500D01*
X145504038Y-84114500D01*
X145379626Y-84134205D01*
X145255214Y-84153910D01*
X145015616Y-84231760D01*
X144791151Y-84346132D01*
X144587350Y-84494201D01*
X144587345Y-84494205D01*
X144409205Y-84672345D01*
X144409201Y-84672350D01*
X144261132Y-84876151D01*
X144261130Y-84876155D01*
X144181576Y-85032290D01*
X144174185Y-85046795D01*
X144126211Y-85097591D01*
X144063700Y-85114500D01*
X139414164Y-85114500D01*
X139413783Y-85114475D01*
X139405888Y-85114477D01*
X139325074Y-85114500D01*
X139247893Y-85114500D01*
X139247819Y-85114509D01*
X139171195Y-85135064D01*
X139171163Y-85135072D01*
X139095195Y-85155428D01*
X139095078Y-85155476D01*
X139027497Y-85194520D01*
X139027467Y-85194537D01*
X138958264Y-85234491D01*
X138958168Y-85234564D01*
X138951794Y-85240942D01*
X138903340Y-85289423D01*
X138852554Y-85340210D01*
X138840911Y-85351853D01*
X138840667Y-85352132D01*
X137700488Y-86492956D01*
X137639174Y-86526459D01*
X137612782Y-86529300D01*
X132123726Y-86529300D01*
X132056687Y-86509615D01*
X132010932Y-86456811D01*
X132000988Y-86387653D01*
X132013242Y-86349004D01*
X132023238Y-86329385D01*
X132023239Y-86329383D01*
X132023241Y-86329379D01*
X132101090Y-86089785D01*
X132140500Y-85840962D01*
X132140500Y-85589038D01*
X132101090Y-85340215D01*
X132023241Y-85100621D01*
X132023239Y-85100618D01*
X132023239Y-85100616D01*
X131935597Y-84928610D01*
X131908870Y-84876155D01*
X131841127Y-84782914D01*
X131760798Y-84672350D01*
X131760794Y-84672345D01*
X131582654Y-84494205D01*
X131582649Y-84494201D01*
X131378848Y-84346132D01*
X131378847Y-84346131D01*
X131378845Y-84346130D01*
X131308747Y-84310413D01*
X131154383Y-84231760D01*
X130914785Y-84153910D01*
X130665962Y-84114500D01*
X130414038Y-84114500D01*
X130289626Y-84134205D01*
X130165214Y-84153910D01*
X129925616Y-84231760D01*
X129701151Y-84346132D01*
X129497350Y-84494201D01*
X129497345Y-84494205D01*
X129319205Y-84672345D01*
X129319201Y-84672350D01*
X129171132Y-84876151D01*
X129056760Y-85100616D01*
X128978910Y-85340214D01*
X128956417Y-85482226D01*
X128939500Y-85589038D01*
X128939500Y-85840962D01*
X128958766Y-85962600D01*
X128979672Y-86094597D01*
X128978012Y-86094859D01*
X128974877Y-86157353D01*
X128934205Y-86214164D01*
X128869275Y-86239968D01*
X128857800Y-86240500D01*
X123113645Y-86240500D01*
X123033143Y-86240471D01*
X123032954Y-86240496D01*
X122973130Y-86256525D01*
X122957903Y-86260606D01*
X122957880Y-86260612D01*
X122957865Y-86260616D01*
X122880380Y-86281350D01*
X122880243Y-86281407D01*
X122834581Y-86307769D01*
X122811637Y-86321016D01*
X122763123Y-86349004D01*
X122743426Y-86360367D01*
X122743294Y-86360468D01*
X122697454Y-86406309D01*
X122687013Y-86416750D01*
X122621708Y-86482011D01*
X122610700Y-86493011D01*
X122549366Y-86526475D01*
X122523049Y-86529300D01*
X117033726Y-86529300D01*
X116966687Y-86509615D01*
X116920932Y-86456811D01*
X116910988Y-86387653D01*
X116923242Y-86349004D01*
X116933238Y-86329385D01*
X116933239Y-86329383D01*
X116933241Y-86329379D01*
X117011090Y-86089785D01*
X117050500Y-85840962D01*
X117050500Y-85589038D01*
X117011090Y-85340215D01*
X116933241Y-85100621D01*
X116933239Y-85100618D01*
X116933239Y-85100616D01*
X116845597Y-84928610D01*
X116818870Y-84876155D01*
X116751127Y-84782914D01*
X116670798Y-84672350D01*
X116670794Y-84672345D01*
X116492654Y-84494205D01*
X116492649Y-84494201D01*
X116288848Y-84346132D01*
X116288847Y-84346131D01*
X116288845Y-84346130D01*
X116218747Y-84310413D01*
X116064383Y-84231760D01*
X115824785Y-84153910D01*
X115575962Y-84114500D01*
X115324038Y-84114500D01*
X115241097Y-84127636D01*
X115075213Y-84153910D01*
X115075210Y-84153910D01*
X114892849Y-84213164D01*
X114823008Y-84215159D01*
X114766862Y-84182926D01*
X114031643Y-83447907D01*
X113972716Y-83388980D01*
X113972713Y-83388978D01*
X113972712Y-83388977D01*
X113972659Y-83388935D01*
X113933431Y-83366294D01*
X113906565Y-83350788D01*
X113885905Y-83338860D01*
X113835779Y-83309919D01*
X113835718Y-83309894D01*
X113758635Y-83289251D01*
X113758620Y-83289247D01*
X113683053Y-83268999D01*
X113682977Y-83268989D01*
X113682976Y-83268989D01*
X113682974Y-83268989D01*
X113600154Y-83269000D01*
X86314743Y-83269000D01*
X86303431Y-83272031D01*
X86233581Y-83270366D01*
X86175720Y-83231202D01*
X86148217Y-83166972D01*
X86159806Y-83098070D01*
X86183657Y-83064577D01*
X91207616Y-78040619D01*
X91268939Y-78007134D01*
X91295297Y-78004300D01*
X102115286Y-78004300D01*
X102182325Y-78023985D01*
X102228080Y-78076789D01*
X102238024Y-78145947D01*
X102229743Y-78173740D01*
X102229958Y-78173811D01*
X102227686Y-78180664D01*
X102227686Y-78180666D01*
X102199905Y-78264504D01*
X102160132Y-78321949D01*
X102095616Y-78348772D01*
X102082199Y-78349500D01*
X96474369Y-78349500D01*
X96474353Y-78349499D01*
X96466757Y-78349499D01*
X96308643Y-78349499D01*
X96201287Y-78378265D01*
X96155910Y-78390424D01*
X96155909Y-78390425D01*
X96105796Y-78419359D01*
X96105795Y-78419360D01*
X96062389Y-78444420D01*
X96018985Y-78469479D01*
X96018982Y-78469481D01*
X94267939Y-80220525D01*
X94206616Y-80254010D01*
X94204450Y-80254461D01*
X94049108Y-80285361D01*
X94049098Y-80285364D01*
X93903427Y-80345702D01*
X93903414Y-80345709D01*
X93772311Y-80433310D01*
X93772307Y-80433313D01*
X93660813Y-80544807D01*
X93660810Y-80544811D01*
X93573209Y-80675914D01*
X93573202Y-80675927D01*
X93512864Y-80821598D01*
X93512861Y-80821610D01*
X93482100Y-80976253D01*
X93482100Y-81133946D01*
X93512861Y-81288589D01*
X93512864Y-81288601D01*
X93573202Y-81434272D01*
X93573209Y-81434285D01*
X93660810Y-81565388D01*
X93660813Y-81565392D01*
X93772307Y-81676886D01*
X93772311Y-81676889D01*
X93903414Y-81764490D01*
X93903427Y-81764497D01*
X94049098Y-81824835D01*
X94049103Y-81824837D01*
X94203753Y-81855599D01*
X94203756Y-81855600D01*
X94203758Y-81855600D01*
X94361444Y-81855600D01*
X94361445Y-81855599D01*
X94516097Y-81824837D01*
X94661779Y-81764494D01*
X94792889Y-81676889D01*
X94904389Y-81565389D01*
X94991994Y-81434279D01*
X95052337Y-81288597D01*
X95071713Y-81191185D01*
X95083238Y-81133250D01*
X95115623Y-81071339D01*
X95117118Y-81069816D01*
X96600116Y-79586819D01*
X96661439Y-79553334D01*
X96687797Y-79550500D01*
X98200902Y-79550500D01*
X98267941Y-79570185D01*
X98313696Y-79622989D01*
X98323640Y-79692147D01*
X98294615Y-79755703D01*
X98288583Y-79762181D01*
X97687582Y-80363181D01*
X97626259Y-80396666D01*
X97599901Y-80399500D01*
X96851296Y-80399500D01*
X96735857Y-80414696D01*
X96735848Y-80414699D01*
X96592205Y-80474198D01*
X96592202Y-80474199D01*
X96592202Y-80474200D01*
X96468851Y-80568851D01*
X96386689Y-80675927D01*
X96374198Y-80692205D01*
X96314699Y-80835848D01*
X96314698Y-80835850D01*
X96299500Y-80951298D01*
X96299500Y-81748703D01*
X96314696Y-81864142D01*
X96314699Y-81864151D01*
X96372239Y-82003065D01*
X96374200Y-82007798D01*
X96468851Y-82131149D01*
X96592202Y-82225800D01*
X96735849Y-82285301D01*
X96851299Y-82300500D01*
X98248700Y-82300499D01*
X98248703Y-82300499D01*
X98364142Y-82285303D01*
X98364146Y-82285301D01*
X98364151Y-82285301D01*
X98507798Y-82225800D01*
X98631149Y-82131149D01*
X98725800Y-82007798D01*
X98785301Y-81864151D01*
X98800500Y-81748701D01*
X98800499Y-81000097D01*
X98820183Y-80933059D01*
X98836818Y-80912416D01*
X98866477Y-80882758D01*
X98944346Y-80804889D01*
X98980518Y-80768718D01*
X99041842Y-80735234D01*
X99068199Y-80732400D01*
X101086924Y-80732400D01*
X101153963Y-80752085D01*
X101199718Y-80804889D01*
X101209862Y-80872584D01*
X101204619Y-80912416D01*
X101199500Y-80951299D01*
X101199500Y-81748703D01*
X101214696Y-81864142D01*
X101214699Y-81864151D01*
X101272239Y-82003065D01*
X101274200Y-82007798D01*
X101368851Y-82131149D01*
X101492202Y-82225800D01*
X101635849Y-82285301D01*
X101751299Y-82300500D01*
X103148700Y-82300499D01*
X103148703Y-82300499D01*
X103264142Y-82285303D01*
X103264146Y-82285301D01*
X103264151Y-82285301D01*
X103407798Y-82225800D01*
X103531149Y-82131149D01*
X103625800Y-82007798D01*
X103625802Y-82007794D01*
X103630747Y-82001350D01*
X103632982Y-82003065D01*
X103673642Y-81964289D01*
X103730472Y-81950500D01*
X149149903Y-81950500D01*
X149216942Y-81970185D01*
X149237584Y-81986819D01*
X156813181Y-89562416D01*
X156846666Y-89623739D01*
X156849500Y-89650097D01*
X156849500Y-90398703D01*
X156864696Y-90514142D01*
X156864699Y-90514151D01*
X156924093Y-90657541D01*
X156924200Y-90657798D01*
X157018851Y-90781149D01*
X157142202Y-90875800D01*
X157285849Y-90935301D01*
X157401299Y-90950500D01*
X158798700Y-90950499D01*
X158798703Y-90950499D01*
X158914142Y-90935303D01*
X158914146Y-90935301D01*
X158914151Y-90935301D01*
X159057798Y-90875800D01*
X159181149Y-90781149D01*
X159275800Y-90657798D01*
X159335301Y-90514151D01*
X159350500Y-90398701D01*
X159350500Y-90398670D01*
X161750000Y-90398670D01*
X161765185Y-90514019D01*
X161765187Y-90514024D01*
X161824633Y-90657541D01*
X161824633Y-90657542D01*
X161919207Y-90780792D01*
X162042458Y-90875366D01*
X162185975Y-90934812D01*
X162185980Y-90934814D01*
X162301329Y-90950000D01*
X162750000Y-90950000D01*
X163250000Y-90950000D01*
X163698671Y-90950000D01*
X163814019Y-90934814D01*
X163814024Y-90934812D01*
X163957541Y-90875366D01*
X163957542Y-90875366D01*
X164080792Y-90780792D01*
X164175366Y-90657542D01*
X164175366Y-90657541D01*
X164234812Y-90514024D01*
X164234814Y-90514019D01*
X164250000Y-90398670D01*
X164250000Y-90250000D01*
X163250000Y-90250000D01*
X163250000Y-90950000D01*
X162750000Y-90950000D01*
X162750000Y-90250000D01*
X161750000Y-90250000D01*
X161750000Y-90398670D01*
X159350500Y-90398670D01*
X159350499Y-89987358D01*
X159350499Y-89601329D01*
X161750000Y-89601329D01*
X161750000Y-89750000D01*
X162750000Y-89750000D01*
X163250000Y-89750000D01*
X164250000Y-89750000D01*
X164250000Y-89601329D01*
X164234814Y-89485980D01*
X164234812Y-89485975D01*
X164175366Y-89342458D01*
X164175366Y-89342457D01*
X164080792Y-89219207D01*
X163957541Y-89124633D01*
X163814024Y-89065187D01*
X163814019Y-89065185D01*
X163698671Y-89050000D01*
X163250000Y-89050000D01*
X163250000Y-89750000D01*
X162750000Y-89750000D01*
X162750000Y-89050000D01*
X162301329Y-89050000D01*
X162185980Y-89065185D01*
X162185975Y-89065187D01*
X162042458Y-89124633D01*
X162042457Y-89124633D01*
X161919207Y-89219207D01*
X161824633Y-89342457D01*
X161824633Y-89342458D01*
X161765187Y-89485975D01*
X161765185Y-89485980D01*
X161750000Y-89601329D01*
X159350499Y-89601329D01*
X159350499Y-89601296D01*
X159335303Y-89485857D01*
X159335301Y-89485852D01*
X159335301Y-89485849D01*
X159275800Y-89342202D01*
X159181149Y-89218851D01*
X159057798Y-89124200D01*
X159057794Y-89124198D01*
X158914151Y-89064699D01*
X158914149Y-89064698D01*
X158798702Y-89049500D01*
X158798701Y-89049500D01*
X158050097Y-89049500D01*
X157983058Y-89029815D01*
X157962416Y-89013181D01*
X157670506Y-88721271D01*
X157637021Y-88659948D01*
X157642005Y-88590256D01*
X157683877Y-88534323D01*
X157689273Y-88530503D01*
X157802289Y-88454989D01*
X157913789Y-88343489D01*
X158001394Y-88212379D01*
X158061737Y-88066697D01*
X158092500Y-87912042D01*
X158092500Y-87774499D01*
X158112185Y-87707460D01*
X158164989Y-87661705D01*
X158216500Y-87650499D01*
X158798703Y-87650499D01*
X158914142Y-87635303D01*
X158914146Y-87635301D01*
X158914151Y-87635301D01*
X159057798Y-87575800D01*
X159181149Y-87481149D01*
X159275800Y-87357798D01*
X159335301Y-87214151D01*
X159350500Y-87098701D01*
X159350499Y-86301300D01*
X159350499Y-86301299D01*
X159350499Y-86301296D01*
X159335303Y-86185857D01*
X159335301Y-86185852D01*
X159335301Y-86185849D01*
X159275800Y-86042202D01*
X159181149Y-85918851D01*
X159057798Y-85824200D01*
X159057794Y-85824198D01*
X158914151Y-85764699D01*
X158914149Y-85764698D01*
X158798702Y-85749500D01*
X158798701Y-85749500D01*
X158050107Y-85749500D01*
X157983068Y-85729815D01*
X157962425Y-85713181D01*
X152012520Y-79763185D01*
X152012520Y-79763184D01*
X152011517Y-79762181D01*
X151978032Y-79700858D01*
X151983016Y-79631166D01*
X152024888Y-79575233D01*
X152090352Y-79550816D01*
X152099198Y-79550500D01*
X154949903Y-79550500D01*
X155016942Y-79570185D01*
X155037584Y-79586819D01*
X161713181Y-86262416D01*
X161746666Y-86323739D01*
X161749500Y-86350097D01*
X161749500Y-87098703D01*
X161764696Y-87214142D01*
X161764699Y-87214151D01*
X161824200Y-87357798D01*
X161918851Y-87481149D01*
X162042202Y-87575800D01*
X162185849Y-87635301D01*
X162301299Y-87650500D01*
X163698700Y-87650499D01*
X163698703Y-87650499D01*
X163814142Y-87635303D01*
X163814146Y-87635301D01*
X163814151Y-87635301D01*
X163957798Y-87575800D01*
X164081149Y-87481149D01*
X164175800Y-87357798D01*
X164235301Y-87214151D01*
X164250500Y-87098701D01*
X164250499Y-86301300D01*
X164250499Y-86301299D01*
X164250499Y-86301296D01*
X164235303Y-86185857D01*
X164235301Y-86185852D01*
X164235301Y-86185849D01*
X164175800Y-86042202D01*
X164081149Y-85918851D01*
X163957798Y-85824200D01*
X163957794Y-85824198D01*
X163814151Y-85764699D01*
X163814149Y-85764698D01*
X163698702Y-85749500D01*
X163698701Y-85749500D01*
X162950097Y-85749500D01*
X162883058Y-85729815D01*
X162862416Y-85713181D01*
X155737590Y-78588355D01*
X155737588Y-78588352D01*
X155618717Y-78469481D01*
X155618716Y-78469480D01*
X155531904Y-78419360D01*
X155531904Y-78419359D01*
X155531900Y-78419358D01*
X155481785Y-78390423D01*
X155329057Y-78349499D01*
X155170943Y-78349499D01*
X155163347Y-78349499D01*
X155163331Y-78349500D01*
X149249001Y-78349500D01*
X149181962Y-78329815D01*
X149136207Y-78277011D01*
X149126263Y-78207853D01*
X149149734Y-78151189D01*
X149193796Y-78092331D01*
X149244091Y-77957483D01*
X149250500Y-77897873D01*
X149250499Y-75302128D01*
X149244091Y-75242517D01*
X149243531Y-75241016D01*
X149193797Y-75107671D01*
X149193793Y-75107664D01*
X149107547Y-74992455D01*
X149107544Y-74992452D01*
X148992335Y-74906206D01*
X148992328Y-74906202D01*
X148857482Y-74855908D01*
X148857483Y-74855908D01*
X148797883Y-74849501D01*
X148797881Y-74849500D01*
X148797873Y-74849500D01*
X148797864Y-74849500D01*
X145702129Y-74849500D01*
X145702123Y-74849501D01*
X145642516Y-74855908D01*
X145507671Y-74906202D01*
X145507664Y-74906206D01*
X145392455Y-74992452D01*
X145392452Y-74992455D01*
X145306206Y-75107664D01*
X145306202Y-75107671D01*
X145255908Y-75242517D01*
X145253407Y-75265785D01*
X145249501Y-75302123D01*
X145249500Y-75302135D01*
X145249500Y-77897870D01*
X145249501Y-77897876D01*
X145255908Y-77957483D01*
X145306202Y-78092328D01*
X145306204Y-78092331D01*
X145350265Y-78151189D01*
X145374683Y-78216652D01*
X145359832Y-78284925D01*
X145310427Y-78334331D01*
X145250999Y-78349500D01*
X116324953Y-78349500D01*
X116257914Y-78329815D01*
X116212159Y-78277011D01*
X116202215Y-78207853D01*
X116231240Y-78144297D01*
X116237317Y-78137774D01*
X116410589Y-77964680D01*
X116411107Y-77964228D01*
X116416713Y-77958621D01*
X116416716Y-77958620D01*
X116473111Y-77902224D01*
X116528329Y-77847064D01*
X116528333Y-77847056D01*
X116528516Y-77846820D01*
X116528516Y-77846819D01*
X116528520Y-77846816D01*
X116568296Y-77777920D01*
X116568299Y-77777922D01*
X116568320Y-77777877D01*
X116607457Y-77710173D01*
X116607457Y-77710170D01*
X116607459Y-77710168D01*
X116607570Y-77709901D01*
X116607575Y-77709887D01*
X116607577Y-77709884D01*
X116628010Y-77633628D01*
X116628024Y-77633631D01*
X116628025Y-77633568D01*
X116648460Y-77557467D01*
X116648460Y-77557457D01*
X116648500Y-77557160D01*
X116648500Y-77479386D01*
X116648500Y-77479338D01*
X116648541Y-77399352D01*
X116648540Y-77399348D01*
X116648544Y-77391666D01*
X116648500Y-77390977D01*
X116648500Y-74710021D01*
X116648502Y-74709976D01*
X116648501Y-74701740D01*
X116648503Y-74701736D01*
X116648500Y-74606867D01*
X116648500Y-74543643D01*
X116648500Y-74543627D01*
X116624814Y-74455247D01*
X116624812Y-74455241D01*
X116622763Y-74447594D01*
X116607577Y-74390916D01*
X116607574Y-74390911D01*
X116607572Y-74390902D01*
X116599147Y-74376311D01*
X116591131Y-74362427D01*
X116570689Y-74327022D01*
X116570687Y-74327019D01*
X116528520Y-74253983D01*
X116528514Y-74253975D01*
X116514536Y-74239998D01*
X116485309Y-74210773D01*
X116416716Y-74142180D01*
X116416715Y-74142179D01*
X116411087Y-74136551D01*
X116411043Y-74136512D01*
X115739204Y-73464720D01*
X112164804Y-69890568D01*
X112093716Y-69819480D01*
X112093715Y-69819479D01*
X112093711Y-69819475D01*
X112031124Y-69783343D01*
X112031122Y-69783341D01*
X111956774Y-69740416D01*
X111872430Y-69717818D01*
X111872425Y-69717818D01*
X111804058Y-69699499D01*
X111804041Y-69699497D01*
X111804037Y-69699497D01*
X111709168Y-69699500D01*
X110566916Y-69699500D01*
X110499877Y-69679815D01*
X110454122Y-69627011D01*
X110452425Y-69622887D01*
X110367032Y-69450707D01*
X110367030Y-69450704D01*
X110247722Y-69302278D01*
X110247721Y-69302277D01*
X110178514Y-69246647D01*
X110138595Y-69189304D01*
X110136015Y-69119482D01*
X110171594Y-69059349D01*
X110178514Y-69053353D01*
X110187909Y-69045800D01*
X110247722Y-68997722D01*
X110367030Y-68849296D01*
X110451641Y-68678693D01*
X110454628Y-68672671D01*
X110456535Y-68673617D01*
X110492131Y-68625590D01*
X110557478Y-68600860D01*
X110566916Y-68600500D01*
X113675501Y-68600500D01*
X113742540Y-68620185D01*
X113788295Y-68672989D01*
X113799501Y-68724500D01*
X113799501Y-69458034D01*
X113810113Y-69577415D01*
X113866089Y-69773045D01*
X113866090Y-69773048D01*
X113866091Y-69773049D01*
X113960302Y-69953407D01*
X113988180Y-69987597D01*
X114088890Y-70111109D01*
X114182803Y-70187684D01*
X114246593Y-70239698D01*
X114426951Y-70333909D01*
X114622582Y-70389886D01*
X114741963Y-70400500D01*
X115858036Y-70400499D01*
X115977418Y-70389886D01*
X116173049Y-70333909D01*
X116353407Y-70239698D01*
X116511109Y-70111109D01*
X116639698Y-69953407D01*
X116733909Y-69773049D01*
X116789886Y-69577418D01*
X116800500Y-69458037D01*
X116800499Y-67452135D01*
X138249500Y-67452135D01*
X138249500Y-69547870D01*
X138249501Y-69547876D01*
X138255908Y-69607483D01*
X138306202Y-69742328D01*
X138306206Y-69742335D01*
X138392452Y-69857544D01*
X138392453Y-69857544D01*
X138392454Y-69857546D01*
X138436562Y-69890565D01*
X138510599Y-69945990D01*
X138552469Y-70001924D01*
X138557453Y-70071615D01*
X138536605Y-70118141D01*
X138467087Y-70213824D01*
X138359897Y-70424197D01*
X138286934Y-70648752D01*
X138250000Y-70881947D01*
X138250000Y-71118052D01*
X138286934Y-71351247D01*
X138359897Y-71575802D01*
X138467087Y-71786174D01*
X138527338Y-71869104D01*
X138527340Y-71869105D01*
X139267037Y-71129408D01*
X139284075Y-71192993D01*
X139349901Y-71307007D01*
X139442993Y-71400099D01*
X139557007Y-71465925D01*
X139620590Y-71482962D01*
X138874280Y-72229271D01*
X138865105Y-72272947D01*
X138828739Y-72314615D01*
X138772490Y-72355482D01*
X138605485Y-72522487D01*
X138605485Y-72522488D01*
X138605483Y-72522490D01*
X138581863Y-72555000D01*
X138466657Y-72713566D01*
X138359433Y-72924003D01*
X138286446Y-73148631D01*
X138249500Y-73381902D01*
X138249500Y-73618097D01*
X138286447Y-73851368D01*
X138286446Y-73851368D01*
X138359433Y-74075996D01*
X138455640Y-74264811D01*
X138466657Y-74286433D01*
X138605483Y-74477510D01*
X138772490Y-74644517D01*
X138963567Y-74783343D01*
X139062991Y-74834002D01*
X139174003Y-74890566D01*
X139174005Y-74890566D01*
X139174008Y-74890568D01*
X139222131Y-74906204D01*
X139398631Y-74963553D01*
X139631903Y-75000500D01*
X139631908Y-75000500D01*
X139868097Y-75000500D01*
X140101368Y-74963553D01*
X140102870Y-74963065D01*
X140325992Y-74890568D01*
X140536433Y-74783343D01*
X140727510Y-74644517D01*
X140894517Y-74477510D01*
X141033343Y-74286433D01*
X141140568Y-74075992D01*
X141213553Y-73851368D01*
X141222390Y-73795574D01*
X141250500Y-73618097D01*
X141250500Y-73381947D01*
X152750000Y-73381947D01*
X152750000Y-73618052D01*
X152786934Y-73851247D01*
X152859897Y-74075802D01*
X152967087Y-74286174D01*
X153027338Y-74369104D01*
X153027340Y-74369105D01*
X153767037Y-73629408D01*
X153784075Y-73692993D01*
X153849901Y-73807007D01*
X153942993Y-73900099D01*
X154057007Y-73965925D01*
X154120590Y-73982962D01*
X153380893Y-74722658D01*
X153463828Y-74782914D01*
X153674197Y-74890102D01*
X153898752Y-74963065D01*
X153898751Y-74963065D01*
X154131948Y-75000000D01*
X154368052Y-75000000D01*
X154601247Y-74963065D01*
X154825802Y-74890102D01*
X155036163Y-74782918D01*
X155036169Y-74782914D01*
X155119104Y-74722658D01*
X155119105Y-74722658D01*
X154379408Y-73982962D01*
X154442993Y-73965925D01*
X154557007Y-73900099D01*
X154650099Y-73807007D01*
X154715925Y-73692993D01*
X154732962Y-73629409D01*
X155472658Y-74369105D01*
X155472658Y-74369104D01*
X155532914Y-74286169D01*
X155532918Y-74286163D01*
X155640102Y-74075802D01*
X155713065Y-73851247D01*
X155750000Y-73618052D01*
X155750000Y-73381947D01*
X155713065Y-73148752D01*
X155640102Y-72924197D01*
X155532914Y-72713828D01*
X155472658Y-72630894D01*
X155472658Y-72630893D01*
X154732962Y-73370590D01*
X154715925Y-73307007D01*
X154650099Y-73192993D01*
X154557007Y-73099901D01*
X154442993Y-73034075D01*
X154379409Y-73017037D01*
X155119105Y-72277340D01*
X155119104Y-72277338D01*
X155036174Y-72217087D01*
X154825802Y-72109897D01*
X154601247Y-72036934D01*
X154601248Y-72036934D01*
X154368052Y-72000000D01*
X154131948Y-72000000D01*
X153898752Y-72036934D01*
X153674197Y-72109897D01*
X153463830Y-72217084D01*
X153380894Y-72277340D01*
X154120591Y-73017037D01*
X154057007Y-73034075D01*
X153942993Y-73099901D01*
X153849901Y-73192993D01*
X153784075Y-73307007D01*
X153767037Y-73370591D01*
X153027340Y-72630894D01*
X152967084Y-72713830D01*
X152859897Y-72924197D01*
X152786934Y-73148752D01*
X152750000Y-73381947D01*
X141250500Y-73381947D01*
X141250500Y-73381902D01*
X141213553Y-73148631D01*
X141157952Y-72977511D01*
X141140568Y-72924008D01*
X141140566Y-72924005D01*
X141140566Y-72924003D01*
X141048587Y-72743486D01*
X141033343Y-72713567D01*
X140894517Y-72522490D01*
X140727510Y-72355483D01*
X140667066Y-72311568D01*
X140663142Y-72308182D01*
X140646887Y-72283006D01*
X140628595Y-72259284D01*
X140627714Y-72253311D01*
X140625243Y-72249484D01*
X140625215Y-72236358D01*
X140623902Y-72227455D01*
X139879408Y-71482962D01*
X139942993Y-71465925D01*
X140057007Y-71400099D01*
X140150099Y-71307007D01*
X140215925Y-71192993D01*
X140232962Y-71129409D01*
X140972658Y-71869105D01*
X140972658Y-71869104D01*
X141032914Y-71786169D01*
X141032918Y-71786163D01*
X141140102Y-71575802D01*
X141213065Y-71351247D01*
X141250000Y-71118052D01*
X141250000Y-70881947D01*
X141213065Y-70648752D01*
X141140102Y-70424197D01*
X141032914Y-70213828D01*
X140963394Y-70118142D01*
X140939914Y-70052335D01*
X140955739Y-69984281D01*
X140989401Y-69945989D01*
X140992329Y-69943796D01*
X140992331Y-69943796D01*
X141107546Y-69857546D01*
X141193796Y-69742331D01*
X141244091Y-69607483D01*
X141250500Y-69547873D01*
X141250499Y-68381902D01*
X152749500Y-68381902D01*
X152749500Y-68618097D01*
X152786446Y-68851368D01*
X152859433Y-69075996D01*
X152917167Y-69189304D01*
X152966657Y-69286433D01*
X153105483Y-69477510D01*
X153272490Y-69644517D01*
X153463567Y-69783343D01*
X153534476Y-69819473D01*
X153674003Y-69890566D01*
X153674005Y-69890566D01*
X153674008Y-69890568D01*
X153794412Y-69929689D01*
X153898631Y-69963553D01*
X154131903Y-70000500D01*
X154131908Y-70000500D01*
X154368097Y-70000500D01*
X154601368Y-69963553D01*
X154655424Y-69945989D01*
X154825992Y-69890568D01*
X155036433Y-69783343D01*
X155227510Y-69644517D01*
X155394517Y-69477510D01*
X155533343Y-69286433D01*
X155640568Y-69075992D01*
X155713553Y-68851368D01*
X155741706Y-68673617D01*
X155750500Y-68618097D01*
X155750500Y-68381902D01*
X155713553Y-68148631D01*
X155640566Y-67924003D01*
X155558782Y-67763494D01*
X155533343Y-67713567D01*
X155394517Y-67522490D01*
X155227510Y-67355483D01*
X155036433Y-67216657D01*
X154991042Y-67193529D01*
X154825996Y-67109433D01*
X154601368Y-67036446D01*
X154368097Y-66999500D01*
X154368092Y-66999500D01*
X154131908Y-66999500D01*
X154131903Y-66999500D01*
X153898631Y-67036446D01*
X153674003Y-67109433D01*
X153463566Y-67216657D01*
X153407119Y-67257669D01*
X153272490Y-67355483D01*
X153272488Y-67355485D01*
X153272487Y-67355485D01*
X153105485Y-67522487D01*
X153105485Y-67522488D01*
X153105483Y-67522490D01*
X153045862Y-67604550D01*
X152966657Y-67713566D01*
X152859433Y-67924003D01*
X152786446Y-68148631D01*
X152749500Y-68381902D01*
X141250499Y-68381902D01*
X141250499Y-67452128D01*
X141244091Y-67392517D01*
X141239353Y-67379815D01*
X141193796Y-67257669D01*
X141193793Y-67257664D01*
X141107547Y-67142455D01*
X141107544Y-67142452D01*
X140992335Y-67056206D01*
X140992328Y-67056202D01*
X140857482Y-67005908D01*
X140857483Y-67005908D01*
X140797883Y-66999501D01*
X140797881Y-66999500D01*
X140797873Y-66999500D01*
X140797864Y-66999500D01*
X138702129Y-66999500D01*
X138702123Y-66999501D01*
X138642516Y-67005908D01*
X138507671Y-67056202D01*
X138507664Y-67056206D01*
X138392455Y-67142452D01*
X138392452Y-67142455D01*
X138306206Y-67257664D01*
X138306204Y-67257669D01*
X138255908Y-67392517D01*
X138253331Y-67416492D01*
X138249501Y-67452123D01*
X138249500Y-67452135D01*
X116800499Y-67452135D01*
X116800499Y-66541964D01*
X116789886Y-66422582D01*
X116733909Y-66226951D01*
X116639698Y-66046593D01*
X116560937Y-65950000D01*
X116511109Y-65888890D01*
X116353409Y-65760304D01*
X116353410Y-65760304D01*
X116353407Y-65760302D01*
X116173049Y-65666091D01*
X116173046Y-65666090D01*
X115990388Y-65613825D01*
X115931350Y-65576457D01*
X115901887Y-65513104D01*
X115900500Y-65494609D01*
X115900500Y-64102135D01*
X145249500Y-64102135D01*
X145249500Y-66697870D01*
X145249501Y-66697876D01*
X145255908Y-66757483D01*
X145306202Y-66892328D01*
X145306206Y-66892335D01*
X145392452Y-67007544D01*
X145392455Y-67007547D01*
X145507664Y-67093793D01*
X145507671Y-67093797D01*
X145642517Y-67144091D01*
X145642516Y-67144091D01*
X145649444Y-67144835D01*
X145702127Y-67150500D01*
X148797872Y-67150499D01*
X148857483Y-67144091D01*
X148992331Y-67093796D01*
X149107546Y-67007546D01*
X149193796Y-66892331D01*
X149244091Y-66757483D01*
X149250500Y-66697873D01*
X149250499Y-64102128D01*
X149244091Y-64042517D01*
X149223117Y-63986284D01*
X149193797Y-63907671D01*
X149193793Y-63907664D01*
X149107547Y-63792455D01*
X149107544Y-63792452D01*
X148992335Y-63706206D01*
X148992328Y-63706202D01*
X148857482Y-63655908D01*
X148857483Y-63655908D01*
X148797883Y-63649501D01*
X148797881Y-63649500D01*
X148797873Y-63649500D01*
X148797864Y-63649500D01*
X145702129Y-63649500D01*
X145702123Y-63649501D01*
X145642516Y-63655908D01*
X145507671Y-63706202D01*
X145507664Y-63706206D01*
X145392455Y-63792452D01*
X145392452Y-63792455D01*
X145306206Y-63907664D01*
X145306202Y-63907671D01*
X145255908Y-64042517D01*
X145249501Y-64102116D01*
X145249501Y-64102123D01*
X145249500Y-64102135D01*
X115900500Y-64102135D01*
X115900500Y-63770096D01*
X115920185Y-63703057D01*
X115936814Y-63682420D01*
X123022916Y-56596317D01*
X123084237Y-56562834D01*
X123110595Y-56560000D01*
X124066988Y-56560000D01*
X124034075Y-56617007D01*
X124000000Y-56744174D01*
X124000000Y-56875826D01*
X124034075Y-57002993D01*
X124066988Y-57060000D01*
X123150001Y-57060000D01*
X123150001Y-57544162D01*
X123156132Y-57611651D01*
X123156134Y-57611658D01*
X123204537Y-57766989D01*
X123204540Y-57766998D01*
X123288710Y-57906233D01*
X123288713Y-57906237D01*
X123403762Y-58021286D01*
X123403766Y-58021289D01*
X123543001Y-58105459D01*
X123543007Y-58105461D01*
X123698337Y-58153864D01*
X123698344Y-58153865D01*
X123765848Y-58159999D01*
X124249999Y-58159999D01*
X124250000Y-58159998D01*
X124250000Y-57243012D01*
X124307007Y-57275925D01*
X124434174Y-57310000D01*
X124565826Y-57310000D01*
X124692993Y-57275925D01*
X124750000Y-57243012D01*
X124750000Y-58159999D01*
X125234161Y-58159999D01*
X125301651Y-58153867D01*
X125301658Y-58153865D01*
X125456989Y-58105462D01*
X125456998Y-58105459D01*
X125596233Y-58021289D01*
X125596237Y-58021286D01*
X125711286Y-57906237D01*
X125711289Y-57906233D01*
X125795459Y-57766998D01*
X125795461Y-57766992D01*
X125843864Y-57611662D01*
X125843865Y-57611655D01*
X125850000Y-57544151D01*
X125850000Y-57060000D01*
X124933012Y-57060000D01*
X124965925Y-57002993D01*
X125000000Y-56875826D01*
X125000000Y-56744174D01*
X124965925Y-56617007D01*
X124933012Y-56560000D01*
X125849999Y-56560000D01*
X125849999Y-56075837D01*
X125843867Y-56008348D01*
X125843865Y-56008341D01*
X125795462Y-55853010D01*
X125795459Y-55853001D01*
X125711289Y-55713766D01*
X125711286Y-55713762D01*
X125596237Y-55598713D01*
X125596233Y-55598710D01*
X125456998Y-55514540D01*
X125456993Y-55514538D01*
X125430475Y-55506275D01*
X125372328Y-55467536D01*
X125344355Y-55403510D01*
X125355437Y-55334525D01*
X125379686Y-55300208D01*
X125379784Y-55300109D01*
X125379792Y-55300104D01*
X125530104Y-55149792D01*
X125655051Y-54977816D01*
X125751557Y-54788412D01*
X125817246Y-54586243D01*
X125850500Y-54376287D01*
X125850500Y-54163713D01*
X125817246Y-53953757D01*
X125751557Y-53751588D01*
X125655051Y-53562184D01*
X125655049Y-53562181D01*
X125655048Y-53562179D01*
X125530109Y-53390213D01*
X125379786Y-53239890D01*
X125207820Y-53114951D01*
X125207115Y-53114591D01*
X125199054Y-53110485D01*
X125148259Y-53062512D01*
X125131463Y-52994692D01*
X125153999Y-52928556D01*
X125199054Y-52889515D01*
X125207816Y-52885051D01*
X125229789Y-52869086D01*
X125379786Y-52760109D01*
X125379788Y-52760106D01*
X125379792Y-52760104D01*
X125530104Y-52609792D01*
X125530106Y-52609788D01*
X125530109Y-52609786D01*
X125655048Y-52437820D01*
X125655047Y-52437820D01*
X125655051Y-52437816D01*
X125751557Y-52248412D01*
X125817246Y-52046243D01*
X125850500Y-51836287D01*
X125850500Y-51623713D01*
X125817246Y-51413757D01*
X125751557Y-51211588D01*
X125655051Y-51022184D01*
X125655049Y-51022181D01*
X125655048Y-51022179D01*
X125530109Y-50850213D01*
X125379786Y-50699890D01*
X125207820Y-50574951D01*
X125207115Y-50574591D01*
X125199054Y-50570485D01*
X125148259Y-50522512D01*
X125131463Y-50454692D01*
X125153999Y-50388556D01*
X125199054Y-50349515D01*
X125207816Y-50345051D01*
X125229789Y-50329086D01*
X125379786Y-50220109D01*
X125379788Y-50220106D01*
X125379792Y-50220104D01*
X125530104Y-50069792D01*
X125530106Y-50069788D01*
X125530109Y-50069786D01*
X125655048Y-49897820D01*
X125655047Y-49897820D01*
X125655051Y-49897816D01*
X125751557Y-49708412D01*
X125817246Y-49506243D01*
X125850500Y-49296287D01*
X125850500Y-49083713D01*
X125817246Y-48873757D01*
X125751557Y-48671588D01*
X125655051Y-48482184D01*
X125655049Y-48482181D01*
X125655048Y-48482179D01*
X125530109Y-48310213D01*
X125379786Y-48159890D01*
X125207820Y-48034951D01*
X125018414Y-47938444D01*
X125018413Y-47938443D01*
X125018412Y-47938443D01*
X124816243Y-47872754D01*
X124816241Y-47872753D01*
X124816240Y-47872753D01*
X124654957Y-47847208D01*
X124606287Y-47839500D01*
X124393713Y-47839500D01*
X124345042Y-47847208D01*
X124183760Y-47872753D01*
X123981585Y-47938444D01*
X123792179Y-48034951D01*
X123620213Y-48159890D01*
X123469890Y-48310213D01*
X123344951Y-48482179D01*
X123248444Y-48671585D01*
X123182753Y-48873760D01*
X123149500Y-49083713D01*
X123149500Y-49296286D01*
X123182753Y-49506239D01*
X123248444Y-49708414D01*
X123344951Y-49897820D01*
X123469890Y-50069786D01*
X123620213Y-50220109D01*
X123792182Y-50345050D01*
X123800946Y-50349516D01*
X123851742Y-50397491D01*
X123868536Y-50465312D01*
X123845998Y-50531447D01*
X123800946Y-50570484D01*
X123792182Y-50574949D01*
X123620213Y-50699890D01*
X123469890Y-50850213D01*
X123344951Y-51022179D01*
X123248444Y-51211585D01*
X123182753Y-51413760D01*
X123149500Y-51623713D01*
X123149500Y-51836286D01*
X123180260Y-52030500D01*
X123182754Y-52046243D01*
X123235706Y-52209213D01*
X123248444Y-52248414D01*
X123344951Y-52437820D01*
X123469890Y-52609786D01*
X123620213Y-52760109D01*
X123792182Y-52885050D01*
X123800946Y-52889516D01*
X123851742Y-52937491D01*
X123868536Y-53005312D01*
X123845998Y-53071447D01*
X123800946Y-53110484D01*
X123792182Y-53114949D01*
X123620213Y-53239890D01*
X123469890Y-53390213D01*
X123344951Y-53562179D01*
X123248444Y-53751585D01*
X123182753Y-53953760D01*
X123149500Y-54163713D01*
X123149500Y-54376286D01*
X123182754Y-54586244D01*
X123182754Y-54586247D01*
X123196491Y-54628523D01*
X123198486Y-54698364D01*
X123166241Y-54754522D01*
X114931286Y-62989478D01*
X114819481Y-63101282D01*
X114819479Y-63101285D01*
X114769361Y-63188094D01*
X114769359Y-63188096D01*
X114740425Y-63238209D01*
X114740424Y-63238210D01*
X114740423Y-63238215D01*
X114699499Y-63390943D01*
X114699499Y-63390945D01*
X114699499Y-63559046D01*
X114699500Y-63559059D01*
X114699500Y-65494609D01*
X114679815Y-65561648D01*
X114627011Y-65607403D01*
X114609612Y-65613825D01*
X114426953Y-65666090D01*
X114426951Y-65666090D01*
X114426951Y-65666091D01*
X114246593Y-65760302D01*
X114246591Y-65760303D01*
X114246590Y-65760304D01*
X114088890Y-65888890D01*
X113960304Y-66046590D01*
X113866089Y-66226954D01*
X113810114Y-66422583D01*
X113810113Y-66422586D01*
X113799500Y-66541966D01*
X113799500Y-67275500D01*
X113779815Y-67342539D01*
X113727011Y-67388294D01*
X113675500Y-67399500D01*
X110566916Y-67399500D01*
X110499877Y-67379815D01*
X110454122Y-67327011D01*
X110452425Y-67322887D01*
X110367032Y-67150707D01*
X110367030Y-67150704D01*
X110247724Y-67002280D01*
X110244267Y-66999501D01*
X110178112Y-66946324D01*
X110138196Y-66888985D01*
X110135616Y-66819163D01*
X110171194Y-66759030D01*
X110178115Y-66753033D01*
X110247366Y-66697367D01*
X110247367Y-66697366D01*
X110366607Y-66549025D01*
X110366609Y-66549022D01*
X110451168Y-66378523D01*
X110497102Y-66193824D01*
X110500000Y-66151096D01*
X110500000Y-65950000D01*
X107500000Y-65950000D01*
X107500000Y-66151096D01*
X107502897Y-66193824D01*
X107548831Y-66378523D01*
X107633390Y-66549022D01*
X107633392Y-66549025D01*
X107752630Y-66697364D01*
X107821884Y-66753031D01*
X107861803Y-66810375D01*
X107864383Y-66880197D01*
X107828805Y-66940329D01*
X107821885Y-66946326D01*
X107752276Y-67002280D01*
X107632969Y-67150704D01*
X107632967Y-67150707D01*
X107548360Y-67321302D01*
X107502400Y-67506107D01*
X107501289Y-67522488D01*
X107499680Y-67546231D01*
X107499500Y-67548879D01*
X107499500Y-67650700D01*
X107479815Y-67717739D01*
X107427011Y-67763494D01*
X107357853Y-67773438D01*
X107294297Y-67744413D01*
X107287815Y-67738377D01*
X106450815Y-66901298D01*
X106417333Y-66839973D01*
X106414500Y-66813621D01*
X106414500Y-65248903D01*
X107500000Y-65248903D01*
X107500000Y-65450000D01*
X108750000Y-65450000D01*
X109250000Y-65450000D01*
X110500000Y-65450000D01*
X110500000Y-65248903D01*
X110497102Y-65206175D01*
X110451168Y-65021476D01*
X110366609Y-64850977D01*
X110366607Y-64850974D01*
X110247367Y-64702633D01*
X110247366Y-64702632D01*
X110099025Y-64583392D01*
X110099022Y-64583390D01*
X109928523Y-64498831D01*
X109743824Y-64452897D01*
X109701097Y-64450000D01*
X109250000Y-64450000D01*
X109250000Y-65450000D01*
X108750000Y-65450000D01*
X108750000Y-64450000D01*
X108298903Y-64450000D01*
X108256175Y-64452897D01*
X108071476Y-64498831D01*
X107900977Y-64583390D01*
X107900974Y-64583392D01*
X107752633Y-64702632D01*
X107752632Y-64702633D01*
X107633392Y-64850974D01*
X107633390Y-64850977D01*
X107548831Y-65021476D01*
X107502897Y-65206175D01*
X107500000Y-65248903D01*
X106414500Y-65248903D01*
X106414500Y-60944554D01*
X106414510Y-60944389D01*
X106414509Y-60936291D01*
X106414510Y-60936288D01*
X106414500Y-60848446D01*
X106414500Y-60778243D01*
X106414500Y-60778235D01*
X106414492Y-60778179D01*
X106414492Y-60778173D01*
X106392840Y-60697407D01*
X106373577Y-60625516D01*
X106373574Y-60625510D01*
X106373573Y-60625507D01*
X106373551Y-60625454D01*
X106373550Y-60625453D01*
X106373550Y-60625451D01*
X106335318Y-60559249D01*
X106335320Y-60559247D01*
X106335311Y-60559237D01*
X106294520Y-60488584D01*
X106294482Y-60488534D01*
X106294477Y-60488529D01*
X106242810Y-60436874D01*
X106182716Y-60376780D01*
X106177218Y-60371282D01*
X106177090Y-60371169D01*
X103168665Y-57363442D01*
X103168660Y-57363438D01*
X103031722Y-57284397D01*
X103031712Y-57284393D01*
X102878991Y-57243490D01*
X102878986Y-57243489D01*
X102720932Y-57243508D01*
X102720873Y-57243509D01*
X102720872Y-57243509D01*
X102568156Y-57284447D01*
X102568150Y-57284450D01*
X102431228Y-57363523D01*
X102319438Y-57475340D01*
X102319436Y-57475342D01*
X102240397Y-57612277D01*
X102240393Y-57612287D01*
X102199490Y-57765008D01*
X102199489Y-57765013D01*
X102199509Y-57923123D01*
X102199509Y-57923127D01*
X102240447Y-58075843D01*
X102240449Y-58075847D01*
X102240450Y-58075850D01*
X102319523Y-58212772D01*
X102319524Y-58212773D01*
X102319527Y-58212777D01*
X104276141Y-60168935D01*
X105051941Y-60944554D01*
X105177171Y-61069754D01*
X105210663Y-61131073D01*
X105213500Y-61157445D01*
X105213500Y-67093801D01*
X105213496Y-67192745D01*
X105213502Y-67192789D01*
X105213707Y-67193529D01*
X105230893Y-67257669D01*
X105230894Y-67257673D01*
X105254416Y-67345472D01*
X105295416Y-67416486D01*
X105295417Y-67416492D01*
X105295419Y-67416492D01*
X105333470Y-67482406D01*
X105333479Y-67482415D01*
X105333480Y-67482416D01*
X105397291Y-67546227D01*
X105397295Y-67546231D01*
X107483616Y-69632748D01*
X107517098Y-69694073D01*
X107516266Y-69750350D01*
X107502401Y-69806104D01*
X107502400Y-69806108D01*
X107502400Y-69806111D01*
X107499500Y-69848877D01*
X107499500Y-69848879D01*
X107499500Y-70751122D01*
X107499501Y-70751125D01*
X107502399Y-70793886D01*
X107502399Y-70793887D01*
X107532933Y-70916666D01*
X107546861Y-70972671D01*
X107548360Y-70978696D01*
X107632967Y-71149292D01*
X107632969Y-71149295D01*
X107752277Y-71297721D01*
X107752278Y-71297722D01*
X107900704Y-71417030D01*
X107900707Y-71417032D01*
X108071302Y-71501639D01*
X108071303Y-71501639D01*
X108071307Y-71501641D01*
X108256111Y-71547600D01*
X108298877Y-71550500D01*
X109701122Y-71550499D01*
X109743889Y-71547600D01*
X109928693Y-71501641D01*
X110099296Y-71417030D01*
X110247722Y-71297722D01*
X110367030Y-71149296D01*
X110408427Y-71065826D01*
X110454628Y-70972671D01*
X110456535Y-70973617D01*
X110492131Y-70925590D01*
X110557478Y-70900860D01*
X110566916Y-70900500D01*
X111424917Y-70900500D01*
X111491956Y-70920185D01*
X111512592Y-70936814D01*
X114473765Y-73897780D01*
X114507251Y-73959100D01*
X114502269Y-74028791D01*
X114460400Y-74084727D01*
X114398689Y-74108820D01*
X114382302Y-74110494D01*
X114215880Y-74165641D01*
X114215875Y-74165643D01*
X114066654Y-74257684D01*
X113942682Y-74381656D01*
X113920578Y-74417493D01*
X113868629Y-74464217D01*
X113799667Y-74475438D01*
X113735585Y-74447594D01*
X113727370Y-74440087D01*
X113452857Y-74165643D01*
X113138504Y-73851368D01*
X113082716Y-73795580D01*
X113082653Y-73795531D01*
X113012573Y-73755082D01*
X113012561Y-73755076D01*
X112945774Y-73716517D01*
X112945720Y-73716495D01*
X112867809Y-73695629D01*
X112867809Y-73695626D01*
X112867795Y-73695625D01*
X112793055Y-73675599D01*
X112792984Y-73675589D01*
X112709764Y-73675600D01*
X106136500Y-73675600D01*
X106069461Y-73655915D01*
X106023706Y-73603111D01*
X106012500Y-73551600D01*
X106012500Y-73300000D01*
X105124000Y-73300000D01*
X105056961Y-73280315D01*
X105011206Y-73227511D01*
X105000000Y-73176000D01*
X105000000Y-73050000D01*
X104874000Y-73050000D01*
X104806961Y-73030315D01*
X104761206Y-72977511D01*
X104750000Y-72926000D01*
X104750000Y-72800000D01*
X105250000Y-72800000D01*
X106012499Y-72800000D01*
X106012499Y-72550028D01*
X106012498Y-72550013D01*
X106002005Y-72447302D01*
X105946858Y-72280880D01*
X105946856Y-72280875D01*
X105854815Y-72131654D01*
X105730845Y-72007684D01*
X105581624Y-71915643D01*
X105581619Y-71915641D01*
X105415197Y-71860494D01*
X105415190Y-71860493D01*
X105312486Y-71850000D01*
X105250000Y-71850000D01*
X105250000Y-72800000D01*
X104750000Y-72800000D01*
X104750000Y-71850000D01*
X104749999Y-71849999D01*
X104687528Y-71850000D01*
X104687511Y-71850001D01*
X104584802Y-71860494D01*
X104418380Y-71915641D01*
X104418375Y-71915643D01*
X104269157Y-72007682D01*
X104175534Y-72101305D01*
X104114210Y-72134789D01*
X104044519Y-72129805D01*
X104000172Y-72101304D01*
X103906157Y-72007289D01*
X103906156Y-72007288D01*
X103756834Y-71915186D01*
X103590297Y-71860001D01*
X103590295Y-71860000D01*
X103487516Y-71849500D01*
X102875362Y-71849500D01*
X102808323Y-71829815D01*
X102787668Y-71813168D01*
X102733635Y-71759119D01*
X102733502Y-71758966D01*
X102671316Y-71696780D01*
X102615796Y-71641241D01*
X102615719Y-71641182D01*
X102564153Y-71611411D01*
X102546339Y-71601126D01*
X102546342Y-71601120D01*
X102546318Y-71601114D01*
X102478882Y-71562164D01*
X102478782Y-71562122D01*
X102403549Y-71541964D01*
X102403549Y-71541961D01*
X102403527Y-71541958D01*
X102383240Y-71536518D01*
X102326111Y-71521200D01*
X102326057Y-71521200D01*
X102250260Y-71521200D01*
X102250203Y-71521199D01*
X102168040Y-71521187D01*
X102168039Y-71521187D01*
X102160111Y-71521186D01*
X102159897Y-71521200D01*
X101223766Y-71521200D01*
X101156727Y-71501515D01*
X101154875Y-71500302D01*
X101023185Y-71412309D01*
X101023172Y-71412302D01*
X100877501Y-71351964D01*
X100877489Y-71351961D01*
X100722845Y-71321200D01*
X100722842Y-71321200D01*
X100565158Y-71321200D01*
X100565155Y-71321200D01*
X100410510Y-71351961D01*
X100410498Y-71351964D01*
X100264827Y-71412302D01*
X100264814Y-71412309D01*
X100133711Y-71499910D01*
X100133707Y-71499913D01*
X100022213Y-71611407D01*
X100022210Y-71611411D01*
X99934609Y-71742514D01*
X99934602Y-71742527D01*
X99874264Y-71888198D01*
X99874261Y-71888210D01*
X99843500Y-72042853D01*
X99843500Y-72200546D01*
X99874261Y-72355189D01*
X99874264Y-72355201D01*
X99934602Y-72500872D01*
X99934609Y-72500885D01*
X100022210Y-72631988D01*
X100022213Y-72631992D01*
X100133707Y-72743486D01*
X100133711Y-72743489D01*
X100264814Y-72831090D01*
X100264827Y-72831097D01*
X100397485Y-72886045D01*
X100410503Y-72891437D01*
X100509134Y-72911056D01*
X100565153Y-72922199D01*
X100565156Y-72922200D01*
X100565158Y-72922200D01*
X100722844Y-72922200D01*
X100722845Y-72922199D01*
X100877497Y-72891437D01*
X101023179Y-72831094D01*
X101023185Y-72831090D01*
X101154875Y-72743098D01*
X101221553Y-72722220D01*
X101223766Y-72722200D01*
X101946834Y-72722200D01*
X102013873Y-72741885D01*
X102034529Y-72758533D01*
X102125695Y-72849728D01*
X102159170Y-72911056D01*
X102162000Y-72937395D01*
X102162000Y-73550001D01*
X102162001Y-73550019D01*
X102172500Y-73652796D01*
X102172501Y-73652799D01*
X102206393Y-73755076D01*
X102227686Y-73819334D01*
X102319788Y-73968656D01*
X102443844Y-74092712D01*
X102593166Y-74184814D01*
X102759703Y-74239999D01*
X102862491Y-74250500D01*
X103487508Y-74250499D01*
X103487516Y-74250498D01*
X103487519Y-74250498D01*
X103543802Y-74244748D01*
X103590297Y-74239999D01*
X103756834Y-74184814D01*
X103856494Y-74123343D01*
X103923885Y-74104904D01*
X103990548Y-74125827D01*
X104035318Y-74179469D01*
X104043979Y-74248799D01*
X104013783Y-74311807D01*
X104009268Y-74316567D01*
X103562626Y-74763184D01*
X103501302Y-74796667D01*
X103474947Y-74799500D01*
X102862498Y-74799500D01*
X102862480Y-74799501D01*
X102759703Y-74810000D01*
X102759700Y-74810001D01*
X102593168Y-74865185D01*
X102593163Y-74865187D01*
X102443842Y-74957289D01*
X102319789Y-75081342D01*
X102227687Y-75230663D01*
X102227685Y-75230668D01*
X102224256Y-75241016D01*
X102204004Y-75302135D01*
X102199905Y-75314504D01*
X102160132Y-75371949D01*
X102095616Y-75398772D01*
X102082199Y-75399500D01*
X94307297Y-75399500D01*
X94240258Y-75379815D01*
X94219616Y-75363181D01*
X93728374Y-74871939D01*
X93694889Y-74810616D01*
X93694438Y-74808449D01*
X93663538Y-74653110D01*
X93663537Y-74653103D01*
X93618198Y-74543643D01*
X93603197Y-74507427D01*
X93603190Y-74507414D01*
X93515589Y-74376311D01*
X93515586Y-74376307D01*
X93404092Y-74264813D01*
X93404088Y-74264810D01*
X93272985Y-74177209D01*
X93272972Y-74177202D01*
X93127301Y-74116864D01*
X93127289Y-74116861D01*
X92972645Y-74086100D01*
X92972642Y-74086100D01*
X92814958Y-74086100D01*
X92814955Y-74086100D01*
X92660310Y-74116861D01*
X92660298Y-74116864D01*
X92514627Y-74177202D01*
X92514614Y-74177209D01*
X92383511Y-74264810D01*
X92383507Y-74264813D01*
X92272013Y-74376307D01*
X92272010Y-74376311D01*
X92184409Y-74507414D01*
X92184402Y-74507427D01*
X92124064Y-74653098D01*
X92124061Y-74653110D01*
X92093300Y-74807753D01*
X92093300Y-74965446D01*
X92124061Y-75120089D01*
X92124064Y-75120101D01*
X92184402Y-75265772D01*
X92184409Y-75265785D01*
X92272010Y-75396888D01*
X92272013Y-75396892D01*
X92383507Y-75508386D01*
X92383511Y-75508389D01*
X92514614Y-75595990D01*
X92514627Y-75595997D01*
X92660298Y-75656335D01*
X92660303Y-75656337D01*
X92724947Y-75669195D01*
X92815649Y-75687238D01*
X92877560Y-75719623D01*
X92879139Y-75721174D01*
X93522339Y-76364374D01*
X93522349Y-76364385D01*
X93526679Y-76368715D01*
X93526680Y-76368716D01*
X93638484Y-76480520D01*
X93638486Y-76480521D01*
X93638490Y-76480524D01*
X93775409Y-76559573D01*
X93775416Y-76559577D01*
X93775423Y-76559579D01*
X93782923Y-76562686D01*
X93782416Y-76563909D01*
X93834884Y-76595891D01*
X93865413Y-76658738D01*
X93857118Y-76728113D01*
X93812632Y-76781991D01*
X93746080Y-76803265D01*
X93743130Y-76803300D01*
X91081869Y-76803300D01*
X91081853Y-76803299D01*
X91074257Y-76803299D01*
X90916143Y-76803299D01*
X90810326Y-76831653D01*
X90763410Y-76844224D01*
X90763409Y-76844225D01*
X90713296Y-76873159D01*
X90713295Y-76873160D01*
X90669889Y-76898220D01*
X90626485Y-76923279D01*
X90626482Y-76923281D01*
X90514678Y-77035086D01*
X81839029Y-85710733D01*
X81777706Y-85744218D01*
X81708014Y-85739234D01*
X81652081Y-85697362D01*
X81627664Y-85631898D01*
X81627366Y-85621051D01*
X82000000Y-62950000D01*
X81902366Y-61157445D01*
X80880640Y-42398543D01*
X94359499Y-42398543D01*
X94397947Y-42591829D01*
X94397950Y-42591839D01*
X94473364Y-42773907D01*
X94473371Y-42773920D01*
X94582860Y-42937781D01*
X94582863Y-42937785D01*
X94722214Y-43077136D01*
X94722218Y-43077139D01*
X94886079Y-43186628D01*
X94886092Y-43186635D01*
X95068160Y-43262049D01*
X95068165Y-43262051D01*
X95068169Y-43262051D01*
X95068170Y-43262052D01*
X95261456Y-43300500D01*
X95261459Y-43300500D01*
X95458543Y-43300500D01*
X95588582Y-43274632D01*
X95651835Y-43262051D01*
X95833914Y-43186632D01*
X95997782Y-43077139D01*
X96137139Y-42937782D01*
X96246632Y-42773914D01*
X96322051Y-42591835D01*
X96360500Y-42398541D01*
X96360500Y-41601459D01*
X96360500Y-41601456D01*
X96322052Y-41408170D01*
X96322051Y-41408169D01*
X96322051Y-41408165D01*
X96280074Y-41306823D01*
X96246635Y-41226092D01*
X96246628Y-41226079D01*
X96137139Y-41062218D01*
X96137136Y-41062214D01*
X95997785Y-40922863D01*
X95997781Y-40922860D01*
X95833920Y-40813371D01*
X95833907Y-40813364D01*
X95651839Y-40737950D01*
X95651829Y-40737947D01*
X95458543Y-40699500D01*
X95458541Y-40699500D01*
X95261459Y-40699500D01*
X95261457Y-40699500D01*
X95068170Y-40737947D01*
X95068160Y-40737950D01*
X94886092Y-40813364D01*
X94886079Y-40813371D01*
X94722218Y-40922860D01*
X94722214Y-40922863D01*
X94582863Y-41062214D01*
X94582860Y-41062218D01*
X94473371Y-41226079D01*
X94473364Y-41226092D01*
X94397950Y-41408160D01*
X94397947Y-41408170D01*
X94359500Y-41601456D01*
X94359500Y-41601459D01*
X94359500Y-42398541D01*
X94359500Y-42398543D01*
X94359499Y-42398543D01*
X80880640Y-42398543D01*
X80837261Y-41602111D01*
X80750184Y-40003378D01*
X80750000Y-39996634D01*
X80750000Y-39119197D01*
X80769685Y-39052158D01*
X80822489Y-39006403D01*
X80869101Y-38995294D01*
X94252434Y-38466570D01*
X94320193Y-38483591D01*
X94367997Y-38534548D01*
X94378941Y-38566280D01*
X94397947Y-38661829D01*
X94397950Y-38661839D01*
X94473364Y-38843907D01*
X94473371Y-38843920D01*
X94582860Y-39007781D01*
X94582863Y-39007785D01*
X94722214Y-39147136D01*
X94722218Y-39147139D01*
X94886079Y-39256628D01*
X94886092Y-39256635D01*
X95014064Y-39309642D01*
X95068165Y-39332051D01*
X95068169Y-39332051D01*
X95068170Y-39332052D01*
X95261456Y-39370500D01*
X95261459Y-39370500D01*
X95458543Y-39370500D01*
X95588582Y-39344632D01*
X95651835Y-39332051D01*
X95833914Y-39256632D01*
X95997782Y-39147139D01*
X96137139Y-39007782D01*
X96246632Y-38843914D01*
X96246631Y-38843914D01*
X96250017Y-38838848D01*
X96251474Y-38839821D01*
X96294595Y-38795903D01*
X96362729Y-38780426D01*
X96428414Y-38804242D01*
X96430502Y-38805809D01*
X96436632Y-38810512D01*
X96436635Y-38810515D01*
X96567865Y-38886281D01*
X96714234Y-38925500D01*
X96714236Y-38925500D01*
X96865764Y-38925500D01*
X96865766Y-38925500D01*
X97012135Y-38886281D01*
X97143365Y-38810515D01*
X97250515Y-38703365D01*
X97326281Y-38572135D01*
X97364122Y-38430907D01*
X97400486Y-38371249D01*
X97463332Y-38340720D01*
X97478982Y-38339101D01*
X97700606Y-38330346D01*
X97768370Y-38347369D01*
X97816173Y-38398325D01*
X97829500Y-38454249D01*
X97829500Y-63054902D01*
X97809815Y-63121941D01*
X97793181Y-63142583D01*
X97061284Y-63874481D01*
X96949483Y-63986281D01*
X96949481Y-63986284D01*
X96870423Y-64123214D01*
X96870423Y-64123215D01*
X96829499Y-64275943D01*
X96829499Y-64275945D01*
X96829499Y-64434054D01*
X96829498Y-64434054D01*
X96829499Y-64434057D01*
X96870423Y-64586785D01*
X96949481Y-64723716D01*
X96949483Y-64723718D01*
X102125681Y-69899916D01*
X102159166Y-69961239D01*
X102162000Y-69987597D01*
X102162000Y-70600001D01*
X102162001Y-70600019D01*
X102172500Y-70702796D01*
X102172501Y-70702799D01*
X102188514Y-70751122D01*
X102227686Y-70869334D01*
X102319788Y-71018656D01*
X102443844Y-71142712D01*
X102593166Y-71234814D01*
X102759703Y-71289999D01*
X102862491Y-71300500D01*
X103487508Y-71300499D01*
X103487516Y-71300498D01*
X103487519Y-71300498D01*
X103543802Y-71294748D01*
X103590297Y-71289999D01*
X103756834Y-71234814D01*
X103906156Y-71142712D01*
X104000175Y-71048692D01*
X104061494Y-71015210D01*
X104131186Y-71020194D01*
X104175534Y-71048695D01*
X104269154Y-71142315D01*
X104418375Y-71234356D01*
X104418380Y-71234358D01*
X104584802Y-71289505D01*
X104584809Y-71289506D01*
X104687519Y-71299999D01*
X105250000Y-71299999D01*
X105312472Y-71299999D01*
X105312486Y-71299998D01*
X105415197Y-71289505D01*
X105581619Y-71234358D01*
X105581624Y-71234356D01*
X105730845Y-71142315D01*
X105854815Y-71018345D01*
X105946856Y-70869124D01*
X105946858Y-70869119D01*
X106002005Y-70702697D01*
X106002006Y-70702690D01*
X106012499Y-70599986D01*
X106012500Y-70599973D01*
X106012500Y-70350000D01*
X105250000Y-70350000D01*
X105250000Y-71299999D01*
X104687519Y-71299999D01*
X104749999Y-71299998D01*
X104750000Y-71299998D01*
X104750000Y-69850000D01*
X105250000Y-69850000D01*
X106012499Y-69850000D01*
X106012499Y-69600028D01*
X106012498Y-69600013D01*
X106002005Y-69497302D01*
X105946858Y-69330880D01*
X105946856Y-69330875D01*
X105854815Y-69181654D01*
X105730845Y-69057684D01*
X105581624Y-68965643D01*
X105581619Y-68965641D01*
X105415197Y-68910494D01*
X105415190Y-68910493D01*
X105312486Y-68900000D01*
X105250000Y-68900000D01*
X105250000Y-69850000D01*
X104750000Y-69850000D01*
X104750000Y-68900000D01*
X104749999Y-68899999D01*
X104687528Y-68900000D01*
X104687511Y-68900001D01*
X104584802Y-68910494D01*
X104418380Y-68965641D01*
X104418375Y-68965643D01*
X104269157Y-69057682D01*
X104175534Y-69151305D01*
X104114210Y-69184789D01*
X104044519Y-69179805D01*
X104000172Y-69151304D01*
X103906157Y-69057289D01*
X103906156Y-69057288D01*
X103756834Y-68965186D01*
X103590297Y-68910001D01*
X103590295Y-68910000D01*
X103487516Y-68899500D01*
X102875097Y-68899500D01*
X102808058Y-68879815D01*
X102787416Y-68863181D01*
X98366916Y-64442681D01*
X98333431Y-64381358D01*
X98338415Y-64311666D01*
X98366916Y-64267319D01*
X98591719Y-64042516D01*
X98910520Y-63723716D01*
X98989577Y-63586784D01*
X99030501Y-63434057D01*
X99030501Y-63275942D01*
X99030501Y-63268347D01*
X99030500Y-63268329D01*
X99030500Y-52412484D01*
X99050185Y-52345445D01*
X99102989Y-52299690D01*
X99172147Y-52289746D01*
X99235703Y-52318771D01*
X99273477Y-52377549D01*
X99274262Y-52380345D01*
X99282874Y-52412484D01*
X99284724Y-52419387D01*
X99284725Y-52419390D01*
X99303449Y-52451820D01*
X99303450Y-52451821D01*
X99363777Y-52556312D01*
X99363781Y-52556317D01*
X99482649Y-52675185D01*
X99482655Y-52675190D01*
X99653125Y-52845660D01*
X99686610Y-52906983D01*
X99687061Y-52909149D01*
X99717961Y-53064491D01*
X99717964Y-53064501D01*
X99778302Y-53210172D01*
X99778309Y-53210185D01*
X99865910Y-53341288D01*
X99865913Y-53341292D01*
X99977407Y-53452786D01*
X99977411Y-53452789D01*
X100108514Y-53540390D01*
X100108527Y-53540397D01*
X100254198Y-53600735D01*
X100254203Y-53600737D01*
X100408853Y-53631499D01*
X100408856Y-53631500D01*
X100408858Y-53631500D01*
X100566544Y-53631500D01*
X100566545Y-53631499D01*
X100721197Y-53600737D01*
X100866879Y-53540394D01*
X100997989Y-53452789D01*
X101109489Y-53341289D01*
X101197094Y-53210179D01*
X101257437Y-53064497D01*
X101288200Y-52909842D01*
X101288200Y-52752158D01*
X101288200Y-52752155D01*
X101288199Y-52752153D01*
X101271484Y-52668121D01*
X101257437Y-52597503D01*
X101257435Y-52597498D01*
X101197097Y-52451827D01*
X101197090Y-52451814D01*
X101109489Y-52320711D01*
X101109486Y-52320707D01*
X100997992Y-52209213D01*
X100997988Y-52209210D01*
X100866885Y-52121609D01*
X100866872Y-52121602D01*
X100721201Y-52061264D01*
X100721191Y-52061261D01*
X100565849Y-52030361D01*
X100503938Y-51997976D01*
X100502360Y-51996425D01*
X100481119Y-51975184D01*
X100447634Y-51913861D01*
X100444800Y-51887503D01*
X100444800Y-39810565D01*
X100464485Y-39743526D01*
X100465698Y-39741674D01*
X100553690Y-39609985D01*
X100553690Y-39609984D01*
X100553694Y-39609979D01*
X100569589Y-39571604D01*
X100613429Y-39517202D01*
X100679723Y-39495136D01*
X100747422Y-39512414D01*
X100795033Y-39563551D01*
X100798708Y-39571598D01*
X100801977Y-39579491D01*
X100807605Y-39593078D01*
X100807609Y-39593085D01*
X100895210Y-39724188D01*
X100895213Y-39724192D01*
X101006707Y-39835686D01*
X101006711Y-39835689D01*
X101137814Y-39923290D01*
X101137827Y-39923297D01*
X101283498Y-39983635D01*
X101283503Y-39983637D01*
X101348147Y-39996495D01*
X101438849Y-40014538D01*
X101500760Y-40046923D01*
X101502339Y-40048474D01*
X101607381Y-40153516D01*
X101640866Y-40214839D01*
X101643700Y-40241197D01*
X101643700Y-53502534D01*
X101624015Y-53569573D01*
X101622802Y-53571425D01*
X101534809Y-53703114D01*
X101534802Y-53703127D01*
X101474464Y-53848798D01*
X101474461Y-53848810D01*
X101443700Y-54003453D01*
X101443700Y-54161146D01*
X101474461Y-54315789D01*
X101474464Y-54315801D01*
X101534802Y-54461472D01*
X101534809Y-54461485D01*
X101622410Y-54592588D01*
X101622413Y-54592592D01*
X101733907Y-54704086D01*
X101733911Y-54704089D01*
X101865014Y-54791690D01*
X101865027Y-54791697D01*
X102010698Y-54852035D01*
X102010703Y-54852037D01*
X102165353Y-54882799D01*
X102165356Y-54882800D01*
X102165358Y-54882800D01*
X102323044Y-54882800D01*
X102323045Y-54882799D01*
X102477697Y-54852037D01*
X102623379Y-54791694D01*
X102754489Y-54704089D01*
X102865989Y-54592589D01*
X102953594Y-54461479D01*
X103013937Y-54315797D01*
X103044700Y-54161142D01*
X103044700Y-54003458D01*
X103044700Y-54003455D01*
X103044699Y-54003453D01*
X103013938Y-53848810D01*
X103013937Y-53848803D01*
X102973670Y-53751588D01*
X102953597Y-53703127D01*
X102953590Y-53703114D01*
X102865598Y-53571425D01*
X102844720Y-53504747D01*
X102844700Y-53502534D01*
X102844700Y-42748681D01*
X102864385Y-42681642D01*
X102917189Y-42635887D01*
X102986347Y-42625943D01*
X103049903Y-42654968D01*
X103083261Y-42701229D01*
X103113364Y-42773908D01*
X103113371Y-42773920D01*
X103222860Y-42937781D01*
X103222863Y-42937785D01*
X103362214Y-43077136D01*
X103362218Y-43077139D01*
X103526079Y-43186628D01*
X103526092Y-43186635D01*
X103708160Y-43262049D01*
X103708165Y-43262051D01*
X103708169Y-43262051D01*
X103708170Y-43262052D01*
X103901456Y-43300500D01*
X103901459Y-43300500D01*
X104098543Y-43300500D01*
X104228582Y-43274632D01*
X104291835Y-43262051D01*
X104473914Y-43186632D01*
X104637782Y-43077139D01*
X104777139Y-42937782D01*
X104886632Y-42773914D01*
X104962051Y-42591835D01*
X105000500Y-42398541D01*
X105000500Y-41601459D01*
X105000500Y-41601456D01*
X104962052Y-41408170D01*
X104962051Y-41408169D01*
X104962051Y-41408165D01*
X104920074Y-41306823D01*
X104886635Y-41226092D01*
X104886628Y-41226079D01*
X104777139Y-41062218D01*
X104777136Y-41062214D01*
X104637785Y-40922863D01*
X104637781Y-40922860D01*
X104473920Y-40813371D01*
X104473907Y-40813364D01*
X104291839Y-40737950D01*
X104291829Y-40737947D01*
X104098543Y-40699500D01*
X104098541Y-40699500D01*
X103901459Y-40699500D01*
X103901457Y-40699500D01*
X103708170Y-40737947D01*
X103708160Y-40737950D01*
X103526092Y-40813364D01*
X103526079Y-40813371D01*
X103362218Y-40922860D01*
X103362214Y-40922863D01*
X103222863Y-41062214D01*
X103222860Y-41062218D01*
X103113371Y-41226079D01*
X103113364Y-41226092D01*
X103083261Y-41298770D01*
X103039420Y-41353174D01*
X102973126Y-41375239D01*
X102905427Y-41357960D01*
X102857816Y-41306823D01*
X102844700Y-41251318D01*
X102844700Y-39862045D01*
X102844699Y-39862038D01*
X102838633Y-39839400D01*
X102838633Y-39839401D01*
X102803777Y-39709315D01*
X102757158Y-39628569D01*
X102724720Y-39572384D01*
X102612916Y-39460580D01*
X102608585Y-39456249D01*
X102608574Y-39456239D01*
X102351574Y-39199239D01*
X102318089Y-39137916D01*
X102317638Y-39135750D01*
X102302422Y-39059257D01*
X102308649Y-38989665D01*
X102351511Y-38934488D01*
X102417401Y-38911243D01*
X102456126Y-38915289D01*
X102494234Y-38925500D01*
X102494237Y-38925500D01*
X102645764Y-38925500D01*
X102645766Y-38925500D01*
X102792135Y-38886281D01*
X102923365Y-38810515D01*
X102923374Y-38810505D01*
X102929488Y-38805815D01*
X102994656Y-38780617D01*
X103063101Y-38794650D01*
X103109025Y-38839488D01*
X103109983Y-38838849D01*
X103113009Y-38843378D01*
X103113094Y-38843461D01*
X103113228Y-38843706D01*
X103222860Y-39007781D01*
X103222863Y-39007785D01*
X103362214Y-39147136D01*
X103362218Y-39147139D01*
X103526079Y-39256628D01*
X103526092Y-39256635D01*
X103654064Y-39309642D01*
X103708165Y-39332051D01*
X103708169Y-39332051D01*
X103708170Y-39332052D01*
X103901456Y-39370500D01*
X103901459Y-39370500D01*
X104098543Y-39370500D01*
X104228582Y-39344632D01*
X104291835Y-39332051D01*
X104473914Y-39256632D01*
X104637782Y-39147139D01*
X104777139Y-39007782D01*
X104886632Y-38843914D01*
X104962051Y-38661835D01*
X104975281Y-38595322D01*
X105000500Y-38468543D01*
X105000500Y-38161152D01*
X105020185Y-38094113D01*
X105072989Y-38048358D01*
X105119599Y-38037250D01*
X181864748Y-35005343D01*
X181932511Y-35022365D01*
G37*
%TD.AperFunction*%
%TA.AperFunction,Conductor*%
G36*
X108575440Y-101620185D02*
G01*
X108621195Y-101672989D01*
X108631139Y-101742147D01*
X108602114Y-101805703D01*
X108546719Y-101842431D01*
X108485815Y-101862219D01*
X108261413Y-101976559D01*
X108159301Y-102050747D01*
X108159300Y-102050748D01*
X108775974Y-102667421D01*
X108744742Y-102680359D01*
X108621903Y-102762437D01*
X108517437Y-102866903D01*
X108435359Y-102989742D01*
X108422421Y-103020974D01*
X107805748Y-102404300D01*
X107805747Y-102404301D01*
X107731559Y-102506413D01*
X107617219Y-102730815D01*
X107539397Y-102970330D01*
X107500000Y-103219071D01*
X107500000Y-103470928D01*
X107539397Y-103719669D01*
X107617219Y-103959184D01*
X107731557Y-104183583D01*
X107805748Y-104285697D01*
X107805748Y-104285698D01*
X108422421Y-103669024D01*
X108435359Y-103700258D01*
X108517437Y-103823097D01*
X108621903Y-103927563D01*
X108744742Y-104009641D01*
X108775974Y-104022577D01*
X108159300Y-104639250D01*
X108161598Y-104668449D01*
X108147233Y-104736827D01*
X108098181Y-104786583D01*
X108030016Y-104801921D01*
X108018583Y-104800650D01*
X107916611Y-104784500D01*
X107743389Y-104784500D01*
X107703728Y-104790781D01*
X107572302Y-104811597D01*
X107407552Y-104865128D01*
X107253211Y-104943768D01*
X107197115Y-104984525D01*
X107113072Y-105045586D01*
X107113070Y-105045588D01*
X107113069Y-105045588D01*
X106990588Y-105168069D01*
X106990588Y-105168070D01*
X106990586Y-105168072D01*
X106946859Y-105228256D01*
X106888768Y-105308211D01*
X106810128Y-105462552D01*
X106756597Y-105627302D01*
X106729500Y-105798389D01*
X106729500Y-105971610D01*
X106754753Y-106131057D01*
X106756598Y-106142701D01*
X106810127Y-106307445D01*
X106888768Y-106461788D01*
X106990586Y-106601928D01*
X107113072Y-106724414D01*
X107253212Y-106826232D01*
X107407555Y-106904873D01*
X107572299Y-106958402D01*
X107743389Y-106985500D01*
X107743390Y-106985500D01*
X107916610Y-106985500D01*
X107916611Y-106985500D01*
X108087701Y-106958402D01*
X108252445Y-106904873D01*
X108406788Y-106826232D01*
X108546928Y-106724414D01*
X108669414Y-106601928D01*
X108771232Y-106461788D01*
X108849873Y-106307445D01*
X108903402Y-106142701D01*
X108930500Y-105971611D01*
X108930500Y-105798389D01*
X108903402Y-105627299D01*
X108849873Y-105462555D01*
X108771232Y-105308212D01*
X108669414Y-105168072D01*
X108616882Y-105115540D01*
X108583397Y-105054217D01*
X108588381Y-104984525D01*
X108630253Y-104928592D01*
X108695717Y-104904175D01*
X108723961Y-104905386D01*
X108974072Y-104945000D01*
X109225928Y-104945000D01*
X109474669Y-104905602D01*
X109714184Y-104827780D01*
X109938575Y-104713446D01*
X109938581Y-104713442D01*
X110040697Y-104639250D01*
X110040698Y-104639250D01*
X109424025Y-104022578D01*
X109455258Y-104009641D01*
X109578097Y-103927563D01*
X109682563Y-103823097D01*
X109764641Y-103700258D01*
X109777577Y-103669025D01*
X110394250Y-104285698D01*
X110394250Y-104285697D01*
X110468442Y-104183581D01*
X110468446Y-104183575D01*
X110582780Y-103959184D01*
X110660602Y-103719669D01*
X110700000Y-103470928D01*
X110700000Y-103219071D01*
X110660602Y-102970330D01*
X110582780Y-102730815D01*
X110468442Y-102506416D01*
X110394250Y-102404301D01*
X110394250Y-102404300D01*
X109777577Y-103020973D01*
X109764641Y-102989742D01*
X109682563Y-102866903D01*
X109578097Y-102762437D01*
X109455258Y-102680359D01*
X109424024Y-102667421D01*
X110040698Y-102050748D01*
X109938583Y-101976557D01*
X109714184Y-101862219D01*
X109653281Y-101842431D01*
X109595606Y-101802994D01*
X109568407Y-101738635D01*
X109580321Y-101669789D01*
X109627565Y-101618313D01*
X109691599Y-101600500D01*
X112844903Y-101600500D01*
X112911942Y-101620185D01*
X112932583Y-101636818D01*
X113996284Y-102700520D01*
X113996286Y-102700521D01*
X113996290Y-102700524D01*
X114075145Y-102746050D01*
X114133216Y-102779577D01*
X114285943Y-102820501D01*
X114285945Y-102820501D01*
X114451654Y-102820501D01*
X114451670Y-102820500D01*
X121983914Y-102820500D01*
X121986137Y-102820643D01*
X121992946Y-102820631D01*
X121992952Y-102820633D01*
X122071911Y-102820500D01*
X122072010Y-102820500D01*
X122150060Y-102820500D01*
X122151058Y-102820367D01*
X122151066Y-102820367D01*
X122226779Y-102799942D01*
X122226995Y-102799946D01*
X122226980Y-102799888D01*
X122302784Y-102779577D01*
X122302786Y-102779576D01*
X122303721Y-102779187D01*
X122303720Y-102779187D01*
X122303725Y-102779186D01*
X122360895Y-102746050D01*
X122371501Y-102739903D01*
X122371506Y-102739912D01*
X122371661Y-102739809D01*
X122439716Y-102700520D01*
X122439725Y-102700510D01*
X122440512Y-102699904D01*
X122440523Y-102699899D01*
X122485169Y-102655100D01*
X122546434Y-102621513D01*
X122616134Y-102626379D01*
X122672138Y-102668155D01*
X122696667Y-102733577D01*
X122690929Y-102780952D01*
X122629397Y-102970330D01*
X122590000Y-103219071D01*
X122590000Y-103470928D01*
X122629397Y-103719669D01*
X122707219Y-103959184D01*
X122821557Y-104183583D01*
X122895748Y-104285697D01*
X122895748Y-104285698D01*
X123512421Y-103669024D01*
X123525359Y-103700258D01*
X123607437Y-103823097D01*
X123711903Y-103927563D01*
X123834742Y-104009641D01*
X123865974Y-104022577D01*
X123249300Y-104639250D01*
X123251598Y-104668449D01*
X123237233Y-104736827D01*
X123188181Y-104786583D01*
X123120016Y-104801921D01*
X123108583Y-104800650D01*
X123006611Y-104784500D01*
X122833389Y-104784500D01*
X122793728Y-104790781D01*
X122662302Y-104811597D01*
X122497552Y-104865128D01*
X122343211Y-104943768D01*
X122287115Y-104984525D01*
X122203072Y-105045586D01*
X122203070Y-105045588D01*
X122203069Y-105045588D01*
X122080588Y-105168069D01*
X122080588Y-105168070D01*
X122080586Y-105168072D01*
X122036859Y-105228256D01*
X121978768Y-105308211D01*
X121900128Y-105462552D01*
X121846597Y-105627302D01*
X121819500Y-105798389D01*
X121819500Y-105971610D01*
X121844753Y-106131057D01*
X121846598Y-106142701D01*
X121900127Y-106307445D01*
X121978768Y-106461788D01*
X122080586Y-106601928D01*
X122203072Y-106724414D01*
X122343212Y-106826232D01*
X122497555Y-106904873D01*
X122662299Y-106958402D01*
X122833389Y-106985500D01*
X122833390Y-106985500D01*
X123006610Y-106985500D01*
X123006611Y-106985500D01*
X123177701Y-106958402D01*
X123342445Y-106904873D01*
X123496788Y-106826232D01*
X123636928Y-106724414D01*
X123759414Y-106601928D01*
X123861232Y-106461788D01*
X123939873Y-106307445D01*
X123993402Y-106142701D01*
X124020500Y-105971611D01*
X124020500Y-105798389D01*
X123993402Y-105627299D01*
X123939873Y-105462555D01*
X123861232Y-105308212D01*
X123759414Y-105168072D01*
X123706882Y-105115540D01*
X123673397Y-105054217D01*
X123678381Y-104984525D01*
X123720253Y-104928592D01*
X123785717Y-104904175D01*
X123813961Y-104905386D01*
X124064072Y-104945000D01*
X124315928Y-104945000D01*
X124564669Y-104905602D01*
X124804184Y-104827780D01*
X125028575Y-104713446D01*
X125028581Y-104713442D01*
X125130697Y-104639250D01*
X125130698Y-104639250D01*
X124514025Y-104022578D01*
X124545258Y-104009641D01*
X124668097Y-103927563D01*
X124772563Y-103823097D01*
X124854641Y-103700258D01*
X124867578Y-103669025D01*
X125484250Y-104285698D01*
X125484250Y-104285697D01*
X125558442Y-104183581D01*
X125558446Y-104183575D01*
X125672780Y-103959184D01*
X125750602Y-103719669D01*
X125790000Y-103470928D01*
X125790000Y-103219071D01*
X125750602Y-102970330D01*
X125672779Y-102730813D01*
X125658504Y-102702796D01*
X125645607Y-102634126D01*
X125671883Y-102569386D01*
X125728989Y-102529128D01*
X125768988Y-102522500D01*
X127343202Y-102522500D01*
X127410241Y-102542185D01*
X127431027Y-102558963D01*
X127460205Y-102588237D01*
X127461639Y-102589875D01*
X127466479Y-102594715D01*
X127466480Y-102594716D01*
X127522187Y-102650423D01*
X127522288Y-102650608D01*
X127522330Y-102650567D01*
X127577503Y-102705921D01*
X127578279Y-102706517D01*
X127578283Y-102706519D01*
X127578284Y-102706520D01*
X127646575Y-102745947D01*
X127714294Y-102785194D01*
X127714295Y-102785194D01*
X127714298Y-102785196D01*
X127715208Y-102785572D01*
X127715216Y-102785577D01*
X127791098Y-102805909D01*
X127791095Y-102805920D01*
X127791282Y-102805958D01*
X127866953Y-102826369D01*
X127866968Y-102826369D01*
X127867703Y-102826467D01*
X127867745Y-102826473D01*
X127867937Y-102826498D01*
X127867943Y-102826500D01*
X127946312Y-102826500D01*
X127946419Y-102826500D01*
X128025068Y-102826630D01*
X128025072Y-102826628D01*
X128031922Y-102826640D01*
X128034096Y-102826500D01*
X136609903Y-102826500D01*
X136676942Y-102846185D01*
X136722697Y-102898989D01*
X136732641Y-102968147D01*
X136703616Y-103031703D01*
X136697585Y-103038179D01*
X135605541Y-104130223D01*
X134541286Y-105194478D01*
X134429481Y-105306282D01*
X134429479Y-105306285D01*
X134407029Y-105345170D01*
X134384578Y-105384057D01*
X134372076Y-105405711D01*
X134350422Y-105443215D01*
X134350422Y-105443216D01*
X134342691Y-105472069D01*
X134306326Y-105531729D01*
X134243478Y-105562257D01*
X134174103Y-105553962D01*
X134120226Y-105509476D01*
X134104986Y-105478292D01*
X134102964Y-105472069D01*
X134099873Y-105462555D01*
X134021232Y-105308212D01*
X133919414Y-105168072D01*
X133796928Y-105045586D01*
X133656788Y-104943768D01*
X133502445Y-104865127D01*
X133337701Y-104811598D01*
X133337699Y-104811597D01*
X133337698Y-104811597D01*
X133206271Y-104790781D01*
X133166611Y-104784500D01*
X132993389Y-104784500D01*
X132953728Y-104790781D01*
X132822302Y-104811597D01*
X132657552Y-104865128D01*
X132503211Y-104943768D01*
X132447115Y-104984525D01*
X132363072Y-105045586D01*
X132363070Y-105045588D01*
X132363069Y-105045588D01*
X132240588Y-105168069D01*
X132240588Y-105168070D01*
X132240586Y-105168072D01*
X132196859Y-105228256D01*
X132138768Y-105308211D01*
X132060128Y-105462552D01*
X132006597Y-105627302D01*
X131979500Y-105798389D01*
X131979500Y-105971610D01*
X132004753Y-106131057D01*
X132006598Y-106142701D01*
X132060127Y-106307445D01*
X132138768Y-106461788D01*
X132240586Y-106601928D01*
X132363072Y-106724414D01*
X132503212Y-106826232D01*
X132657555Y-106904873D01*
X132822299Y-106958402D01*
X132868595Y-106965734D01*
X132931727Y-106995663D01*
X132968659Y-107054974D01*
X132967661Y-107124836D01*
X132936876Y-107175888D01*
X132217584Y-107895181D01*
X132156261Y-107928666D01*
X132129903Y-107931500D01*
X129395093Y-107931500D01*
X129328054Y-107911815D01*
X129282299Y-107859011D01*
X129272355Y-107789853D01*
X129301380Y-107726297D01*
X129319607Y-107709124D01*
X129354062Y-107682684D01*
X129487042Y-107580646D01*
X129695646Y-107372042D01*
X129875238Y-107137994D01*
X130022743Y-106882507D01*
X130135639Y-106609952D01*
X130211993Y-106324993D01*
X130250500Y-106032506D01*
X130250500Y-105737494D01*
X130211993Y-105445007D01*
X130135639Y-105160048D01*
X130022743Y-104887493D01*
X129972604Y-104800650D01*
X129875238Y-104632006D01*
X129695647Y-104397959D01*
X129695641Y-104397952D01*
X129487047Y-104189358D01*
X129487040Y-104189352D01*
X129252993Y-104009761D01*
X128997510Y-103862258D01*
X128997500Y-103862254D01*
X128724961Y-103749364D01*
X128724954Y-103749362D01*
X128724952Y-103749361D01*
X128439993Y-103673007D01*
X128391113Y-103666571D01*
X128147513Y-103634500D01*
X128147506Y-103634500D01*
X127852494Y-103634500D01*
X127852486Y-103634500D01*
X127574085Y-103671153D01*
X127560007Y-103673007D01*
X127385861Y-103719669D01*
X127275048Y-103749361D01*
X127275038Y-103749364D01*
X127002499Y-103862254D01*
X127002489Y-103862258D01*
X126747006Y-104009761D01*
X126512959Y-104189352D01*
X126512952Y-104189358D01*
X126304358Y-104397952D01*
X126304352Y-104397959D01*
X126124761Y-104632006D01*
X125977258Y-104887489D01*
X125977254Y-104887499D01*
X125864364Y-105160038D01*
X125864361Y-105160048D01*
X125804339Y-105384057D01*
X125788008Y-105445004D01*
X125788006Y-105445015D01*
X125749500Y-105737486D01*
X125749500Y-106032513D01*
X125766612Y-106162483D01*
X125788007Y-106324993D01*
X125862212Y-106601930D01*
X125864361Y-106609951D01*
X125864364Y-106609961D01*
X125977254Y-106882500D01*
X125977258Y-106882510D01*
X126124761Y-107137993D01*
X126304352Y-107372040D01*
X126304358Y-107372047D01*
X126512952Y-107580641D01*
X126512959Y-107580647D01*
X126680393Y-107709124D01*
X126721596Y-107765552D01*
X126725751Y-107835298D01*
X126691539Y-107896218D01*
X126629821Y-107928971D01*
X126604907Y-107931500D01*
X114305093Y-107931500D01*
X114238054Y-107911815D01*
X114192299Y-107859011D01*
X114182355Y-107789853D01*
X114211380Y-107726297D01*
X114229607Y-107709124D01*
X114264062Y-107682684D01*
X114397042Y-107580646D01*
X114605646Y-107372042D01*
X114785238Y-107137994D01*
X114932743Y-106882507D01*
X115045639Y-106609952D01*
X115121993Y-106324993D01*
X115160500Y-106032506D01*
X115160500Y-105798389D01*
X116889500Y-105798389D01*
X116889500Y-105971610D01*
X116914753Y-106131057D01*
X116916598Y-106142701D01*
X116970127Y-106307445D01*
X117048768Y-106461788D01*
X117150586Y-106601928D01*
X117273072Y-106724414D01*
X117413212Y-106826232D01*
X117567555Y-106904873D01*
X117732299Y-106958402D01*
X117903389Y-106985500D01*
X117903390Y-106985500D01*
X118076610Y-106985500D01*
X118076611Y-106985500D01*
X118247701Y-106958402D01*
X118412445Y-106904873D01*
X118566788Y-106826232D01*
X118706928Y-106724414D01*
X118829414Y-106601928D01*
X118931232Y-106461788D01*
X119009873Y-106307445D01*
X119063402Y-106142701D01*
X119090500Y-105971611D01*
X119090500Y-105798389D01*
X119063402Y-105627299D01*
X119009873Y-105462555D01*
X118931232Y-105308212D01*
X118829414Y-105168072D01*
X118706928Y-105045586D01*
X118566788Y-104943768D01*
X118412445Y-104865127D01*
X118247701Y-104811598D01*
X118247699Y-104811597D01*
X118247698Y-104811597D01*
X118116271Y-104790781D01*
X118076611Y-104784500D01*
X117903389Y-104784500D01*
X117863728Y-104790781D01*
X117732302Y-104811597D01*
X117567552Y-104865128D01*
X117413211Y-104943768D01*
X117357115Y-104984525D01*
X117273072Y-105045586D01*
X117273070Y-105045588D01*
X117273069Y-105045588D01*
X117150588Y-105168069D01*
X117150588Y-105168070D01*
X117150586Y-105168072D01*
X117106859Y-105228256D01*
X117048768Y-105308211D01*
X116970128Y-105462552D01*
X116916597Y-105627302D01*
X116889500Y-105798389D01*
X115160500Y-105798389D01*
X115160500Y-105737494D01*
X115121993Y-105445007D01*
X115045639Y-105160048D01*
X114932743Y-104887493D01*
X114882604Y-104800650D01*
X114785238Y-104632006D01*
X114605647Y-104397959D01*
X114605641Y-104397952D01*
X114397047Y-104189358D01*
X114397040Y-104189352D01*
X114162993Y-104009761D01*
X113907510Y-103862258D01*
X113907500Y-103862254D01*
X113634961Y-103749364D01*
X113634954Y-103749362D01*
X113634952Y-103749361D01*
X113349993Y-103673007D01*
X113301113Y-103666571D01*
X113057513Y-103634500D01*
X113057506Y-103634500D01*
X112762494Y-103634500D01*
X112762486Y-103634500D01*
X112484085Y-103671153D01*
X112470007Y-103673007D01*
X112295861Y-103719669D01*
X112185048Y-103749361D01*
X112185038Y-103749364D01*
X111912499Y-103862254D01*
X111912489Y-103862258D01*
X111657006Y-104009761D01*
X111422959Y-104189352D01*
X111422952Y-104189358D01*
X111214358Y-104397952D01*
X111214352Y-104397959D01*
X111034761Y-104632006D01*
X110887258Y-104887489D01*
X110887254Y-104887499D01*
X110774364Y-105160038D01*
X110774361Y-105160048D01*
X110714339Y-105384057D01*
X110698008Y-105445004D01*
X110698006Y-105445015D01*
X110659500Y-105737486D01*
X110659500Y-106032513D01*
X110676612Y-106162483D01*
X110698007Y-106324993D01*
X110772212Y-106601930D01*
X110774361Y-106609951D01*
X110774364Y-106609961D01*
X110887255Y-106882503D01*
X110887260Y-106882514D01*
X110926960Y-106951276D01*
X110943433Y-107019176D01*
X110920580Y-107085203D01*
X110865659Y-107128394D01*
X110843766Y-107134893D01*
X110766507Y-107150261D01*
X110766498Y-107150264D01*
X110620827Y-107210602D01*
X110620814Y-107210609D01*
X110489125Y-107298602D01*
X110422447Y-107319480D01*
X110420234Y-107319500D01*
X105732097Y-107319500D01*
X105665058Y-107299815D01*
X105644416Y-107283181D01*
X101539590Y-103178355D01*
X101539588Y-103178352D01*
X101420717Y-103059481D01*
X101420712Y-103059477D01*
X101298268Y-102988785D01*
X101298270Y-102988781D01*
X101298253Y-102988776D01*
X101295007Y-102986902D01*
X101246800Y-102936328D01*
X101233587Y-102867719D01*
X101240842Y-102836192D01*
X101244091Y-102827483D01*
X101250500Y-102767873D01*
X101250499Y-101772128D01*
X101247276Y-101742147D01*
X101246804Y-101737753D01*
X101259211Y-101668994D01*
X101306822Y-101617857D01*
X101370094Y-101600500D01*
X108508401Y-101600500D01*
X108575440Y-101620185D01*
G37*
%TD.AperFunction*%
%TA.AperFunction,Conductor*%
G36*
X82433039Y-87824685D02*
G01*
X82478794Y-87877489D01*
X82490000Y-87929000D01*
X82490000Y-89055000D01*
X82737828Y-89055000D01*
X82737844Y-89054999D01*
X82797372Y-89048598D01*
X82797375Y-89048597D01*
X82830949Y-89036075D01*
X82900640Y-89031089D01*
X82917619Y-89036075D01*
X82952511Y-89049089D01*
X82952512Y-89049089D01*
X82952517Y-89049091D01*
X83012127Y-89055500D01*
X84007872Y-89055499D01*
X84059027Y-89050000D01*
X84067484Y-89049091D01*
X84076331Y-89045791D01*
X84146022Y-89040804D01*
X84207347Y-89074287D01*
X84227054Y-89099969D01*
X84299480Y-89225416D01*
X84411284Y-89337220D01*
X84411286Y-89337221D01*
X84411290Y-89337224D01*
X84445201Y-89356802D01*
X84548216Y-89416277D01*
X84700943Y-89457200D01*
X84859057Y-89457200D01*
X93813703Y-89457200D01*
X93880742Y-89476885D01*
X93901384Y-89493519D01*
X94488725Y-90080860D01*
X94522210Y-90142183D01*
X94522661Y-90144349D01*
X94553561Y-90299691D01*
X94553564Y-90299701D01*
X94613902Y-90445372D01*
X94613909Y-90445385D01*
X94701510Y-90576488D01*
X94701513Y-90576492D01*
X94813007Y-90687986D01*
X94813011Y-90687989D01*
X94944114Y-90775590D01*
X94944127Y-90775597D01*
X95089798Y-90835935D01*
X95089803Y-90835937D01*
X95244453Y-90866699D01*
X95244456Y-90866700D01*
X95244458Y-90866700D01*
X95402144Y-90866700D01*
X95402145Y-90866699D01*
X95556797Y-90835937D01*
X95702479Y-90775594D01*
X95833589Y-90687989D01*
X95945089Y-90576489D01*
X96032694Y-90445379D01*
X96093037Y-90299697D01*
X96123800Y-90145042D01*
X96123800Y-89987358D01*
X96123800Y-89987355D01*
X96123799Y-89987353D01*
X96119197Y-89964217D01*
X96093037Y-89832703D01*
X96069189Y-89775128D01*
X96032697Y-89687027D01*
X96032690Y-89687014D01*
X95945089Y-89555911D01*
X95945086Y-89555907D01*
X95833592Y-89444413D01*
X95833588Y-89444410D01*
X95702485Y-89356809D01*
X95702472Y-89356802D01*
X95556801Y-89296464D01*
X95556792Y-89296461D01*
X95513857Y-89287921D01*
X95451947Y-89255535D01*
X95417373Y-89194819D01*
X95421114Y-89125050D01*
X95461981Y-89068378D01*
X95494718Y-89050122D01*
X95497482Y-89049091D01*
X95497483Y-89049091D01*
X95519702Y-89040804D01*
X95531668Y-89036341D01*
X95601360Y-89031357D01*
X95618327Y-89036338D01*
X95652517Y-89049091D01*
X95712127Y-89055500D01*
X96707872Y-89055499D01*
X96767483Y-89049091D01*
X96801667Y-89036340D01*
X96871358Y-89031357D01*
X96888327Y-89036338D01*
X96922517Y-89049091D01*
X96982127Y-89055500D01*
X97977872Y-89055499D01*
X98037483Y-89049091D01*
X98071667Y-89036340D01*
X98141358Y-89031357D01*
X98158327Y-89036338D01*
X98183669Y-89045791D01*
X98192511Y-89049089D01*
X98192517Y-89049091D01*
X98252127Y-89055500D01*
X98625500Y-89055499D01*
X98692539Y-89075183D01*
X98738294Y-89127987D01*
X98749500Y-89179499D01*
X98749500Y-90067870D01*
X98749501Y-90067876D01*
X98755908Y-90127481D01*
X98768659Y-90161669D01*
X98773642Y-90231361D01*
X98768659Y-90248331D01*
X98755908Y-90282518D01*
X98754061Y-90299701D01*
X98749501Y-90342123D01*
X98749500Y-90342135D01*
X98749500Y-91337870D01*
X98749501Y-91337876D01*
X98755908Y-91397481D01*
X98768659Y-91431669D01*
X98773642Y-91501361D01*
X98768659Y-91518331D01*
X98755908Y-91552518D01*
X98749501Y-91612116D01*
X98749501Y-91612123D01*
X98749500Y-91612135D01*
X98749500Y-92607870D01*
X98749501Y-92607876D01*
X98755908Y-92667481D01*
X98768659Y-92701669D01*
X98773642Y-92771361D01*
X98768659Y-92788331D01*
X98755908Y-92822518D01*
X98749501Y-92882116D01*
X98749501Y-92882123D01*
X98749500Y-92882135D01*
X98749500Y-93877870D01*
X98749501Y-93877876D01*
X98755908Y-93937481D01*
X98768659Y-93971669D01*
X98773642Y-94041361D01*
X98768659Y-94058331D01*
X98755908Y-94092518D01*
X98749501Y-94152116D01*
X98749501Y-94152123D01*
X98749500Y-94152135D01*
X98749500Y-95147870D01*
X98749501Y-95147876D01*
X98755908Y-95207481D01*
X98768659Y-95241669D01*
X98773642Y-95311361D01*
X98768659Y-95328331D01*
X98755908Y-95362518D01*
X98749501Y-95422116D01*
X98749501Y-95422123D01*
X98749500Y-95422135D01*
X98749500Y-96417870D01*
X98749501Y-96417876D01*
X98755908Y-96477481D01*
X98768659Y-96511669D01*
X98773642Y-96581361D01*
X98768659Y-96598331D01*
X98755908Y-96632518D01*
X98749501Y-96692116D01*
X98749500Y-96692135D01*
X98749500Y-97687870D01*
X98749501Y-97687876D01*
X98755908Y-97747481D01*
X98768659Y-97781669D01*
X98773642Y-97851361D01*
X98768659Y-97868331D01*
X98755908Y-97902518D01*
X98749501Y-97962116D01*
X98749500Y-97962135D01*
X98749500Y-98957870D01*
X98749501Y-98957876D01*
X98755908Y-99017481D01*
X98768659Y-99051669D01*
X98773642Y-99121361D01*
X98768659Y-99138331D01*
X98755908Y-99172518D01*
X98749501Y-99232116D01*
X98749500Y-99232135D01*
X98749500Y-100227870D01*
X98749501Y-100227876D01*
X98755908Y-100287481D01*
X98768659Y-100321669D01*
X98773642Y-100391361D01*
X98768659Y-100408331D01*
X98755908Y-100442518D01*
X98749501Y-100502116D01*
X98749500Y-100502135D01*
X98749500Y-101497870D01*
X98749501Y-101497876D01*
X98755908Y-101557481D01*
X98768659Y-101591669D01*
X98773642Y-101661361D01*
X98768659Y-101678331D01*
X98755908Y-101712518D01*
X98752723Y-101742147D01*
X98749501Y-101772123D01*
X98749500Y-101772135D01*
X98749500Y-102189753D01*
X98729815Y-102256792D01*
X98677011Y-102302547D01*
X98607853Y-102312491D01*
X98556610Y-102292855D01*
X98448490Y-102220612D01*
X98448472Y-102220602D01*
X98302801Y-102160264D01*
X98302789Y-102160261D01*
X98148145Y-102129500D01*
X98148142Y-102129500D01*
X97990458Y-102129500D01*
X97934113Y-102140707D01*
X97864521Y-102134478D01*
X97809344Y-102091614D01*
X97786101Y-102025724D01*
X97788307Y-101994893D01*
X97791500Y-101978844D01*
X97791500Y-101821155D01*
X97791499Y-101821153D01*
X97781745Y-101772116D01*
X97760737Y-101666503D01*
X97740776Y-101618313D01*
X97700397Y-101520827D01*
X97700390Y-101520814D01*
X97612789Y-101389711D01*
X97612786Y-101389707D01*
X97501292Y-101278213D01*
X97501288Y-101278210D01*
X97370185Y-101190609D01*
X97370172Y-101190602D01*
X97224501Y-101130264D01*
X97224489Y-101130261D01*
X97069845Y-101099500D01*
X97069842Y-101099500D01*
X96912158Y-101099500D01*
X96912155Y-101099500D01*
X96757510Y-101130261D01*
X96757498Y-101130264D01*
X96611827Y-101190602D01*
X96611814Y-101190609D01*
X96480711Y-101278210D01*
X96480707Y-101278213D01*
X96369213Y-101389707D01*
X96369210Y-101389711D01*
X96281609Y-101520814D01*
X96281602Y-101520827D01*
X96221264Y-101666498D01*
X96221261Y-101666510D01*
X96190500Y-101821153D01*
X96190500Y-101978846D01*
X96221261Y-102133489D01*
X96221264Y-102133501D01*
X96281602Y-102279172D01*
X96281609Y-102279185D01*
X96369602Y-102410874D01*
X96390480Y-102477551D01*
X96390500Y-102479765D01*
X96390500Y-103677330D01*
X96390499Y-103677348D01*
X96390499Y-103684943D01*
X96390499Y-103843057D01*
X96392171Y-103849297D01*
X96405330Y-103898407D01*
X96403667Y-103968257D01*
X96364504Y-104026119D01*
X96300275Y-104053623D01*
X96285555Y-104054500D01*
X95712129Y-104054500D01*
X95712123Y-104054501D01*
X95652518Y-104060908D01*
X95618331Y-104073659D01*
X95548639Y-104078642D01*
X95531669Y-104073659D01*
X95511610Y-104066178D01*
X95497483Y-104060909D01*
X95497482Y-104060908D01*
X95437883Y-104054501D01*
X95437881Y-104054500D01*
X95437873Y-104054500D01*
X95437864Y-104054500D01*
X94442129Y-104054500D01*
X94442123Y-104054501D01*
X94382518Y-104060908D01*
X94348331Y-104073659D01*
X94278639Y-104078642D01*
X94261669Y-104073659D01*
X94241610Y-104066178D01*
X94227483Y-104060909D01*
X94227482Y-104060908D01*
X94167883Y-104054501D01*
X94167881Y-104054500D01*
X94167873Y-104054500D01*
X94167864Y-104054500D01*
X93172129Y-104054500D01*
X93172123Y-104054501D01*
X93112518Y-104060908D01*
X93078331Y-104073659D01*
X93008639Y-104078642D01*
X92991669Y-104073659D01*
X92971610Y-104066178D01*
X92957483Y-104060909D01*
X92957482Y-104060908D01*
X92897883Y-104054501D01*
X92897881Y-104054500D01*
X92897873Y-104054500D01*
X92897864Y-104054500D01*
X91902129Y-104054500D01*
X91902123Y-104054501D01*
X91842518Y-104060908D01*
X91808331Y-104073659D01*
X91738639Y-104078642D01*
X91721669Y-104073659D01*
X91701610Y-104066178D01*
X91687483Y-104060909D01*
X91687482Y-104060908D01*
X91627883Y-104054501D01*
X91627881Y-104054500D01*
X91627873Y-104054500D01*
X91627864Y-104054500D01*
X90632129Y-104054500D01*
X90632123Y-104054501D01*
X90572518Y-104060908D01*
X90538331Y-104073659D01*
X90468639Y-104078642D01*
X90451669Y-104073659D01*
X90431610Y-104066178D01*
X90417483Y-104060909D01*
X90417482Y-104060908D01*
X90357883Y-104054501D01*
X90357881Y-104054500D01*
X90357873Y-104054500D01*
X90357865Y-104054500D01*
X89496147Y-104054500D01*
X89429108Y-104034815D01*
X89383353Y-103982011D01*
X89373409Y-103912853D01*
X89402434Y-103849297D01*
X89408444Y-103842842D01*
X93190537Y-100060992D01*
X93190566Y-100060969D01*
X93197614Y-100053921D01*
X93197616Y-100053920D01*
X93262735Y-99988800D01*
X93306522Y-99945017D01*
X93309454Y-99942273D01*
X93309467Y-99942255D01*
X93311221Y-99938995D01*
X93351258Y-99869649D01*
X93386523Y-99808571D01*
X93388589Y-99805247D01*
X93388594Y-99805233D01*
X93389493Y-99801393D01*
X93411088Y-99720803D01*
X93411088Y-99720800D01*
X93421382Y-99682388D01*
X93429211Y-99653171D01*
X93429394Y-99652512D01*
X93429400Y-99652471D01*
X93429400Y-99584208D01*
X93429400Y-99584201D01*
X93429402Y-99501655D01*
X93449088Y-99434619D01*
X93450300Y-99432769D01*
X93450684Y-99432193D01*
X93450689Y-99432189D01*
X93538294Y-99301079D01*
X93598637Y-99155397D01*
X93629400Y-99000742D01*
X93629400Y-98843058D01*
X93629400Y-98843055D01*
X93629399Y-98843053D01*
X93619911Y-98795353D01*
X93598637Y-98688403D01*
X93574856Y-98630990D01*
X93538297Y-98542727D01*
X93538290Y-98542714D01*
X93450689Y-98411611D01*
X93450686Y-98411607D01*
X93339192Y-98300113D01*
X93339188Y-98300110D01*
X93208085Y-98212509D01*
X93208072Y-98212502D01*
X93062401Y-98152164D01*
X93062389Y-98152161D01*
X92907745Y-98121400D01*
X92907742Y-98121400D01*
X92750058Y-98121400D01*
X92750055Y-98121400D01*
X92595410Y-98152161D01*
X92595398Y-98152164D01*
X92449727Y-98212502D01*
X92449714Y-98212509D01*
X92318611Y-98300110D01*
X92318607Y-98300113D01*
X92207113Y-98411607D01*
X92207110Y-98411611D01*
X92119509Y-98542714D01*
X92119502Y-98542727D01*
X92059164Y-98688398D01*
X92059161Y-98688410D01*
X92028400Y-98843053D01*
X92028400Y-99000746D01*
X92059161Y-99155389D01*
X92059164Y-99155401D01*
X92119504Y-99301077D01*
X92122295Y-99306298D01*
X92136535Y-99374701D01*
X92111533Y-99439944D01*
X92100613Y-99452432D01*
X87936594Y-103616184D01*
X87875270Y-103649667D01*
X87848916Y-103652500D01*
X84700943Y-103652500D01*
X84548216Y-103693423D01*
X84548209Y-103693426D01*
X84411290Y-103772475D01*
X84411282Y-103772481D01*
X84322181Y-103861583D01*
X84260858Y-103895068D01*
X84191166Y-103890084D01*
X84135233Y-103848212D01*
X84110816Y-103782748D01*
X84110500Y-103773902D01*
X84110500Y-99088760D01*
X84110501Y-99088747D01*
X84110501Y-98920644D01*
X84110501Y-98920643D01*
X84069577Y-98767916D01*
X84003666Y-98653753D01*
X83990524Y-98630990D01*
X83990518Y-98630982D01*
X82125119Y-96765583D01*
X82091634Y-96704260D01*
X82088800Y-96677902D01*
X82088800Y-87929000D01*
X82108485Y-87861961D01*
X82161289Y-87816206D01*
X82212800Y-87805000D01*
X82366000Y-87805000D01*
X82433039Y-87824685D01*
G37*
%TD.AperFunction*%
%TA.AperFunction,Conductor*%
G36*
X113371000Y-84489685D02*
G01*
X113391629Y-84506306D01*
X113414162Y-84528833D01*
X113917755Y-85032290D01*
X113951249Y-85093609D01*
X113948017Y-85158301D01*
X113888910Y-85340210D01*
X113888910Y-85340213D01*
X113849500Y-85589038D01*
X113849500Y-85703200D01*
X113829815Y-85770239D01*
X113777011Y-85815994D01*
X113725500Y-85827200D01*
X113670230Y-85827200D01*
X113575777Y-85827193D01*
X113575673Y-85827200D01*
X103301297Y-85827200D01*
X103234258Y-85807515D01*
X103188503Y-85754711D01*
X103178559Y-85685553D01*
X103207584Y-85621997D01*
X103257372Y-85589999D01*
X103256513Y-85587924D01*
X103407541Y-85525366D01*
X103407542Y-85525366D01*
X103530792Y-85430792D01*
X103625366Y-85307542D01*
X103625366Y-85307541D01*
X103684812Y-85164024D01*
X103684814Y-85164019D01*
X103700000Y-85048667D01*
X103700000Y-84900000D01*
X101200000Y-84900000D01*
X101200000Y-85048667D01*
X101215185Y-85164019D01*
X101215187Y-85164024D01*
X101274633Y-85307541D01*
X101274633Y-85307542D01*
X101369207Y-85430792D01*
X101492458Y-85525366D01*
X101643487Y-85587924D01*
X101642417Y-85590507D01*
X101690460Y-85619794D01*
X101720987Y-85682642D01*
X101712689Y-85752017D01*
X101668202Y-85805893D01*
X101601649Y-85827165D01*
X101598703Y-85827200D01*
X98403244Y-85827200D01*
X98336205Y-85807515D01*
X98290450Y-85754711D01*
X98280506Y-85685553D01*
X98309531Y-85621997D01*
X98357724Y-85591025D01*
X98356642Y-85588411D01*
X98364149Y-85585301D01*
X98364151Y-85585301D01*
X98507798Y-85525800D01*
X98631149Y-85431149D01*
X98725800Y-85307798D01*
X98785301Y-85164151D01*
X98800500Y-85048701D01*
X98800499Y-84593999D01*
X98820183Y-84526961D01*
X98872987Y-84481206D01*
X98924499Y-84470000D01*
X113303961Y-84470000D01*
X113371000Y-84489685D01*
G37*
%TD.AperFunction*%
%TA.AperFunction,Conductor*%
G36*
X111943039Y-74896285D02*
G01*
X111988794Y-74949089D01*
X112000000Y-75000600D01*
X112000000Y-75226000D01*
X111980315Y-75293039D01*
X111927511Y-75338794D01*
X111876000Y-75350000D01*
X110775001Y-75350000D01*
X110761820Y-75363181D01*
X110700497Y-75396666D01*
X110674139Y-75399500D01*
X110315862Y-75399500D01*
X110248823Y-75379815D01*
X110228181Y-75363181D01*
X110215000Y-75350000D01*
X107765001Y-75350000D01*
X107751820Y-75363181D01*
X107690497Y-75396666D01*
X107664139Y-75399500D01*
X106092801Y-75399500D01*
X106025762Y-75379815D01*
X105980007Y-75327011D01*
X105975095Y-75314504D01*
X105975013Y-75314256D01*
X105947314Y-75230666D01*
X105855212Y-75081344D01*
X105855204Y-75081336D01*
X105852181Y-75077512D01*
X105826040Y-75012716D01*
X105839080Y-74944074D01*
X105887161Y-74893379D01*
X105949447Y-74876600D01*
X111876000Y-74876600D01*
X111943039Y-74896285D01*
G37*
%TD.AperFunction*%
%TD*%
M02*
