M48
; DRILL file KiCad 10.0.6 date 2026-10-09T14:05:35
; FORMAT={-:-/ absolute / metric / decimal}
; #@! TF.CreationDate,2026-10-09T14:05:35-03:00
; #@! TF.GenerationSoftware,Kicad,Pcbnew,10.0.6
; #@! TF.FileFunction,Plated,1,2,PTH
FMAT,2
METRIC
; #@! TA.AperFunction,Plated,PTH,ComponentDrill
T1C0.200
; #@! TA.AperFunction,Plated,PTH,ViaDrill
T2C0.300
; #@! TA.AperFunction,Plated,PTH,ComponentDrill
T3C0.600
; #@! TA.AperFunction,Plated,PTH,ComponentDrill
T4C1.000
; #@! TA.AperFunction,Plated,PTH,ComponentDrill
T5C1.500
; #@! TA.AperFunction,Plated,PTH,ComponentDrill
T6C2.000
%
G90
G05
T1
X88.56Y-97.355
X88.56Y-98.755
X89.26Y-96.655
X89.26Y-98.055
X89.26Y-99.455
X89.96Y-97.355
X89.96Y-98.755
X90.66Y-96.655
X90.66Y-98.055
X90.66Y-99.455
X91.36Y-97.355
X91.36Y-98.755
T2
X92.829Y-98.922
X92.83Y-106.802
X92.894Y-74.887
X93.772Y-85.162
X94.197Y-106.779
X94.216Y-107.586
X94.283Y-81.055
X94.56Y-125.714
X95.323Y-90.066
X95.383Y-86.238
X96.505Y-85.826
X96.991Y-101.9
X98.069Y-102.93
X99.844Y-39.231
X100.488Y-52.831
X100.642Y-35.63
X100.644Y-72.122
X101.517Y-39.214
X102.244Y-54.082
X105.459Y-36.246
X111.0Y-107.92
X113.718Y-76.38
X117.71Y-109.922
X118.647Y-110.249
X126.837Y-98.92
X132.811Y-95.944
X144.76Y-98.31
X155.958Y-128.19
X157.292Y-87.833
T4
X124.5Y-49.19
X124.5Y-51.73
X124.5Y-54.27
X124.5Y-56.81
X139.75Y-68.5
X139.75Y-71.0
X139.75Y-73.5
X154.25Y-68.5
X154.25Y-73.5
T5
X56.19Y-130.46
X62.54Y-127.92
X64.65Y-44.54
X71.0Y-42.0
X109.1Y-88.255
X109.1Y-103.345
X109.1Y-118.435
X115.45Y-85.715
X115.45Y-100.805
X115.45Y-115.895
X124.19Y-88.255
X124.19Y-103.345
X124.19Y-118.435
X130.54Y-85.715
X130.54Y-100.805
X130.54Y-115.895
X139.28Y-88.255
X139.28Y-103.345
X139.28Y-118.435
X145.63Y-85.715
X145.63Y-100.805
X145.63Y-115.895
X171.65Y-130.54
X172.0Y-42.0
X178.0Y-128.0
X178.35Y-39.46
T3
G00X95.36Y-37.27
M15
G01X95.36Y-38.37
M16
G05
G00X95.36Y-41.7
M15
G01X95.36Y-42.3
M16
G05
G00X104.0Y-37.27
M15
G01X104.0Y-38.37
M16
G05
G00X104.0Y-41.7
M15
G01X104.0Y-42.3
M16
G05
T6
G00X147.0Y-65.4
M15
G01X147.5Y-65.4
M16
G05
G00X147.0Y-76.6
M15
G01X147.5Y-76.6
M16
G05
M30
