%TF.GenerationSoftware,KiCad,Pcbnew,10.0.6*%
%TF.CreationDate,2026-10-09T14:05:46-03:00*%
%TF.ProjectId,project 1,70726f6a-6563-4742-9031-2e6b69636164,rev?*%
%TF.SameCoordinates,Original*%
%TF.FileFunction,Copper,L2,Bot*%
%TF.FilePolarity,Positive*%
%FSLAX46Y46*%
G04 Gerber Fmt 4.6, Leading zero omitted, Abs format (unit mm)*
G04 Created by KiCad (PCBNEW 10.0.6) date 2026-10-09 14:05:46*
%MOMM*%
%LPD*%
G01*
G04 APERTURE LIST*
G04 Aperture macros list*
%AMRoundRect*
0 Rectangle with rounded corners*
0 $1 Rounding radius*
0 $2 $3 $4 $5 $6 $7 $8 $9 X,Y pos of 4 corners*
0 Add a 4 corners polygon primitive as box body*
4,1,4,$2,$3,$4,$5,$6,$7,$8,$9,$2,$3,0*
0 Add four circle primitives for the rounded corners*
1,1,$1+$1,$2,$3*
1,1,$1+$1,$4,$5*
1,1,$1+$1,$6,$7*
1,1,$1+$1,$8,$9*
0 Add four rect primitives between the rounded corners*
20,1,$1+$1,$2,$3,$4,$5,0*
20,1,$1+$1,$4,$5,$6,$7,0*
20,1,$1+$1,$6,$7,$8,$9,0*
20,1,$1+$1,$8,$9,$2,$3,0*%
G04 Aperture macros list end*
%TA.AperFunction,ComponentPad*%
%ADD10C,2.200000*%
%TD*%
%TA.AperFunction,ComponentPad*%
%ADD11O,1.000000X1.600000*%
%TD*%
%TA.AperFunction,ComponentPad*%
%ADD12O,1.000000X2.100000*%
%TD*%
%TA.AperFunction,ComponentPad*%
%ADD13R,2.000000X2.000000*%
%TD*%
%TA.AperFunction,ComponentPad*%
%ADD14C,2.000000*%
%TD*%
%TA.AperFunction,ComponentPad*%
%ADD15R,3.000000X2.500000*%
%TD*%
%TA.AperFunction,HeatsinkPad*%
%ADD16C,0.600000*%
%TD*%
%TA.AperFunction,ComponentPad*%
%ADD17RoundRect,0.170000X0.680000X-0.680000X0.680000X0.680000X-0.680000X0.680000X-0.680000X-0.680000X0*%
%TD*%
%TA.AperFunction,ComponentPad*%
%ADD18C,1.700000*%
%TD*%
%TA.AperFunction,ViaPad*%
%ADD19C,0.600000*%
%TD*%
%TA.AperFunction,Conductor*%
%ADD20C,0.200000*%
%TD*%
G04 APERTURE END LIST*
D10*
%TO.P,H4,1*%
%TO.N,N/C*%
X71000000Y-42000000D03*
%TO.P,H4,2*%
X64650000Y-44540000D03*
%TD*%
%TO.P,H3,1*%
%TO.N,N/C*%
X62540000Y-127920000D03*
%TO.P,H3,2*%
X56190000Y-130460000D03*
%TD*%
%TO.P,H2,1*%
%TO.N,N/C*%
X178000000Y-128000000D03*
%TO.P,H2,2*%
X171650000Y-130540000D03*
%TD*%
%TO.P,H1,1*%
%TO.N,N/C*%
X178350000Y-39460000D03*
%TO.P,H1,2*%
X172000000Y-42000000D03*
%TD*%
D11*
%TO.P,J1,SH,SHIELD_SH*%
%TO.N,unconnected-(J1-SHIELD-PadSH)_1*%
X104000000Y-42000000D03*
D12*
%TO.N,unconnected-(J1-SHIELD-PadSH)_2*%
X104000000Y-37820000D03*
D11*
%TO.N,unconnected-(J1-SHIELD-PadSH)_3*%
X95360000Y-42000000D03*
D12*
%TO.N,unconnected-(J1-SHIELD-PadSH)*%
X95360000Y-37820000D03*
%TD*%
D10*
%TO.P,SW1,1,1_1*%
%TO.N,/IO1*%
X115450000Y-85715000D03*
%TO.P,SW1,2,2_2*%
%TO.N,GND*%
X109100000Y-88255000D03*
%TD*%
%TO.P,SW3,1,1_1*%
%TO.N,/IO3*%
X115450000Y-115895000D03*
%TO.P,SW3,2,2_2*%
%TO.N,GND*%
X109100000Y-118435000D03*
%TD*%
%TO.P,SW2,1,1_1*%
%TO.N,/IO2*%
X115450000Y-100805000D03*
%TO.P,SW2,2,2_2*%
%TO.N,GND*%
X109100000Y-103345000D03*
%TD*%
D13*
%TO.P,SW10,A,A_A*%
%TO.N,/IO11*%
X139750000Y-68500000D03*
D14*
%TO.P,SW10,B,B_B*%
%TO.N,/IO12*%
X139750000Y-73500000D03*
%TO.P,SW10,C,C_C*%
%TO.N,GND*%
X139750000Y-71000000D03*
D15*
%TO.P,SW10,MP*%
%TO.N,N/C*%
X147250000Y-65400000D03*
X147250000Y-76600000D03*
D14*
%TO.P,SW10,S1,S1_S1*%
%TO.N,/IO10*%
X154250000Y-68500000D03*
%TO.P,SW10,S2,S2_S2*%
%TO.N,GND*%
X154250000Y-73500000D03*
%TD*%
D16*
%TO.P,U1,41,GND_41*%
%TO.N,GND*%
X89260000Y-99455000D03*
X90660000Y-99455000D03*
X88560000Y-98755000D03*
X89960000Y-98755000D03*
X91360000Y-98755000D03*
X89260000Y-98055000D03*
X90660000Y-98055000D03*
X88560000Y-97355000D03*
X89960000Y-97355000D03*
X91360000Y-97355000D03*
X89260000Y-96655000D03*
X90660000Y-96655000D03*
%TD*%
D17*
%TO.P,U3,1,GND_1*%
%TO.N,GND*%
X124500000Y-56810000D03*
D18*
%TO.P,U3,2,VCC_2*%
%TO.N,/+3V3*%
X124500000Y-54270000D03*
%TO.P,U3,3,SCL_3*%
%TO.N,Net-(U1-IO17)*%
X124500000Y-51730000D03*
%TO.P,U3,4,SDA_4*%
%TO.N,Net-(U1-IO18)*%
X124500000Y-49190000D03*
%TD*%
D10*
%TO.P,SW4,1,1_1*%
%TO.N,/IO4*%
X130540000Y-85715000D03*
%TO.P,SW4,2,2_2*%
%TO.N,GND*%
X124190000Y-88255000D03*
%TD*%
%TO.P,SW8,1,1_1*%
%TO.N,/IO8*%
X145630000Y-100805000D03*
%TO.P,SW8,2,2_2*%
%TO.N,GND*%
X139280000Y-103345000D03*
%TD*%
%TO.P,SW9,1,1_1*%
%TO.N,/IO9*%
X145630000Y-115895000D03*
%TO.P,SW9,2,2_2*%
%TO.N,GND*%
X139280000Y-118435000D03*
%TD*%
%TO.P,SW6,1,1_1*%
%TO.N,/IO6*%
X130540000Y-115895000D03*
%TO.P,SW6,2,2_2*%
%TO.N,GND*%
X124190000Y-118435000D03*
%TD*%
%TO.P,SW5,1,1_1*%
%TO.N,/IO5*%
X130540000Y-100805000D03*
%TO.P,SW5,2,2_2*%
%TO.N,GND*%
X124190000Y-103345000D03*
%TD*%
%TO.P,SW7,1,1_1*%
%TO.N,/IO7*%
X145630000Y-85715000D03*
%TO.P,SW7,2,2_2*%
%TO.N,GND*%
X139280000Y-88255000D03*
%TD*%
D19*
%TO.N,/DOUT2*%
X96504600Y-85826000D03*
X94559700Y-125714000D03*
%TO.N,Net-(U1-IO39)*%
X94282600Y-81055100D03*
X93771700Y-85162100D03*
%TO.N,Net-(U1-USB_D+)*%
X100642000Y-35630400D03*
X98069300Y-102930000D03*
%TO.N,Net-(U1-USB_D-)*%
X99844300Y-39230800D03*
X96991000Y-101900000D03*
X100487700Y-52831000D03*
%TO.N,Net-(U1-IO18)*%
X94215600Y-107586000D03*
%TO.N,Net-(U1-IO17)*%
X92830100Y-106802000D03*
%TO.N,/IO7*%
X95382600Y-86238400D03*
X94196600Y-106779000D03*
%TO.N,/IO5*%
X118647000Y-110249000D03*
%TO.N,/IO4*%
X117710000Y-109922000D03*
%TO.N,Net-(U1-EN)*%
X92828900Y-98921900D03*
X92893800Y-74886600D03*
%TO.N,Net-(J1-CC2)*%
X101517000Y-39213900D03*
X100644000Y-72121700D03*
X102244200Y-54082300D03*
%TO.N,/IO10*%
X144760000Y-98309900D03*
%TO.N,/IO12*%
X132811000Y-95944100D03*
%TO.N,/IO11*%
X126837000Y-98920300D03*
%TO.N,/IO2*%
X95323300Y-90066200D03*
%TO.N,/+5V*%
X155958000Y-128190000D03*
X157292000Y-87833200D03*
%TO.N,/+3V3*%
X113718000Y-76380100D03*
%TO.N,/IO3*%
X111000000Y-107920000D03*
%TO.N,GND*%
X105458900Y-36245700D03*
%TD*%
%TO.N,/DOUT2*%
D20*
X96504600Y-85826000D02*
X96504600Y-86500500D01*
X94848400Y-101114000D02*
X94848400Y-125426000D01*
X94721600Y-88283500D02*
X94721600Y-100987000D01*
X96504600Y-86500500D02*
X94721600Y-88283500D01*
X94721600Y-100987000D02*
X94848400Y-101114000D01*
X94848400Y-125426000D02*
X94559700Y-125714000D01*
%TO.N,Net-(U1-IO39)*%
X93771700Y-81566000D02*
X94282600Y-81055100D01*
X93771700Y-85162100D02*
X93771700Y-81566000D01*
%TO.N,Net-(U1-USB_D+)*%
X99642000Y-101357000D02*
X98069300Y-102930000D01*
X99642000Y-57630400D02*
X99642000Y-101357000D01*
%TO.N,Net-(U1-USB_D-)*%
X98844300Y-100046000D02*
X96991000Y-101900000D01*
X98844300Y-61230800D02*
X98844300Y-100046000D01*
X98844300Y-54474400D02*
X100487700Y-52831000D01*
X98844300Y-61230800D02*
X98844300Y-54474400D01*
%TO.N,Net-(U1-IO18)*%
X88658200Y-99704100D02*
X88658300Y-99704100D01*
X87924700Y-98970600D02*
X88658200Y-99704100D01*
X87924700Y-63894000D02*
X87924700Y-98970600D01*
X88658300Y-99704100D02*
X88658300Y-103481000D01*
X102629000Y-49190000D02*
X87924700Y-63894000D01*
X124500000Y-49190000D02*
X102629000Y-49190000D01*
X92763100Y-107586000D02*
X94215600Y-107586000D01*
X88658300Y-103481000D02*
X92763100Y-107586000D01*
%TO.N,Net-(U1-IO17)*%
X92188000Y-106159000D02*
X92830100Y-106802000D01*
X124500000Y-51730000D02*
X100718000Y-51730000D01*
X92188000Y-60260500D02*
X92188000Y-106159000D01*
X100718000Y-51730000D02*
X92188000Y-60260500D01*
%TO.N,/IO7*%
X94196600Y-87424400D02*
X95382600Y-86238400D01*
X94196600Y-106779000D02*
X94196600Y-87424400D01*
%TO.N,/IO5*%
X120455000Y-108441000D02*
X120455000Y-105008000D01*
X118647000Y-110249000D02*
X120455000Y-108441000D01*
X124658000Y-100805000D02*
X130540000Y-100805000D01*
X120455000Y-105008000D02*
X124658000Y-100805000D01*
%TO.N,/IO4*%
X120948000Y-89509300D02*
X120948000Y-97304700D01*
X130540000Y-85715000D02*
X124743000Y-85715000D01*
X116588000Y-108801000D02*
X117710000Y-109922000D01*
X116588000Y-101665000D02*
X116588000Y-108801000D01*
X120948000Y-97304700D02*
X116588000Y-101665000D01*
X124743000Y-85715000D02*
X120948000Y-89509300D01*
%TO.N,Net-(U1-EN)*%
X92893800Y-98857000D02*
X92828900Y-98921900D01*
X92893800Y-74886600D02*
X92893800Y-98857000D01*
%TO.N,Net-(J1-CC2)*%
X100517000Y-71994600D02*
X100644000Y-72121700D01*
X100517000Y-61213900D02*
X100517000Y-71994600D01*
X102244200Y-59486700D02*
X102244200Y-54082300D01*
X100517000Y-61213900D02*
X102244200Y-59486700D01*
%TO.N,/IO10*%
X150858000Y-92211600D02*
X150858000Y-71891500D01*
X144760000Y-98309900D02*
X150858000Y-92211600D01*
X150858000Y-71891500D02*
X154250000Y-68500000D01*
%TO.N,/IO12*%
X139750000Y-80234700D02*
X139750000Y-73500000D01*
X135670000Y-84314800D02*
X139750000Y-80234700D01*
X135670000Y-93085600D02*
X135670000Y-84314800D01*
X132811000Y-95944100D02*
X135670000Y-93085600D01*
%TO.N,/IO11*%
X135270000Y-72980300D02*
X135270000Y-83451800D01*
X130604000Y-95153400D02*
X126837000Y-98920300D01*
X139750000Y-68500000D02*
X135270000Y-72980300D01*
X130604000Y-88117600D02*
X130604000Y-95153400D01*
X135270000Y-83451800D02*
X130604000Y-88117600D01*
%TO.N,/IO2*%
X115450000Y-100805000D02*
X116185000Y-101540000D01*
X116903000Y-114808000D02*
X116903000Y-116464000D01*
X116185000Y-114090000D02*
X116903000Y-114808000D01*
X95323300Y-101087000D02*
X95323300Y-90066200D01*
X116050000Y-117318000D02*
X111554000Y-117318000D01*
X116903000Y-116464000D02*
X116050000Y-117318000D01*
X116185000Y-101540000D02*
X116185000Y-114090000D01*
X111554000Y-117318000D02*
X95323300Y-101087000D01*
%TO.N,/+5V*%
X157292000Y-126856000D02*
X155958000Y-128190000D01*
X157292000Y-87833200D02*
X157292000Y-126856000D01*
%TO.N,/+3V3*%
X113718000Y-65052400D02*
X113718000Y-76380100D01*
X124500000Y-54270000D02*
X113718000Y-65052400D01*
%TO.N,/IO3*%
X111000000Y-111445000D02*
X115450000Y-115895000D01*
X111000000Y-107920000D02*
X111000000Y-111445000D01*
%TO.N,GND*%
X105458900Y-38201600D02*
X105458900Y-36245700D01*
%TD*%
%TA.AperFunction,Conductor*%
%TO.N,GND*%
G36*
X91506835Y-61263677D02*
G01*
X91562768Y-61305549D01*
X91587184Y-61371013D01*
X91587500Y-61379858D01*
X91587500Y-105261714D01*
X91567815Y-105328753D01*
X91515011Y-105374508D01*
X91445853Y-105384452D01*
X91382297Y-105355427D01*
X91375817Y-105349393D01*
X89295117Y-103268591D01*
X89261633Y-103207267D01*
X89258800Y-103180912D01*
X89258800Y-99625045D01*
X89258800Y-99625043D01*
X89217877Y-99472316D01*
X89213639Y-99464975D01*
X89138824Y-99335390D01*
X89138818Y-99335382D01*
X89021665Y-99218229D01*
X89020850Y-99217514D01*
X88561519Y-98758183D01*
X88528034Y-98696860D01*
X88525200Y-98670502D01*
X88525200Y-64194100D01*
X88544885Y-64127061D01*
X88561516Y-64106421D01*
X91375821Y-61292175D01*
X91437143Y-61258692D01*
X91506835Y-61263677D01*
G37*
%TD.AperFunction*%
%TA.AperFunction,Conductor*%
G36*
X138172191Y-71029693D02*
G01*
X138228126Y-71071562D01*
X138251334Y-71126478D01*
X138286934Y-71351247D01*
X138359897Y-71575802D01*
X138467087Y-71786174D01*
X138527338Y-71869104D01*
X138527340Y-71869105D01*
X139267037Y-71129408D01*
X139284075Y-71192993D01*
X139349901Y-71307007D01*
X139442993Y-71400099D01*
X139557007Y-71465925D01*
X139620590Y-71482962D01*
X138874280Y-72229271D01*
X138865105Y-72272947D01*
X138828739Y-72314615D01*
X138772490Y-72355482D01*
X138605485Y-72522487D01*
X138605485Y-72522488D01*
X138605483Y-72522490D01*
X138584214Y-72551764D01*
X138466657Y-72713566D01*
X138359433Y-72924003D01*
X138286446Y-73148631D01*
X138249500Y-73381902D01*
X138249500Y-73618097D01*
X138286446Y-73851368D01*
X138359433Y-74075996D01*
X138455640Y-74264811D01*
X138466657Y-74286433D01*
X138605483Y-74477510D01*
X138772490Y-74644517D01*
X138880042Y-74722658D01*
X138963568Y-74783344D01*
X139011484Y-74807758D01*
X139081794Y-74843582D01*
X139132590Y-74891556D01*
X139149500Y-74954067D01*
X139149500Y-79934606D01*
X139129815Y-80001645D01*
X139113182Y-80022286D01*
X136082182Y-83053361D01*
X136020860Y-83086847D01*
X135951168Y-83081863D01*
X135895234Y-83039993D01*
X135870816Y-82974529D01*
X135870500Y-82965681D01*
X135870500Y-73280382D01*
X135890185Y-73213343D01*
X135906813Y-73192706D01*
X138041181Y-71058195D01*
X138102499Y-71024711D01*
X138172191Y-71029693D01*
G37*
%TD.AperFunction*%
%TA.AperFunction,Conductor*%
G36*
X181937622Y-35022163D02*
G01*
X181985426Y-35073120D01*
X181998747Y-35130236D01*
X181001146Y-138880812D01*
X180980818Y-138947659D01*
X180927577Y-138992904D01*
X180880861Y-139003565D01*
X80877709Y-141996178D01*
X80810111Y-141978507D01*
X80762797Y-141927095D01*
X80750000Y-141872233D01*
X80750000Y-128111153D01*
X155157500Y-128111153D01*
X155157500Y-128268846D01*
X155188261Y-128423489D01*
X155188264Y-128423501D01*
X155248602Y-128569172D01*
X155248609Y-128569185D01*
X155336210Y-128700288D01*
X155336213Y-128700292D01*
X155447707Y-128811786D01*
X155447711Y-128811789D01*
X155578814Y-128899390D01*
X155578827Y-128899397D01*
X155724498Y-128959735D01*
X155724503Y-128959737D01*
X155879153Y-128990499D01*
X155879156Y-128990500D01*
X155879158Y-128990500D01*
X156036844Y-128990500D01*
X156036845Y-128990499D01*
X156191497Y-128959737D01*
X156337179Y-128899394D01*
X156468289Y-128811789D01*
X156579789Y-128700289D01*
X156667394Y-128569179D01*
X156727737Y-128423497D01*
X156747113Y-128326085D01*
X156758638Y-128268150D01*
X156791023Y-128206239D01*
X156792520Y-128204714D01*
X157660713Y-127336521D01*
X157660716Y-127336520D01*
X157772520Y-127224716D01*
X157822639Y-127137904D01*
X157851577Y-127087785D01*
X157892501Y-126935057D01*
X157892501Y-126776943D01*
X157892501Y-126769348D01*
X157892500Y-126769330D01*
X157892500Y-88412965D01*
X157912185Y-88345926D01*
X157913398Y-88344074D01*
X157972916Y-88255000D01*
X158001394Y-88212379D01*
X158061737Y-88066697D01*
X158092500Y-87912042D01*
X158092500Y-87754358D01*
X158092500Y-87754355D01*
X158092499Y-87754353D01*
X158076205Y-87672437D01*
X158061737Y-87599703D01*
X158057867Y-87590359D01*
X158001397Y-87454027D01*
X158001390Y-87454014D01*
X157913789Y-87322911D01*
X157913786Y-87322907D01*
X157802292Y-87211413D01*
X157802288Y-87211410D01*
X157671185Y-87123809D01*
X157671172Y-87123802D01*
X157525501Y-87063464D01*
X157525489Y-87063461D01*
X157370845Y-87032700D01*
X157370842Y-87032700D01*
X157213158Y-87032700D01*
X157213155Y-87032700D01*
X157058510Y-87063461D01*
X157058498Y-87063464D01*
X156912827Y-87123802D01*
X156912814Y-87123809D01*
X156781711Y-87211410D01*
X156781707Y-87211413D01*
X156670213Y-87322907D01*
X156670210Y-87322911D01*
X156582609Y-87454014D01*
X156582602Y-87454027D01*
X156522264Y-87599698D01*
X156522261Y-87599710D01*
X156491500Y-87754353D01*
X156491500Y-87912046D01*
X156522261Y-88066689D01*
X156522263Y-88066697D01*
X156582602Y-88212372D01*
X156582609Y-88212385D01*
X156670602Y-88344074D01*
X156691480Y-88410751D01*
X156691500Y-88412965D01*
X156691500Y-126555903D01*
X156671815Y-126622942D01*
X156655181Y-126643584D01*
X155943339Y-127355425D01*
X155882016Y-127388910D01*
X155879850Y-127389361D01*
X155724508Y-127420261D01*
X155724498Y-127420264D01*
X155578827Y-127480602D01*
X155578814Y-127480609D01*
X155447711Y-127568210D01*
X155447707Y-127568213D01*
X155336213Y-127679707D01*
X155336210Y-127679711D01*
X155248609Y-127810814D01*
X155248602Y-127810827D01*
X155188264Y-127956498D01*
X155188261Y-127956510D01*
X155157500Y-128111153D01*
X80750000Y-128111153D01*
X80750000Y-99049654D01*
X87324198Y-99049654D01*
X87352104Y-99153801D01*
X87365123Y-99202385D01*
X87389098Y-99243910D01*
X87444179Y-99339314D01*
X87444181Y-99339317D01*
X87563049Y-99458185D01*
X87563055Y-99458190D01*
X88021481Y-99916616D01*
X88054966Y-99977939D01*
X88057800Y-100004297D01*
X88057800Y-103435278D01*
X88057798Y-103560057D01*
X88057803Y-103560097D01*
X88058038Y-103560944D01*
X88077732Y-103634445D01*
X88077748Y-103634502D01*
X88098720Y-103712780D01*
X88119840Y-103749361D01*
X88154084Y-103808674D01*
X88154085Y-103808676D01*
X88154086Y-103808676D01*
X88177776Y-103849712D01*
X88177779Y-103849715D01*
X88177780Y-103849716D01*
X88259647Y-103931583D01*
X88259649Y-103931585D01*
X92276454Y-107948586D01*
X92276483Y-107948619D01*
X92282579Y-107954715D01*
X92282580Y-107954716D01*
X92348503Y-108020639D01*
X92394372Y-108066510D01*
X92394374Y-108066511D01*
X92394513Y-108066650D01*
X92394820Y-108066879D01*
X92397546Y-108068346D01*
X92425404Y-108084429D01*
X92469248Y-108109742D01*
X92469250Y-108109744D01*
X92469251Y-108109744D01*
X92513859Y-108135500D01*
X92529475Y-108144516D01*
X92531798Y-108145911D01*
X92532156Y-108146053D01*
X92537073Y-108147119D01*
X92611766Y-108167132D01*
X92611770Y-108167135D01*
X92611771Y-108167134D01*
X92684028Y-108186498D01*
X92684029Y-108186498D01*
X92684036Y-108186500D01*
X92763085Y-108186500D01*
X92842143Y-108186502D01*
X92842146Y-108186500D01*
X92850767Y-108186501D01*
X92850796Y-108186500D01*
X93635834Y-108186500D01*
X93702873Y-108206185D01*
X93704725Y-108207398D01*
X93836414Y-108295390D01*
X93836427Y-108295397D01*
X93982098Y-108355735D01*
X93982103Y-108355737D01*
X94040367Y-108367326D01*
X94142732Y-108387689D01*
X94142466Y-108389023D01*
X94200827Y-108412579D01*
X94241194Y-108469608D01*
X94247900Y-108509833D01*
X94247900Y-124894268D01*
X94228215Y-124961307D01*
X94185347Y-125000866D01*
X94185585Y-125001222D01*
X94183329Y-125002729D01*
X94182363Y-125003621D01*
X94180519Y-125004606D01*
X94049415Y-125092207D01*
X94049407Y-125092213D01*
X93937913Y-125203707D01*
X93937910Y-125203711D01*
X93850309Y-125334814D01*
X93850302Y-125334827D01*
X93789964Y-125480498D01*
X93789961Y-125480510D01*
X93759200Y-125635153D01*
X93759200Y-125792846D01*
X93789961Y-125947489D01*
X93789964Y-125947501D01*
X93850302Y-126093172D01*
X93850309Y-126093185D01*
X93937910Y-126224288D01*
X93937913Y-126224292D01*
X94049407Y-126335786D01*
X94049411Y-126335789D01*
X94180514Y-126423390D01*
X94180527Y-126423397D01*
X94326198Y-126483735D01*
X94326203Y-126483737D01*
X94480853Y-126514499D01*
X94480856Y-126514500D01*
X94480858Y-126514500D01*
X94638544Y-126514500D01*
X94638545Y-126514499D01*
X94793197Y-126483737D01*
X94938879Y-126423394D01*
X95069989Y-126335789D01*
X95181489Y-126224289D01*
X95269094Y-126093179D01*
X95329437Y-125947497D01*
X95360200Y-125792842D01*
X95360200Y-125773801D01*
X95376887Y-125711672D01*
X95407695Y-125658464D01*
X95407698Y-125658452D01*
X95407970Y-125657794D01*
X95407977Y-125657784D01*
X95428297Y-125581948D01*
X95448804Y-125505786D01*
X95448804Y-125505782D01*
X95448900Y-125505062D01*
X95448900Y-125426728D01*
X95448996Y-125347671D01*
X95448995Y-125347668D01*
X95449004Y-125340518D01*
X95448900Y-125338900D01*
X95448900Y-120888389D01*
X106729500Y-120888389D01*
X106729500Y-121061611D01*
X106756598Y-121232701D01*
X106810127Y-121397445D01*
X106888768Y-121551788D01*
X106990586Y-121691928D01*
X107113072Y-121814414D01*
X107253212Y-121916232D01*
X107407555Y-121994873D01*
X107572299Y-122048402D01*
X107743389Y-122075500D01*
X107743390Y-122075500D01*
X107916610Y-122075500D01*
X107916611Y-122075500D01*
X108087701Y-122048402D01*
X108252445Y-121994873D01*
X108406788Y-121916232D01*
X108546928Y-121814414D01*
X108669414Y-121691928D01*
X108771232Y-121551788D01*
X108849873Y-121397445D01*
X108903402Y-121232701D01*
X108930500Y-121061611D01*
X108930500Y-120888389D01*
X108920854Y-120827486D01*
X110659500Y-120827486D01*
X110659500Y-121122513D01*
X110691571Y-121366113D01*
X110698007Y-121414993D01*
X110772212Y-121691930D01*
X110774361Y-121699951D01*
X110774364Y-121699961D01*
X110887254Y-121972500D01*
X110887258Y-121972510D01*
X111034761Y-122227993D01*
X111214352Y-122462040D01*
X111214358Y-122462047D01*
X111422952Y-122670641D01*
X111422959Y-122670647D01*
X111657006Y-122850238D01*
X111912489Y-122997741D01*
X111912490Y-122997741D01*
X111912493Y-122997743D01*
X112185048Y-123110639D01*
X112470007Y-123186993D01*
X112762494Y-123225500D01*
X112762501Y-123225500D01*
X113057499Y-123225500D01*
X113057506Y-123225500D01*
X113349993Y-123186993D01*
X113634952Y-123110639D01*
X113907507Y-122997743D01*
X114162994Y-122850238D01*
X114397042Y-122670646D01*
X114605646Y-122462042D01*
X114785238Y-122227994D01*
X114932743Y-121972507D01*
X115045639Y-121699952D01*
X115121993Y-121414993D01*
X115160500Y-121122506D01*
X115160500Y-120888389D01*
X116889500Y-120888389D01*
X116889500Y-121061611D01*
X116916598Y-121232701D01*
X116970127Y-121397445D01*
X117048768Y-121551788D01*
X117150586Y-121691928D01*
X117273072Y-121814414D01*
X117413212Y-121916232D01*
X117567555Y-121994873D01*
X117732299Y-122048402D01*
X117903389Y-122075500D01*
X117903390Y-122075500D01*
X118076610Y-122075500D01*
X118076611Y-122075500D01*
X118247701Y-122048402D01*
X118412445Y-121994873D01*
X118566788Y-121916232D01*
X118706928Y-121814414D01*
X118829414Y-121691928D01*
X118931232Y-121551788D01*
X119009873Y-121397445D01*
X119063402Y-121232701D01*
X119090500Y-121061611D01*
X119090500Y-120888389D01*
X121819500Y-120888389D01*
X121819500Y-121061611D01*
X121846598Y-121232701D01*
X121900127Y-121397445D01*
X121978768Y-121551788D01*
X122080586Y-121691928D01*
X122203072Y-121814414D01*
X122343212Y-121916232D01*
X122497555Y-121994873D01*
X122662299Y-122048402D01*
X122833389Y-122075500D01*
X122833390Y-122075500D01*
X123006610Y-122075500D01*
X123006611Y-122075500D01*
X123177701Y-122048402D01*
X123342445Y-121994873D01*
X123496788Y-121916232D01*
X123636928Y-121814414D01*
X123759414Y-121691928D01*
X123861232Y-121551788D01*
X123939873Y-121397445D01*
X123993402Y-121232701D01*
X124020500Y-121061611D01*
X124020500Y-120888389D01*
X124010854Y-120827486D01*
X125749500Y-120827486D01*
X125749500Y-121122513D01*
X125781571Y-121366113D01*
X125788007Y-121414993D01*
X125862212Y-121691930D01*
X125864361Y-121699951D01*
X125864364Y-121699961D01*
X125977254Y-121972500D01*
X125977258Y-121972510D01*
X126124761Y-122227993D01*
X126304352Y-122462040D01*
X126304358Y-122462047D01*
X126512952Y-122670641D01*
X126512959Y-122670647D01*
X126747006Y-122850238D01*
X127002489Y-122997741D01*
X127002490Y-122997741D01*
X127002493Y-122997743D01*
X127275048Y-123110639D01*
X127560007Y-123186993D01*
X127852494Y-123225500D01*
X127852501Y-123225500D01*
X128147499Y-123225500D01*
X128147506Y-123225500D01*
X128439993Y-123186993D01*
X128724952Y-123110639D01*
X128997507Y-122997743D01*
X129252994Y-122850238D01*
X129487042Y-122670646D01*
X129695646Y-122462042D01*
X129875238Y-122227994D01*
X130022743Y-121972507D01*
X130135639Y-121699952D01*
X130211993Y-121414993D01*
X130250500Y-121122506D01*
X130250500Y-120888389D01*
X131979500Y-120888389D01*
X131979500Y-121061611D01*
X132006598Y-121232701D01*
X132060127Y-121397445D01*
X132138768Y-121551788D01*
X132240586Y-121691928D01*
X132363072Y-121814414D01*
X132503212Y-121916232D01*
X132657555Y-121994873D01*
X132822299Y-122048402D01*
X132993389Y-122075500D01*
X132993390Y-122075500D01*
X133166610Y-122075500D01*
X133166611Y-122075500D01*
X133337701Y-122048402D01*
X133502445Y-121994873D01*
X133656788Y-121916232D01*
X133796928Y-121814414D01*
X133919414Y-121691928D01*
X134021232Y-121551788D01*
X134099873Y-121397445D01*
X134153402Y-121232701D01*
X134180500Y-121061611D01*
X134180500Y-120888389D01*
X136909500Y-120888389D01*
X136909500Y-121061611D01*
X136936598Y-121232701D01*
X136990127Y-121397445D01*
X137068768Y-121551788D01*
X137170586Y-121691928D01*
X137293072Y-121814414D01*
X137433212Y-121916232D01*
X137587555Y-121994873D01*
X137752299Y-122048402D01*
X137923389Y-122075500D01*
X137923390Y-122075500D01*
X138096610Y-122075500D01*
X138096611Y-122075500D01*
X138267701Y-122048402D01*
X138432445Y-121994873D01*
X138586788Y-121916232D01*
X138726928Y-121814414D01*
X138849414Y-121691928D01*
X138951232Y-121551788D01*
X139029873Y-121397445D01*
X139083402Y-121232701D01*
X139110500Y-121061611D01*
X139110500Y-120888389D01*
X139100854Y-120827486D01*
X140839500Y-120827486D01*
X140839500Y-121122513D01*
X140871571Y-121366113D01*
X140878007Y-121414993D01*
X140952212Y-121691930D01*
X140954361Y-121699951D01*
X140954364Y-121699961D01*
X141067254Y-121972500D01*
X141067258Y-121972510D01*
X141214761Y-122227993D01*
X141394352Y-122462040D01*
X141394358Y-122462047D01*
X141602952Y-122670641D01*
X141602959Y-122670647D01*
X141837006Y-122850238D01*
X142092489Y-122997741D01*
X142092490Y-122997741D01*
X142092493Y-122997743D01*
X142365048Y-123110639D01*
X142650007Y-123186993D01*
X142942494Y-123225500D01*
X142942501Y-123225500D01*
X143237499Y-123225500D01*
X143237506Y-123225500D01*
X143529993Y-123186993D01*
X143814952Y-123110639D01*
X144087507Y-122997743D01*
X144342994Y-122850238D01*
X144577042Y-122670646D01*
X144785646Y-122462042D01*
X144965238Y-122227994D01*
X145112743Y-121972507D01*
X145225639Y-121699952D01*
X145301993Y-121414993D01*
X145340500Y-121122506D01*
X145340500Y-120888389D01*
X147069500Y-120888389D01*
X147069500Y-121061611D01*
X147096598Y-121232701D01*
X147150127Y-121397445D01*
X147228768Y-121551788D01*
X147330586Y-121691928D01*
X147453072Y-121814414D01*
X147593212Y-121916232D01*
X147747555Y-121994873D01*
X147912299Y-122048402D01*
X148083389Y-122075500D01*
X148083390Y-122075500D01*
X148256610Y-122075500D01*
X148256611Y-122075500D01*
X148427701Y-122048402D01*
X148592445Y-121994873D01*
X148746788Y-121916232D01*
X148886928Y-121814414D01*
X149009414Y-121691928D01*
X149111232Y-121551788D01*
X149189873Y-121397445D01*
X149243402Y-121232701D01*
X149270500Y-121061611D01*
X149270500Y-120888389D01*
X149243402Y-120717299D01*
X149189873Y-120552555D01*
X149111232Y-120398212D01*
X149009414Y-120258072D01*
X148886928Y-120135586D01*
X148746788Y-120033768D01*
X148592445Y-119955127D01*
X148427701Y-119901598D01*
X148427699Y-119901597D01*
X148427698Y-119901597D01*
X148296271Y-119880781D01*
X148256611Y-119874500D01*
X148083389Y-119874500D01*
X148043728Y-119880781D01*
X147912302Y-119901597D01*
X147747552Y-119955128D01*
X147593211Y-120033768D01*
X147537115Y-120074525D01*
X147453072Y-120135586D01*
X147453070Y-120135588D01*
X147453069Y-120135588D01*
X147330588Y-120258069D01*
X147330588Y-120258070D01*
X147330586Y-120258072D01*
X147286859Y-120318256D01*
X147228768Y-120398211D01*
X147150128Y-120552552D01*
X147096597Y-120717302D01*
X147069500Y-120888389D01*
X145340500Y-120888389D01*
X145340500Y-120827494D01*
X145301993Y-120535007D01*
X145225639Y-120250048D01*
X145112743Y-119977493D01*
X145062604Y-119890650D01*
X144965238Y-119722006D01*
X144785647Y-119487959D01*
X144785641Y-119487952D01*
X144577047Y-119279358D01*
X144577040Y-119279352D01*
X144342993Y-119099761D01*
X144087510Y-118952258D01*
X144087500Y-118952254D01*
X143814961Y-118839364D01*
X143814954Y-118839362D01*
X143814952Y-118839361D01*
X143529993Y-118763007D01*
X143481113Y-118756571D01*
X143237513Y-118724500D01*
X143237506Y-118724500D01*
X142942494Y-118724500D01*
X142942486Y-118724500D01*
X142664085Y-118761153D01*
X142650007Y-118763007D01*
X142475861Y-118809669D01*
X142365048Y-118839361D01*
X142365038Y-118839364D01*
X142092499Y-118952254D01*
X142092489Y-118952258D01*
X141837006Y-119099761D01*
X141602959Y-119279352D01*
X141602952Y-119279358D01*
X141394358Y-119487952D01*
X141394352Y-119487959D01*
X141214761Y-119722006D01*
X141067258Y-119977489D01*
X141067254Y-119977499D01*
X140954364Y-120250038D01*
X140954361Y-120250048D01*
X140878008Y-120535004D01*
X140878006Y-120535015D01*
X140839500Y-120827486D01*
X139100854Y-120827486D01*
X139083402Y-120717299D01*
X139029873Y-120552555D01*
X138951232Y-120398212D01*
X138849414Y-120258072D01*
X138796882Y-120205540D01*
X138763397Y-120144217D01*
X138768381Y-120074525D01*
X138810253Y-120018592D01*
X138875717Y-119994175D01*
X138903961Y-119995386D01*
X139154072Y-120035000D01*
X139405928Y-120035000D01*
X139654669Y-119995602D01*
X139894184Y-119917780D01*
X140118575Y-119803446D01*
X140118581Y-119803442D01*
X140220697Y-119729250D01*
X140220698Y-119729250D01*
X139604025Y-119112578D01*
X139635258Y-119099641D01*
X139758097Y-119017563D01*
X139862563Y-118913097D01*
X139944641Y-118790258D01*
X139957578Y-118759025D01*
X140574250Y-119375698D01*
X140574250Y-119375697D01*
X140648442Y-119273581D01*
X140648446Y-119273575D01*
X140762780Y-119049184D01*
X140840602Y-118809669D01*
X140880000Y-118560928D01*
X140880000Y-118309071D01*
X140840602Y-118060330D01*
X140762780Y-117820815D01*
X140648442Y-117596416D01*
X140574250Y-117494301D01*
X140574250Y-117494300D01*
X139957577Y-118110973D01*
X139944641Y-118079742D01*
X139862563Y-117956903D01*
X139758097Y-117852437D01*
X139635258Y-117770359D01*
X139604024Y-117757421D01*
X140220698Y-117140748D01*
X140118583Y-117066557D01*
X139894184Y-116952219D01*
X139654669Y-116874397D01*
X139405928Y-116835000D01*
X139154072Y-116835000D01*
X138905330Y-116874397D01*
X138665815Y-116952219D01*
X138441413Y-117066559D01*
X138339301Y-117140747D01*
X138339300Y-117140748D01*
X138955974Y-117757421D01*
X138924742Y-117770359D01*
X138801903Y-117852437D01*
X138697437Y-117956903D01*
X138615359Y-118079742D01*
X138602421Y-118110974D01*
X137985748Y-117494300D01*
X137985747Y-117494301D01*
X137911559Y-117596413D01*
X137797219Y-117820815D01*
X137719397Y-118060330D01*
X137680000Y-118309071D01*
X137680000Y-118560928D01*
X137719397Y-118809669D01*
X137797219Y-119049184D01*
X137911557Y-119273583D01*
X137985748Y-119375697D01*
X137985748Y-119375698D01*
X138602421Y-118759024D01*
X138615359Y-118790258D01*
X138697437Y-118913097D01*
X138801903Y-119017563D01*
X138924742Y-119099641D01*
X138955974Y-119112577D01*
X138339300Y-119729250D01*
X138341598Y-119758449D01*
X138327233Y-119826827D01*
X138278181Y-119876583D01*
X138210016Y-119891921D01*
X138198583Y-119890650D01*
X138096611Y-119874500D01*
X137923389Y-119874500D01*
X137883728Y-119880781D01*
X137752302Y-119901597D01*
X137587552Y-119955128D01*
X137433211Y-120033768D01*
X137377115Y-120074525D01*
X137293072Y-120135586D01*
X137293070Y-120135588D01*
X137293069Y-120135588D01*
X137170588Y-120258069D01*
X137170588Y-120258070D01*
X137170586Y-120258072D01*
X137126859Y-120318256D01*
X137068768Y-120398211D01*
X136990128Y-120552552D01*
X136936597Y-120717302D01*
X136909500Y-120888389D01*
X134180500Y-120888389D01*
X134153402Y-120717299D01*
X134099873Y-120552555D01*
X134021232Y-120398212D01*
X133919414Y-120258072D01*
X133796928Y-120135586D01*
X133656788Y-120033768D01*
X133502445Y-119955127D01*
X133337701Y-119901598D01*
X133337699Y-119901597D01*
X133337698Y-119901597D01*
X133206271Y-119880781D01*
X133166611Y-119874500D01*
X132993389Y-119874500D01*
X132953728Y-119880781D01*
X132822302Y-119901597D01*
X132657552Y-119955128D01*
X132503211Y-120033768D01*
X132447115Y-120074525D01*
X132363072Y-120135586D01*
X132363070Y-120135588D01*
X132363069Y-120135588D01*
X132240588Y-120258069D01*
X132240588Y-120258070D01*
X132240586Y-120258072D01*
X132196859Y-120318256D01*
X132138768Y-120398211D01*
X132060128Y-120552552D01*
X132006597Y-120717302D01*
X131979500Y-120888389D01*
X130250500Y-120888389D01*
X130250500Y-120827494D01*
X130211993Y-120535007D01*
X130135639Y-120250048D01*
X130022743Y-119977493D01*
X129972604Y-119890650D01*
X129875238Y-119722006D01*
X129695647Y-119487959D01*
X129695641Y-119487952D01*
X129487047Y-119279358D01*
X129487040Y-119279352D01*
X129252993Y-119099761D01*
X128997510Y-118952258D01*
X128997500Y-118952254D01*
X128724961Y-118839364D01*
X128724954Y-118839362D01*
X128724952Y-118839361D01*
X128439993Y-118763007D01*
X128391113Y-118756571D01*
X128147513Y-118724500D01*
X128147506Y-118724500D01*
X127852494Y-118724500D01*
X127852486Y-118724500D01*
X127574085Y-118761153D01*
X127560007Y-118763007D01*
X127385861Y-118809669D01*
X127275048Y-118839361D01*
X127275038Y-118839364D01*
X127002499Y-118952254D01*
X127002489Y-118952258D01*
X126747006Y-119099761D01*
X126512959Y-119279352D01*
X126512952Y-119279358D01*
X126304358Y-119487952D01*
X126304352Y-119487959D01*
X126124761Y-119722006D01*
X125977258Y-119977489D01*
X125977254Y-119977499D01*
X125864364Y-120250038D01*
X125864361Y-120250048D01*
X125788008Y-120535004D01*
X125788006Y-120535015D01*
X125749500Y-120827486D01*
X124010854Y-120827486D01*
X123993402Y-120717299D01*
X123939873Y-120552555D01*
X123861232Y-120398212D01*
X123759414Y-120258072D01*
X123706882Y-120205540D01*
X123673397Y-120144217D01*
X123678381Y-120074525D01*
X123720253Y-120018592D01*
X123785717Y-119994175D01*
X123813961Y-119995386D01*
X124064072Y-120035000D01*
X124315928Y-120035000D01*
X124564669Y-119995602D01*
X124804184Y-119917780D01*
X125028575Y-119803446D01*
X125028581Y-119803442D01*
X125130697Y-119729250D01*
X125130698Y-119729250D01*
X124514025Y-119112578D01*
X124545258Y-119099641D01*
X124668097Y-119017563D01*
X124772563Y-118913097D01*
X124854641Y-118790258D01*
X124867577Y-118759025D01*
X125484250Y-119375698D01*
X125484250Y-119375697D01*
X125558442Y-119273581D01*
X125558446Y-119273575D01*
X125672780Y-119049184D01*
X125750602Y-118809669D01*
X125790000Y-118560928D01*
X125790000Y-118309071D01*
X125750602Y-118060330D01*
X125672780Y-117820815D01*
X125558442Y-117596416D01*
X125484250Y-117494301D01*
X125484250Y-117494300D01*
X124867577Y-118110973D01*
X124854641Y-118079742D01*
X124772563Y-117956903D01*
X124668097Y-117852437D01*
X124545258Y-117770359D01*
X124514024Y-117757421D01*
X125130698Y-117140748D01*
X125028583Y-117066557D01*
X124804184Y-116952219D01*
X124564669Y-116874397D01*
X124315928Y-116835000D01*
X124064072Y-116835000D01*
X123815330Y-116874397D01*
X123575815Y-116952219D01*
X123351413Y-117066559D01*
X123249301Y-117140747D01*
X123249300Y-117140748D01*
X123865974Y-117757421D01*
X123834742Y-117770359D01*
X123711903Y-117852437D01*
X123607437Y-117956903D01*
X123525359Y-118079742D01*
X123512421Y-118110974D01*
X122895748Y-117494300D01*
X122895747Y-117494301D01*
X122821559Y-117596413D01*
X122707219Y-117820815D01*
X122629397Y-118060330D01*
X122590000Y-118309071D01*
X122590000Y-118560928D01*
X122629397Y-118809669D01*
X122707219Y-119049184D01*
X122821557Y-119273583D01*
X122895748Y-119375697D01*
X122895748Y-119375698D01*
X123512421Y-118759024D01*
X123525359Y-118790258D01*
X123607437Y-118913097D01*
X123711903Y-119017563D01*
X123834742Y-119099641D01*
X123865974Y-119112577D01*
X123249300Y-119729250D01*
X123251598Y-119758449D01*
X123237233Y-119826827D01*
X123188181Y-119876583D01*
X123120016Y-119891921D01*
X123108583Y-119890650D01*
X123006611Y-119874500D01*
X122833389Y-119874500D01*
X122793728Y-119880781D01*
X122662302Y-119901597D01*
X122497552Y-119955128D01*
X122343211Y-120033768D01*
X122287115Y-120074525D01*
X122203072Y-120135586D01*
X122203070Y-120135588D01*
X122203069Y-120135588D01*
X122080588Y-120258069D01*
X122080588Y-120258070D01*
X122080586Y-120258072D01*
X122036859Y-120318256D01*
X121978768Y-120398211D01*
X121900128Y-120552552D01*
X121846597Y-120717302D01*
X121819500Y-120888389D01*
X119090500Y-120888389D01*
X119063402Y-120717299D01*
X119009873Y-120552555D01*
X118931232Y-120398212D01*
X118829414Y-120258072D01*
X118706928Y-120135586D01*
X118566788Y-120033768D01*
X118412445Y-119955127D01*
X118247701Y-119901598D01*
X118247699Y-119901597D01*
X118247698Y-119901597D01*
X118116271Y-119880781D01*
X118076611Y-119874500D01*
X117903389Y-119874500D01*
X117863728Y-119880781D01*
X117732302Y-119901597D01*
X117567552Y-119955128D01*
X117413211Y-120033768D01*
X117357115Y-120074525D01*
X117273072Y-120135586D01*
X117273070Y-120135588D01*
X117273069Y-120135588D01*
X117150588Y-120258069D01*
X117150588Y-120258070D01*
X117150586Y-120258072D01*
X117106859Y-120318256D01*
X117048768Y-120398211D01*
X116970128Y-120552552D01*
X116916597Y-120717302D01*
X116889500Y-120888389D01*
X115160500Y-120888389D01*
X115160500Y-120827494D01*
X115121993Y-120535007D01*
X115045639Y-120250048D01*
X114932743Y-119977493D01*
X114882604Y-119890650D01*
X114785238Y-119722006D01*
X114605647Y-119487959D01*
X114605641Y-119487952D01*
X114397047Y-119279358D01*
X114397040Y-119279352D01*
X114162993Y-119099761D01*
X113907510Y-118952258D01*
X113907500Y-118952254D01*
X113634961Y-118839364D01*
X113634954Y-118839362D01*
X113634952Y-118839361D01*
X113349993Y-118763007D01*
X113301113Y-118756571D01*
X113057513Y-118724500D01*
X113057506Y-118724500D01*
X112762494Y-118724500D01*
X112762486Y-118724500D01*
X112484085Y-118761153D01*
X112470007Y-118763007D01*
X112295861Y-118809669D01*
X112185048Y-118839361D01*
X112185038Y-118839364D01*
X111912499Y-118952254D01*
X111912489Y-118952258D01*
X111657006Y-119099761D01*
X111422959Y-119279352D01*
X111422952Y-119279358D01*
X111214358Y-119487952D01*
X111214352Y-119487959D01*
X111034761Y-119722006D01*
X110887258Y-119977489D01*
X110887254Y-119977499D01*
X110774364Y-120250038D01*
X110774361Y-120250048D01*
X110698008Y-120535004D01*
X110698006Y-120535015D01*
X110659500Y-120827486D01*
X108920854Y-120827486D01*
X108903402Y-120717299D01*
X108849873Y-120552555D01*
X108771232Y-120398212D01*
X108669414Y-120258072D01*
X108616882Y-120205540D01*
X108583397Y-120144217D01*
X108588381Y-120074525D01*
X108630253Y-120018592D01*
X108695717Y-119994175D01*
X108723961Y-119995386D01*
X108974072Y-120035000D01*
X109225928Y-120035000D01*
X109474669Y-119995602D01*
X109714184Y-119917780D01*
X109938575Y-119803446D01*
X109938581Y-119803442D01*
X110040697Y-119729250D01*
X110040698Y-119729250D01*
X109424025Y-119112578D01*
X109455258Y-119099641D01*
X109578097Y-119017563D01*
X109682563Y-118913097D01*
X109764641Y-118790258D01*
X109777577Y-118759025D01*
X110394250Y-119375698D01*
X110394250Y-119375697D01*
X110468442Y-119273581D01*
X110468446Y-119273575D01*
X110582780Y-119049184D01*
X110660602Y-118809669D01*
X110700000Y-118560928D01*
X110700000Y-118309071D01*
X110660602Y-118060330D01*
X110582780Y-117820815D01*
X110468442Y-117596416D01*
X110394250Y-117494301D01*
X110394250Y-117494300D01*
X109777577Y-118110973D01*
X109764641Y-118079742D01*
X109682563Y-117956903D01*
X109578097Y-117852437D01*
X109455258Y-117770359D01*
X109424024Y-117757421D01*
X110040698Y-117140748D01*
X109938583Y-117066557D01*
X109714184Y-116952219D01*
X109474669Y-116874397D01*
X109225928Y-116835000D01*
X108974072Y-116835000D01*
X108725330Y-116874397D01*
X108485815Y-116952219D01*
X108261413Y-117066559D01*
X108159301Y-117140747D01*
X108159300Y-117140748D01*
X108775974Y-117757421D01*
X108744742Y-117770359D01*
X108621903Y-117852437D01*
X108517437Y-117956903D01*
X108435359Y-118079742D01*
X108422421Y-118110974D01*
X107805748Y-117494300D01*
X107805747Y-117494301D01*
X107731559Y-117596413D01*
X107617219Y-117820815D01*
X107539397Y-118060330D01*
X107500000Y-118309071D01*
X107500000Y-118560928D01*
X107539397Y-118809669D01*
X107617219Y-119049184D01*
X107731557Y-119273583D01*
X107805748Y-119375697D01*
X107805748Y-119375698D01*
X108422421Y-118759024D01*
X108435359Y-118790258D01*
X108517437Y-118913097D01*
X108621903Y-119017563D01*
X108744742Y-119099641D01*
X108775974Y-119112577D01*
X108159300Y-119729250D01*
X108161598Y-119758449D01*
X108147233Y-119826827D01*
X108098181Y-119876583D01*
X108030016Y-119891921D01*
X108018583Y-119890650D01*
X107916611Y-119874500D01*
X107743389Y-119874500D01*
X107703728Y-119880781D01*
X107572302Y-119901597D01*
X107407552Y-119955128D01*
X107253211Y-120033768D01*
X107197115Y-120074525D01*
X107113072Y-120135586D01*
X107113070Y-120135588D01*
X107113069Y-120135588D01*
X106990588Y-120258069D01*
X106990588Y-120258070D01*
X106990586Y-120258072D01*
X106946859Y-120318256D01*
X106888768Y-120398211D01*
X106810128Y-120552552D01*
X106756597Y-120717302D01*
X106729500Y-120888389D01*
X95448900Y-120888389D01*
X95448900Y-102361210D01*
X95468585Y-102294171D01*
X95521389Y-102248416D01*
X95590547Y-102238472D01*
X95654103Y-102267497D01*
X95660568Y-102273517D01*
X108442966Y-115056151D01*
X111068092Y-117681326D01*
X111068109Y-117681345D01*
X111073479Y-117686715D01*
X111073480Y-117686716D01*
X111185284Y-117798520D01*
X111185286Y-117798521D01*
X111292718Y-117860546D01*
X111292721Y-117860548D01*
X111321352Y-117877079D01*
X111322184Y-117877568D01*
X111322214Y-117877576D01*
X111322216Y-117877577D01*
X111393086Y-117896565D01*
X111393090Y-117896568D01*
X111393091Y-117896567D01*
X111474936Y-117918500D01*
X111474937Y-117918500D01*
X111633052Y-117918501D01*
X111633056Y-117918500D01*
X115962850Y-117918500D01*
X115963643Y-117918551D01*
X115971292Y-117918546D01*
X115971294Y-117918547D01*
X116051202Y-117918500D01*
X116129057Y-117918500D01*
X116129057Y-117918499D01*
X116129402Y-117918454D01*
X116129409Y-117918454D01*
X116129415Y-117918452D01*
X116129417Y-117918452D01*
X116205848Y-117897923D01*
X116205923Y-117897903D01*
X116281780Y-117877578D01*
X116281779Y-117877578D01*
X116281784Y-117877577D01*
X116281787Y-117877574D01*
X116281967Y-117877501D01*
X116282108Y-117877442D01*
X116282107Y-117877442D01*
X116282112Y-117877441D01*
X116349608Y-117838418D01*
X116349680Y-117838401D01*
X116349670Y-117838383D01*
X116418716Y-117798520D01*
X116418720Y-117798515D01*
X116418994Y-117798305D01*
X116418994Y-117798304D01*
X116418997Y-117798303D01*
X116473637Y-117743598D01*
X116530520Y-117686716D01*
X116530521Y-117686713D01*
X116535958Y-117681277D01*
X116536472Y-117680690D01*
X117200711Y-117015671D01*
X117327388Y-116888848D01*
X117327398Y-116888858D01*
X117327438Y-116888796D01*
X117383520Y-116832716D01*
X117383524Y-116832707D01*
X117383596Y-116832615D01*
X117383729Y-116832440D01*
X117383735Y-116832435D01*
X117422843Y-116764605D01*
X117422847Y-116764607D01*
X117422871Y-116764554D01*
X117462577Y-116695784D01*
X117462578Y-116695777D01*
X117462624Y-116695669D01*
X117462706Y-116695466D01*
X117462712Y-116695457D01*
X117482985Y-116619617D01*
X117483002Y-116619621D01*
X117483003Y-116619546D01*
X117503500Y-116543057D01*
X117503500Y-116543050D01*
X117503544Y-116542710D01*
X117503546Y-116542706D01*
X117503500Y-116463648D01*
X117503500Y-115769038D01*
X128939500Y-115769038D01*
X128939500Y-116020961D01*
X128978910Y-116269785D01*
X129056760Y-116509383D01*
X129112928Y-116619617D01*
X129151678Y-116695669D01*
X129171132Y-116733848D01*
X129319201Y-116937649D01*
X129319205Y-116937654D01*
X129497345Y-117115794D01*
X129497350Y-117115798D01*
X129675117Y-117244952D01*
X129701155Y-117263870D01*
X129844184Y-117336747D01*
X129925616Y-117378239D01*
X129925618Y-117378239D01*
X129925621Y-117378241D01*
X130165215Y-117456090D01*
X130414038Y-117495500D01*
X130414039Y-117495500D01*
X130665961Y-117495500D01*
X130665962Y-117495500D01*
X130914785Y-117456090D01*
X131154379Y-117378241D01*
X131378845Y-117263870D01*
X131582656Y-117115793D01*
X131760793Y-116937656D01*
X131908870Y-116733845D01*
X132023241Y-116509379D01*
X132101090Y-116269785D01*
X132140500Y-116020962D01*
X132140500Y-115769038D01*
X144029500Y-115769038D01*
X144029500Y-116020961D01*
X144068910Y-116269785D01*
X144146760Y-116509383D01*
X144202928Y-116619617D01*
X144241678Y-116695669D01*
X144261132Y-116733848D01*
X144409201Y-116937649D01*
X144409205Y-116937654D01*
X144587345Y-117115794D01*
X144587350Y-117115798D01*
X144765117Y-117244952D01*
X144791155Y-117263870D01*
X144934184Y-117336747D01*
X145015616Y-117378239D01*
X145015618Y-117378239D01*
X145015621Y-117378241D01*
X145255215Y-117456090D01*
X145504038Y-117495500D01*
X145504039Y-117495500D01*
X145755961Y-117495500D01*
X145755962Y-117495500D01*
X146004785Y-117456090D01*
X146244379Y-117378241D01*
X146468845Y-117263870D01*
X146672656Y-117115793D01*
X146850793Y-116937656D01*
X146998870Y-116733845D01*
X147113241Y-116509379D01*
X147191090Y-116269785D01*
X147230500Y-116020962D01*
X147230500Y-115769038D01*
X147191090Y-115520215D01*
X147113241Y-115280621D01*
X147113239Y-115280618D01*
X147113239Y-115280616D01*
X147071747Y-115199184D01*
X146998870Y-115056155D01*
X146979952Y-115030117D01*
X146850798Y-114852350D01*
X146850794Y-114852345D01*
X146672654Y-114674205D01*
X146672649Y-114674201D01*
X146468848Y-114526132D01*
X146468847Y-114526131D01*
X146468845Y-114526130D01*
X146398747Y-114490413D01*
X146244383Y-114411760D01*
X146004785Y-114333910D01*
X145936780Y-114323139D01*
X145755962Y-114294500D01*
X145504038Y-114294500D01*
X145379626Y-114314205D01*
X145255214Y-114333910D01*
X145015616Y-114411760D01*
X144791151Y-114526132D01*
X144587350Y-114674201D01*
X144587345Y-114674205D01*
X144409205Y-114852345D01*
X144409201Y-114852350D01*
X144261132Y-115056151D01*
X144146760Y-115280616D01*
X144068910Y-115520214D01*
X144029500Y-115769038D01*
X132140500Y-115769038D01*
X132101090Y-115520215D01*
X132023241Y-115280621D01*
X132023239Y-115280618D01*
X132023239Y-115280616D01*
X131981747Y-115199184D01*
X131908870Y-115056155D01*
X131889952Y-115030117D01*
X131760798Y-114852350D01*
X131760794Y-114852345D01*
X131582654Y-114674205D01*
X131582649Y-114674201D01*
X131378848Y-114526132D01*
X131378847Y-114526131D01*
X131378845Y-114526130D01*
X131308747Y-114490413D01*
X131154383Y-114411760D01*
X130914785Y-114333910D01*
X130846780Y-114323139D01*
X130665962Y-114294500D01*
X130414038Y-114294500D01*
X130289626Y-114314205D01*
X130165214Y-114333910D01*
X129925616Y-114411760D01*
X129701151Y-114526132D01*
X129497350Y-114674201D01*
X129497345Y-114674205D01*
X129319205Y-114852345D01*
X129319201Y-114852350D01*
X129171132Y-115056151D01*
X129056760Y-115280616D01*
X128978910Y-115520214D01*
X128939500Y-115769038D01*
X117503500Y-115769038D01*
X117503500Y-114728943D01*
X117462577Y-114576216D01*
X117433660Y-114526130D01*
X117383524Y-114439290D01*
X117383521Y-114439286D01*
X117383520Y-114439284D01*
X117271716Y-114327480D01*
X117271715Y-114327479D01*
X117267385Y-114323149D01*
X117267374Y-114323139D01*
X116821819Y-113877584D01*
X116788334Y-113816261D01*
X116785500Y-113789903D01*
X116785500Y-110388024D01*
X116805185Y-110320985D01*
X116857989Y-110275230D01*
X116927147Y-110265286D01*
X116990703Y-110294311D01*
X117012602Y-110319133D01*
X117088210Y-110432288D01*
X117088213Y-110432292D01*
X117199707Y-110543786D01*
X117199711Y-110543789D01*
X117330814Y-110631390D01*
X117330827Y-110631397D01*
X117447853Y-110679870D01*
X117476503Y-110691737D01*
X117631153Y-110722499D01*
X117631156Y-110722500D01*
X117631158Y-110722500D01*
X117788844Y-110722500D01*
X117863216Y-110707706D01*
X117894520Y-110701479D01*
X117964112Y-110707706D01*
X118019289Y-110750569D01*
X118021816Y-110754208D01*
X118025211Y-110759290D01*
X118136707Y-110870786D01*
X118136711Y-110870789D01*
X118267814Y-110958390D01*
X118267827Y-110958397D01*
X118413498Y-111018735D01*
X118413503Y-111018737D01*
X118568153Y-111049499D01*
X118568156Y-111049500D01*
X118568158Y-111049500D01*
X118725844Y-111049500D01*
X118725845Y-111049499D01*
X118880497Y-111018737D01*
X119026179Y-110958394D01*
X119157289Y-110870789D01*
X119268789Y-110759289D01*
X119356394Y-110628179D01*
X119416737Y-110482497D01*
X119447500Y-110327842D01*
X119447638Y-110327150D01*
X119480023Y-110265239D01*
X119481519Y-110263714D01*
X120813506Y-108931727D01*
X120813511Y-108931724D01*
X120823714Y-108921520D01*
X120823716Y-108921520D01*
X120935520Y-108809716D01*
X120987028Y-108720500D01*
X121014577Y-108672785D01*
X121055500Y-108520057D01*
X121055500Y-108361943D01*
X121055500Y-105308097D01*
X121075185Y-105241058D01*
X121091819Y-105220416D01*
X121680229Y-104632006D01*
X122477284Y-103834951D01*
X122538604Y-103801468D01*
X122608296Y-103806452D01*
X122664229Y-103848324D01*
X122682893Y-103884316D01*
X122707219Y-103959183D01*
X122821557Y-104183583D01*
X122895748Y-104285697D01*
X122895748Y-104285698D01*
X123512421Y-103669024D01*
X123525359Y-103700258D01*
X123607437Y-103823097D01*
X123711903Y-103927563D01*
X123834742Y-104009641D01*
X123865974Y-104022577D01*
X123249300Y-104639250D01*
X123251598Y-104668449D01*
X123237233Y-104736827D01*
X123188181Y-104786583D01*
X123120016Y-104801921D01*
X123108583Y-104800650D01*
X123006611Y-104784500D01*
X122833389Y-104784500D01*
X122793728Y-104790781D01*
X122662302Y-104811597D01*
X122497552Y-104865128D01*
X122343211Y-104943768D01*
X122287115Y-104984525D01*
X122203072Y-105045586D01*
X122203070Y-105045588D01*
X122203069Y-105045588D01*
X122080588Y-105168069D01*
X122080588Y-105168070D01*
X122080586Y-105168072D01*
X122042556Y-105220416D01*
X121978768Y-105308211D01*
X121900128Y-105462552D01*
X121846597Y-105627302D01*
X121819500Y-105798389D01*
X121819500Y-105971611D01*
X121846598Y-106142701D01*
X121900127Y-106307445D01*
X121978768Y-106461788D01*
X122080586Y-106601928D01*
X122203072Y-106724414D01*
X122343212Y-106826232D01*
X122497555Y-106904873D01*
X122662299Y-106958402D01*
X122833389Y-106985500D01*
X122833390Y-106985500D01*
X123006610Y-106985500D01*
X123006611Y-106985500D01*
X123177701Y-106958402D01*
X123342445Y-106904873D01*
X123496788Y-106826232D01*
X123636928Y-106724414D01*
X123759414Y-106601928D01*
X123861232Y-106461788D01*
X123939873Y-106307445D01*
X123993402Y-106142701D01*
X124020500Y-105971611D01*
X124020500Y-105798389D01*
X124010854Y-105737486D01*
X125749500Y-105737486D01*
X125749500Y-106032513D01*
X125777794Y-106247422D01*
X125788007Y-106324993D01*
X125862212Y-106601930D01*
X125864361Y-106609951D01*
X125864364Y-106609961D01*
X125977254Y-106882500D01*
X125977258Y-106882510D01*
X126124761Y-107137993D01*
X126304352Y-107372040D01*
X126304358Y-107372047D01*
X126512952Y-107580641D01*
X126512959Y-107580647D01*
X126747006Y-107760238D01*
X127002489Y-107907741D01*
X127002490Y-107907741D01*
X127002493Y-107907743D01*
X127275048Y-108020639D01*
X127560007Y-108096993D01*
X127852494Y-108135500D01*
X127852501Y-108135500D01*
X128147499Y-108135500D01*
X128147506Y-108135500D01*
X128439993Y-108096993D01*
X128724952Y-108020639D01*
X128997507Y-107907743D01*
X129252994Y-107760238D01*
X129487042Y-107580646D01*
X129695646Y-107372042D01*
X129875238Y-107137994D01*
X130022743Y-106882507D01*
X130135639Y-106609952D01*
X130211993Y-106324993D01*
X130250500Y-106032506D01*
X130250500Y-105798389D01*
X131979500Y-105798389D01*
X131979500Y-105971611D01*
X132006598Y-106142701D01*
X132060127Y-106307445D01*
X132138768Y-106461788D01*
X132240586Y-106601928D01*
X132363072Y-106724414D01*
X132503212Y-106826232D01*
X132657555Y-106904873D01*
X132822299Y-106958402D01*
X132993389Y-106985500D01*
X132993390Y-106985500D01*
X133166610Y-106985500D01*
X133166611Y-106985500D01*
X133337701Y-106958402D01*
X133502445Y-106904873D01*
X133656788Y-106826232D01*
X133796928Y-106724414D01*
X133919414Y-106601928D01*
X134021232Y-106461788D01*
X134099873Y-106307445D01*
X134153402Y-106142701D01*
X134180500Y-105971611D01*
X134180500Y-105798389D01*
X136909500Y-105798389D01*
X136909500Y-105971611D01*
X136936598Y-106142701D01*
X136990127Y-106307445D01*
X137068768Y-106461788D01*
X137170586Y-106601928D01*
X137293072Y-106724414D01*
X137433212Y-106826232D01*
X137587555Y-106904873D01*
X137752299Y-106958402D01*
X137923389Y-106985500D01*
X137923390Y-106985500D01*
X138096610Y-106985500D01*
X138096611Y-106985500D01*
X138267701Y-106958402D01*
X138432445Y-106904873D01*
X138586788Y-106826232D01*
X138726928Y-106724414D01*
X138849414Y-106601928D01*
X138951232Y-106461788D01*
X139029873Y-106307445D01*
X139083402Y-106142701D01*
X139110500Y-105971611D01*
X139110500Y-105798389D01*
X139100854Y-105737486D01*
X140839500Y-105737486D01*
X140839500Y-106032513D01*
X140867794Y-106247422D01*
X140878007Y-106324993D01*
X140952212Y-106601930D01*
X140954361Y-106609951D01*
X140954364Y-106609961D01*
X141067254Y-106882500D01*
X141067258Y-106882510D01*
X141214761Y-107137993D01*
X141394352Y-107372040D01*
X141394358Y-107372047D01*
X141602952Y-107580641D01*
X141602959Y-107580647D01*
X141837006Y-107760238D01*
X142092489Y-107907741D01*
X142092490Y-107907741D01*
X142092493Y-107907743D01*
X142365048Y-108020639D01*
X142650007Y-108096993D01*
X142942494Y-108135500D01*
X142942501Y-108135500D01*
X143237499Y-108135500D01*
X143237506Y-108135500D01*
X143529993Y-108096993D01*
X143814952Y-108020639D01*
X144087507Y-107907743D01*
X144342994Y-107760238D01*
X144577042Y-107580646D01*
X144785646Y-107372042D01*
X144965238Y-107137994D01*
X145112743Y-106882507D01*
X145225639Y-106609952D01*
X145301993Y-106324993D01*
X145340500Y-106032506D01*
X145340500Y-105798389D01*
X147069500Y-105798389D01*
X147069500Y-105971611D01*
X147096598Y-106142701D01*
X147150127Y-106307445D01*
X147228768Y-106461788D01*
X147330586Y-106601928D01*
X147453072Y-106724414D01*
X147593212Y-106826232D01*
X147747555Y-106904873D01*
X147912299Y-106958402D01*
X148083389Y-106985500D01*
X148083390Y-106985500D01*
X148256610Y-106985500D01*
X148256611Y-106985500D01*
X148427701Y-106958402D01*
X148592445Y-106904873D01*
X148746788Y-106826232D01*
X148886928Y-106724414D01*
X149009414Y-106601928D01*
X149111232Y-106461788D01*
X149189873Y-106307445D01*
X149243402Y-106142701D01*
X149270500Y-105971611D01*
X149270500Y-105798389D01*
X149243402Y-105627299D01*
X149189873Y-105462555D01*
X149111232Y-105308212D01*
X149009414Y-105168072D01*
X148886928Y-105045586D01*
X148746788Y-104943768D01*
X148592445Y-104865127D01*
X148427701Y-104811598D01*
X148427699Y-104811597D01*
X148427698Y-104811597D01*
X148296271Y-104790781D01*
X148256611Y-104784500D01*
X148083389Y-104784500D01*
X148043728Y-104790781D01*
X147912302Y-104811597D01*
X147747552Y-104865128D01*
X147593211Y-104943768D01*
X147537115Y-104984525D01*
X147453072Y-105045586D01*
X147453070Y-105045588D01*
X147453069Y-105045588D01*
X147330588Y-105168069D01*
X147330588Y-105168070D01*
X147330586Y-105168072D01*
X147292556Y-105220416D01*
X147228768Y-105308211D01*
X147150128Y-105462552D01*
X147096597Y-105627302D01*
X147069500Y-105798389D01*
X145340500Y-105798389D01*
X145340500Y-105737494D01*
X145301993Y-105445007D01*
X145225639Y-105160048D01*
X145112743Y-104887493D01*
X145062604Y-104800650D01*
X144965238Y-104632006D01*
X144785647Y-104397959D01*
X144785641Y-104397952D01*
X144577047Y-104189358D01*
X144577040Y-104189352D01*
X144342993Y-104009761D01*
X144087510Y-103862258D01*
X144087500Y-103862254D01*
X143814961Y-103749364D01*
X143814954Y-103749362D01*
X143814952Y-103749361D01*
X143529993Y-103673007D01*
X143481113Y-103666571D01*
X143237513Y-103634500D01*
X143237506Y-103634500D01*
X142942494Y-103634500D01*
X142942486Y-103634500D01*
X142664085Y-103671153D01*
X142650007Y-103673007D01*
X142475861Y-103719669D01*
X142365048Y-103749361D01*
X142365038Y-103749364D01*
X142092499Y-103862254D01*
X142092489Y-103862258D01*
X141837006Y-104009761D01*
X141602959Y-104189352D01*
X141602952Y-104189358D01*
X141394358Y-104397952D01*
X141394352Y-104397959D01*
X141214761Y-104632006D01*
X141067258Y-104887489D01*
X141067254Y-104887499D01*
X140954364Y-105160038D01*
X140954361Y-105160048D01*
X140878008Y-105445004D01*
X140878006Y-105445015D01*
X140839500Y-105737486D01*
X139100854Y-105737486D01*
X139083402Y-105627299D01*
X139029873Y-105462555D01*
X138951232Y-105308212D01*
X138849414Y-105168072D01*
X138796882Y-105115540D01*
X138763397Y-105054217D01*
X138768381Y-104984525D01*
X138810253Y-104928592D01*
X138875717Y-104904175D01*
X138903961Y-104905386D01*
X139154072Y-104945000D01*
X139405928Y-104945000D01*
X139654669Y-104905602D01*
X139894184Y-104827780D01*
X140118575Y-104713446D01*
X140118581Y-104713442D01*
X140220697Y-104639250D01*
X140220698Y-104639250D01*
X139604025Y-104022578D01*
X139635258Y-104009641D01*
X139758097Y-103927563D01*
X139862563Y-103823097D01*
X139944641Y-103700258D01*
X139957578Y-103669025D01*
X140574250Y-104285698D01*
X140574250Y-104285697D01*
X140648442Y-104183581D01*
X140648446Y-104183575D01*
X140762780Y-103959184D01*
X140840602Y-103719669D01*
X140880000Y-103470928D01*
X140880000Y-103219071D01*
X140840602Y-102970330D01*
X140762780Y-102730815D01*
X140648442Y-102506416D01*
X140574250Y-102404301D01*
X140574250Y-102404300D01*
X139957577Y-103020973D01*
X139944641Y-102989742D01*
X139862563Y-102866903D01*
X139758097Y-102762437D01*
X139635258Y-102680359D01*
X139604024Y-102667421D01*
X140220698Y-102050748D01*
X140118583Y-101976557D01*
X139894184Y-101862219D01*
X139654669Y-101784397D01*
X139405928Y-101745000D01*
X139154072Y-101745000D01*
X138905330Y-101784397D01*
X138665815Y-101862219D01*
X138441413Y-101976559D01*
X138339301Y-102050747D01*
X138339300Y-102050748D01*
X138955974Y-102667421D01*
X138924742Y-102680359D01*
X138801903Y-102762437D01*
X138697437Y-102866903D01*
X138615359Y-102989742D01*
X138602421Y-103020974D01*
X137985748Y-102404300D01*
X137985747Y-102404301D01*
X137911559Y-102506413D01*
X137797219Y-102730815D01*
X137719397Y-102970330D01*
X137680000Y-103219071D01*
X137680000Y-103470928D01*
X137719397Y-103719669D01*
X137797219Y-103959184D01*
X137911557Y-104183583D01*
X137985748Y-104285697D01*
X137985748Y-104285698D01*
X138602421Y-103669024D01*
X138615359Y-103700258D01*
X138697437Y-103823097D01*
X138801903Y-103927563D01*
X138924742Y-104009641D01*
X138955974Y-104022577D01*
X138339300Y-104639250D01*
X138341598Y-104668449D01*
X138327233Y-104736827D01*
X138278181Y-104786583D01*
X138210016Y-104801921D01*
X138198583Y-104800650D01*
X138096611Y-104784500D01*
X137923389Y-104784500D01*
X137883728Y-104790781D01*
X137752302Y-104811597D01*
X137587552Y-104865128D01*
X137433211Y-104943768D01*
X137377115Y-104984525D01*
X137293072Y-105045586D01*
X137293070Y-105045588D01*
X137293069Y-105045588D01*
X137170588Y-105168069D01*
X137170588Y-105168070D01*
X137170586Y-105168072D01*
X137132556Y-105220416D01*
X137068768Y-105308211D01*
X136990128Y-105462552D01*
X136936597Y-105627302D01*
X136909500Y-105798389D01*
X134180500Y-105798389D01*
X134153402Y-105627299D01*
X134099873Y-105462555D01*
X134021232Y-105308212D01*
X133919414Y-105168072D01*
X133796928Y-105045586D01*
X133656788Y-104943768D01*
X133502445Y-104865127D01*
X133337701Y-104811598D01*
X133337699Y-104811597D01*
X133337698Y-104811597D01*
X133206271Y-104790781D01*
X133166611Y-104784500D01*
X132993389Y-104784500D01*
X132953728Y-104790781D01*
X132822302Y-104811597D01*
X132657552Y-104865128D01*
X132503211Y-104943768D01*
X132447115Y-104984525D01*
X132363072Y-105045586D01*
X132363070Y-105045588D01*
X132363069Y-105045588D01*
X132240588Y-105168069D01*
X132240588Y-105168070D01*
X132240586Y-105168072D01*
X132202556Y-105220416D01*
X132138768Y-105308211D01*
X132060128Y-105462552D01*
X132006597Y-105627302D01*
X131979500Y-105798389D01*
X130250500Y-105798389D01*
X130250500Y-105737494D01*
X130211993Y-105445007D01*
X130135639Y-105160048D01*
X130022743Y-104887493D01*
X129972604Y-104800650D01*
X129875238Y-104632006D01*
X129695647Y-104397959D01*
X129695641Y-104397952D01*
X129487047Y-104189358D01*
X129487040Y-104189352D01*
X129252993Y-104009761D01*
X128997510Y-103862258D01*
X128997500Y-103862254D01*
X128724961Y-103749364D01*
X128724954Y-103749362D01*
X128724952Y-103749361D01*
X128439993Y-103673007D01*
X128391113Y-103666571D01*
X128147513Y-103634500D01*
X128147506Y-103634500D01*
X127852494Y-103634500D01*
X127852486Y-103634500D01*
X127574085Y-103671153D01*
X127560007Y-103673007D01*
X127385861Y-103719669D01*
X127275048Y-103749361D01*
X127275038Y-103749364D01*
X127002499Y-103862254D01*
X127002489Y-103862258D01*
X126747006Y-104009761D01*
X126512959Y-104189352D01*
X126512952Y-104189358D01*
X126304358Y-104397952D01*
X126304352Y-104397959D01*
X126124761Y-104632006D01*
X125977258Y-104887489D01*
X125977254Y-104887499D01*
X125864364Y-105160038D01*
X125864361Y-105160048D01*
X125788008Y-105445004D01*
X125788006Y-105445015D01*
X125749500Y-105737486D01*
X124010854Y-105737486D01*
X123993402Y-105627299D01*
X123939873Y-105462555D01*
X123861232Y-105308212D01*
X123759414Y-105168072D01*
X123706882Y-105115540D01*
X123673397Y-105054217D01*
X123678381Y-104984525D01*
X123720253Y-104928592D01*
X123785717Y-104904175D01*
X123813961Y-104905386D01*
X124064072Y-104945000D01*
X124315928Y-104945000D01*
X124564669Y-104905602D01*
X124804184Y-104827780D01*
X125028575Y-104713446D01*
X125028581Y-104713442D01*
X125130697Y-104639250D01*
X125130698Y-104639250D01*
X124514025Y-104022578D01*
X124545258Y-104009641D01*
X124668097Y-103927563D01*
X124772563Y-103823097D01*
X124854641Y-103700258D01*
X124867577Y-103669025D01*
X125484250Y-104285698D01*
X125484250Y-104285697D01*
X125558442Y-104183581D01*
X125558446Y-104183575D01*
X125672780Y-103959184D01*
X125750602Y-103719669D01*
X125790000Y-103470928D01*
X125790000Y-103219071D01*
X125750602Y-102970330D01*
X125672780Y-102730815D01*
X125558442Y-102506416D01*
X125484250Y-102404301D01*
X125484250Y-102404300D01*
X124867577Y-103020973D01*
X124854641Y-102989742D01*
X124772563Y-102866903D01*
X124668097Y-102762437D01*
X124545258Y-102680359D01*
X124514024Y-102667421D01*
X125130698Y-102050748D01*
X125028583Y-101976557D01*
X124804183Y-101862219D01*
X124729316Y-101837893D01*
X124671640Y-101798455D01*
X124644442Y-101734097D01*
X124656357Y-101665250D01*
X124679945Y-101632290D01*
X124870419Y-101441816D01*
X124931741Y-101408334D01*
X124958098Y-101405500D01*
X128973700Y-101405500D01*
X129040739Y-101425185D01*
X129084184Y-101473204D01*
X129165237Y-101632280D01*
X129171132Y-101643848D01*
X129319201Y-101847649D01*
X129319205Y-101847654D01*
X129497345Y-102025794D01*
X129497350Y-102025798D01*
X129675117Y-102154952D01*
X129701155Y-102173870D01*
X129827944Y-102238472D01*
X129925616Y-102288239D01*
X129925618Y-102288239D01*
X129925621Y-102288241D01*
X130165215Y-102366090D01*
X130414038Y-102405500D01*
X130414039Y-102405500D01*
X130665961Y-102405500D01*
X130665962Y-102405500D01*
X130914785Y-102366090D01*
X131154379Y-102288241D01*
X131378845Y-102173870D01*
X131582656Y-102025793D01*
X131760793Y-101847656D01*
X131908870Y-101643845D01*
X132023241Y-101419379D01*
X132101090Y-101179785D01*
X132140500Y-100930962D01*
X132140500Y-100679038D01*
X144029500Y-100679038D01*
X144029500Y-100930962D01*
X144060071Y-101123980D01*
X144068910Y-101179785D01*
X144146760Y-101419383D01*
X144225413Y-101573747D01*
X144255237Y-101632280D01*
X144261132Y-101643848D01*
X144409201Y-101847649D01*
X144409205Y-101847654D01*
X144587345Y-102025794D01*
X144587350Y-102025798D01*
X144765117Y-102154952D01*
X144791155Y-102173870D01*
X144917944Y-102238472D01*
X145015616Y-102288239D01*
X145015618Y-102288239D01*
X145015621Y-102288241D01*
X145255215Y-102366090D01*
X145504038Y-102405500D01*
X145504039Y-102405500D01*
X145755961Y-102405500D01*
X145755962Y-102405500D01*
X146004785Y-102366090D01*
X146244379Y-102288241D01*
X146468845Y-102173870D01*
X146672656Y-102025793D01*
X146850793Y-101847656D01*
X146998870Y-101643845D01*
X147113241Y-101419379D01*
X147191090Y-101179785D01*
X147230500Y-100930962D01*
X147230500Y-100679038D01*
X147191090Y-100430215D01*
X147113241Y-100190621D01*
X147113239Y-100190618D01*
X147113239Y-100190616D01*
X147018304Y-100004297D01*
X146998870Y-99966155D01*
X146902596Y-99833645D01*
X146850798Y-99762350D01*
X146850794Y-99762345D01*
X146672654Y-99584205D01*
X146672649Y-99584201D01*
X146468848Y-99436132D01*
X146468847Y-99436131D01*
X146468845Y-99436130D01*
X146398747Y-99400413D01*
X146244383Y-99321760D01*
X146004785Y-99243910D01*
X145875562Y-99223443D01*
X145755962Y-99204500D01*
X145504038Y-99204500D01*
X145421871Y-99217514D01*
X145255213Y-99243910D01*
X145255210Y-99243910D01*
X145203697Y-99260648D01*
X145203593Y-99260682D01*
X145015621Y-99321759D01*
X145002423Y-99328483D01*
X145002413Y-99328487D01*
X144791151Y-99436132D01*
X144587350Y-99584201D01*
X144587345Y-99584205D01*
X144409205Y-99762345D01*
X144409201Y-99762350D01*
X144261132Y-99966151D01*
X144146760Y-100190616D01*
X144068910Y-100430214D01*
X144068910Y-100430215D01*
X144029500Y-100679038D01*
X132140500Y-100679038D01*
X132101090Y-100430215D01*
X132023241Y-100190621D01*
X132023239Y-100190618D01*
X132023239Y-100190616D01*
X131928304Y-100004297D01*
X131908870Y-99966155D01*
X131812596Y-99833645D01*
X131760798Y-99762350D01*
X131760794Y-99762345D01*
X131582654Y-99584205D01*
X131582649Y-99584201D01*
X131378848Y-99436132D01*
X131378847Y-99436131D01*
X131378845Y-99436130D01*
X131308747Y-99400413D01*
X131154383Y-99321760D01*
X130914785Y-99243910D01*
X130785562Y-99223443D01*
X130665962Y-99204500D01*
X130414038Y-99204500D01*
X130327357Y-99218229D01*
X130165214Y-99243910D01*
X129925616Y-99321760D01*
X129701151Y-99436132D01*
X129497350Y-99584201D01*
X129497345Y-99584205D01*
X129319205Y-99762345D01*
X129319201Y-99762350D01*
X129171132Y-99966151D01*
X129084185Y-100136795D01*
X129036211Y-100187591D01*
X128973700Y-100204500D01*
X124744670Y-100204500D01*
X124744654Y-100204499D01*
X124737058Y-100204499D01*
X124578943Y-100204499D01*
X124502579Y-100224961D01*
X124426214Y-100245423D01*
X124426209Y-100245426D01*
X124289290Y-100324475D01*
X124289282Y-100324481D01*
X119974481Y-104639282D01*
X119974479Y-104639285D01*
X119924361Y-104726094D01*
X119924359Y-104726096D01*
X119895425Y-104776209D01*
X119895424Y-104776210D01*
X119888535Y-104801921D01*
X119854499Y-104928943D01*
X119854499Y-104928945D01*
X119854499Y-105097046D01*
X119854500Y-105097059D01*
X119854500Y-108140903D01*
X119834815Y-108207942D01*
X119818181Y-108228584D01*
X118632339Y-109414425D01*
X118571016Y-109447910D01*
X118568850Y-109448361D01*
X118462479Y-109469520D01*
X118392887Y-109463293D01*
X118337710Y-109420430D01*
X118335182Y-109416789D01*
X118331789Y-109411711D01*
X118331786Y-109411707D01*
X118220292Y-109300213D01*
X118220288Y-109300210D01*
X118089185Y-109212609D01*
X118089172Y-109212602D01*
X117943501Y-109152264D01*
X117943489Y-109152261D01*
X117787694Y-109121271D01*
X117725783Y-109088886D01*
X117724278Y-109087408D01*
X117357039Y-108720496D01*
X117224858Y-108588432D01*
X117191345Y-108527124D01*
X117188500Y-108500712D01*
X117188500Y-106906332D01*
X117208185Y-106839293D01*
X117260989Y-106793538D01*
X117330147Y-106783594D01*
X117385386Y-106806015D01*
X117413212Y-106826232D01*
X117567555Y-106904873D01*
X117732299Y-106958402D01*
X117903389Y-106985500D01*
X117903390Y-106985500D01*
X118076610Y-106985500D01*
X118076611Y-106985500D01*
X118247701Y-106958402D01*
X118412445Y-106904873D01*
X118566788Y-106826232D01*
X118706928Y-106724414D01*
X118829414Y-106601928D01*
X118931232Y-106461788D01*
X119009873Y-106307445D01*
X119063402Y-106142701D01*
X119090500Y-105971611D01*
X119090500Y-105798389D01*
X119063402Y-105627299D01*
X119009873Y-105462555D01*
X118931232Y-105308212D01*
X118829414Y-105168072D01*
X118706928Y-105045586D01*
X118566788Y-104943768D01*
X118412445Y-104865127D01*
X118247701Y-104811598D01*
X118247699Y-104811597D01*
X118247698Y-104811597D01*
X118116271Y-104790781D01*
X118076611Y-104784500D01*
X117903389Y-104784500D01*
X117863728Y-104790781D01*
X117732302Y-104811597D01*
X117567552Y-104865128D01*
X117413211Y-104943768D01*
X117385386Y-104963985D01*
X117319580Y-104987465D01*
X117251526Y-104971640D01*
X117202831Y-104921534D01*
X117188500Y-104863667D01*
X117188500Y-101965082D01*
X117208185Y-101898043D01*
X117224816Y-101877404D01*
X117264325Y-101837893D01*
X121370267Y-97731668D01*
X121425206Y-97676729D01*
X121428493Y-97673685D01*
X121428521Y-97673650D01*
X121430361Y-97670231D01*
X121470611Y-97600509D01*
X121470897Y-97600014D01*
X121507191Y-97537152D01*
X121507587Y-97536479D01*
X121507755Y-97535828D01*
X121531066Y-97448818D01*
X121548500Y-97383757D01*
X121548500Y-97383752D01*
X121548502Y-97383745D01*
X121548502Y-97383740D01*
X121548503Y-97383737D01*
X121548500Y-97288868D01*
X121548500Y-89809435D01*
X121568185Y-89742396D01*
X121584824Y-89721749D01*
X122498017Y-88808725D01*
X122559340Y-88775247D01*
X122629031Y-88780238D01*
X122684961Y-88822115D01*
X122703617Y-88858096D01*
X122707220Y-88869187D01*
X122821557Y-89093583D01*
X122895748Y-89195697D01*
X122895748Y-89195698D01*
X123512421Y-88579024D01*
X123525359Y-88610258D01*
X123607437Y-88733097D01*
X123711903Y-88837563D01*
X123834742Y-88919641D01*
X123865974Y-88932577D01*
X123249300Y-89549250D01*
X123251598Y-89578449D01*
X123237233Y-89646827D01*
X123188181Y-89696583D01*
X123120016Y-89711921D01*
X123108583Y-89710650D01*
X123006611Y-89694500D01*
X122833389Y-89694500D01*
X122793728Y-89700781D01*
X122662302Y-89721597D01*
X122497552Y-89775128D01*
X122343211Y-89853768D01*
X122287115Y-89894525D01*
X122203072Y-89955586D01*
X122203070Y-89955588D01*
X122203069Y-89955588D01*
X122080588Y-90078069D01*
X122080588Y-90078070D01*
X122080586Y-90078072D01*
X122036859Y-90138256D01*
X121978768Y-90218211D01*
X121900128Y-90372552D01*
X121846597Y-90537302D01*
X121819500Y-90708389D01*
X121819500Y-90881611D01*
X121846598Y-91052701D01*
X121900127Y-91217445D01*
X121978768Y-91371788D01*
X122080586Y-91511928D01*
X122203072Y-91634414D01*
X122343212Y-91736232D01*
X122497555Y-91814873D01*
X122662299Y-91868402D01*
X122833389Y-91895500D01*
X122833390Y-91895500D01*
X123006610Y-91895500D01*
X123006611Y-91895500D01*
X123177701Y-91868402D01*
X123342445Y-91814873D01*
X123496788Y-91736232D01*
X123636928Y-91634414D01*
X123759414Y-91511928D01*
X123861232Y-91371788D01*
X123939873Y-91217445D01*
X123993402Y-91052701D01*
X124020500Y-90881611D01*
X124020500Y-90708389D01*
X123993402Y-90537299D01*
X123939873Y-90372555D01*
X123861232Y-90218212D01*
X123759414Y-90078072D01*
X123706882Y-90025540D01*
X123673397Y-89964217D01*
X123678381Y-89894525D01*
X123720253Y-89838592D01*
X123785717Y-89814175D01*
X123813961Y-89815386D01*
X124064072Y-89855000D01*
X124315928Y-89855000D01*
X124564669Y-89815602D01*
X124804184Y-89737780D01*
X125028575Y-89623446D01*
X125028581Y-89623442D01*
X125130697Y-89549250D01*
X125130698Y-89549250D01*
X124514025Y-88932578D01*
X124545258Y-88919641D01*
X124668097Y-88837563D01*
X124772563Y-88733097D01*
X124854641Y-88610258D01*
X124867577Y-88579025D01*
X125484250Y-89195698D01*
X125484250Y-89195697D01*
X125558442Y-89093581D01*
X125558446Y-89093575D01*
X125672780Y-88869184D01*
X125750602Y-88629669D01*
X125790000Y-88380928D01*
X125790000Y-88129071D01*
X125750602Y-87880330D01*
X125672780Y-87640815D01*
X125558442Y-87416416D01*
X125484250Y-87314301D01*
X125484250Y-87314300D01*
X124867577Y-87930973D01*
X124854641Y-87899742D01*
X124772563Y-87776903D01*
X124668097Y-87672437D01*
X124545258Y-87590359D01*
X124514024Y-87577421D01*
X125130698Y-86960748D01*
X125028583Y-86886557D01*
X124804189Y-86772222D01*
X124793411Y-86768720D01*
X124735735Y-86729283D01*
X124708537Y-86664924D01*
X124720452Y-86596078D01*
X124744050Y-86563106D01*
X124955387Y-86351808D01*
X125016711Y-86318331D01*
X125043058Y-86315500D01*
X128973700Y-86315500D01*
X129040739Y-86335185D01*
X129084184Y-86383204D01*
X129103667Y-86421442D01*
X129171132Y-86553848D01*
X129319201Y-86757649D01*
X129319205Y-86757654D01*
X129497345Y-86935794D01*
X129497350Y-86935798D01*
X129591676Y-87004329D01*
X129701155Y-87083870D01*
X129844184Y-87156747D01*
X129925616Y-87198239D01*
X129925618Y-87198239D01*
X129925621Y-87198241D01*
X130165215Y-87276090D01*
X130296976Y-87296959D01*
X130360111Y-87326888D01*
X130397042Y-87386200D01*
X130396044Y-87456062D01*
X130365257Y-87507114D01*
X130282009Y-87590359D01*
X130238416Y-87633950D01*
X130238371Y-87633992D01*
X130199927Y-87672437D01*
X130148441Y-87723923D01*
X130123495Y-87748867D01*
X130123489Y-87748873D01*
X130123489Y-87748874D01*
X130123487Y-87748876D01*
X130123480Y-87748884D01*
X130078986Y-87825950D01*
X130078985Y-87825951D01*
X130044429Y-87885799D01*
X130044427Y-87885804D01*
X130044421Y-87885821D01*
X130037395Y-87912042D01*
X130028909Y-87943712D01*
X130028909Y-87943713D01*
X130003501Y-88038527D01*
X130003500Y-88038531D01*
X130003500Y-88066697D01*
X130003498Y-88205269D01*
X130003500Y-88205298D01*
X130003500Y-89343868D01*
X129983815Y-89410907D01*
X129931011Y-89456662D01*
X129861853Y-89466606D01*
X129798297Y-89437581D01*
X129781124Y-89419355D01*
X129733131Y-89356809D01*
X129695646Y-89307958D01*
X129695644Y-89307956D01*
X129695641Y-89307952D01*
X129487047Y-89099358D01*
X129487040Y-89099352D01*
X129252993Y-88919761D01*
X128997510Y-88772258D01*
X128997500Y-88772254D01*
X128724961Y-88659364D01*
X128724954Y-88659362D01*
X128724952Y-88659361D01*
X128439993Y-88583007D01*
X128391113Y-88576571D01*
X128147513Y-88544500D01*
X128147506Y-88544500D01*
X127852494Y-88544500D01*
X127852486Y-88544500D01*
X127574085Y-88581153D01*
X127560007Y-88583007D01*
X127385861Y-88629669D01*
X127275048Y-88659361D01*
X127275038Y-88659364D01*
X127002499Y-88772254D01*
X127002489Y-88772258D01*
X126747006Y-88919761D01*
X126512959Y-89099352D01*
X126512952Y-89099358D01*
X126304358Y-89307952D01*
X126304352Y-89307959D01*
X126124761Y-89542006D01*
X125977258Y-89797489D01*
X125977254Y-89797499D01*
X125864364Y-90070038D01*
X125864361Y-90070048D01*
X125844266Y-90145046D01*
X125788008Y-90355004D01*
X125788006Y-90355015D01*
X125749500Y-90647486D01*
X125749500Y-90942513D01*
X125781571Y-91186113D01*
X125788007Y-91234993D01*
X125862212Y-91511930D01*
X125864361Y-91519951D01*
X125864364Y-91519961D01*
X125977254Y-91792500D01*
X125977258Y-91792510D01*
X126124761Y-92047993D01*
X126304352Y-92282040D01*
X126304358Y-92282047D01*
X126512952Y-92490641D01*
X126512959Y-92490647D01*
X126747006Y-92670238D01*
X127002489Y-92817741D01*
X127002490Y-92817741D01*
X127002493Y-92817743D01*
X127275048Y-92930639D01*
X127560007Y-93006993D01*
X127852494Y-93045500D01*
X127852501Y-93045500D01*
X128147499Y-93045500D01*
X128147506Y-93045500D01*
X128439993Y-93006993D01*
X128724952Y-92930639D01*
X128997507Y-92817743D01*
X129252994Y-92670238D01*
X129487042Y-92490646D01*
X129695646Y-92282042D01*
X129781124Y-92170644D01*
X129837552Y-92129442D01*
X129907298Y-92125287D01*
X129968218Y-92159499D01*
X130000971Y-92221216D01*
X130003500Y-92246131D01*
X130003500Y-94853297D01*
X129983815Y-94920336D01*
X129967180Y-94940979D01*
X126822351Y-98085724D01*
X126761027Y-98119209D01*
X126758863Y-98119659D01*
X126603508Y-98150561D01*
X126603498Y-98150564D01*
X126457827Y-98210902D01*
X126457814Y-98210909D01*
X126326711Y-98298510D01*
X126326707Y-98298513D01*
X126215213Y-98410007D01*
X126215210Y-98410011D01*
X126127609Y-98541114D01*
X126127602Y-98541127D01*
X126067264Y-98686798D01*
X126067261Y-98686810D01*
X126036500Y-98841453D01*
X126036500Y-98999146D01*
X126067261Y-99153789D01*
X126067264Y-99153801D01*
X126127602Y-99299472D01*
X126127609Y-99299485D01*
X126215210Y-99430588D01*
X126215213Y-99430592D01*
X126326707Y-99542086D01*
X126326711Y-99542089D01*
X126457814Y-99629690D01*
X126457827Y-99629697D01*
X126603498Y-99690035D01*
X126603503Y-99690037D01*
X126758153Y-99720799D01*
X126758156Y-99720800D01*
X126758158Y-99720800D01*
X126915844Y-99720800D01*
X126915845Y-99720799D01*
X127070497Y-99690037D01*
X127216179Y-99629694D01*
X127347289Y-99542089D01*
X127458789Y-99430589D01*
X127546394Y-99299479D01*
X127606737Y-99153797D01*
X127633491Y-99019295D01*
X127637635Y-98998464D01*
X127670020Y-98936553D01*
X127671522Y-98935023D01*
X128375510Y-98231053D01*
X143959500Y-98231053D01*
X143959500Y-98388746D01*
X143990261Y-98543389D01*
X143990264Y-98543401D01*
X144050602Y-98689072D01*
X144050609Y-98689085D01*
X144138210Y-98820188D01*
X144138213Y-98820192D01*
X144249707Y-98931686D01*
X144249711Y-98931689D01*
X144380814Y-99019290D01*
X144380827Y-99019297D01*
X144454124Y-99049657D01*
X144526503Y-99079637D01*
X144681153Y-99110399D01*
X144681156Y-99110400D01*
X144681158Y-99110400D01*
X144838843Y-99110400D01*
X144849744Y-99108231D01*
X144993497Y-99079637D01*
X145139179Y-99019294D01*
X145270289Y-98931689D01*
X145381789Y-98820189D01*
X145469394Y-98689079D01*
X145529737Y-98543397D01*
X145548574Y-98448696D01*
X145560643Y-98388025D01*
X145593028Y-98326114D01*
X145594577Y-98324537D01*
X145620603Y-98298510D01*
X151257354Y-92661481D01*
X151329858Y-92588978D01*
X151332178Y-92587075D01*
X151337090Y-92581837D01*
X151338750Y-92580121D01*
X151340357Y-92577134D01*
X151362214Y-92539275D01*
X151413877Y-92449791D01*
X151416291Y-92446136D01*
X151417536Y-92443790D01*
X151418249Y-92440878D01*
X151436573Y-92372489D01*
X151458294Y-92291422D01*
X151458495Y-92290699D01*
X151458501Y-92290650D01*
X151458500Y-92290646D01*
X151458502Y-92290643D01*
X151458500Y-92211585D01*
X151458500Y-73381947D01*
X152750000Y-73381947D01*
X152750000Y-73618052D01*
X152786934Y-73851247D01*
X152859897Y-74075802D01*
X152967087Y-74286174D01*
X153027338Y-74369104D01*
X153027340Y-74369105D01*
X153767037Y-73629408D01*
X153784075Y-73692993D01*
X153849901Y-73807007D01*
X153942993Y-73900099D01*
X154057007Y-73965925D01*
X154120590Y-73982962D01*
X153380893Y-74722658D01*
X153463828Y-74782914D01*
X153674197Y-74890102D01*
X153898752Y-74963065D01*
X153898751Y-74963065D01*
X154131948Y-75000000D01*
X154368052Y-75000000D01*
X154601247Y-74963065D01*
X154825802Y-74890102D01*
X155036163Y-74782918D01*
X155036169Y-74782914D01*
X155119104Y-74722658D01*
X155119105Y-74722658D01*
X154379408Y-73982962D01*
X154442993Y-73965925D01*
X154557007Y-73900099D01*
X154650099Y-73807007D01*
X154715925Y-73692993D01*
X154732962Y-73629409D01*
X155472658Y-74369105D01*
X155472658Y-74369104D01*
X155532914Y-74286169D01*
X155532918Y-74286163D01*
X155640102Y-74075802D01*
X155713065Y-73851247D01*
X155750000Y-73618052D01*
X155750000Y-73381947D01*
X155713065Y-73148752D01*
X155640102Y-72924197D01*
X155532914Y-72713828D01*
X155472658Y-72630894D01*
X155472658Y-72630893D01*
X154732962Y-73370590D01*
X154715925Y-73307007D01*
X154650099Y-73192993D01*
X154557007Y-73099901D01*
X154442993Y-73034075D01*
X154379409Y-73017037D01*
X155119105Y-72277340D01*
X155119104Y-72277338D01*
X155036174Y-72217087D01*
X154825802Y-72109897D01*
X154601247Y-72036934D01*
X154601248Y-72036934D01*
X154368052Y-72000000D01*
X154131948Y-72000000D01*
X153898752Y-72036934D01*
X153674197Y-72109897D01*
X153463830Y-72217084D01*
X153380894Y-72277340D01*
X154120591Y-73017037D01*
X154057007Y-73034075D01*
X153942993Y-73099901D01*
X153849901Y-73192993D01*
X153784075Y-73307007D01*
X153767037Y-73370591D01*
X153027340Y-72630894D01*
X152967084Y-72713830D01*
X152859897Y-72924197D01*
X152786934Y-73148752D01*
X152750000Y-73381947D01*
X151458500Y-73381947D01*
X151458500Y-72191629D01*
X151478185Y-72124590D01*
X151494825Y-72103941D01*
X151562329Y-72036447D01*
X153646329Y-69952752D01*
X153707653Y-69919274D01*
X153772318Y-69922510D01*
X153898632Y-69963553D01*
X153986110Y-69977408D01*
X154131903Y-70000500D01*
X154131908Y-70000500D01*
X154368097Y-70000500D01*
X154601368Y-69963553D01*
X154825992Y-69890568D01*
X155036433Y-69783343D01*
X155227510Y-69644517D01*
X155394517Y-69477510D01*
X155533343Y-69286433D01*
X155640568Y-69075992D01*
X155713553Y-68851368D01*
X155750500Y-68618097D01*
X155750500Y-68381902D01*
X155713553Y-68148631D01*
X155640566Y-67924003D01*
X155533342Y-67713566D01*
X155394517Y-67522490D01*
X155227510Y-67355483D01*
X155036433Y-67216657D01*
X154825996Y-67109433D01*
X154601368Y-67036446D01*
X154368097Y-66999500D01*
X154368092Y-66999500D01*
X154131908Y-66999500D01*
X154131903Y-66999500D01*
X153898631Y-67036446D01*
X153674003Y-67109433D01*
X153463566Y-67216657D01*
X153407119Y-67257669D01*
X153272490Y-67355483D01*
X153272488Y-67355485D01*
X153272487Y-67355485D01*
X153105485Y-67522487D01*
X153105485Y-67522488D01*
X153105483Y-67522490D01*
X153045862Y-67604550D01*
X152966657Y-67713566D01*
X152859433Y-67924003D01*
X152786446Y-68148631D01*
X152749500Y-68381902D01*
X152749500Y-68618097D01*
X152786447Y-68851369D01*
X152786447Y-68851372D01*
X152827413Y-68977449D01*
X152829408Y-69047290D01*
X152797157Y-69103455D01*
X150494842Y-71405431D01*
X150494758Y-71405505D01*
X150425044Y-71475218D01*
X150425040Y-71475222D01*
X150377491Y-71522765D01*
X150336547Y-71593682D01*
X150336543Y-71593688D01*
X150298430Y-71659690D01*
X150298423Y-71659715D01*
X150298423Y-71659716D01*
X150280069Y-71728214D01*
X150257505Y-71812398D01*
X150257504Y-71812400D01*
X150257500Y-71812419D01*
X150257500Y-71884277D01*
X150257493Y-71978720D01*
X150257500Y-71978825D01*
X150257500Y-91911512D01*
X150237815Y-91978551D01*
X150221183Y-91999191D01*
X144745316Y-97475328D01*
X144683994Y-97508815D01*
X144681825Y-97509266D01*
X144526508Y-97540161D01*
X144526498Y-97540164D01*
X144380827Y-97600502D01*
X144380814Y-97600509D01*
X144249711Y-97688110D01*
X144249707Y-97688113D01*
X144138213Y-97799607D01*
X144138210Y-97799611D01*
X144050609Y-97930714D01*
X144050602Y-97930727D01*
X143990264Y-98076398D01*
X143990261Y-98076410D01*
X143959500Y-98231053D01*
X128375510Y-98231053D01*
X130963803Y-95642828D01*
X130963818Y-95642817D01*
X130972714Y-95633920D01*
X130972716Y-95633920D01*
X131046853Y-95559782D01*
X131046854Y-95559782D01*
X131065685Y-95540950D01*
X131078298Y-95528338D01*
X131081337Y-95525702D01*
X131082029Y-95524923D01*
X131084341Y-95522467D01*
X131085514Y-95520505D01*
X131089609Y-95513878D01*
X131090785Y-95511264D01*
X131123006Y-95455454D01*
X131135503Y-95433811D01*
X131164049Y-95384369D01*
X131165121Y-95379418D01*
X131180424Y-95322311D01*
X131204500Y-95232465D01*
X131204502Y-95074350D01*
X131204500Y-95074345D01*
X131204501Y-95066764D01*
X131204500Y-95066730D01*
X131204500Y-90708389D01*
X131979500Y-90708389D01*
X131979500Y-90881611D01*
X132006598Y-91052701D01*
X132060127Y-91217445D01*
X132138768Y-91371788D01*
X132240586Y-91511928D01*
X132363072Y-91634414D01*
X132503212Y-91736232D01*
X132657555Y-91814873D01*
X132822299Y-91868402D01*
X132993389Y-91895500D01*
X132993390Y-91895500D01*
X133166610Y-91895500D01*
X133166611Y-91895500D01*
X133337701Y-91868402D01*
X133502445Y-91814873D01*
X133656788Y-91736232D01*
X133796928Y-91634414D01*
X133919414Y-91511928D01*
X134021232Y-91371788D01*
X134099873Y-91217445D01*
X134153402Y-91052701D01*
X134180500Y-90881611D01*
X134180500Y-90708389D01*
X134153402Y-90537299D01*
X134099873Y-90372555D01*
X134021232Y-90218212D01*
X133919414Y-90078072D01*
X133796928Y-89955586D01*
X133656788Y-89853768D01*
X133502445Y-89775127D01*
X133337701Y-89721598D01*
X133337699Y-89721597D01*
X133337698Y-89721597D01*
X133206271Y-89700781D01*
X133166611Y-89694500D01*
X132993389Y-89694500D01*
X132953728Y-89700781D01*
X132822302Y-89721597D01*
X132657552Y-89775128D01*
X132503211Y-89853768D01*
X132447115Y-89894525D01*
X132363072Y-89955586D01*
X132363070Y-89955588D01*
X132363069Y-89955588D01*
X132240588Y-90078069D01*
X132240588Y-90078070D01*
X132240586Y-90078072D01*
X132196859Y-90138256D01*
X132138768Y-90218211D01*
X132060128Y-90372552D01*
X132006597Y-90537302D01*
X131979500Y-90708389D01*
X131204500Y-90708389D01*
X131204500Y-88417705D01*
X131224185Y-88350666D01*
X131240818Y-88330024D01*
X134857823Y-84713174D01*
X134919144Y-84679692D01*
X134988836Y-84684678D01*
X135044769Y-84726551D01*
X135069184Y-84792016D01*
X135069500Y-84800859D01*
X135069500Y-92785463D01*
X135049815Y-92852502D01*
X135033174Y-92873152D01*
X132796419Y-95109516D01*
X132735093Y-95142996D01*
X132732937Y-95143444D01*
X132577508Y-95174361D01*
X132577498Y-95174364D01*
X132431827Y-95234702D01*
X132431814Y-95234709D01*
X132300713Y-95322309D01*
X132300707Y-95322313D01*
X132189213Y-95433807D01*
X132189210Y-95433811D01*
X132101609Y-95564914D01*
X132101602Y-95564927D01*
X132041264Y-95710598D01*
X132041261Y-95710610D01*
X132010500Y-95865253D01*
X132010500Y-96022946D01*
X132041261Y-96177589D01*
X132041264Y-96177601D01*
X132101602Y-96323272D01*
X132101609Y-96323285D01*
X132189210Y-96454388D01*
X132189213Y-96454392D01*
X132300707Y-96565886D01*
X132300711Y-96565889D01*
X132431814Y-96653490D01*
X132431827Y-96653497D01*
X132577498Y-96713835D01*
X132577503Y-96713837D01*
X132732153Y-96744599D01*
X132732156Y-96744600D01*
X132732158Y-96744600D01*
X132889844Y-96744600D01*
X132889845Y-96744599D01*
X133044497Y-96713837D01*
X133190179Y-96653494D01*
X133321289Y-96565889D01*
X133432789Y-96454389D01*
X133520394Y-96323279D01*
X133580737Y-96177597D01*
X133598226Y-96089672D01*
X133611620Y-96022341D01*
X133644005Y-95960430D01*
X133645512Y-95958894D01*
X136032649Y-93572174D01*
X136032735Y-93572100D01*
X136038713Y-93566121D01*
X136038716Y-93566120D01*
X136067416Y-93537419D01*
X136098962Y-93505874D01*
X136098970Y-93505866D01*
X136149656Y-93455189D01*
X136150514Y-93454351D01*
X136150517Y-93454347D01*
X136151043Y-93453409D01*
X136192120Y-93382262D01*
X136192125Y-93382254D01*
X136228603Y-93319084D01*
X136229598Y-93317426D01*
X136229602Y-93317417D01*
X136230066Y-93315557D01*
X136249249Y-93243964D01*
X136249249Y-93243963D01*
X136249251Y-93243963D01*
X136249251Y-93243954D01*
X136270494Y-93164710D01*
X136270494Y-93164701D01*
X136270500Y-93164662D01*
X136270500Y-93091732D01*
X136270507Y-93006595D01*
X136270506Y-93006592D01*
X136270507Y-92998791D01*
X136270500Y-92998665D01*
X136270500Y-90708389D01*
X136909500Y-90708389D01*
X136909500Y-90881611D01*
X136936598Y-91052701D01*
X136990127Y-91217445D01*
X137068768Y-91371788D01*
X137170586Y-91511928D01*
X137293072Y-91634414D01*
X137433212Y-91736232D01*
X137587555Y-91814873D01*
X137752299Y-91868402D01*
X137923389Y-91895500D01*
X137923390Y-91895500D01*
X138096610Y-91895500D01*
X138096611Y-91895500D01*
X138267701Y-91868402D01*
X138432445Y-91814873D01*
X138586788Y-91736232D01*
X138726928Y-91634414D01*
X138849414Y-91511928D01*
X138951232Y-91371788D01*
X139029873Y-91217445D01*
X139083402Y-91052701D01*
X139110500Y-90881611D01*
X139110500Y-90708389D01*
X139100854Y-90647486D01*
X140839500Y-90647486D01*
X140839500Y-90942513D01*
X140871571Y-91186113D01*
X140878007Y-91234993D01*
X140952212Y-91511930D01*
X140954361Y-91519951D01*
X140954364Y-91519961D01*
X141067254Y-91792500D01*
X141067258Y-91792510D01*
X141214761Y-92047993D01*
X141394352Y-92282040D01*
X141394358Y-92282047D01*
X141602952Y-92490641D01*
X141602959Y-92490647D01*
X141837006Y-92670238D01*
X142092489Y-92817741D01*
X142092490Y-92817741D01*
X142092493Y-92817743D01*
X142365048Y-92930639D01*
X142650007Y-93006993D01*
X142942494Y-93045500D01*
X142942501Y-93045500D01*
X143237499Y-93045500D01*
X143237506Y-93045500D01*
X143529993Y-93006993D01*
X143814952Y-92930639D01*
X144087507Y-92817743D01*
X144342994Y-92670238D01*
X144577042Y-92490646D01*
X144785646Y-92282042D01*
X144965238Y-92047994D01*
X145112743Y-91792507D01*
X145225639Y-91519952D01*
X145301993Y-91234993D01*
X145340500Y-90942506D01*
X145340500Y-90708389D01*
X147069500Y-90708389D01*
X147069500Y-90881611D01*
X147096598Y-91052701D01*
X147150127Y-91217445D01*
X147228768Y-91371788D01*
X147330586Y-91511928D01*
X147453072Y-91634414D01*
X147593212Y-91736232D01*
X147747555Y-91814873D01*
X147912299Y-91868402D01*
X148083389Y-91895500D01*
X148083390Y-91895500D01*
X148256610Y-91895500D01*
X148256611Y-91895500D01*
X148427701Y-91868402D01*
X148592445Y-91814873D01*
X148746788Y-91736232D01*
X148886928Y-91634414D01*
X149009414Y-91511928D01*
X149111232Y-91371788D01*
X149189873Y-91217445D01*
X149243402Y-91052701D01*
X149270500Y-90881611D01*
X149270500Y-90708389D01*
X149243402Y-90537299D01*
X149189873Y-90372555D01*
X149111232Y-90218212D01*
X149009414Y-90078072D01*
X148886928Y-89955586D01*
X148746788Y-89853768D01*
X148592445Y-89775127D01*
X148427701Y-89721598D01*
X148427699Y-89721597D01*
X148427698Y-89721597D01*
X148296271Y-89700781D01*
X148256611Y-89694500D01*
X148083389Y-89694500D01*
X148043728Y-89700781D01*
X147912302Y-89721597D01*
X147747552Y-89775128D01*
X147593211Y-89853768D01*
X147537115Y-89894525D01*
X147453072Y-89955586D01*
X147453070Y-89955588D01*
X147453069Y-89955588D01*
X147330588Y-90078069D01*
X147330588Y-90078070D01*
X147330586Y-90078072D01*
X147286859Y-90138256D01*
X147228768Y-90218211D01*
X147150128Y-90372552D01*
X147096597Y-90537302D01*
X147069500Y-90708389D01*
X145340500Y-90708389D01*
X145340500Y-90647494D01*
X145301993Y-90355007D01*
X145225639Y-90070048D01*
X145112743Y-89797493D01*
X145089980Y-89758067D01*
X144965238Y-89542006D01*
X144785647Y-89307959D01*
X144785641Y-89307952D01*
X144577047Y-89099358D01*
X144577040Y-89099352D01*
X144342993Y-88919761D01*
X144087510Y-88772258D01*
X144087500Y-88772254D01*
X143814961Y-88659364D01*
X143814954Y-88659362D01*
X143814952Y-88659361D01*
X143529993Y-88583007D01*
X143481113Y-88576571D01*
X143237513Y-88544500D01*
X143237506Y-88544500D01*
X142942494Y-88544500D01*
X142942486Y-88544500D01*
X142664085Y-88581153D01*
X142650007Y-88583007D01*
X142475861Y-88629669D01*
X142365048Y-88659361D01*
X142365038Y-88659364D01*
X142092499Y-88772254D01*
X142092489Y-88772258D01*
X141837006Y-88919761D01*
X141602959Y-89099352D01*
X141602952Y-89099358D01*
X141394358Y-89307952D01*
X141394352Y-89307959D01*
X141214761Y-89542006D01*
X141067258Y-89797489D01*
X141067254Y-89797499D01*
X140954364Y-90070038D01*
X140954361Y-90070048D01*
X140934266Y-90145046D01*
X140878008Y-90355004D01*
X140878006Y-90355015D01*
X140839500Y-90647486D01*
X139100854Y-90647486D01*
X139083402Y-90537299D01*
X139029873Y-90372555D01*
X138951232Y-90218212D01*
X138849414Y-90078072D01*
X138796882Y-90025540D01*
X138763397Y-89964217D01*
X138768381Y-89894525D01*
X138810253Y-89838592D01*
X138875717Y-89814175D01*
X138903961Y-89815386D01*
X139154072Y-89855000D01*
X139405928Y-89855000D01*
X139654669Y-89815602D01*
X139894184Y-89737780D01*
X140118575Y-89623446D01*
X140118581Y-89623442D01*
X140220697Y-89549250D01*
X140220698Y-89549250D01*
X139604025Y-88932578D01*
X139635258Y-88919641D01*
X139758097Y-88837563D01*
X139862563Y-88733097D01*
X139944641Y-88610258D01*
X139957578Y-88579025D01*
X140574250Y-89195698D01*
X140574250Y-89195697D01*
X140648442Y-89093581D01*
X140648446Y-89093575D01*
X140762780Y-88869184D01*
X140840602Y-88629669D01*
X140880000Y-88380928D01*
X140880000Y-88129071D01*
X140840602Y-87880330D01*
X140762780Y-87640815D01*
X140648442Y-87416416D01*
X140574250Y-87314301D01*
X140574250Y-87314300D01*
X139957577Y-87930973D01*
X139944641Y-87899742D01*
X139862563Y-87776903D01*
X139758097Y-87672437D01*
X139635258Y-87590359D01*
X139604024Y-87577421D01*
X140220698Y-86960748D01*
X140118583Y-86886557D01*
X139894184Y-86772219D01*
X139654669Y-86694397D01*
X139405928Y-86655000D01*
X139154072Y-86655000D01*
X138905330Y-86694397D01*
X138665815Y-86772219D01*
X138441413Y-86886559D01*
X138339301Y-86960747D01*
X138339300Y-86960748D01*
X138955974Y-87577421D01*
X138924742Y-87590359D01*
X138801903Y-87672437D01*
X138697437Y-87776903D01*
X138615359Y-87899742D01*
X138602421Y-87930974D01*
X137985748Y-87314300D01*
X137985747Y-87314301D01*
X137911559Y-87416413D01*
X137797219Y-87640815D01*
X137719397Y-87880330D01*
X137680000Y-88129071D01*
X137680000Y-88380928D01*
X137719397Y-88629669D01*
X137797219Y-88869184D01*
X137911557Y-89093583D01*
X137985748Y-89195697D01*
X137985748Y-89195698D01*
X138602421Y-88579024D01*
X138615359Y-88610258D01*
X138697437Y-88733097D01*
X138801903Y-88837563D01*
X138924742Y-88919641D01*
X138955974Y-88932577D01*
X138339300Y-89549250D01*
X138341598Y-89578449D01*
X138327233Y-89646827D01*
X138278181Y-89696583D01*
X138210016Y-89711921D01*
X138198583Y-89710650D01*
X138096611Y-89694500D01*
X137923389Y-89694500D01*
X137883728Y-89700781D01*
X137752302Y-89721597D01*
X137587552Y-89775128D01*
X137433211Y-89853768D01*
X137377115Y-89894525D01*
X137293072Y-89955586D01*
X137293070Y-89955588D01*
X137293069Y-89955588D01*
X137170588Y-90078069D01*
X137170588Y-90078070D01*
X137170586Y-90078072D01*
X137126859Y-90138256D01*
X137068768Y-90218211D01*
X136990128Y-90372552D01*
X136936597Y-90537302D01*
X136909500Y-90708389D01*
X136270500Y-90708389D01*
X136270500Y-85589038D01*
X144029500Y-85589038D01*
X144029500Y-85840962D01*
X144047001Y-85951460D01*
X144068910Y-86089785D01*
X144146760Y-86329383D01*
X144261132Y-86553848D01*
X144409201Y-86757649D01*
X144409205Y-86757654D01*
X144587345Y-86935794D01*
X144587350Y-86935798D01*
X144681676Y-87004329D01*
X144791155Y-87083870D01*
X144934184Y-87156747D01*
X145015616Y-87198239D01*
X145015618Y-87198239D01*
X145015621Y-87198241D01*
X145255215Y-87276090D01*
X145504038Y-87315500D01*
X145504039Y-87315500D01*
X145755961Y-87315500D01*
X145755962Y-87315500D01*
X146004785Y-87276090D01*
X146244379Y-87198241D01*
X146468845Y-87083870D01*
X146672656Y-86935793D01*
X146850793Y-86757656D01*
X146998870Y-86553845D01*
X147113241Y-86329379D01*
X147191090Y-86089785D01*
X147230500Y-85840962D01*
X147230500Y-85589038D01*
X147191090Y-85340215D01*
X147113241Y-85100621D01*
X147113239Y-85100618D01*
X147113239Y-85100616D01*
X147025597Y-84928610D01*
X146998870Y-84876155D01*
X146979952Y-84850117D01*
X146850798Y-84672350D01*
X146850794Y-84672345D01*
X146672654Y-84494205D01*
X146672649Y-84494201D01*
X146468848Y-84346132D01*
X146468847Y-84346131D01*
X146468845Y-84346130D01*
X146398747Y-84310413D01*
X146244383Y-84231760D01*
X146004785Y-84153910D01*
X145755962Y-84114500D01*
X145504038Y-84114500D01*
X145379626Y-84134205D01*
X145255214Y-84153910D01*
X145015616Y-84231760D01*
X144791151Y-84346132D01*
X144587350Y-84494201D01*
X144587345Y-84494205D01*
X144409205Y-84672345D01*
X144409201Y-84672350D01*
X144261132Y-84876151D01*
X144146760Y-85100616D01*
X144068910Y-85340214D01*
X144046417Y-85482226D01*
X144029500Y-85589038D01*
X136270500Y-85589038D01*
X136270500Y-84614892D01*
X136290185Y-84547853D01*
X136306818Y-84527212D01*
X138991535Y-81842430D01*
X140158015Y-80675921D01*
X140229299Y-80604636D01*
X140230783Y-80603196D01*
X140232557Y-80600325D01*
X140233202Y-80599346D01*
X140234956Y-80595733D01*
X140292811Y-80495523D01*
X140305866Y-80472910D01*
X140308288Y-80469242D01*
X140309399Y-80467150D01*
X140309578Y-80466479D01*
X140309580Y-80466478D01*
X140341939Y-80345706D01*
X140349542Y-80317333D01*
X140350443Y-80314330D01*
X140350500Y-80313939D01*
X140350500Y-80313753D01*
X140350501Y-80313750D01*
X140350500Y-80155635D01*
X140350500Y-75302135D01*
X145249500Y-75302135D01*
X145249500Y-77897870D01*
X145249501Y-77897876D01*
X145255908Y-77957483D01*
X145306202Y-78092328D01*
X145306206Y-78092335D01*
X145392452Y-78207544D01*
X145392455Y-78207547D01*
X145507664Y-78293793D01*
X145507671Y-78293797D01*
X145642517Y-78344091D01*
X145642516Y-78344091D01*
X145649444Y-78344835D01*
X145702127Y-78350500D01*
X148797872Y-78350499D01*
X148857483Y-78344091D01*
X148992331Y-78293796D01*
X149107546Y-78207546D01*
X149193796Y-78092331D01*
X149244091Y-77957483D01*
X149250500Y-77897873D01*
X149250499Y-75302128D01*
X149244091Y-75242517D01*
X149198431Y-75120097D01*
X149193797Y-75107671D01*
X149193793Y-75107664D01*
X149107547Y-74992455D01*
X149107544Y-74992452D01*
X148992335Y-74906206D01*
X148992328Y-74906202D01*
X148857482Y-74855908D01*
X148857483Y-74855908D01*
X148797883Y-74849501D01*
X148797881Y-74849500D01*
X148797873Y-74849500D01*
X148797864Y-74849500D01*
X145702129Y-74849500D01*
X145702123Y-74849501D01*
X145642516Y-74855908D01*
X145507671Y-74906202D01*
X145507664Y-74906206D01*
X145392455Y-74992452D01*
X145392452Y-74992455D01*
X145306206Y-75107664D01*
X145306202Y-75107671D01*
X145255908Y-75242517D01*
X145253407Y-75265785D01*
X145249501Y-75302123D01*
X145249500Y-75302135D01*
X140350500Y-75302135D01*
X140350500Y-74954067D01*
X140370185Y-74887028D01*
X140418205Y-74843582D01*
X140536433Y-74783343D01*
X140727510Y-74644517D01*
X140894517Y-74477510D01*
X141033343Y-74286433D01*
X141140568Y-74075992D01*
X141213553Y-73851368D01*
X141238637Y-73692993D01*
X141250500Y-73618097D01*
X141250500Y-73381902D01*
X141213553Y-73148631D01*
X141140566Y-72924003D01*
X141084002Y-72812991D01*
X141033343Y-72713567D01*
X140894517Y-72522490D01*
X140727510Y-72355483D01*
X140671259Y-72314614D01*
X140628595Y-72259284D01*
X140623902Y-72227455D01*
X139879408Y-71482962D01*
X139942993Y-71465925D01*
X140057007Y-71400099D01*
X140150099Y-71307007D01*
X140215925Y-71192993D01*
X140232962Y-71129409D01*
X140972658Y-71869105D01*
X140972658Y-71869104D01*
X141032914Y-71786169D01*
X141032918Y-71786163D01*
X141140102Y-71575802D01*
X141213065Y-71351247D01*
X141250000Y-71118052D01*
X141250000Y-70881947D01*
X141213065Y-70648752D01*
X141140102Y-70424197D01*
X141032914Y-70213828D01*
X140963394Y-70118142D01*
X140939914Y-70052335D01*
X140955739Y-69984281D01*
X140989401Y-69945989D01*
X140992329Y-69943796D01*
X140992331Y-69943796D01*
X141107546Y-69857546D01*
X141193796Y-69742331D01*
X141244091Y-69607483D01*
X141250500Y-69547873D01*
X141250499Y-67452128D01*
X141244091Y-67392517D01*
X141230278Y-67355483D01*
X141193797Y-67257671D01*
X141193793Y-67257664D01*
X141107547Y-67142455D01*
X141107544Y-67142452D01*
X140992335Y-67056206D01*
X140992328Y-67056202D01*
X140857482Y-67005908D01*
X140857483Y-67005908D01*
X140797883Y-66999501D01*
X140797881Y-66999500D01*
X140797873Y-66999500D01*
X140797864Y-66999500D01*
X138702129Y-66999500D01*
X138702123Y-66999501D01*
X138642516Y-67005908D01*
X138507671Y-67056202D01*
X138507664Y-67056206D01*
X138392455Y-67142452D01*
X138392452Y-67142455D01*
X138306206Y-67257664D01*
X138306202Y-67257671D01*
X138255908Y-67392517D01*
X138249501Y-67452116D01*
X138249501Y-67452123D01*
X138249500Y-67452135D01*
X138249500Y-69099975D01*
X138229815Y-69167014D01*
X138213184Y-69187653D01*
X134849298Y-72551764D01*
X134849297Y-72551766D01*
X134789470Y-72611594D01*
X134753987Y-72673058D01*
X134753986Y-72673061D01*
X134710419Y-72748522D01*
X134690777Y-72821833D01*
X134669497Y-72901254D01*
X134669500Y-72996131D01*
X134669500Y-83151693D01*
X134649815Y-83218732D01*
X134633179Y-83239376D01*
X132332122Y-85540334D01*
X132270798Y-85573818D01*
X132201107Y-85568832D01*
X132145174Y-85526959D01*
X132121970Y-85472048D01*
X132121433Y-85468660D01*
X132101090Y-85340215D01*
X132086113Y-85294122D01*
X132056900Y-85204213D01*
X132023241Y-85100621D01*
X132023239Y-85100618D01*
X132023239Y-85100616D01*
X131935597Y-84928610D01*
X131908870Y-84876155D01*
X131889952Y-84850117D01*
X131760798Y-84672350D01*
X131760794Y-84672345D01*
X131582654Y-84494205D01*
X131582649Y-84494201D01*
X131378848Y-84346132D01*
X131378847Y-84346131D01*
X131378845Y-84346130D01*
X131308747Y-84310413D01*
X131154383Y-84231760D01*
X130914785Y-84153910D01*
X130665962Y-84114500D01*
X130414038Y-84114500D01*
X130289626Y-84134205D01*
X130165214Y-84153910D01*
X129925616Y-84231760D01*
X129701151Y-84346132D01*
X129497350Y-84494201D01*
X129497345Y-84494205D01*
X129319205Y-84672345D01*
X129319201Y-84672350D01*
X129171132Y-84876151D01*
X129171130Y-84876155D01*
X129144407Y-84928603D01*
X129084185Y-85046795D01*
X129036211Y-85097591D01*
X128973700Y-85114500D01*
X124754349Y-85114500D01*
X124663994Y-85114491D01*
X124663956Y-85114496D01*
X124590874Y-85134078D01*
X124590866Y-85134080D01*
X124511240Y-85155408D01*
X124441037Y-85195939D01*
X124441029Y-85195944D01*
X124374306Y-85234458D01*
X124314640Y-85294123D01*
X124314633Y-85294129D01*
X120584831Y-89023244D01*
X120584729Y-89023334D01*
X120516344Y-89091719D01*
X120467490Y-89140564D01*
X120424451Y-89215112D01*
X120424446Y-89215121D01*
X120388430Y-89277488D01*
X120380267Y-89307952D01*
X120367897Y-89354117D01*
X120347500Y-89430213D01*
X120347500Y-89503986D01*
X120347491Y-89596583D01*
X120347500Y-89596716D01*
X120347500Y-97004616D01*
X120327815Y-97071655D01*
X120311184Y-97092294D01*
X117144952Y-100258743D01*
X117083630Y-100292230D01*
X117013938Y-100287248D01*
X116958003Y-100245379D01*
X116939336Y-100209379D01*
X116933242Y-100190624D01*
X116933241Y-100190623D01*
X116933241Y-100190621D01*
X116818870Y-99966155D01*
X116722596Y-99833645D01*
X116670798Y-99762350D01*
X116670794Y-99762345D01*
X116492654Y-99584205D01*
X116492649Y-99584201D01*
X116288848Y-99436132D01*
X116288847Y-99436131D01*
X116288845Y-99436130D01*
X116218747Y-99400413D01*
X116064383Y-99321760D01*
X115824785Y-99243910D01*
X115695562Y-99223443D01*
X115575962Y-99204500D01*
X115324038Y-99204500D01*
X115237357Y-99218229D01*
X115075214Y-99243910D01*
X114835616Y-99321760D01*
X114611151Y-99436132D01*
X114407350Y-99584201D01*
X114407345Y-99584205D01*
X114229205Y-99762345D01*
X114229201Y-99762350D01*
X114081132Y-99966151D01*
X113966760Y-100190616D01*
X113888910Y-100430214D01*
X113888910Y-100430215D01*
X113849500Y-100679038D01*
X113849500Y-100930962D01*
X113880071Y-101123980D01*
X113888910Y-101179785D01*
X113966760Y-101419383D01*
X114045413Y-101573747D01*
X114075237Y-101632280D01*
X114081132Y-101643848D01*
X114229201Y-101847649D01*
X114229205Y-101847654D01*
X114407345Y-102025794D01*
X114407350Y-102025798D01*
X114585117Y-102154952D01*
X114611155Y-102173870D01*
X114737944Y-102238472D01*
X114835616Y-102288239D01*
X114835618Y-102288239D01*
X114835621Y-102288241D01*
X115075215Y-102366090D01*
X115324038Y-102405500D01*
X115324039Y-102405500D01*
X115460500Y-102405500D01*
X115527539Y-102425185D01*
X115573294Y-102477989D01*
X115584500Y-102529500D01*
X115584500Y-114003330D01*
X115584499Y-114003348D01*
X115584499Y-114170500D01*
X115564814Y-114237539D01*
X115512010Y-114283294D01*
X115460499Y-114294500D01*
X115324038Y-114294500D01*
X115199626Y-114314205D01*
X115075214Y-114333910D01*
X114986175Y-114362841D01*
X114893074Y-114393091D01*
X114823234Y-114395086D01*
X114767076Y-114362841D01*
X111636819Y-111232584D01*
X111603334Y-111171261D01*
X111600500Y-111144903D01*
X111600500Y-108499765D01*
X111620185Y-108432726D01*
X111621398Y-108430874D01*
X111709390Y-108299185D01*
X111709390Y-108299184D01*
X111709394Y-108299179D01*
X111710964Y-108295390D01*
X111747249Y-108207789D01*
X111769737Y-108153497D01*
X111796289Y-108020010D01*
X111828673Y-107958100D01*
X111889389Y-107923526D01*
X111959159Y-107927265D01*
X111965359Y-107929641D01*
X112132425Y-107998842D01*
X112185048Y-108020639D01*
X112470007Y-108096993D01*
X112762494Y-108135500D01*
X112762501Y-108135500D01*
X113057499Y-108135500D01*
X113057506Y-108135500D01*
X113349993Y-108096993D01*
X113634952Y-108020639D01*
X113907507Y-107907743D01*
X114162994Y-107760238D01*
X114397042Y-107580646D01*
X114605646Y-107372042D01*
X114785238Y-107137994D01*
X114932743Y-106882507D01*
X115045639Y-106609952D01*
X115121993Y-106324993D01*
X115160500Y-106032506D01*
X115160500Y-105737494D01*
X115121993Y-105445007D01*
X115045639Y-105160048D01*
X114932743Y-104887493D01*
X114882604Y-104800650D01*
X114785238Y-104632006D01*
X114605647Y-104397959D01*
X114605641Y-104397952D01*
X114397047Y-104189358D01*
X114397040Y-104189352D01*
X114162993Y-104009761D01*
X113907510Y-103862258D01*
X113907500Y-103862254D01*
X113634961Y-103749364D01*
X113634954Y-103749362D01*
X113634952Y-103749361D01*
X113349993Y-103673007D01*
X113301113Y-103666571D01*
X113057513Y-103634500D01*
X113057506Y-103634500D01*
X112762494Y-103634500D01*
X112762486Y-103634500D01*
X112484085Y-103671153D01*
X112470007Y-103673007D01*
X112295861Y-103719669D01*
X112185048Y-103749361D01*
X112185038Y-103749364D01*
X111912499Y-103862254D01*
X111912489Y-103862258D01*
X111657006Y-104009761D01*
X111422959Y-104189352D01*
X111422952Y-104189358D01*
X111214358Y-104397952D01*
X111214352Y-104397959D01*
X111034761Y-104632006D01*
X110887258Y-104887489D01*
X110887254Y-104887499D01*
X110774364Y-105160038D01*
X110774361Y-105160048D01*
X110698008Y-105445004D01*
X110698006Y-105445015D01*
X110659500Y-105737486D01*
X110659500Y-106032513D01*
X110687794Y-106247422D01*
X110698007Y-106324993D01*
X110772212Y-106601930D01*
X110774361Y-106609951D01*
X110774364Y-106609961D01*
X110887255Y-106882503D01*
X110887260Y-106882514D01*
X110926960Y-106951276D01*
X110943433Y-107019176D01*
X110920580Y-107085203D01*
X110865659Y-107128394D01*
X110843766Y-107134893D01*
X110766507Y-107150261D01*
X110766498Y-107150264D01*
X110620827Y-107210602D01*
X110620814Y-107210609D01*
X110489711Y-107298210D01*
X110489707Y-107298213D01*
X110378213Y-107409707D01*
X110378210Y-107409711D01*
X110290609Y-107540814D01*
X110290602Y-107540827D01*
X110230264Y-107686498D01*
X110230261Y-107686510D01*
X110199500Y-107841153D01*
X110199500Y-107998846D01*
X110230261Y-108153489D01*
X110230264Y-108153501D01*
X110290602Y-108299172D01*
X110290609Y-108299185D01*
X110378602Y-108430874D01*
X110399480Y-108497551D01*
X110399500Y-108499765D01*
X110399500Y-111358330D01*
X110399499Y-111358348D01*
X110399499Y-111524054D01*
X110399498Y-111524054D01*
X110440423Y-111676785D01*
X110469358Y-111726900D01*
X110469359Y-111726904D01*
X110469360Y-111726904D01*
X110519479Y-111813714D01*
X110519481Y-111813717D01*
X110638349Y-111932585D01*
X110638355Y-111932590D01*
X113917841Y-115212076D01*
X113951326Y-115273399D01*
X113948091Y-115338076D01*
X113888910Y-115520214D01*
X113849500Y-115769038D01*
X113849500Y-116020961D01*
X113888910Y-116269785D01*
X113966760Y-116509383D01*
X113980937Y-116537205D01*
X113993833Y-116605874D01*
X113967557Y-116670615D01*
X113910450Y-116710872D01*
X113870452Y-116717500D01*
X111854102Y-116717500D01*
X111787063Y-116697815D01*
X111766420Y-116681180D01*
X100966637Y-105881197D01*
X100883831Y-105798389D01*
X106729500Y-105798389D01*
X106729500Y-105971611D01*
X106756598Y-106142701D01*
X106810127Y-106307445D01*
X106888768Y-106461788D01*
X106990586Y-106601928D01*
X107113072Y-106724414D01*
X107253212Y-106826232D01*
X107407555Y-106904873D01*
X107572299Y-106958402D01*
X107743389Y-106985500D01*
X107743390Y-106985500D01*
X107916610Y-106985500D01*
X107916611Y-106985500D01*
X108087701Y-106958402D01*
X108252445Y-106904873D01*
X108406788Y-106826232D01*
X108546928Y-106724414D01*
X108669414Y-106601928D01*
X108771232Y-106461788D01*
X108849873Y-106307445D01*
X108903402Y-106142701D01*
X108930500Y-105971611D01*
X108930500Y-105798389D01*
X108903402Y-105627299D01*
X108849873Y-105462555D01*
X108771232Y-105308212D01*
X108669414Y-105168072D01*
X108616882Y-105115540D01*
X108583397Y-105054217D01*
X108588381Y-104984525D01*
X108630253Y-104928592D01*
X108695717Y-104904175D01*
X108723961Y-104905386D01*
X108974072Y-104945000D01*
X109225928Y-104945000D01*
X109474669Y-104905602D01*
X109714184Y-104827780D01*
X109938575Y-104713446D01*
X109938581Y-104713442D01*
X110040697Y-104639250D01*
X110040698Y-104639250D01*
X109424025Y-104022578D01*
X109455258Y-104009641D01*
X109578097Y-103927563D01*
X109682563Y-103823097D01*
X109764641Y-103700258D01*
X109777577Y-103669025D01*
X110394250Y-104285698D01*
X110394250Y-104285697D01*
X110468442Y-104183581D01*
X110468446Y-104183575D01*
X110582780Y-103959184D01*
X110660602Y-103719669D01*
X110700000Y-103470928D01*
X110700000Y-103219071D01*
X110660602Y-102970330D01*
X110582780Y-102730815D01*
X110468442Y-102506416D01*
X110394250Y-102404301D01*
X110394250Y-102404300D01*
X109777577Y-103020973D01*
X109764641Y-102989742D01*
X109682563Y-102866903D01*
X109578097Y-102762437D01*
X109455258Y-102680359D01*
X109424024Y-102667421D01*
X110040698Y-102050748D01*
X109938583Y-101976557D01*
X109714184Y-101862219D01*
X109474669Y-101784397D01*
X109225928Y-101745000D01*
X108974072Y-101745000D01*
X108725330Y-101784397D01*
X108485815Y-101862219D01*
X108261413Y-101976559D01*
X108159301Y-102050747D01*
X108159300Y-102050748D01*
X108775974Y-102667421D01*
X108744742Y-102680359D01*
X108621903Y-102762437D01*
X108517437Y-102866903D01*
X108435359Y-102989742D01*
X108422421Y-103020974D01*
X107805748Y-102404300D01*
X107805747Y-102404301D01*
X107731559Y-102506413D01*
X107617219Y-102730815D01*
X107539397Y-102970330D01*
X107500000Y-103219071D01*
X107500000Y-103470928D01*
X107539397Y-103719669D01*
X107617219Y-103959184D01*
X107731557Y-104183583D01*
X107805748Y-104285697D01*
X107805748Y-104285698D01*
X108422421Y-103669024D01*
X108435359Y-103700258D01*
X108517437Y-103823097D01*
X108621903Y-103927563D01*
X108744742Y-104009641D01*
X108775974Y-104022577D01*
X108159300Y-104639250D01*
X108161598Y-104668449D01*
X108147233Y-104736827D01*
X108098181Y-104786583D01*
X108030016Y-104801921D01*
X108018583Y-104800650D01*
X107916611Y-104784500D01*
X107743389Y-104784500D01*
X107703728Y-104790781D01*
X107572302Y-104811597D01*
X107407552Y-104865128D01*
X107253211Y-104943768D01*
X107197115Y-104984525D01*
X107113072Y-105045586D01*
X107113070Y-105045588D01*
X107113069Y-105045588D01*
X106990588Y-105168069D01*
X106990588Y-105168070D01*
X106990586Y-105168072D01*
X106952556Y-105220416D01*
X106888768Y-105308211D01*
X106810128Y-105462552D01*
X106756597Y-105627302D01*
X106729500Y-105798389D01*
X100883831Y-105798389D01*
X98696039Y-103610557D01*
X98662555Y-103549234D01*
X98667540Y-103479542D01*
X98687878Y-103444200D01*
X98691078Y-103440299D01*
X98691089Y-103440289D01*
X98778694Y-103309179D01*
X98839037Y-103163497D01*
X98869800Y-103008842D01*
X98869800Y-103008698D01*
X98870372Y-103006052D01*
X98886609Y-102976218D01*
X98902342Y-102946143D01*
X98903772Y-102944685D01*
X98903776Y-102944681D01*
X98903884Y-102944572D01*
X98981539Y-102866903D01*
X100064830Y-101783405D01*
X100064831Y-101783406D01*
X100064834Y-101783400D01*
X100121694Y-101726541D01*
X100122522Y-101725734D01*
X100122523Y-101725732D01*
X100122769Y-101725297D01*
X100161707Y-101657839D01*
X100161712Y-101657834D01*
X100161711Y-101657834D01*
X100176464Y-101632280D01*
X100201394Y-101589099D01*
X100201594Y-101588760D01*
X100201595Y-101588758D01*
X100201702Y-101588345D01*
X100222766Y-101509702D01*
X100222766Y-101509701D01*
X100222768Y-101509701D01*
X100222768Y-101509692D01*
X100242500Y-101436057D01*
X100242500Y-101436052D01*
X100242508Y-101435997D01*
X100242500Y-101351672D01*
X100242500Y-90708389D01*
X106729500Y-90708389D01*
X106729500Y-90881611D01*
X106756598Y-91052701D01*
X106810127Y-91217445D01*
X106888768Y-91371788D01*
X106990586Y-91511928D01*
X107113072Y-91634414D01*
X107253212Y-91736232D01*
X107407555Y-91814873D01*
X107572299Y-91868402D01*
X107743389Y-91895500D01*
X107743390Y-91895500D01*
X107916610Y-91895500D01*
X107916611Y-91895500D01*
X108087701Y-91868402D01*
X108252445Y-91814873D01*
X108406788Y-91736232D01*
X108546928Y-91634414D01*
X108669414Y-91511928D01*
X108771232Y-91371788D01*
X108849873Y-91217445D01*
X108903402Y-91052701D01*
X108930500Y-90881611D01*
X108930500Y-90708389D01*
X108920854Y-90647486D01*
X110659500Y-90647486D01*
X110659500Y-90942513D01*
X110691571Y-91186113D01*
X110698007Y-91234993D01*
X110772212Y-91511930D01*
X110774361Y-91519951D01*
X110774364Y-91519961D01*
X110887254Y-91792500D01*
X110887258Y-91792510D01*
X111034761Y-92047993D01*
X111214352Y-92282040D01*
X111214358Y-92282047D01*
X111422952Y-92490641D01*
X111422959Y-92490647D01*
X111657006Y-92670238D01*
X111912489Y-92817741D01*
X111912490Y-92817741D01*
X111912493Y-92817743D01*
X112185048Y-92930639D01*
X112470007Y-93006993D01*
X112762494Y-93045500D01*
X112762501Y-93045500D01*
X113057499Y-93045500D01*
X113057506Y-93045500D01*
X113349993Y-93006993D01*
X113634952Y-92930639D01*
X113907507Y-92817743D01*
X114162994Y-92670238D01*
X114397042Y-92490646D01*
X114605646Y-92282042D01*
X114785238Y-92047994D01*
X114932743Y-91792507D01*
X115045639Y-91519952D01*
X115121993Y-91234993D01*
X115160500Y-90942506D01*
X115160500Y-90708389D01*
X116889500Y-90708389D01*
X116889500Y-90881611D01*
X116916598Y-91052701D01*
X116970127Y-91217445D01*
X117048768Y-91371788D01*
X117150586Y-91511928D01*
X117273072Y-91634414D01*
X117413212Y-91736232D01*
X117567555Y-91814873D01*
X117732299Y-91868402D01*
X117903389Y-91895500D01*
X117903390Y-91895500D01*
X118076610Y-91895500D01*
X118076611Y-91895500D01*
X118247701Y-91868402D01*
X118412445Y-91814873D01*
X118566788Y-91736232D01*
X118706928Y-91634414D01*
X118829414Y-91511928D01*
X118931232Y-91371788D01*
X119009873Y-91217445D01*
X119063402Y-91052701D01*
X119090500Y-90881611D01*
X119090500Y-90708389D01*
X119063402Y-90537299D01*
X119009873Y-90372555D01*
X118931232Y-90218212D01*
X118829414Y-90078072D01*
X118706928Y-89955586D01*
X118566788Y-89853768D01*
X118412445Y-89775127D01*
X118247701Y-89721598D01*
X118247699Y-89721597D01*
X118247698Y-89721597D01*
X118116271Y-89700781D01*
X118076611Y-89694500D01*
X117903389Y-89694500D01*
X117863728Y-89700781D01*
X117732302Y-89721597D01*
X117567552Y-89775128D01*
X117413211Y-89853768D01*
X117357115Y-89894525D01*
X117273072Y-89955586D01*
X117273070Y-89955588D01*
X117273069Y-89955588D01*
X117150588Y-90078069D01*
X117150588Y-90078070D01*
X117150586Y-90078072D01*
X117106859Y-90138256D01*
X117048768Y-90218211D01*
X116970128Y-90372552D01*
X116916597Y-90537302D01*
X116889500Y-90708389D01*
X115160500Y-90708389D01*
X115160500Y-90647494D01*
X115121993Y-90355007D01*
X115045639Y-90070048D01*
X114932743Y-89797493D01*
X114909980Y-89758067D01*
X114785238Y-89542006D01*
X114605647Y-89307959D01*
X114605641Y-89307952D01*
X114397047Y-89099358D01*
X114397040Y-89099352D01*
X114162993Y-88919761D01*
X113907510Y-88772258D01*
X113907500Y-88772254D01*
X113634961Y-88659364D01*
X113634954Y-88659362D01*
X113634952Y-88659361D01*
X113349993Y-88583007D01*
X113301113Y-88576571D01*
X113057513Y-88544500D01*
X113057506Y-88544500D01*
X112762494Y-88544500D01*
X112762486Y-88544500D01*
X112484085Y-88581153D01*
X112470007Y-88583007D01*
X112295861Y-88629669D01*
X112185048Y-88659361D01*
X112185038Y-88659364D01*
X111912499Y-88772254D01*
X111912489Y-88772258D01*
X111657006Y-88919761D01*
X111422959Y-89099352D01*
X111422952Y-89099358D01*
X111214358Y-89307952D01*
X111214352Y-89307959D01*
X111034761Y-89542006D01*
X110887258Y-89797489D01*
X110887254Y-89797499D01*
X110774364Y-90070038D01*
X110774361Y-90070048D01*
X110754266Y-90145046D01*
X110698008Y-90355004D01*
X110698006Y-90355015D01*
X110659500Y-90647486D01*
X108920854Y-90647486D01*
X108903402Y-90537299D01*
X108849873Y-90372555D01*
X108771232Y-90218212D01*
X108669414Y-90078072D01*
X108616882Y-90025540D01*
X108583397Y-89964217D01*
X108588381Y-89894525D01*
X108630253Y-89838592D01*
X108695717Y-89814175D01*
X108723961Y-89815386D01*
X108974072Y-89855000D01*
X109225928Y-89855000D01*
X109474669Y-89815602D01*
X109714184Y-89737780D01*
X109938575Y-89623446D01*
X109938581Y-89623442D01*
X110040697Y-89549250D01*
X110040698Y-89549250D01*
X109424025Y-88932578D01*
X109455258Y-88919641D01*
X109578097Y-88837563D01*
X109682563Y-88733097D01*
X109764641Y-88610258D01*
X109777577Y-88579025D01*
X110394250Y-89195698D01*
X110394250Y-89195697D01*
X110468442Y-89093581D01*
X110468446Y-89093575D01*
X110582780Y-88869184D01*
X110660602Y-88629669D01*
X110700000Y-88380928D01*
X110700000Y-88129071D01*
X110660602Y-87880330D01*
X110582780Y-87640815D01*
X110468442Y-87416416D01*
X110394250Y-87314301D01*
X110394250Y-87314300D01*
X109777577Y-87930973D01*
X109764641Y-87899742D01*
X109682563Y-87776903D01*
X109578097Y-87672437D01*
X109455258Y-87590359D01*
X109424024Y-87577421D01*
X110040698Y-86960748D01*
X109938583Y-86886557D01*
X109714184Y-86772219D01*
X109474669Y-86694397D01*
X109225928Y-86655000D01*
X108974072Y-86655000D01*
X108725330Y-86694397D01*
X108485815Y-86772219D01*
X108261413Y-86886559D01*
X108159301Y-86960747D01*
X108159300Y-86960748D01*
X108775974Y-87577421D01*
X108744742Y-87590359D01*
X108621903Y-87672437D01*
X108517437Y-87776903D01*
X108435359Y-87899742D01*
X108422421Y-87930974D01*
X107805748Y-87314300D01*
X107805747Y-87314301D01*
X107731559Y-87416413D01*
X107617219Y-87640815D01*
X107539397Y-87880330D01*
X107500000Y-88129071D01*
X107500000Y-88380928D01*
X107539397Y-88629669D01*
X107617219Y-88869184D01*
X107731557Y-89093583D01*
X107805748Y-89195697D01*
X107805748Y-89195698D01*
X108422421Y-88579024D01*
X108435359Y-88610258D01*
X108517437Y-88733097D01*
X108621903Y-88837563D01*
X108744742Y-88919641D01*
X108775974Y-88932577D01*
X108159300Y-89549250D01*
X108161598Y-89578449D01*
X108147233Y-89646827D01*
X108098181Y-89696583D01*
X108030016Y-89711921D01*
X108018583Y-89710650D01*
X107916611Y-89694500D01*
X107743389Y-89694500D01*
X107703728Y-89700781D01*
X107572302Y-89721597D01*
X107407552Y-89775128D01*
X107253211Y-89853768D01*
X107197115Y-89894525D01*
X107113072Y-89955586D01*
X107113070Y-89955588D01*
X107113069Y-89955588D01*
X106990588Y-90078069D01*
X106990588Y-90078070D01*
X106990586Y-90078072D01*
X106946859Y-90138256D01*
X106888768Y-90218211D01*
X106810128Y-90372552D01*
X106756597Y-90537302D01*
X106729500Y-90708389D01*
X100242500Y-90708389D01*
X100242500Y-85589038D01*
X113849500Y-85589038D01*
X113849500Y-85840962D01*
X113867001Y-85951460D01*
X113888910Y-86089785D01*
X113966760Y-86329383D01*
X114081132Y-86553848D01*
X114229201Y-86757649D01*
X114229205Y-86757654D01*
X114407345Y-86935794D01*
X114407350Y-86935798D01*
X114501676Y-87004329D01*
X114611155Y-87083870D01*
X114754184Y-87156747D01*
X114835616Y-87198239D01*
X114835618Y-87198239D01*
X114835621Y-87198241D01*
X115075215Y-87276090D01*
X115324038Y-87315500D01*
X115324039Y-87315500D01*
X115575961Y-87315500D01*
X115575962Y-87315500D01*
X115824785Y-87276090D01*
X116064379Y-87198241D01*
X116288845Y-87083870D01*
X116492656Y-86935793D01*
X116670793Y-86757656D01*
X116818870Y-86553845D01*
X116933241Y-86329379D01*
X117011090Y-86089785D01*
X117050500Y-85840962D01*
X117050500Y-85589038D01*
X117011090Y-85340215D01*
X116933241Y-85100621D01*
X116933239Y-85100618D01*
X116933239Y-85100616D01*
X116845597Y-84928610D01*
X116818870Y-84876155D01*
X116799952Y-84850117D01*
X116670798Y-84672350D01*
X116670794Y-84672345D01*
X116492654Y-84494205D01*
X116492649Y-84494201D01*
X116288848Y-84346132D01*
X116288847Y-84346131D01*
X116288845Y-84346130D01*
X116218747Y-84310413D01*
X116064383Y-84231760D01*
X115824785Y-84153910D01*
X115575962Y-84114500D01*
X115324038Y-84114500D01*
X115199626Y-84134205D01*
X115075214Y-84153910D01*
X114835616Y-84231760D01*
X114611151Y-84346132D01*
X114407350Y-84494201D01*
X114407345Y-84494205D01*
X114229205Y-84672345D01*
X114229201Y-84672350D01*
X114081132Y-84876151D01*
X113966760Y-85100616D01*
X113888910Y-85340214D01*
X113866417Y-85482226D01*
X113849500Y-85589038D01*
X100242500Y-85589038D01*
X100242500Y-73007426D01*
X100262185Y-72940387D01*
X100314989Y-72894632D01*
X100384147Y-72884688D01*
X100404492Y-72890273D01*
X100404676Y-72889669D01*
X100410492Y-72891432D01*
X100410503Y-72891437D01*
X100565153Y-72922199D01*
X100565156Y-72922200D01*
X100565158Y-72922200D01*
X100722844Y-72922200D01*
X100722845Y-72922199D01*
X100877497Y-72891437D01*
X101023179Y-72831094D01*
X101154289Y-72743489D01*
X101265789Y-72631989D01*
X101353394Y-72500879D01*
X101413737Y-72355197D01*
X101444500Y-72200542D01*
X101444500Y-72042858D01*
X101444500Y-72042855D01*
X101444499Y-72042853D01*
X101430114Y-71970535D01*
X101413737Y-71888203D01*
X101412107Y-71884268D01*
X101353397Y-71742527D01*
X101353390Y-71742514D01*
X101265789Y-71611411D01*
X101265786Y-71611407D01*
X101153819Y-71499440D01*
X101120334Y-71438117D01*
X101117500Y-71411759D01*
X101117500Y-61513997D01*
X101137185Y-61446958D01*
X101153819Y-61426316D01*
X101499634Y-61080501D01*
X102724720Y-59855416D01*
X102803777Y-59718484D01*
X102844701Y-59565757D01*
X102844701Y-59407642D01*
X102844701Y-59400047D01*
X102844700Y-59400029D01*
X102844700Y-54662065D01*
X102864385Y-54595026D01*
X102865598Y-54593174D01*
X102953590Y-54461485D01*
X102953590Y-54461484D01*
X102953594Y-54461479D01*
X103013937Y-54315797D01*
X103044700Y-54161142D01*
X103044700Y-54003458D01*
X103044700Y-54003455D01*
X103044699Y-54003453D01*
X103013938Y-53848810D01*
X103013937Y-53848803D01*
X102973670Y-53751588D01*
X102953597Y-53703127D01*
X102953590Y-53703114D01*
X102865989Y-53572011D01*
X102865986Y-53572007D01*
X102754492Y-53460513D01*
X102754488Y-53460510D01*
X102623385Y-53372909D01*
X102623372Y-53372902D01*
X102477701Y-53312564D01*
X102477689Y-53312561D01*
X102323045Y-53281800D01*
X102323042Y-53281800D01*
X102165358Y-53281800D01*
X102165355Y-53281800D01*
X102010710Y-53312561D01*
X102010698Y-53312564D01*
X101865027Y-53372902D01*
X101865014Y-53372909D01*
X101733911Y-53460510D01*
X101733907Y-53460513D01*
X101622413Y-53572007D01*
X101622410Y-53572011D01*
X101534809Y-53703114D01*
X101534802Y-53703127D01*
X101474464Y-53848798D01*
X101474461Y-53848810D01*
X101443700Y-54003453D01*
X101443700Y-54161146D01*
X101474461Y-54315789D01*
X101474464Y-54315801D01*
X101534802Y-54461472D01*
X101534809Y-54461485D01*
X101622802Y-54593174D01*
X101643680Y-54659851D01*
X101643700Y-54662065D01*
X101643700Y-59186602D01*
X101624015Y-59253641D01*
X101607381Y-59274283D01*
X100454181Y-60427483D01*
X100392858Y-60460968D01*
X100323166Y-60455984D01*
X100267233Y-60414112D01*
X100242816Y-60348648D01*
X100242500Y-60339802D01*
X100242500Y-57551345D01*
X100242500Y-57551343D01*
X100201577Y-57398616D01*
X100130742Y-57275925D01*
X100122524Y-57261690D01*
X100122518Y-57261682D01*
X100010717Y-57149881D01*
X100010709Y-57149875D01*
X99873790Y-57070826D01*
X99873786Y-57070824D01*
X99873784Y-57070823D01*
X99721057Y-57029900D01*
X99568800Y-57029900D01*
X99501761Y-57010215D01*
X99456006Y-56957411D01*
X99444800Y-56905900D01*
X99444800Y-54774497D01*
X99464485Y-54707458D01*
X99481119Y-54686816D01*
X99852146Y-54315789D01*
X100502364Y-53665571D01*
X100563685Y-53632088D01*
X100565852Y-53631637D01*
X100566541Y-53631500D01*
X100566542Y-53631500D01*
X100721197Y-53600737D01*
X100866879Y-53540394D01*
X100997989Y-53452789D01*
X101109489Y-53341289D01*
X101197094Y-53210179D01*
X101257437Y-53064497D01*
X101288200Y-52909842D01*
X101288200Y-52752158D01*
X101288200Y-52752155D01*
X101288199Y-52752153D01*
X101257438Y-52597510D01*
X101257437Y-52597503D01*
X101217859Y-52501952D01*
X101210390Y-52432483D01*
X101241665Y-52370004D01*
X101301754Y-52334352D01*
X101332420Y-52330500D01*
X123214281Y-52330500D01*
X123281320Y-52350185D01*
X123324765Y-52398205D01*
X123344947Y-52437814D01*
X123344948Y-52437815D01*
X123469890Y-52609786D01*
X123620213Y-52760109D01*
X123792182Y-52885050D01*
X123800946Y-52889516D01*
X123851742Y-52937491D01*
X123868536Y-53005312D01*
X123845998Y-53071447D01*
X123800946Y-53110484D01*
X123792182Y-53114949D01*
X123620213Y-53239890D01*
X123469890Y-53390213D01*
X123344951Y-53562179D01*
X123248444Y-53751585D01*
X123182753Y-53953760D01*
X123174882Y-54003458D01*
X123149500Y-54163713D01*
X123149500Y-54376287D01*
X123182754Y-54586243D01*
X123196500Y-54628548D01*
X123198495Y-54698388D01*
X123166252Y-54754545D01*
X113318369Y-64602794D01*
X113237479Y-64683684D01*
X113237474Y-64683691D01*
X113236286Y-64685664D01*
X113235616Y-64686911D01*
X113212816Y-64726403D01*
X113158423Y-64820616D01*
X113158422Y-64820618D01*
X113158419Y-64820627D01*
X113134592Y-64909552D01*
X113117498Y-64973348D01*
X113117500Y-65078764D01*
X113117500Y-75800334D01*
X113097815Y-75867373D01*
X113096602Y-75869225D01*
X113008609Y-76000914D01*
X113008602Y-76000927D01*
X112948264Y-76146598D01*
X112948261Y-76146610D01*
X112917500Y-76301253D01*
X112917500Y-76458946D01*
X112948261Y-76613589D01*
X112948264Y-76613601D01*
X113008602Y-76759272D01*
X113008609Y-76759285D01*
X113096210Y-76890388D01*
X113096213Y-76890392D01*
X113207707Y-77001886D01*
X113207711Y-77001889D01*
X113338814Y-77089490D01*
X113338827Y-77089497D01*
X113484498Y-77149835D01*
X113484503Y-77149837D01*
X113639153Y-77180599D01*
X113639156Y-77180600D01*
X113639158Y-77180600D01*
X113796844Y-77180600D01*
X113796845Y-77180599D01*
X113951497Y-77149837D01*
X114097179Y-77089494D01*
X114228289Y-77001889D01*
X114339789Y-76890389D01*
X114427394Y-76759279D01*
X114487737Y-76613597D01*
X114518500Y-76458942D01*
X114518500Y-76301258D01*
X114518500Y-76301255D01*
X114518499Y-76301253D01*
X114487738Y-76146610D01*
X114487737Y-76146603D01*
X114487735Y-76146598D01*
X114427397Y-76000927D01*
X114427390Y-76000914D01*
X114339398Y-75869225D01*
X114318520Y-75802547D01*
X114318500Y-75800334D01*
X114318500Y-65352490D01*
X114338185Y-65285451D01*
X114354814Y-65264813D01*
X115517449Y-64102135D01*
X145249500Y-64102135D01*
X145249500Y-66697870D01*
X145249501Y-66697876D01*
X145255908Y-66757483D01*
X145306202Y-66892328D01*
X145306206Y-66892335D01*
X145392452Y-67007544D01*
X145392455Y-67007547D01*
X145507664Y-67093793D01*
X145507671Y-67093797D01*
X145642517Y-67144091D01*
X145642516Y-67144091D01*
X145649444Y-67144835D01*
X145702127Y-67150500D01*
X148797872Y-67150499D01*
X148857483Y-67144091D01*
X148992331Y-67093796D01*
X149107546Y-67007546D01*
X149193796Y-66892331D01*
X149244091Y-66757483D01*
X149250500Y-66697873D01*
X149250499Y-64102128D01*
X149244091Y-64042517D01*
X149193796Y-63907669D01*
X149193795Y-63907668D01*
X149193793Y-63907664D01*
X149107547Y-63792455D01*
X149107544Y-63792452D01*
X148992335Y-63706206D01*
X148992328Y-63706202D01*
X148857482Y-63655908D01*
X148857483Y-63655908D01*
X148797883Y-63649501D01*
X148797881Y-63649500D01*
X148797873Y-63649500D01*
X148797864Y-63649500D01*
X145702129Y-63649500D01*
X145702123Y-63649501D01*
X145642516Y-63655908D01*
X145507671Y-63706202D01*
X145507664Y-63706206D01*
X145392455Y-63792452D01*
X145392452Y-63792455D01*
X145306206Y-63907664D01*
X145306202Y-63907671D01*
X145255908Y-64042517D01*
X145249501Y-64102116D01*
X145249501Y-64102123D01*
X145249500Y-64102135D01*
X115517449Y-64102135D01*
X123022986Y-56596318D01*
X123084307Y-56562834D01*
X123110667Y-56560000D01*
X124066988Y-56560000D01*
X124034075Y-56617007D01*
X124000000Y-56744174D01*
X124000000Y-56875826D01*
X124034075Y-57002993D01*
X124066988Y-57060000D01*
X123150001Y-57060000D01*
X123150001Y-57544162D01*
X123156132Y-57611651D01*
X123156134Y-57611658D01*
X123204537Y-57766989D01*
X123204540Y-57766998D01*
X123288710Y-57906233D01*
X123288713Y-57906237D01*
X123403762Y-58021286D01*
X123403766Y-58021289D01*
X123543001Y-58105459D01*
X123543007Y-58105461D01*
X123698337Y-58153864D01*
X123698344Y-58153865D01*
X123765848Y-58159999D01*
X124249999Y-58159999D01*
X124250000Y-58159998D01*
X124250000Y-57243012D01*
X124307007Y-57275925D01*
X124434174Y-57310000D01*
X124565826Y-57310000D01*
X124692993Y-57275925D01*
X124750000Y-57243012D01*
X124750000Y-58159999D01*
X125234161Y-58159999D01*
X125301651Y-58153867D01*
X125301658Y-58153865D01*
X125456989Y-58105462D01*
X125456998Y-58105459D01*
X125596233Y-58021289D01*
X125596237Y-58021286D01*
X125711286Y-57906237D01*
X125711289Y-57906233D01*
X125795459Y-57766998D01*
X125795461Y-57766992D01*
X125843864Y-57611662D01*
X125843865Y-57611655D01*
X125850000Y-57544151D01*
X125850000Y-57060000D01*
X124933012Y-57060000D01*
X124965925Y-57002993D01*
X125000000Y-56875826D01*
X125000000Y-56744174D01*
X124965925Y-56617007D01*
X124933012Y-56560000D01*
X125849999Y-56560000D01*
X125849999Y-56075837D01*
X125843867Y-56008348D01*
X125843865Y-56008341D01*
X125795462Y-55853010D01*
X125795459Y-55853001D01*
X125711289Y-55713766D01*
X125711286Y-55713762D01*
X125596237Y-55598713D01*
X125596233Y-55598710D01*
X125456998Y-55514540D01*
X125456993Y-55514538D01*
X125430475Y-55506275D01*
X125372328Y-55467536D01*
X125344355Y-55403510D01*
X125355437Y-55334525D01*
X125379686Y-55300208D01*
X125379784Y-55300109D01*
X125379792Y-55300104D01*
X125530104Y-55149792D01*
X125655051Y-54977816D01*
X125751557Y-54788412D01*
X125817246Y-54586243D01*
X125850500Y-54376287D01*
X125850500Y-54163713D01*
X125817246Y-53953757D01*
X125751557Y-53751588D01*
X125655051Y-53562184D01*
X125655049Y-53562181D01*
X125655048Y-53562179D01*
X125530109Y-53390213D01*
X125379786Y-53239890D01*
X125207820Y-53114951D01*
X125207115Y-53114591D01*
X125199054Y-53110485D01*
X125148259Y-53062512D01*
X125131463Y-52994692D01*
X125153999Y-52928556D01*
X125199054Y-52889515D01*
X125207816Y-52885051D01*
X125229789Y-52869086D01*
X125379786Y-52760109D01*
X125379788Y-52760106D01*
X125379792Y-52760104D01*
X125530104Y-52609792D01*
X125530106Y-52609788D01*
X125530109Y-52609786D01*
X125655048Y-52437820D01*
X125655047Y-52437820D01*
X125655051Y-52437816D01*
X125751557Y-52248412D01*
X125817246Y-52046243D01*
X125850500Y-51836287D01*
X125850500Y-51623713D01*
X125817246Y-51413757D01*
X125751557Y-51211588D01*
X125655051Y-51022184D01*
X125655049Y-51022181D01*
X125655048Y-51022179D01*
X125530109Y-50850213D01*
X125379786Y-50699890D01*
X125207820Y-50574951D01*
X125207115Y-50574591D01*
X125199054Y-50570485D01*
X125148259Y-50522512D01*
X125131463Y-50454692D01*
X125153999Y-50388556D01*
X125199054Y-50349515D01*
X125207816Y-50345051D01*
X125229789Y-50329086D01*
X125379786Y-50220109D01*
X125379788Y-50220106D01*
X125379792Y-50220104D01*
X125530104Y-50069792D01*
X125530106Y-50069788D01*
X125530109Y-50069786D01*
X125655048Y-49897820D01*
X125655047Y-49897820D01*
X125655051Y-49897816D01*
X125751557Y-49708412D01*
X125817246Y-49506243D01*
X125850500Y-49296287D01*
X125850500Y-49083713D01*
X125817246Y-48873757D01*
X125751557Y-48671588D01*
X125655051Y-48482184D01*
X125655049Y-48482181D01*
X125655048Y-48482179D01*
X125530109Y-48310213D01*
X125379786Y-48159890D01*
X125207820Y-48034951D01*
X125018414Y-47938444D01*
X125018413Y-47938443D01*
X125018412Y-47938443D01*
X124816243Y-47872754D01*
X124816241Y-47872753D01*
X124816240Y-47872753D01*
X124654957Y-47847208D01*
X124606287Y-47839500D01*
X124393713Y-47839500D01*
X124345042Y-47847208D01*
X124183760Y-47872753D01*
X123981585Y-47938444D01*
X123792179Y-48034951D01*
X123620213Y-48159890D01*
X123469890Y-48310213D01*
X123344948Y-48482184D01*
X123344947Y-48482185D01*
X123324765Y-48521795D01*
X123276791Y-48572591D01*
X123214281Y-48589500D01*
X102629007Y-48589500D01*
X102615829Y-48589499D01*
X102549949Y-48589499D01*
X102549948Y-48589499D01*
X102549944Y-48589499D01*
X102476750Y-48609110D01*
X102476750Y-48609111D01*
X102457799Y-48614188D01*
X102397229Y-48630418D01*
X102397215Y-48630423D01*
X102397198Y-48630432D01*
X102260284Y-48709479D01*
X102162492Y-48807271D01*
X102162491Y-48807271D01*
X87560320Y-63409145D01*
X87560313Y-63409150D01*
X87560314Y-63409151D01*
X87555987Y-63413478D01*
X87555984Y-63413480D01*
X87493082Y-63476381D01*
X87493081Y-63476382D01*
X87493080Y-63476381D01*
X87444185Y-63525278D01*
X87444181Y-63525281D01*
X87444180Y-63525283D01*
X87388384Y-63621925D01*
X87372467Y-63649495D01*
X87372465Y-63649499D01*
X87365124Y-63662213D01*
X87365123Y-63662215D01*
X87365123Y-63662216D01*
X87353337Y-63706204D01*
X87346133Y-63733089D01*
X87346132Y-63733091D01*
X87324200Y-63814936D01*
X87324199Y-63814936D01*
X87324199Y-63983039D01*
X87324200Y-63983052D01*
X87324200Y-98883930D01*
X87324199Y-98883948D01*
X87324199Y-99049654D01*
X87324198Y-99049654D01*
X80750000Y-99049654D01*
X80750000Y-42398543D01*
X94359499Y-42398543D01*
X94397947Y-42591829D01*
X94397950Y-42591839D01*
X94473364Y-42773907D01*
X94473371Y-42773920D01*
X94582860Y-42937781D01*
X94582863Y-42937785D01*
X94722214Y-43077136D01*
X94722218Y-43077139D01*
X94886079Y-43186628D01*
X94886092Y-43186635D01*
X95068160Y-43262049D01*
X95068165Y-43262051D01*
X95068169Y-43262051D01*
X95068170Y-43262052D01*
X95261456Y-43300500D01*
X95261459Y-43300500D01*
X95458543Y-43300500D01*
X95588582Y-43274632D01*
X95651835Y-43262051D01*
X95833914Y-43186632D01*
X95997782Y-43077139D01*
X96137139Y-42937782D01*
X96246632Y-42773914D01*
X96322051Y-42591835D01*
X96360500Y-42398543D01*
X102999499Y-42398543D01*
X103037947Y-42591829D01*
X103037950Y-42591839D01*
X103113364Y-42773907D01*
X103113371Y-42773920D01*
X103222860Y-42937781D01*
X103222863Y-42937785D01*
X103362214Y-43077136D01*
X103362218Y-43077139D01*
X103526079Y-43186628D01*
X103526092Y-43186635D01*
X103708160Y-43262049D01*
X103708165Y-43262051D01*
X103708169Y-43262051D01*
X103708170Y-43262052D01*
X103901456Y-43300500D01*
X103901459Y-43300500D01*
X104098543Y-43300500D01*
X104228582Y-43274632D01*
X104291835Y-43262051D01*
X104473914Y-43186632D01*
X104637782Y-43077139D01*
X104777139Y-42937782D01*
X104886632Y-42773914D01*
X104962051Y-42591835D01*
X105000500Y-42398541D01*
X105000500Y-41601459D01*
X105000500Y-41601456D01*
X104962052Y-41408170D01*
X104962051Y-41408169D01*
X104962051Y-41408165D01*
X104962049Y-41408160D01*
X104886635Y-41226092D01*
X104886628Y-41226079D01*
X104777139Y-41062218D01*
X104777136Y-41062214D01*
X104637785Y-40922863D01*
X104637781Y-40922860D01*
X104473920Y-40813371D01*
X104473907Y-40813364D01*
X104291839Y-40737950D01*
X104291829Y-40737947D01*
X104098543Y-40699500D01*
X104098541Y-40699500D01*
X103901459Y-40699500D01*
X103901457Y-40699500D01*
X103708170Y-40737947D01*
X103708160Y-40737950D01*
X103526092Y-40813364D01*
X103526079Y-40813371D01*
X103362218Y-40922860D01*
X103362214Y-40922863D01*
X103222863Y-41062214D01*
X103222860Y-41062218D01*
X103113371Y-41226079D01*
X103113364Y-41226092D01*
X103037950Y-41408160D01*
X103037947Y-41408170D01*
X102999500Y-41601456D01*
X102999500Y-41601459D01*
X102999500Y-42398541D01*
X102999500Y-42398543D01*
X102999499Y-42398543D01*
X96360500Y-42398543D01*
X96360500Y-42398541D01*
X96360500Y-41601459D01*
X96360500Y-41601456D01*
X96322052Y-41408170D01*
X96322051Y-41408169D01*
X96322051Y-41408165D01*
X96322049Y-41408160D01*
X96246635Y-41226092D01*
X96246628Y-41226079D01*
X96137139Y-41062218D01*
X96137136Y-41062214D01*
X95997785Y-40922863D01*
X95997781Y-40922860D01*
X95833920Y-40813371D01*
X95833907Y-40813364D01*
X95651839Y-40737950D01*
X95651829Y-40737947D01*
X95458543Y-40699500D01*
X95458541Y-40699500D01*
X95261459Y-40699500D01*
X95261457Y-40699500D01*
X95068170Y-40737947D01*
X95068160Y-40737950D01*
X94886092Y-40813364D01*
X94886079Y-40813371D01*
X94722218Y-40922860D01*
X94722214Y-40922863D01*
X94582863Y-41062214D01*
X94582860Y-41062218D01*
X94473371Y-41226079D01*
X94473364Y-41226092D01*
X94397950Y-41408160D01*
X94397947Y-41408170D01*
X94359500Y-41601456D01*
X94359500Y-41601459D01*
X94359500Y-42398541D01*
X94359500Y-42398543D01*
X94359499Y-42398543D01*
X80750000Y-42398543D01*
X80750000Y-39119197D01*
X80769685Y-39052158D01*
X80822489Y-39006403D01*
X80869101Y-38995294D01*
X94252434Y-38466570D01*
X94320193Y-38483591D01*
X94367997Y-38534548D01*
X94378941Y-38566280D01*
X94397947Y-38661829D01*
X94397950Y-38661839D01*
X94473364Y-38843907D01*
X94473371Y-38843920D01*
X94582860Y-39007781D01*
X94582863Y-39007785D01*
X94722214Y-39147136D01*
X94722218Y-39147139D01*
X94886079Y-39256628D01*
X94886092Y-39256635D01*
X95014064Y-39309642D01*
X95068165Y-39332051D01*
X95068169Y-39332051D01*
X95068170Y-39332052D01*
X95261456Y-39370500D01*
X95261459Y-39370500D01*
X95458543Y-39370500D01*
X95588582Y-39344632D01*
X95651835Y-39332051D01*
X95833914Y-39256632D01*
X95997782Y-39147139D01*
X96137139Y-39007782D01*
X96246632Y-38843914D01*
X96246631Y-38843914D01*
X96250017Y-38838848D01*
X96251474Y-38839821D01*
X96294595Y-38795903D01*
X96362729Y-38780426D01*
X96428414Y-38804242D01*
X96430502Y-38805809D01*
X96436632Y-38810512D01*
X96436635Y-38810515D01*
X96567865Y-38886281D01*
X96714234Y-38925500D01*
X96714236Y-38925500D01*
X96865764Y-38925500D01*
X96865766Y-38925500D01*
X97012135Y-38886281D01*
X97143365Y-38810515D01*
X97250515Y-38703365D01*
X97326281Y-38572135D01*
X97364122Y-38430907D01*
X97400486Y-38371249D01*
X97463332Y-38340720D01*
X97478982Y-38339101D01*
X99466783Y-38260571D01*
X99534545Y-38277593D01*
X99582349Y-38328550D01*
X99595015Y-38397262D01*
X99568521Y-38461914D01*
X99519129Y-38499035D01*
X99465123Y-38521404D01*
X99465114Y-38521409D01*
X99334011Y-38609010D01*
X99334007Y-38609013D01*
X99222513Y-38720507D01*
X99222510Y-38720511D01*
X99134909Y-38851614D01*
X99134902Y-38851627D01*
X99074564Y-38997298D01*
X99074561Y-38997310D01*
X99043800Y-39151953D01*
X99043800Y-39309646D01*
X99074561Y-39464289D01*
X99074564Y-39464301D01*
X99134902Y-39609972D01*
X99134909Y-39609985D01*
X99222510Y-39741088D01*
X99222513Y-39741092D01*
X99334007Y-39852586D01*
X99334011Y-39852589D01*
X99465114Y-39940190D01*
X99465127Y-39940197D01*
X99610798Y-40000535D01*
X99610803Y-40000537D01*
X99765453Y-40031299D01*
X99765456Y-40031300D01*
X99765458Y-40031300D01*
X99923144Y-40031300D01*
X99923145Y-40031299D01*
X100077797Y-40000537D01*
X100223479Y-39940194D01*
X100354589Y-39852589D01*
X100466089Y-39741089D01*
X100553694Y-39609979D01*
X100569589Y-39571604D01*
X100613429Y-39517202D01*
X100679723Y-39495136D01*
X100747422Y-39512414D01*
X100795033Y-39563551D01*
X100798712Y-39571606D01*
X100807605Y-39593078D01*
X100807609Y-39593085D01*
X100895210Y-39724188D01*
X100895213Y-39724192D01*
X101006707Y-39835686D01*
X101006711Y-39835689D01*
X101137814Y-39923290D01*
X101137827Y-39923297D01*
X101283498Y-39983635D01*
X101283503Y-39983637D01*
X101438153Y-40014399D01*
X101438156Y-40014400D01*
X101438158Y-40014400D01*
X101595844Y-40014400D01*
X101595845Y-40014399D01*
X101750497Y-39983637D01*
X101896179Y-39923294D01*
X102027289Y-39835689D01*
X102138789Y-39724189D01*
X102226394Y-39593079D01*
X102286737Y-39447397D01*
X102317500Y-39292742D01*
X102317500Y-39135058D01*
X102317500Y-39135055D01*
X102302422Y-39059257D01*
X102308649Y-38989666D01*
X102351511Y-38934488D01*
X102417401Y-38911243D01*
X102456126Y-38915289D01*
X102494234Y-38925500D01*
X102494237Y-38925500D01*
X102645764Y-38925500D01*
X102645766Y-38925500D01*
X102792135Y-38886281D01*
X102923365Y-38810515D01*
X102923374Y-38810505D01*
X102929488Y-38805815D01*
X102994656Y-38780617D01*
X103063101Y-38794650D01*
X103109025Y-38839488D01*
X103109983Y-38838849D01*
X103113009Y-38843378D01*
X103113094Y-38843461D01*
X103113228Y-38843706D01*
X103222860Y-39007781D01*
X103222863Y-39007785D01*
X103362214Y-39147136D01*
X103362218Y-39147139D01*
X103526079Y-39256628D01*
X103526092Y-39256635D01*
X103654064Y-39309642D01*
X103708165Y-39332051D01*
X103708169Y-39332051D01*
X103708170Y-39332052D01*
X103901456Y-39370500D01*
X103901459Y-39370500D01*
X104098543Y-39370500D01*
X104228582Y-39344632D01*
X104291835Y-39332051D01*
X104473914Y-39256632D01*
X104637782Y-39147139D01*
X104777139Y-39007782D01*
X104886632Y-38843914D01*
X104962051Y-38661835D01*
X104975920Y-38592110D01*
X105000500Y-38468543D01*
X105000500Y-38161152D01*
X105020185Y-38094113D01*
X105072989Y-38048358D01*
X105119599Y-38037250D01*
X181869859Y-35005141D01*
X181937622Y-35022163D01*
G37*
%TD.AperFunction*%
%TD*%
M02*
